%TF.GenerationSoftware,KiCad,Pcbnew,9.0.8*%
%TF.CreationDate,2026-04-09T13:17:56-07:00*%
%TF.ProjectId,Untitled,556e7469-746c-4656-942e-6b696361645f,rev?*%
%TF.SameCoordinates,Original*%
%TF.FileFunction,Legend,Top*%
%TF.FilePolarity,Positive*%
%FSLAX46Y46*%
G04 Gerber Fmt 4.6, Leading zero omitted, Abs format (unit mm)*
G04 Created by KiCad (PCBNEW 9.0.8) date 2026-04-09 13:17:56*
%MOMM*%
%LPD*%
G01*
G04 APERTURE LIST*
%ADD10C,0.100000*%
%ADD11C,0.150000*%
%ADD12C,0.300000*%
%ADD13C,0.152400*%
%ADD14C,0.000000*%
%ADD15C,0.120000*%
G04 APERTURE END LIST*
D10*
X170570000Y-64910000D02*
X170566400Y-64906036D01*
X170562764Y-64902063D01*
X170559102Y-64898090D01*
X170555404Y-64894108D01*
X170551680Y-64890127D01*
X170547920Y-64886139D01*
X170544135Y-64882152D01*
X170540315Y-64878158D01*
X170536471Y-64874167D01*
X170532591Y-64870169D01*
X170528688Y-64866175D01*
X170524750Y-64862174D01*
X170520788Y-64858178D01*
X170516793Y-64854177D01*
X170512774Y-64850181D01*
X170508722Y-64846179D01*
X170504647Y-64842184D01*
X170500539Y-64838184D01*
X170496409Y-64834191D01*
X170492246Y-64830193D01*
X170488062Y-64826204D01*
X170483844Y-64822210D01*
X170479607Y-64818226D01*
X170475337Y-64814237D01*
X170471047Y-64810258D01*
X170466724Y-64806276D01*
X170462382Y-64802304D01*
X170458008Y-64798329D01*
X170453616Y-64794365D01*
X170449191Y-64790399D01*
X170444748Y-64786444D01*
X170440274Y-64782487D01*
X170435782Y-64778542D01*
X170431258Y-64774596D01*
X170426718Y-64770662D01*
X170422146Y-64766727D01*
X170417559Y-64762805D01*
X170412940Y-64758882D01*
X170408305Y-64754973D01*
X170403639Y-64751063D01*
X170398959Y-64747168D01*
X170394247Y-64743273D01*
X170389522Y-64739392D01*
X170384765Y-64735512D01*
X170379994Y-64731646D01*
X170375193Y-64727782D01*
X170370379Y-64723932D01*
X170365534Y-64720084D01*
X170360677Y-64716252D01*
X170355789Y-64712421D01*
X170350889Y-64708606D01*
X170345959Y-64704794D01*
X170341017Y-64700997D01*
X170336045Y-64697203D01*
X170331062Y-64693426D01*
X170326049Y-64689651D01*
X170321026Y-64685893D01*
X170315973Y-64682139D01*
X170310909Y-64678401D01*
X170305816Y-64674667D01*
X170300714Y-64670951D01*
X170295582Y-64667238D01*
X170290440Y-64663543D01*
X170285270Y-64659852D01*
X170280090Y-64656179D01*
X170274882Y-64652511D01*
X170269664Y-64648860D01*
X170264419Y-64645214D01*
X170259164Y-64641587D01*
X170253882Y-64637965D01*
X170248591Y-64634361D01*
X170243272Y-64630763D01*
X170237945Y-64627183D01*
X170232591Y-64623609D01*
X170227228Y-64620054D01*
X170221839Y-64616505D01*
X170216441Y-64612975D01*
X170211017Y-64609451D01*
X170205585Y-64605947D01*
X170200126Y-64602449D01*
X170194660Y-64598970D01*
X170189168Y-64595498D01*
X170183669Y-64592045D01*
X170178143Y-64588600D01*
X170172610Y-64585174D01*
X170167051Y-64581755D01*
X170161486Y-64578357D01*
X170155895Y-64574965D01*
X170150298Y-64571594D01*
X170144674Y-64568230D01*
X170139045Y-64564886D01*
X170133390Y-64561550D01*
X170127730Y-64558235D01*
X170122044Y-64554927D01*
X170116352Y-64551640D01*
X170110635Y-64548361D01*
X170104913Y-64545102D01*
X170099166Y-64541852D01*
X170093413Y-64538623D01*
X170087636Y-64535402D01*
X170081853Y-64532201D01*
X170076046Y-64529010D01*
X170070234Y-64525839D01*
X170064398Y-64522678D01*
X170058557Y-64519536D01*
X170052691Y-64516405D01*
X170046821Y-64513294D01*
X170040927Y-64510192D01*
X170035029Y-64507112D01*
X170029106Y-64504041D01*
X170023179Y-64500991D01*
X170017228Y-64497951D01*
X170011274Y-64494931D01*
X170005295Y-64491922D01*
X169999313Y-64488934D01*
X169993307Y-64485956D01*
X169987298Y-64482998D01*
X169981265Y-64480052D01*
X169975228Y-64477126D01*
X169969168Y-64474211D01*
X169963105Y-64471317D01*
X169957018Y-64468434D01*
X169950929Y-64465571D01*
X169944816Y-64462720D01*
X169938700Y-64459890D01*
X169932560Y-64457071D01*
X169926418Y-64454273D01*
X169920254Y-64451486D01*
X169914086Y-64448720D01*
X169907895Y-64445966D01*
X169901702Y-64443233D01*
X169895486Y-64440512D01*
X169889267Y-64437811D01*
X169883026Y-64435123D01*
X169876783Y-64432455D01*
X169870517Y-64429800D01*
X169864248Y-64427165D01*
X169857958Y-64424543D01*
X169851664Y-64421941D01*
X169845349Y-64419352D01*
X169839032Y-64416784D01*
X169832692Y-64414228D01*
X169826350Y-64411694D01*
X169819987Y-64409172D01*
X169813621Y-64406671D01*
X169807233Y-64404182D01*
X169800844Y-64401715D01*
X169794432Y-64399261D01*
X169788019Y-64396827D01*
X169781584Y-64394407D01*
X169775147Y-64392007D01*
X169768689Y-64389621D01*
X169762229Y-64387256D01*
X169755747Y-64384904D01*
X169749264Y-64382572D01*
X169742759Y-64380255D01*
X169736253Y-64377958D01*
X169729725Y-64375675D01*
X169723196Y-64373413D01*
X169716646Y-64371164D01*
X169710094Y-64368936D01*
X169703521Y-64366723D01*
X169696946Y-64364530D01*
X169690351Y-64362351D01*
X169683754Y-64360192D01*
X169677137Y-64358048D01*
X169670517Y-64355925D01*
X169663877Y-64353816D01*
X169657236Y-64351727D01*
X169650574Y-64349654D01*
X169643910Y-64347600D01*
X169637226Y-64345562D01*
X169630541Y-64343544D01*
X169623835Y-64341541D01*
X169617128Y-64339558D01*
X169610400Y-64337590D01*
X169603671Y-64335642D01*
X169596922Y-64333710D01*
X169590172Y-64331798D01*
X169583401Y-64329902D01*
X169576629Y-64328025D01*
X169569837Y-64326164D01*
X169563043Y-64324324D01*
X169556230Y-64322499D01*
X169550000Y-64320848D01*
X173132085Y-65772185D02*
X173132310Y-65785818D01*
X173132455Y-65799459D01*
X173132520Y-65813109D01*
X173132505Y-65826769D01*
X173132411Y-65840442D01*
X173132237Y-65854128D01*
X173131983Y-65867828D01*
X173131648Y-65881546D01*
X173131234Y-65895281D01*
X173130739Y-65909035D01*
X173130163Y-65922811D01*
X173129507Y-65936609D01*
X173128769Y-65950432D01*
X173127950Y-65964280D01*
X173127050Y-65978157D01*
X173126068Y-65992063D01*
X173125003Y-66006000D01*
X173123856Y-66019971D01*
X173122626Y-66033977D01*
X173121313Y-66048020D01*
X173119916Y-66062102D01*
X173118434Y-66076226D01*
X173116868Y-66090394D01*
X173115217Y-66104607D01*
X173113479Y-66118868D01*
X173111655Y-66133179D01*
X173109744Y-66147544D01*
X173107745Y-66161964D01*
X173105658Y-66176442D01*
X173103481Y-66190982D01*
X173101213Y-66205584D01*
X173098855Y-66220254D01*
X173096405Y-66234993D01*
X173093862Y-66249805D01*
X173091225Y-66264694D01*
X173088493Y-66279662D01*
X173085664Y-66294714D01*
X173082738Y-66309852D01*
X173079713Y-66325082D01*
X173076588Y-66340408D01*
X173073361Y-66355833D01*
X173070031Y-66371362D01*
X173066596Y-66387000D01*
X173063055Y-66402753D01*
X173059405Y-66418625D01*
X173055644Y-66434622D01*
X173051770Y-66450751D01*
X173047782Y-66467017D01*
X173043676Y-66483428D01*
X173039450Y-66499990D01*
X173035101Y-66516712D01*
X173030627Y-66533602D01*
X173026023Y-66550668D01*
X173021286Y-66567921D01*
X173016413Y-66585370D01*
X173011400Y-66603026D01*
X173006241Y-66620902D01*
X173000933Y-66639010D01*
X172995469Y-66657366D01*
X172989845Y-66675983D01*
X172984052Y-66694881D01*
X172978085Y-66714077D01*
X172971936Y-66733592D01*
X172965595Y-66753451D01*
X172959054Y-66773678D01*
X172952299Y-66794305D01*
X172945320Y-66815364D01*
X172938101Y-66836894D01*
X172930626Y-66858939D01*
X172922876Y-66881550D01*
X172914826Y-66904789D01*
X172906451Y-66928728D01*
X172903749Y-66936403D01*
X170570000Y-64910000D02*
X170575841Y-64904663D01*
X170581680Y-64899355D01*
X170587513Y-64894078D01*
X170593345Y-64888830D01*
X170599171Y-64883614D01*
X170604996Y-64878427D01*
X170610815Y-64873270D01*
X170616632Y-64868143D01*
X170622444Y-64863046D01*
X170628254Y-64857978D01*
X170634059Y-64852941D01*
X170639861Y-64847932D01*
X170645659Y-64842954D01*
X170651454Y-64838004D01*
X170657245Y-64833085D01*
X170663032Y-64828194D01*
X170668816Y-64823333D01*
X170674596Y-64818501D01*
X170680372Y-64813698D01*
X170686145Y-64808924D01*
X170691914Y-64804180D01*
X170697679Y-64799463D01*
X170703440Y-64794776D01*
X170709199Y-64790118D01*
X170714953Y-64785488D01*
X170720704Y-64780887D01*
X170726450Y-64776314D01*
X170732194Y-64771770D01*
X170737933Y-64767255D01*
X170743669Y-64762767D01*
X170749400Y-64758308D01*
X170755129Y-64753877D01*
X170760853Y-64749474D01*
X170766575Y-64745099D01*
X170772291Y-64740753D01*
X170778005Y-64736434D01*
X170783714Y-64732143D01*
X170789421Y-64727880D01*
X170795123Y-64723644D01*
X170800822Y-64719436D01*
X170806516Y-64715256D01*
X170812207Y-64711104D01*
X170817894Y-64706979D01*
X170823578Y-64702881D01*
X170829258Y-64698810D01*
X170834934Y-64694767D01*
X170840606Y-64690751D01*
X170846275Y-64686762D01*
X170851940Y-64682800D01*
X170857601Y-64678865D01*
X170863258Y-64674958D01*
X170868912Y-64671076D01*
X170874562Y-64667222D01*
X170880208Y-64663395D01*
X170885850Y-64659594D01*
X170891489Y-64655820D01*
X170897124Y-64652072D01*
X170902755Y-64648351D01*
X170908382Y-64644656D01*
X170914006Y-64640988D01*
X170919626Y-64637346D01*
X170925242Y-64633730D01*
X170930854Y-64630140D01*
X170936463Y-64626577D01*
X170942068Y-64623039D01*
X170947669Y-64619528D01*
X170953266Y-64616042D01*
X170958860Y-64612582D01*
X170964450Y-64609148D01*
X170970036Y-64605740D01*
X170975618Y-64602358D01*
X170981197Y-64599001D01*
X170986772Y-64595670D01*
X170992343Y-64592364D01*
X170997911Y-64589084D01*
X171003474Y-64585828D01*
X171009034Y-64582599D01*
X171014590Y-64579395D01*
X171020143Y-64576215D01*
X171025692Y-64573061D01*
X171031237Y-64569933D01*
X171036778Y-64566829D01*
X171042316Y-64563750D01*
X171047849Y-64560696D01*
X171053380Y-64557667D01*
X171058906Y-64554663D01*
X171064429Y-64551683D01*
X171069948Y-64548728D01*
X171075463Y-64545798D01*
X171080974Y-64542893D01*
X171086482Y-64540012D01*
X171091987Y-64537155D01*
X171097487Y-64534323D01*
X171102984Y-64531515D01*
X171108477Y-64528732D01*
X171113966Y-64525973D01*
X171119452Y-64523238D01*
X171124934Y-64520527D01*
X171130412Y-64517840D01*
X171135887Y-64515178D01*
X171141358Y-64512539D01*
X171146825Y-64509924D01*
X171152289Y-64507333D01*
X171157749Y-64504766D01*
X171163205Y-64502223D01*
X171168658Y-64499704D01*
X171174107Y-64497208D01*
X171179552Y-64494736D01*
X171184994Y-64492287D01*
X171190432Y-64489863D01*
X171195867Y-64487461D01*
X171201298Y-64485083D01*
X171206725Y-64482728D01*
X171212149Y-64480397D01*
X171217569Y-64478089D01*
X171222985Y-64475804D01*
X171228398Y-64473543D01*
X171233807Y-64471304D01*
X171239213Y-64469089D01*
X171244615Y-64466897D01*
X171250014Y-64464727D01*
X171255408Y-64462581D01*
X171260800Y-64460458D01*
X171266187Y-64458357D01*
X171271572Y-64456280D01*
X171276952Y-64454225D01*
X171282329Y-64452193D01*
X171287702Y-64450183D01*
X171293073Y-64448196D01*
X171298439Y-64446232D01*
X171303802Y-64444291D01*
X171309161Y-64442372D01*
X171314517Y-64440475D01*
X171319869Y-64438601D01*
X171325219Y-64436749D01*
X171330563Y-64434919D01*
X171335906Y-64433112D01*
X171341243Y-64431327D01*
X171346579Y-64429565D01*
X171351910Y-64427824D01*
X171357238Y-64426106D01*
X171362562Y-64424410D01*
X171367883Y-64422736D01*
X171373200Y-64421084D01*
X171378515Y-64419453D01*
X171383825Y-64417845D01*
X171389133Y-64416259D01*
X171394436Y-64414695D01*
X171399737Y-64413152D01*
X171405033Y-64411631D01*
X171410327Y-64410132D01*
X171415616Y-64408655D01*
X171420904Y-64407199D01*
X171426186Y-64405766D01*
X171431467Y-64404353D01*
X171436742Y-64402962D01*
X171442016Y-64401593D01*
X171447285Y-64400246D01*
X171452552Y-64398919D01*
X171457814Y-64397615D01*
X171463074Y-64396331D01*
X171468330Y-64395069D01*
X171473583Y-64393829D01*
X171478832Y-64392609D01*
X171484079Y-64391411D01*
X171489321Y-64390235D01*
X171494561Y-64389079D01*
X171499797Y-64387945D01*
X171505030Y-64386831D01*
X171510259Y-64385739D01*
X171515486Y-64384668D01*
X171520708Y-64383618D01*
X171525929Y-64382589D01*
X171531144Y-64381581D01*
X171536358Y-64380594D01*
X171541567Y-64379629D01*
X171546775Y-64378683D01*
X171551977Y-64377759D01*
X171557178Y-64376856D01*
X171562374Y-64375973D01*
X171572757Y-64374271D01*
X171583128Y-64372651D01*
X171593486Y-64371115D01*
X171603830Y-64369661D01*
X171614162Y-64368289D01*
X171624482Y-64366999D01*
X171634788Y-64365792D01*
X171645081Y-64364667D01*
X171655362Y-64363623D01*
X171665630Y-64362661D01*
X171675886Y-64361780D01*
X171686128Y-64360980D01*
X171696359Y-64360261D01*
X171706576Y-64359624D01*
X171716781Y-64359067D01*
X171726973Y-64358591D01*
X171737153Y-64358195D01*
X171747320Y-64357880D01*
X171757474Y-64357645D01*
X171767616Y-64357490D01*
X171777745Y-64357415D01*
X171787862Y-64357420D01*
X171797966Y-64357505D01*
X171808058Y-64357670D01*
X171818137Y-64357914D01*
X171828203Y-64358238D01*
X171838257Y-64358641D01*
X171848298Y-64359124D01*
X171858326Y-64359686D01*
X171868342Y-64360328D01*
X171878344Y-64361048D01*
X171888334Y-64361848D01*
X171898312Y-64362727D01*
X171908276Y-64363685D01*
X171918227Y-64364722D01*
X171928166Y-64365837D01*
X171938091Y-64367032D01*
X171948003Y-64368306D01*
X171957902Y-64369658D01*
X171967788Y-64371089D01*
X171977660Y-64372599D01*
X171987519Y-64374187D01*
X171997364Y-64375855D01*
X172007196Y-64377601D01*
X172017014Y-64379425D01*
X172026818Y-64381329D01*
X172036608Y-64383311D01*
X172046384Y-64385371D01*
X172056146Y-64387510D01*
X172065893Y-64389728D01*
X172075626Y-64392024D01*
X172085344Y-64394399D01*
X172095047Y-64396853D01*
X172104736Y-64399385D01*
X172114409Y-64401996D01*
X172124067Y-64404685D01*
X172133709Y-64407453D01*
X172143336Y-64410300D01*
X172152946Y-64413225D01*
X172162541Y-64416228D01*
X172172119Y-64419311D01*
X172181681Y-64422471D01*
X172191226Y-64425711D01*
X172200753Y-64429029D01*
X172210264Y-64432425D01*
X172219757Y-64435900D01*
X172229232Y-64439454D01*
X172238689Y-64443086D01*
X172248128Y-64446797D01*
X172257548Y-64450586D01*
X172266949Y-64454453D01*
X172276331Y-64458399D01*
X172285693Y-64462424D01*
X172295035Y-64466526D01*
X172304357Y-64470707D01*
X172313659Y-64474967D01*
X172322939Y-64479304D01*
X172332198Y-64483720D01*
X172341435Y-64488214D01*
X172350651Y-64492786D01*
X172359843Y-64497437D01*
X172369013Y-64502165D01*
X172378160Y-64506970D01*
X172387283Y-64511854D01*
X172396381Y-64516815D01*
X172405455Y-64521854D01*
X172414504Y-64526970D01*
X172423527Y-64532164D01*
X172432525Y-64537435D01*
X172441496Y-64542783D01*
X172450439Y-64548207D01*
X172459356Y-64553709D01*
X172468244Y-64559287D01*
X172477103Y-64564941D01*
X172485934Y-64570672D01*
X172494735Y-64576479D01*
X172503506Y-64582361D01*
X172512246Y-64588319D01*
X172520954Y-64594352D01*
X172529631Y-64600460D01*
X172538275Y-64606644D01*
X172546886Y-64612901D01*
X172555463Y-64619233D01*
X172564006Y-64625639D01*
X172572513Y-64632118D01*
X172580985Y-64638670D01*
X172589421Y-64645296D01*
X172597820Y-64651994D01*
X172606181Y-64658764D01*
X172614503Y-64665606D01*
X172622787Y-64672519D01*
X172631031Y-64679503D01*
X172639234Y-64686557D01*
X172647396Y-64693682D01*
X172655516Y-64700876D01*
X172663594Y-64708138D01*
X172671628Y-64715470D01*
X172679618Y-64722869D01*
X172687563Y-64730335D01*
X172695463Y-64737868D01*
X172703316Y-64745468D01*
X172711122Y-64753133D01*
X172718880Y-64760862D01*
X172726589Y-64768656D01*
X172734249Y-64776514D01*
X172741859Y-64784434D01*
X172749417Y-64792417D01*
X172756923Y-64800461D01*
X172764377Y-64808565D01*
X172771777Y-64816729D01*
X172779123Y-64824953D01*
X172786413Y-64833234D01*
X172793648Y-64841573D01*
X172800826Y-64849968D01*
X172807946Y-64858419D01*
X172815008Y-64866925D01*
X172822010Y-64875484D01*
X172828953Y-64884096D01*
X172835834Y-64892760D01*
X172842654Y-64901475D01*
X172849412Y-64910239D01*
X172856106Y-64919053D01*
X172862736Y-64927914D01*
X172869301Y-64936822D01*
X172875801Y-64945775D01*
X172882234Y-64954773D01*
X172888600Y-64963814D01*
X172894897Y-64972897D01*
X172901126Y-64982022D01*
X172907286Y-64991186D01*
X172913375Y-65000389D01*
X172919393Y-65009629D01*
X172925339Y-65018906D01*
X172931213Y-65028217D01*
X172937014Y-65037562D01*
X172942740Y-65046940D01*
X172945576Y-65051641D01*
X172948392Y-65056349D01*
X172951190Y-65061065D01*
X172953969Y-65065788D01*
X172956729Y-65070518D01*
X172959469Y-65075255D01*
X172962191Y-65079999D01*
X172964894Y-65084749D01*
X172967577Y-65089507D01*
X172970240Y-65094270D01*
X172972885Y-65099039D01*
X172975509Y-65103815D01*
X172978114Y-65108596D01*
X172980700Y-65113383D01*
X172983265Y-65118175D01*
X172985811Y-65122972D01*
X172988337Y-65127775D01*
X172990843Y-65132583D01*
X172993328Y-65137395D01*
X172995794Y-65142212D01*
X172998239Y-65147034D01*
X173000665Y-65151859D01*
X173003070Y-65156689D01*
X173005454Y-65161523D01*
X173007818Y-65166360D01*
X173010162Y-65171201D01*
X173012484Y-65176045D01*
X173014787Y-65180893D01*
X173017068Y-65185743D01*
X173019329Y-65190597D01*
X173021569Y-65195453D01*
X173023788Y-65200312D01*
X173025986Y-65205172D01*
X173028164Y-65210036D01*
X173030320Y-65214900D01*
X173032455Y-65219768D01*
X173034569Y-65224636D01*
X173036662Y-65229506D01*
X173038734Y-65234377D01*
X173040784Y-65239250D01*
X173042813Y-65244122D01*
X173044821Y-65248997D01*
X173046807Y-65253871D01*
X173048772Y-65258747D01*
X173050715Y-65263621D01*
X173052638Y-65268498D01*
X173054538Y-65273372D01*
X173056417Y-65278248D01*
X173058274Y-65283121D01*
X173060110Y-65287996D01*
X173061923Y-65292868D01*
X173063716Y-65297741D01*
X173065486Y-65302611D01*
X173067235Y-65307482D01*
X173068961Y-65312349D01*
X173070667Y-65317217D01*
X173072349Y-65322080D01*
X173074011Y-65326944D01*
X173075650Y-65331803D01*
X173077268Y-65336663D01*
X173078864Y-65341517D01*
X173080438Y-65346372D01*
X173081989Y-65351220D01*
X173083519Y-65356069D01*
X173085027Y-65360912D01*
X173086513Y-65365754D01*
X173087977Y-65370590D01*
X173089419Y-65375426D01*
X173090838Y-65380254D01*
X173092237Y-65385082D01*
X173093612Y-65389902D01*
X173094967Y-65394722D01*
X173096298Y-65399533D01*
X173097608Y-65404344D01*
X173098895Y-65409146D01*
X173100162Y-65413947D01*
X173101405Y-65418740D01*
X173102627Y-65423531D01*
X173103826Y-65428313D01*
X173105005Y-65433093D01*
X173106160Y-65437864D01*
X173107294Y-65442633D01*
X173108405Y-65447392D01*
X173109496Y-65452149D01*
X173110563Y-65456896D01*
X173111609Y-65461640D01*
X173112633Y-65466374D01*
X173113636Y-65471106D01*
X173114615Y-65475827D01*
X173115574Y-65480545D01*
X173116510Y-65485251D01*
X173117425Y-65489956D01*
X173118318Y-65494648D01*
X173119189Y-65499337D01*
X173120038Y-65504014D01*
X173120866Y-65508689D01*
X173121672Y-65513351D01*
X173122456Y-65518009D01*
X173123218Y-65522655D01*
X173123960Y-65527298D01*
X173124679Y-65531927D01*
X173125377Y-65536553D01*
X173126053Y-65541166D01*
X173126708Y-65545775D01*
X173127341Y-65550370D01*
X173127953Y-65554961D01*
X173128543Y-65559538D01*
X173129112Y-65564112D01*
X173129660Y-65568671D01*
X173130187Y-65573226D01*
X173130692Y-65577766D01*
X173131176Y-65582302D01*
X173131639Y-65586823D01*
X173132081Y-65591340D01*
X173132501Y-65595842D01*
X173132901Y-65600339D01*
X173133279Y-65604820D01*
X173133637Y-65609298D01*
X173133974Y-65613759D01*
X173134290Y-65618216D01*
X173134585Y-65622656D01*
X173134860Y-65627092D01*
X173135113Y-65631512D01*
X173135346Y-65635927D01*
X173135559Y-65640325D01*
X173135751Y-65644718D01*
X173135922Y-65649095D01*
X173136073Y-65653466D01*
X173136203Y-65657821D01*
X173136313Y-65662170D01*
X173136403Y-65666502D01*
X173136472Y-65670829D01*
X173136522Y-65675138D01*
X173136551Y-65679442D01*
X173136560Y-65683729D01*
X173136549Y-65688010D01*
X173136518Y-65692273D01*
X173136466Y-65696531D01*
X173136396Y-65700771D01*
X173136305Y-65705005D01*
X173136194Y-65709221D01*
X173136064Y-65713432D01*
X173135914Y-65717624D01*
X173135745Y-65721810D01*
X173135556Y-65725978D01*
X173135347Y-65730140D01*
X173135119Y-65734284D01*
X173134872Y-65738421D01*
X173134605Y-65742540D01*
X173134319Y-65746653D01*
X173134014Y-65750747D01*
X173133689Y-65754835D01*
X173133346Y-65758904D01*
X173132983Y-65762967D01*
X173132602Y-65767011D01*
X173132201Y-65771048D01*
X173132085Y-65772185D01*
X138096228Y-65084725D02*
X138094157Y-65091669D01*
X138092110Y-65098606D01*
X138090086Y-65105533D01*
X138088085Y-65112451D01*
X138086108Y-65119361D01*
X138084154Y-65126262D01*
X138082223Y-65133155D01*
X138080315Y-65140040D01*
X138078431Y-65146915D01*
X138076569Y-65153783D01*
X138074730Y-65160643D01*
X138072914Y-65167495D01*
X138071121Y-65174338D01*
X138069350Y-65181174D01*
X138067602Y-65188002D01*
X138065877Y-65194822D01*
X138064175Y-65201634D01*
X138062495Y-65208438D01*
X138060837Y-65215236D01*
X138059202Y-65222025D01*
X138057589Y-65228808D01*
X138055998Y-65235583D01*
X138054430Y-65242350D01*
X138052883Y-65249111D01*
X138051359Y-65255865D01*
X138049857Y-65262611D01*
X138048377Y-65269351D01*
X138046919Y-65276083D01*
X138045482Y-65282810D01*
X138044068Y-65289529D01*
X138042676Y-65296242D01*
X138041305Y-65302948D01*
X138039956Y-65309648D01*
X138038628Y-65316341D01*
X138037322Y-65323029D01*
X138036038Y-65329710D01*
X138034775Y-65336385D01*
X138033534Y-65343053D01*
X138032314Y-65349717D01*
X138031116Y-65356373D01*
X138029939Y-65363025D01*
X138028783Y-65369670D01*
X138027648Y-65376311D01*
X138026535Y-65382944D01*
X138025443Y-65389574D01*
X138024372Y-65396197D01*
X138023322Y-65402816D01*
X138022293Y-65409428D01*
X138021285Y-65416037D01*
X138020298Y-65422638D01*
X138019332Y-65429237D01*
X138018387Y-65435829D01*
X138017463Y-65442418D01*
X138016560Y-65449000D01*
X138015677Y-65455580D01*
X138014815Y-65462153D01*
X138013974Y-65468724D01*
X138013154Y-65475288D01*
X138011575Y-65488405D01*
X138010079Y-65501506D01*
X138008665Y-65514591D01*
X138007333Y-65527661D01*
X138006083Y-65540715D01*
X138004914Y-65553756D01*
X138003827Y-65566784D01*
X138002821Y-65579799D01*
X138001896Y-65592802D01*
X138001051Y-65605794D01*
X138000288Y-65618776D01*
X137999605Y-65631747D01*
X137999002Y-65644710D01*
X137998480Y-65657664D01*
X137998038Y-65670610D01*
X137997677Y-65683550D01*
X137997395Y-65696483D01*
X137997193Y-65709410D01*
X137997072Y-65722333D01*
X137997030Y-65735252D01*
X137997068Y-65748167D01*
X137997186Y-65761079D01*
X137997384Y-65773990D01*
X137997661Y-65786900D01*
X137998019Y-65799809D01*
X137998456Y-65812719D01*
X137998974Y-65825630D01*
X137999571Y-65838543D01*
X138000249Y-65851459D01*
X138001006Y-65864379D01*
X138001844Y-65877303D01*
X138002762Y-65890232D01*
X138003761Y-65903167D01*
X138004841Y-65916109D01*
X138006001Y-65929059D01*
X138007242Y-65942017D01*
X138008564Y-65954985D01*
X138009968Y-65967963D01*
X138011453Y-65980952D01*
X138013020Y-65993954D01*
X138014669Y-66006968D01*
X138016400Y-66019996D01*
X138018214Y-66033039D01*
X138020111Y-66046098D01*
X138022091Y-66059174D01*
X138024154Y-66072268D01*
X138026301Y-66085380D01*
X138028532Y-66098512D01*
X138030848Y-66111665D01*
X138033249Y-66124839D01*
X138035735Y-66138036D01*
X138038306Y-66151257D01*
X138040964Y-66164504D01*
X138043709Y-66177776D01*
X138046541Y-66191075D01*
X138049460Y-66204403D01*
X138052468Y-66217761D01*
X138055565Y-66231149D01*
X138058751Y-66244569D01*
X138062027Y-66258023D01*
X138065393Y-66271511D01*
X138068851Y-66285034D01*
X138072401Y-66298595D01*
X138076043Y-66312194D01*
X138079779Y-66325834D01*
X138083608Y-66339514D01*
X138087533Y-66353238D01*
X138091553Y-66367005D01*
X138095670Y-66380819D01*
X138099884Y-66394679D01*
X138104197Y-66408589D01*
X138108609Y-66422549D01*
X138113121Y-66436562D01*
X138117735Y-66450629D01*
X138122451Y-66464752D01*
X138127270Y-66478933D01*
X138132194Y-66493173D01*
X138137224Y-66507475D01*
X138142361Y-66521841D01*
X138147606Y-66536272D01*
X138152961Y-66550772D01*
X138158427Y-66565342D01*
X138164005Y-66579985D01*
X138169698Y-66594702D01*
X138175506Y-66609498D01*
X138181431Y-66624373D01*
X138187475Y-66639331D01*
X138193640Y-66654375D01*
X138199927Y-66669508D01*
X138206339Y-66684732D01*
X138212877Y-66700051D01*
X138219544Y-66715468D01*
X138226342Y-66730987D01*
X138233273Y-66746611D01*
X138240339Y-66762344D01*
X138247544Y-66778190D01*
X138254890Y-66794153D01*
X138262379Y-66810238D01*
X138270015Y-66826448D01*
X138277801Y-66842790D01*
X138285740Y-66859267D01*
X138293835Y-66875886D01*
X138302091Y-66892653D01*
X138310512Y-66909572D01*
X138319100Y-66926651D01*
X138327862Y-66943896D01*
X138336801Y-66961315D01*
X138345923Y-66978916D01*
X138355233Y-66996706D01*
X138364736Y-67014695D01*
X138374440Y-67032891D01*
X138384350Y-67051306D01*
X138394474Y-67069951D01*
X138404820Y-67088836D01*
X138415396Y-67107977D01*
X138426211Y-67127385D01*
X138437275Y-67147078D01*
X138448600Y-67167071D01*
X138460196Y-67187384D01*
X138472079Y-67208037D01*
X138484262Y-67229052D01*
X138496762Y-67250457D01*
X138509597Y-67272278D01*
X138522789Y-67294550D01*
X138536362Y-67317307D01*
X138550341Y-67340593D01*
X138564760Y-67364456D01*
X138579654Y-67388954D01*
X138595067Y-67414153D01*
X138611051Y-67440133D01*
X138627668Y-67466992D01*
X138644995Y-67494849D01*
X138663130Y-67523857D01*
X138682199Y-67554211D01*
X138702371Y-67586173D01*
X138723878Y-67620106D01*
X138747066Y-67656545D01*
X138772478Y-67696338D01*
X138801084Y-67740993D01*
X138834972Y-67793757D01*
X138877611Y-67860040D01*
X138915775Y-67919361D01*
X138954158Y-67979112D01*
X138973418Y-68009156D01*
X138992718Y-68039317D01*
X139012051Y-68069597D01*
X139031414Y-68100000D01*
X140589440Y-64875638D02*
X140587264Y-64868902D01*
X140585005Y-64862171D01*
X140582663Y-64855444D01*
X140580238Y-64848721D01*
X140577730Y-64842003D01*
X140575139Y-64835290D01*
X140572463Y-64828581D01*
X140569703Y-64821878D01*
X140566859Y-64815180D01*
X140563931Y-64808487D01*
X140560918Y-64801800D01*
X140557819Y-64795118D01*
X140554636Y-64788443D01*
X140551367Y-64781774D01*
X140548011Y-64775111D01*
X140544570Y-64768456D01*
X140541043Y-64761807D01*
X140537429Y-64755166D01*
X140533728Y-64748533D01*
X140529940Y-64741907D01*
X140526065Y-64735290D01*
X140522102Y-64728682D01*
X140518051Y-64722083D01*
X140513912Y-64715494D01*
X140509686Y-64708914D01*
X140505370Y-64702344D01*
X140500966Y-64695786D01*
X140496474Y-64689238D01*
X140491892Y-64682702D01*
X140487221Y-64676178D01*
X140482460Y-64669667D01*
X140477610Y-64663169D01*
X140472671Y-64656684D01*
X140467641Y-64650213D01*
X140462522Y-64643757D01*
X140457313Y-64637317D01*
X140452013Y-64630892D01*
X140446623Y-64624483D01*
X140441143Y-64618091D01*
X140435573Y-64611717D01*
X140429913Y-64605361D01*
X140424161Y-64599024D01*
X140418320Y-64592706D01*
X140412388Y-64586409D01*
X140406366Y-64580132D01*
X140400254Y-64573877D01*
X140394052Y-64567644D01*
X140387759Y-64561433D01*
X140381376Y-64555247D01*
X140374904Y-64549084D01*
X140368342Y-64542947D01*
X140361691Y-64536836D01*
X140354950Y-64530751D01*
X140348120Y-64524694D01*
X140341202Y-64518665D01*
X140334195Y-64512665D01*
X140327099Y-64506695D01*
X140319916Y-64500755D01*
X140312646Y-64494847D01*
X140305288Y-64488971D01*
X140297843Y-64483129D01*
X140290312Y-64477320D01*
X140282696Y-64471546D01*
X140274993Y-64465808D01*
X140267206Y-64460106D01*
X140259335Y-64454442D01*
X140251380Y-64448816D01*
X140243341Y-64443229D01*
X140235220Y-64437682D01*
X140227017Y-64432176D01*
X140218733Y-64426712D01*
X140210368Y-64421291D01*
X140201924Y-64415913D01*
X140193400Y-64410580D01*
X140184797Y-64405292D01*
X140176118Y-64400051D01*
X140167361Y-64394856D01*
X140158529Y-64389710D01*
X140149621Y-64384612D01*
X140140639Y-64379565D01*
X140131585Y-64374568D01*
X140122458Y-64369622D01*
X140113259Y-64364729D01*
X140103991Y-64359889D01*
X140094653Y-64355104D01*
X140085246Y-64350373D01*
X140075773Y-64345698D01*
X140066234Y-64341080D01*
X140056629Y-64336519D01*
X140046961Y-64332017D01*
X140037230Y-64327573D01*
X140027437Y-64323190D01*
X140017584Y-64318867D01*
X140007672Y-64314606D01*
X139997702Y-64310407D01*
X139987676Y-64306271D01*
X139977593Y-64302198D01*
X139967457Y-64298190D01*
X139957267Y-64294248D01*
X139947026Y-64290371D01*
X139936735Y-64286560D01*
X139931570Y-64284680D01*
X139926394Y-64282817D01*
X139921206Y-64280971D01*
X139916006Y-64279142D01*
X139910794Y-64277330D01*
X139905572Y-64275535D01*
X139900337Y-64273757D01*
X139895092Y-64271997D01*
X139889836Y-64270255D01*
X139884569Y-64268529D01*
X139879291Y-64266822D01*
X139874003Y-64265132D01*
X139868705Y-64263460D01*
X139863396Y-64261805D01*
X139858078Y-64260169D01*
X139852750Y-64258550D01*
X139847412Y-64256949D01*
X139842065Y-64255367D01*
X139836709Y-64253803D01*
X139831344Y-64252256D01*
X139825970Y-64250729D01*
X139820587Y-64249219D01*
X139815196Y-64247728D01*
X139809795Y-64246255D01*
X139804388Y-64244801D01*
X139798972Y-64243365D01*
X139793548Y-64241948D01*
X139788116Y-64240550D01*
X139782678Y-64239170D01*
X139777231Y-64237809D01*
X139771778Y-64236467D01*
X139766317Y-64235144D01*
X139760851Y-64233840D01*
X139755376Y-64232555D01*
X139749896Y-64231289D01*
X139744409Y-64230042D01*
X139738917Y-64228814D01*
X139733417Y-64227605D01*
X139727914Y-64226416D01*
X139722402Y-64225245D01*
X139716888Y-64224095D01*
X139711366Y-64222963D01*
X139705841Y-64221851D01*
X139700309Y-64220758D01*
X139694774Y-64219685D01*
X139689233Y-64218631D01*
X139683689Y-64217597D01*
X139678139Y-64216582D01*
X139672587Y-64215587D01*
X139667028Y-64214612D01*
X139661469Y-64213656D01*
X139655903Y-64212720D01*
X139650336Y-64211804D01*
X139644764Y-64210907D01*
X139639191Y-64210030D01*
X139633612Y-64209173D01*
X139628033Y-64208336D01*
X139622449Y-64207518D01*
X139616865Y-64206721D01*
X139611276Y-64205943D01*
X139605688Y-64205186D01*
X139600094Y-64204448D01*
X139594502Y-64203730D01*
X139588905Y-64203032D01*
X139583310Y-64202354D01*
X139577710Y-64201696D01*
X139572112Y-64201059D01*
X139566510Y-64200441D01*
X139560910Y-64199843D01*
X139555306Y-64199265D01*
X139549705Y-64198708D01*
X139544099Y-64198170D01*
X139538497Y-64197653D01*
X139532891Y-64197155D01*
X139527289Y-64196678D01*
X139521683Y-64196221D01*
X139516081Y-64195784D01*
X139510476Y-64195367D01*
X139504875Y-64194970D01*
X139499271Y-64194593D01*
X139493672Y-64194237D01*
X139488069Y-64193900D01*
X139482472Y-64193584D01*
X139476872Y-64193288D01*
X139471277Y-64193012D01*
X139465680Y-64192756D01*
X139460088Y-64192520D01*
X139454494Y-64192304D01*
X139448906Y-64192109D01*
X139443316Y-64191933D01*
X139437733Y-64191778D01*
X139432147Y-64191643D01*
X139426568Y-64191528D01*
X139420987Y-64191433D01*
X139415413Y-64191358D01*
X139409838Y-64191303D01*
X139404270Y-64191268D01*
X139398700Y-64191253D01*
X139393139Y-64191258D01*
X139387575Y-64191284D01*
X139382021Y-64191329D01*
X139376464Y-64191394D01*
X139370916Y-64191480D01*
X139365367Y-64191585D01*
X139359827Y-64191710D01*
X139354286Y-64191855D01*
X139348754Y-64192020D01*
X139343220Y-64192205D01*
X139337697Y-64192410D01*
X139332172Y-64192635D01*
X139326658Y-64192880D01*
X139321143Y-64193144D01*
X139315637Y-64193429D01*
X139310131Y-64193733D01*
X139304636Y-64194057D01*
X139299140Y-64194401D01*
X139293655Y-64194764D01*
X139288169Y-64195147D01*
X139282695Y-64195550D01*
X139277220Y-64195973D01*
X139271756Y-64196415D01*
X139266293Y-64196877D01*
X139260840Y-64197358D01*
X139255388Y-64197860D01*
X139249948Y-64198380D01*
X139244507Y-64198921D01*
X139239079Y-64199480D01*
X139233651Y-64200060D01*
X139228235Y-64200658D01*
X139222819Y-64201277D01*
X139217416Y-64201914D01*
X139212014Y-64202572D01*
X139206624Y-64203248D01*
X139201234Y-64203944D01*
X139195858Y-64204659D01*
X139190482Y-64205393D01*
X139185119Y-64206147D01*
X139179757Y-64206920D01*
X139174409Y-64207712D01*
X139169061Y-64208524D01*
X139163727Y-64209354D01*
X139158394Y-64210204D01*
X139153074Y-64211072D01*
X139147756Y-64211960D01*
X139142451Y-64212867D01*
X139137148Y-64213793D01*
X139131859Y-64214738D01*
X139126571Y-64215702D01*
X139121297Y-64216685D01*
X139116026Y-64217687D01*
X139110767Y-64218707D01*
X139105511Y-64219747D01*
X139100269Y-64220805D01*
X139095030Y-64221883D01*
X139089804Y-64222978D01*
X139084581Y-64224093D01*
X139079371Y-64225226D01*
X139074165Y-64226379D01*
X139068972Y-64227549D01*
X139063782Y-64228739D01*
X139058607Y-64229946D01*
X139053434Y-64231173D01*
X139048276Y-64232418D01*
X139043121Y-64233682D01*
X139037980Y-64234964D01*
X139032843Y-64236265D01*
X139027720Y-64237583D01*
X139022600Y-64238921D01*
X139017494Y-64240276D01*
X139012393Y-64241651D01*
X139007305Y-64243042D01*
X139002222Y-64244454D01*
X138997153Y-64245882D01*
X138992087Y-64247330D01*
X138987037Y-64248794D01*
X138981990Y-64250279D01*
X138976958Y-64251780D01*
X138971930Y-64253300D01*
X138966917Y-64254837D01*
X138961908Y-64256394D01*
X138956914Y-64257967D01*
X138951924Y-64259560D01*
X138946949Y-64261169D01*
X138941978Y-64262797D01*
X138937022Y-64264442D01*
X138932070Y-64266107D01*
X138927134Y-64267787D01*
X138922202Y-64269488D01*
X138917285Y-64271204D01*
X138912373Y-64272940D01*
X138907476Y-64274692D01*
X138902583Y-64276463D01*
X138897706Y-64278250D01*
X138892833Y-64280057D01*
X138887976Y-64281880D01*
X138883123Y-64283722D01*
X138878286Y-64285580D01*
X138873453Y-64287457D01*
X138868636Y-64289350D01*
X138863824Y-64291262D01*
X138859027Y-64293190D01*
X138854236Y-64295138D01*
X138849459Y-64297101D01*
X138844688Y-64299083D01*
X138839932Y-64301081D01*
X138835182Y-64303098D01*
X138830447Y-64305131D01*
X138825717Y-64307183D01*
X138821002Y-64309250D01*
X138816293Y-64311337D01*
X138811600Y-64313438D01*
X138806912Y-64315560D01*
X138802239Y-64317696D01*
X138797572Y-64319852D01*
X138792920Y-64322022D01*
X138788274Y-64324212D01*
X138783644Y-64326418D01*
X138779019Y-64328642D01*
X138774410Y-64330881D01*
X138769806Y-64333140D01*
X138765218Y-64335414D01*
X138760636Y-64337706D01*
X138756069Y-64340014D01*
X138751508Y-64342341D01*
X138746963Y-64344683D01*
X138742423Y-64347044D01*
X138737899Y-64349419D01*
X138733382Y-64351814D01*
X138728879Y-64354224D01*
X138724383Y-64356653D01*
X138719902Y-64359096D01*
X138715428Y-64361559D01*
X138710969Y-64364037D01*
X138706516Y-64366533D01*
X138702079Y-64369044D01*
X138697648Y-64371574D01*
X138693232Y-64374119D01*
X138688823Y-64376683D01*
X138684429Y-64379261D01*
X138680042Y-64381859D01*
X138675670Y-64384471D01*
X138671305Y-64387102D01*
X138666955Y-64389748D01*
X138662612Y-64392412D01*
X138658284Y-64395091D01*
X138653963Y-64397789D01*
X138649657Y-64400502D01*
X138645358Y-64403233D01*
X138641074Y-64405979D01*
X138636798Y-64408744D01*
X138632536Y-64411524D01*
X138628281Y-64414322D01*
X138624042Y-64417135D01*
X138619809Y-64419966D01*
X138615592Y-64422812D01*
X138611382Y-64425678D01*
X138607187Y-64428557D01*
X138602999Y-64431455D01*
X138598826Y-64434368D01*
X138594661Y-64437299D01*
X138590510Y-64440245D01*
X138586368Y-64443210D01*
X138582239Y-64446189D01*
X138578119Y-64449187D01*
X138574013Y-64452200D01*
X138569915Y-64455231D01*
X138565832Y-64458276D01*
X138561756Y-64461341D01*
X138557695Y-64464420D01*
X138553643Y-64467517D01*
X138549604Y-64470629D01*
X138545574Y-64473760D01*
X138541558Y-64476905D01*
X138537550Y-64480070D01*
X138533557Y-64483248D01*
X138529572Y-64486445D01*
X138525601Y-64489657D01*
X138521639Y-64492887D01*
X138517691Y-64496132D01*
X138513751Y-64499396D01*
X138509826Y-64502674D01*
X138505909Y-64505971D01*
X138502006Y-64509282D01*
X138498112Y-64512612D01*
X138494232Y-64515956D01*
X138490361Y-64519320D01*
X138486504Y-64522697D01*
X138482655Y-64526094D01*
X138478821Y-64529505D01*
X138474996Y-64532935D01*
X138471184Y-64536379D01*
X138467381Y-64539843D01*
X138463593Y-64543320D01*
X138459813Y-64546817D01*
X138456047Y-64550328D01*
X138452291Y-64553858D01*
X138448548Y-64557402D01*
X138444814Y-64560965D01*
X138441094Y-64564543D01*
X138437384Y-64568140D01*
X138433687Y-64571751D01*
X138429999Y-64575381D01*
X138426325Y-64579026D01*
X138422661Y-64582689D01*
X138419010Y-64586368D01*
X138415369Y-64590065D01*
X138411741Y-64593777D01*
X138408123Y-64597508D01*
X138404519Y-64601253D01*
X138400924Y-64605017D01*
X138397343Y-64608797D01*
X138393771Y-64612595D01*
X138390213Y-64616408D01*
X138386665Y-64620239D01*
X138383130Y-64624086D01*
X138379605Y-64627952D01*
X138376094Y-64631832D01*
X138372592Y-64635732D01*
X138369104Y-64639646D01*
X138365626Y-64643580D01*
X138362161Y-64647528D01*
X138358707Y-64651495D01*
X138355265Y-64655478D01*
X138351834Y-64659479D01*
X138348416Y-64663496D01*
X138345009Y-64667531D01*
X138341615Y-64671582D01*
X138338231Y-64675652D01*
X138334860Y-64679737D01*
X138331500Y-64683841D01*
X138328153Y-64687960D01*
X138324816Y-64692098D01*
X138321493Y-64696252D01*
X138318180Y-64700425D01*
X138314880Y-64704613D01*
X138311591Y-64708820D01*
X138308315Y-64713043D01*
X138305050Y-64717285D01*
X138301798Y-64721542D01*
X138298557Y-64725819D01*
X138295329Y-64730111D01*
X138292111Y-64734422D01*
X138288907Y-64738749D01*
X138285714Y-64743095D01*
X138282534Y-64747457D01*
X138279364Y-64751838D01*
X138276208Y-64756235D01*
X138273063Y-64760651D01*
X138269931Y-64765083D01*
X138266810Y-64769534D01*
X138263702Y-64774002D01*
X138260606Y-64778488D01*
X138257522Y-64782991D01*
X138254450Y-64787512D01*
X138251391Y-64792050D01*
X138248343Y-64796608D01*
X138245308Y-64801181D01*
X138242284Y-64805774D01*
X138239274Y-64810383D01*
X138236275Y-64815011D01*
X138233289Y-64819656D01*
X138230315Y-64824320D01*
X138227354Y-64829001D01*
X138224404Y-64833701D01*
X138221467Y-64838418D01*
X138218543Y-64843154D01*
X138215631Y-64847907D01*
X138212731Y-64852679D01*
X138209844Y-64857468D01*
X138206968Y-64862276D01*
X138204106Y-64867101D01*
X138201256Y-64871946D01*
X138198419Y-64876808D01*
X138195594Y-64881689D01*
X138192782Y-64886587D01*
X138189982Y-64891505D01*
X138187195Y-64896440D01*
X138184420Y-64901394D01*
X138181659Y-64906366D01*
X138178909Y-64911357D01*
X138176173Y-64916366D01*
X138173449Y-64921394D01*
X138170738Y-64926440D01*
X138168040Y-64931505D01*
X138165354Y-64936588D01*
X138162681Y-64941691D01*
X138160022Y-64946811D01*
X138157374Y-64951951D01*
X138154740Y-64957109D01*
X138152119Y-64962286D01*
X138149511Y-64967482D01*
X138146915Y-64972697D01*
X138144333Y-64977930D01*
X138141763Y-64983183D01*
X138139207Y-64988454D01*
X138136663Y-64993745D01*
X138134133Y-64999054D01*
X138131616Y-65004383D01*
X138129112Y-65009730D01*
X138126621Y-65015097D01*
X138124143Y-65020483D01*
X138121678Y-65025888D01*
X138119227Y-65031312D01*
X138116789Y-65036756D01*
X138114364Y-65042219D01*
X138111953Y-65047701D01*
X138109555Y-65053203D01*
X138107170Y-65058724D01*
X138104799Y-65064264D01*
X138102441Y-65069824D01*
X138100096Y-65075404D01*
X138097765Y-65081003D01*
X138096228Y-65084725D01*
X140589440Y-64875638D02*
X140592231Y-64870492D01*
X140595037Y-64865361D01*
X140597857Y-64860245D01*
X140600691Y-64855144D01*
X140603540Y-64850060D01*
X140606403Y-64844990D01*
X140609280Y-64839936D01*
X140612171Y-64834898D01*
X140615076Y-64829875D01*
X140617996Y-64824868D01*
X140620929Y-64819877D01*
X140623876Y-64814901D01*
X140626837Y-64809942D01*
X140629812Y-64804998D01*
X140632800Y-64800070D01*
X140635803Y-64795158D01*
X140638818Y-64790263D01*
X140641848Y-64785383D01*
X140644891Y-64780520D01*
X140647948Y-64775672D01*
X140651017Y-64770842D01*
X140654100Y-64766027D01*
X140657196Y-64761229D01*
X140660306Y-64756446D01*
X140663429Y-64751682D01*
X140666565Y-64746932D01*
X140669714Y-64742200D01*
X140672876Y-64737484D01*
X140676050Y-64732785D01*
X140679238Y-64728102D01*
X140682438Y-64723437D01*
X140685652Y-64718788D01*
X140688877Y-64714156D01*
X140692116Y-64709540D01*
X140695367Y-64704942D01*
X140698631Y-64700360D01*
X140701906Y-64695797D01*
X140705195Y-64691249D01*
X140708495Y-64686719D01*
X140711809Y-64682205D01*
X140715133Y-64677710D01*
X140718471Y-64673231D01*
X140721820Y-64668770D01*
X140725182Y-64664325D01*
X140728555Y-64659899D01*
X140731941Y-64655489D01*
X140735337Y-64651098D01*
X140738747Y-64646723D01*
X140742167Y-64642366D01*
X140745599Y-64638026D01*
X140749043Y-64633705D01*
X140752499Y-64629400D01*
X140755965Y-64625114D01*
X140759444Y-64620844D01*
X140762933Y-64616594D01*
X140766434Y-64612360D01*
X140769946Y-64608145D01*
X140773470Y-64603947D01*
X140777003Y-64599767D01*
X140780549Y-64595605D01*
X140784105Y-64591461D01*
X140787673Y-64587335D01*
X140791251Y-64583227D01*
X140794840Y-64579137D01*
X140798439Y-64575066D01*
X140802051Y-64571011D01*
X140805671Y-64566976D01*
X140809303Y-64562958D01*
X140812945Y-64558960D01*
X140816598Y-64554978D01*
X140820260Y-64551016D01*
X140823934Y-64547071D01*
X140827617Y-64543146D01*
X140831311Y-64539237D01*
X140835014Y-64535349D01*
X140838729Y-64531477D01*
X140842452Y-64527625D01*
X140846187Y-64523791D01*
X140849930Y-64519976D01*
X140853684Y-64516178D01*
X140857447Y-64512401D01*
X140861221Y-64508640D01*
X140865003Y-64504900D01*
X140868796Y-64501177D01*
X140872597Y-64497474D01*
X140876409Y-64493788D01*
X140880229Y-64490123D01*
X140884060Y-64486474D01*
X140887899Y-64482846D01*
X140891749Y-64479235D01*
X140895606Y-64475645D01*
X140899474Y-64472072D01*
X140903349Y-64468519D01*
X140907235Y-64464983D01*
X140911128Y-64461468D01*
X140915032Y-64457971D01*
X140918943Y-64454494D01*
X140922864Y-64451034D01*
X140926793Y-64447595D01*
X140930731Y-64444173D01*
X140934677Y-64440772D01*
X140938633Y-64437388D01*
X140942596Y-64434025D01*
X140946569Y-64430680D01*
X140950548Y-64427355D01*
X140954538Y-64424048D01*
X140958534Y-64420761D01*
X140962540Y-64417492D01*
X140966552Y-64414244D01*
X140970575Y-64411014D01*
X140974603Y-64407804D01*
X140978642Y-64404612D01*
X140982686Y-64401440D01*
X140986740Y-64398287D01*
X140990801Y-64395154D01*
X140994870Y-64392039D01*
X140998946Y-64388944D01*
X141003031Y-64385868D01*
X141007122Y-64382812D01*
X141011222Y-64379774D01*
X141015328Y-64376757D01*
X141019444Y-64373758D01*
X141023564Y-64370780D01*
X141027695Y-64367819D01*
X141031830Y-64364880D01*
X141035975Y-64361958D01*
X141040124Y-64359058D01*
X141044283Y-64356175D01*
X141048447Y-64353313D01*
X141052620Y-64350469D01*
X141056798Y-64347646D01*
X141060985Y-64344841D01*
X141065177Y-64342057D01*
X141069378Y-64339291D01*
X141073583Y-64336546D01*
X141077797Y-64333820D01*
X141082016Y-64331114D01*
X141086244Y-64328426D01*
X141090475Y-64325759D01*
X141094716Y-64323110D01*
X141098961Y-64320482D01*
X141103215Y-64317872D01*
X141107472Y-64315284D01*
X141111739Y-64312713D01*
X141116009Y-64310163D01*
X141120288Y-64307632D01*
X141124571Y-64305122D01*
X141128862Y-64302629D01*
X141133157Y-64300158D01*
X141137460Y-64297705D01*
X141141768Y-64295273D01*
X141146083Y-64292859D01*
X141150402Y-64290466D01*
X141154729Y-64288092D01*
X141159060Y-64285738D01*
X141163399Y-64283403D01*
X141167741Y-64281089D01*
X141172091Y-64278793D01*
X141176445Y-64276517D01*
X141180806Y-64274261D01*
X141185171Y-64272025D01*
X141189544Y-64269808D01*
X141193920Y-64267611D01*
X141198303Y-64265433D01*
X141202690Y-64263276D01*
X141207084Y-64261137D01*
X141211481Y-64259019D01*
X141215886Y-64256920D01*
X141220294Y-64254841D01*
X141224710Y-64252781D01*
X141229128Y-64250742D01*
X141233554Y-64248721D01*
X141237982Y-64246722D01*
X141242418Y-64244740D01*
X141246856Y-64242780D01*
X141251302Y-64240838D01*
X141255750Y-64238917D01*
X141260206Y-64237014D01*
X141264664Y-64235133D01*
X141269129Y-64233270D01*
X141273597Y-64231427D01*
X141278072Y-64229603D01*
X141282549Y-64227800D01*
X141287033Y-64226016D01*
X141291520Y-64224252D01*
X141296013Y-64222508D01*
X141300509Y-64220783D01*
X141305011Y-64219078D01*
X141309516Y-64217393D01*
X141314027Y-64215727D01*
X141318541Y-64214081D01*
X141323061Y-64212455D01*
X141327583Y-64210849D01*
X141332112Y-64209261D01*
X141336643Y-64207695D01*
X141341181Y-64206147D01*
X141345720Y-64204620D01*
X141350266Y-64203111D01*
X141354814Y-64201623D01*
X141359368Y-64200154D01*
X141363924Y-64198706D01*
X141368487Y-64197276D01*
X141373051Y-64195867D01*
X141377621Y-64194477D01*
X141382194Y-64193107D01*
X141386772Y-64191757D01*
X141391352Y-64190426D01*
X141395938Y-64189115D01*
X141400526Y-64187824D01*
X141405120Y-64186553D01*
X141409715Y-64185301D01*
X141414317Y-64184069D01*
X141418920Y-64182857D01*
X141423529Y-64181664D01*
X141428139Y-64180491D01*
X141432756Y-64179338D01*
X141437373Y-64178205D01*
X141441997Y-64177091D01*
X141446622Y-64175997D01*
X141451253Y-64174922D01*
X141455885Y-64173868D01*
X141460523Y-64172833D01*
X141465162Y-64171818D01*
X141469807Y-64170822D01*
X141474453Y-64169847D01*
X141479104Y-64168891D01*
X141483757Y-64167955D01*
X141488416Y-64167038D01*
X141493075Y-64166142D01*
X141497740Y-64165265D01*
X141502407Y-64164408D01*
X141507078Y-64163570D01*
X141511751Y-64162752D01*
X141516429Y-64161954D01*
X141521108Y-64161176D01*
X141525793Y-64160418D01*
X141530479Y-64159679D01*
X141535169Y-64158960D01*
X141539861Y-64158261D01*
X141544558Y-64157582D01*
X141549256Y-64156922D01*
X141553960Y-64156282D01*
X141558664Y-64155662D01*
X141563373Y-64155062D01*
X141568083Y-64154482D01*
X141572798Y-64153921D01*
X141577515Y-64153380D01*
X141582236Y-64152859D01*
X141586958Y-64152358D01*
X141591685Y-64151877D01*
X141596413Y-64151415D01*
X141601145Y-64150974D01*
X141605879Y-64150552D01*
X141610617Y-64150150D01*
X141615357Y-64149768D01*
X141620101Y-64149405D01*
X141624846Y-64149063D01*
X141629595Y-64148740D01*
X141634346Y-64148438D01*
X141639101Y-64148155D01*
X141643857Y-64147892D01*
X141648617Y-64147649D01*
X141653378Y-64147426D01*
X141658144Y-64147222D01*
X141662910Y-64147039D01*
X141667681Y-64146876D01*
X141672453Y-64146732D01*
X141677229Y-64146609D01*
X141682007Y-64146505D01*
X141686788Y-64146422D01*
X141691570Y-64146358D01*
X141696356Y-64146315D01*
X141701144Y-64146291D01*
X141705935Y-64146288D01*
X141710728Y-64146304D01*
X141715524Y-64146340D01*
X141720321Y-64146397D01*
X141725122Y-64146474D01*
X141729925Y-64146570D01*
X141734731Y-64146687D01*
X141739538Y-64146824D01*
X141744349Y-64146980D01*
X141749161Y-64147157D01*
X141753976Y-64147354D01*
X141758793Y-64147572D01*
X141763613Y-64147809D01*
X141768435Y-64148067D01*
X141773259Y-64148344D01*
X141778085Y-64148642D01*
X141782915Y-64148960D01*
X141787746Y-64149298D01*
X141792580Y-64149657D01*
X141797415Y-64150036D01*
X141802253Y-64150435D01*
X141807093Y-64150854D01*
X141811936Y-64151294D01*
X141816780Y-64151753D01*
X141821627Y-64152234D01*
X141826476Y-64152734D01*
X141831327Y-64153255D01*
X141836180Y-64153796D01*
X141841036Y-64154358D01*
X141845893Y-64154940D01*
X141850753Y-64155542D01*
X141855615Y-64156165D01*
X141860479Y-64156808D01*
X141865345Y-64157472D01*
X141870213Y-64158156D01*
X141875083Y-64158861D01*
X141879956Y-64159586D01*
X141884829Y-64160332D01*
X141889706Y-64161098D01*
X141894584Y-64161885D01*
X141899465Y-64162693D01*
X141904347Y-64163521D01*
X141909232Y-64164370D01*
X141914117Y-64165239D01*
X141919006Y-64166130D01*
X141923896Y-64167040D01*
X141928789Y-64167972D01*
X141933682Y-64168924D01*
X141938579Y-64169898D01*
X141943476Y-64170891D01*
X141948376Y-64171906D01*
X141953278Y-64172942D01*
X141958182Y-64173998D01*
X141963087Y-64175075D01*
X141967995Y-64176174D01*
X141972904Y-64177293D01*
X141977815Y-64178433D01*
X141982728Y-64179594D01*
X141987643Y-64180776D01*
X141992559Y-64181979D01*
X141997477Y-64183203D01*
X142002397Y-64184448D01*
X142007319Y-64185714D01*
X142012243Y-64187002D01*
X142017168Y-64188310D01*
X142022095Y-64189640D01*
X142027025Y-64190991D01*
X142031955Y-64192363D01*
X142036887Y-64193757D01*
X142041821Y-64195171D01*
X142046757Y-64196607D01*
X142051694Y-64198065D01*
X142056634Y-64199543D01*
X142061574Y-64201044D01*
X142066517Y-64202565D01*
X142071461Y-64204108D01*
X142076406Y-64205673D01*
X142081354Y-64207258D01*
X142086303Y-64208866D01*
X142091253Y-64210495D01*
X142096205Y-64212146D01*
X142101159Y-64213818D01*
X142106114Y-64215512D01*
X142111071Y-64217228D01*
X142116029Y-64218965D01*
X142120989Y-64220724D01*
X142125950Y-64222505D01*
X142130913Y-64224308D01*
X142135877Y-64226132D01*
X142140843Y-64227978D01*
X142145810Y-64229847D01*
X142150779Y-64231737D01*
X142155749Y-64233649D01*
X142160721Y-64235583D01*
X142165694Y-64237540D01*
X142170669Y-64239518D01*
X142175645Y-64241518D01*
X142180622Y-64243541D01*
X142185601Y-64245586D01*
X142190581Y-64247653D01*
X142195562Y-64249742D01*
X142200545Y-64251853D01*
X142205529Y-64253987D01*
X142210514Y-64256143D01*
X142215501Y-64258321D01*
X142220489Y-64260522D01*
X142225478Y-64262746D01*
X142230469Y-64264991D01*
X142235461Y-64267260D01*
X142240454Y-64269551D01*
X142245448Y-64271864D01*
X142250444Y-64274200D01*
X142255441Y-64276559D01*
X142260439Y-64278940D01*
X142265438Y-64281345D01*
X142270438Y-64283772D01*
X142275440Y-64286221D01*
X142280442Y-64288694D01*
X142285446Y-64291189D01*
X142290451Y-64293708D01*
X142295457Y-64296249D01*
X142300464Y-64298814D01*
X142305472Y-64301401D01*
X142310482Y-64304012D01*
X142315492Y-64306645D01*
X142320503Y-64309302D01*
X142325515Y-64311982D01*
X142330529Y-64314686D01*
X142335543Y-64317412D01*
X142340559Y-64320162D01*
X142345575Y-64322935D01*
X142350592Y-64325732D01*
X142355610Y-64328552D01*
X142360629Y-64331395D01*
X142365649Y-64334262D01*
X142370670Y-64337153D01*
X142375692Y-64340067D01*
X142380715Y-64343005D01*
X142385738Y-64345967D01*
X142390763Y-64348952D01*
X142395788Y-64351961D01*
X142400814Y-64354994D01*
X142405840Y-64358051D01*
X142410868Y-64361131D01*
X142415896Y-64364236D01*
X142420925Y-64367365D01*
X142425955Y-64370517D01*
X142430986Y-64373694D01*
X142436017Y-64376894D01*
X142441049Y-64380120D01*
X142446081Y-64383368D01*
X142451114Y-64386642D01*
X142456148Y-64389939D01*
X142461182Y-64393262D01*
X142466217Y-64396608D01*
X142471253Y-64399979D01*
X142476289Y-64403374D01*
X142481326Y-64406794D01*
X142486363Y-64410238D01*
X142491401Y-64413707D01*
X142496439Y-64417200D01*
X142501478Y-64420719D01*
X142506516Y-64424262D01*
X142511556Y-64427830D01*
X142516596Y-64431422D01*
X142521637Y-64435040D01*
X142526677Y-64438682D01*
X142531719Y-64442349D01*
X142536760Y-64446041D01*
X142541802Y-64449759D01*
X142546844Y-64453501D01*
X142551887Y-64457269D01*
X142556929Y-64461062D01*
X142561972Y-64464880D01*
X142567015Y-64468723D01*
X142572059Y-64472592D01*
X142577102Y-64476486D01*
X142582146Y-64480406D01*
X142587190Y-64484350D01*
X142592234Y-64488321D01*
X142597278Y-64492317D01*
X142602323Y-64496339D01*
X142607367Y-64500386D01*
X142612412Y-64504459D01*
X142617456Y-64508558D01*
X142622501Y-64512683D01*
X142627545Y-64516833D01*
X142632590Y-64521010D01*
X142637634Y-64525212D01*
X142642679Y-64529441D01*
X142647723Y-64533695D01*
X142652767Y-64537975D01*
X142657811Y-64542282D01*
X142662855Y-64546615D01*
X142667899Y-64550974D01*
X142672943Y-64555360D01*
X142677986Y-64559771D01*
X142683029Y-64564209D01*
X142688072Y-64568674D01*
X142693115Y-64573165D01*
X142698157Y-64577682D01*
X142703199Y-64582227D01*
X142708241Y-64586797D01*
X142713282Y-64591396D01*
X142718323Y-64596019D01*
X142723364Y-64600671D01*
X142728404Y-64605348D01*
X142733444Y-64610054D01*
X142738482Y-64614785D01*
X142743522Y-64619544D01*
X142748559Y-64624330D01*
X142753598Y-64629143D01*
X142758634Y-64633983D01*
X142763671Y-64638850D01*
X142768706Y-64643744D01*
X142773742Y-64648667D01*
X142778776Y-64653615D01*
X142783811Y-64658592D01*
X142788843Y-64663596D01*
X142793876Y-64668628D01*
X142798907Y-64673686D01*
X142803939Y-64678773D01*
X142808968Y-64683887D01*
X142813998Y-64689030D01*
X142819026Y-64694199D01*
X142824054Y-64699397D01*
X142829080Y-64704622D01*
X142834107Y-64709876D01*
X142839131Y-64715156D01*
X142844155Y-64720466D01*
X142849177Y-64725803D01*
X142854200Y-64731169D01*
X142859220Y-64736562D01*
X142864240Y-64741985D01*
X142869258Y-64747434D01*
X142874276Y-64752913D01*
X142879292Y-64758419D01*
X142884307Y-64763955D01*
X142889321Y-64769518D01*
X142894334Y-64775111D01*
X142899345Y-64780732D01*
X142904355Y-64786382D01*
X142909363Y-64792059D01*
X142911725Y-64794747D01*
X148237675Y-60708930D02*
G75*
G02*
X143925815Y-60708930I-2155930J0D01*
G01*
X143925815Y-60708930D02*
G75*
G02*
X148237675Y-60708930I2155930J0D01*
G01*
X166778449Y-60828449D02*
G75*
G02*
X162361551Y-60828449I-2208449J0D01*
G01*
X162361551Y-60828449D02*
G75*
G02*
X166778449Y-60828449I2208449J0D01*
G01*
D11*
X152884819Y-58861904D02*
X153694342Y-58861904D01*
X153694342Y-58861904D02*
X153789580Y-58814285D01*
X153789580Y-58814285D02*
X153837200Y-58766666D01*
X153837200Y-58766666D02*
X153884819Y-58671428D01*
X153884819Y-58671428D02*
X153884819Y-58480952D01*
X153884819Y-58480952D02*
X153837200Y-58385714D01*
X153837200Y-58385714D02*
X153789580Y-58338095D01*
X153789580Y-58338095D02*
X153694342Y-58290476D01*
X153694342Y-58290476D02*
X152884819Y-58290476D01*
X152980057Y-57861904D02*
X152932438Y-57814285D01*
X152932438Y-57814285D02*
X152884819Y-57719047D01*
X152884819Y-57719047D02*
X152884819Y-57480952D01*
X152884819Y-57480952D02*
X152932438Y-57385714D01*
X152932438Y-57385714D02*
X152980057Y-57338095D01*
X152980057Y-57338095D02*
X153075295Y-57290476D01*
X153075295Y-57290476D02*
X153170533Y-57290476D01*
X153170533Y-57290476D02*
X153313390Y-57338095D01*
X153313390Y-57338095D02*
X153884819Y-57909523D01*
X153884819Y-57909523D02*
X153884819Y-57290476D01*
X153218152Y-59338095D02*
X153884819Y-59338095D01*
X152837200Y-59576190D02*
X153551485Y-59814285D01*
X153551485Y-59814285D02*
X153551485Y-59195238D01*
X152884819Y-58623809D02*
X152884819Y-58528571D01*
X152884819Y-58528571D02*
X152932438Y-58433333D01*
X152932438Y-58433333D02*
X152980057Y-58385714D01*
X152980057Y-58385714D02*
X153075295Y-58338095D01*
X153075295Y-58338095D02*
X153265771Y-58290476D01*
X153265771Y-58290476D02*
X153503866Y-58290476D01*
X153503866Y-58290476D02*
X153694342Y-58338095D01*
X153694342Y-58338095D02*
X153789580Y-58385714D01*
X153789580Y-58385714D02*
X153837200Y-58433333D01*
X153837200Y-58433333D02*
X153884819Y-58528571D01*
X153884819Y-58528571D02*
X153884819Y-58623809D01*
X153884819Y-58623809D02*
X153837200Y-58719047D01*
X153837200Y-58719047D02*
X153789580Y-58766666D01*
X153789580Y-58766666D02*
X153694342Y-58814285D01*
X153694342Y-58814285D02*
X153503866Y-58861904D01*
X153503866Y-58861904D02*
X153265771Y-58861904D01*
X153265771Y-58861904D02*
X153075295Y-58814285D01*
X153075295Y-58814285D02*
X152980057Y-58766666D01*
X152980057Y-58766666D02*
X152932438Y-58719047D01*
X152932438Y-58719047D02*
X152884819Y-58623809D01*
X153884819Y-57338095D02*
X153884819Y-57909523D01*
X153884819Y-57623809D02*
X152884819Y-57623809D01*
X152884819Y-57623809D02*
X153027676Y-57719047D01*
X153027676Y-57719047D02*
X153122914Y-57814285D01*
X153122914Y-57814285D02*
X153170533Y-57909523D01*
X152884819Y-57004761D02*
X152884819Y-56338095D01*
X152884819Y-56338095D02*
X153884819Y-56766666D01*
X163184519Y-54289999D02*
X163422614Y-54289999D01*
X163327376Y-54528094D02*
X163422614Y-54289999D01*
X163422614Y-54289999D02*
X163327376Y-54051904D01*
X163613090Y-54432856D02*
X163422614Y-54289999D01*
X163422614Y-54289999D02*
X163613090Y-54147142D01*
X132024819Y-44601904D02*
X132834342Y-44601904D01*
X132834342Y-44601904D02*
X132929580Y-44554285D01*
X132929580Y-44554285D02*
X132977200Y-44506666D01*
X132977200Y-44506666D02*
X133024819Y-44411428D01*
X133024819Y-44411428D02*
X133024819Y-44220952D01*
X133024819Y-44220952D02*
X132977200Y-44125714D01*
X132977200Y-44125714D02*
X132929580Y-44078095D01*
X132929580Y-44078095D02*
X132834342Y-44030476D01*
X132834342Y-44030476D02*
X132024819Y-44030476D01*
X133024819Y-43030476D02*
X133024819Y-43601904D01*
X133024819Y-43316190D02*
X132024819Y-43316190D01*
X132024819Y-43316190D02*
X132167676Y-43411428D01*
X132167676Y-43411428D02*
X132262914Y-43506666D01*
X132262914Y-43506666D02*
X132310533Y-43601904D01*
X162714761Y-37024819D02*
X162381428Y-36548628D01*
X162143333Y-37024819D02*
X162143333Y-36024819D01*
X162143333Y-36024819D02*
X162524285Y-36024819D01*
X162524285Y-36024819D02*
X162619523Y-36072438D01*
X162619523Y-36072438D02*
X162667142Y-36120057D01*
X162667142Y-36120057D02*
X162714761Y-36215295D01*
X162714761Y-36215295D02*
X162714761Y-36358152D01*
X162714761Y-36358152D02*
X162667142Y-36453390D01*
X162667142Y-36453390D02*
X162619523Y-36501009D01*
X162619523Y-36501009D02*
X162524285Y-36548628D01*
X162524285Y-36548628D02*
X162143333Y-36548628D01*
X163000476Y-36024819D02*
X163333809Y-37024819D01*
X163333809Y-37024819D02*
X163667142Y-36024819D01*
X164524285Y-37024819D02*
X163952857Y-37024819D01*
X164238571Y-37024819D02*
X164238571Y-36024819D01*
X164238571Y-36024819D02*
X164143333Y-36167676D01*
X164143333Y-36167676D02*
X164048095Y-36262914D01*
X164048095Y-36262914D02*
X163952857Y-36310533D01*
X143843333Y-78534819D02*
X143510000Y-78058628D01*
X143271905Y-78534819D02*
X143271905Y-77534819D01*
X143271905Y-77534819D02*
X143652857Y-77534819D01*
X143652857Y-77534819D02*
X143748095Y-77582438D01*
X143748095Y-77582438D02*
X143795714Y-77630057D01*
X143795714Y-77630057D02*
X143843333Y-77725295D01*
X143843333Y-77725295D02*
X143843333Y-77868152D01*
X143843333Y-77868152D02*
X143795714Y-77963390D01*
X143795714Y-77963390D02*
X143748095Y-78011009D01*
X143748095Y-78011009D02*
X143652857Y-78058628D01*
X143652857Y-78058628D02*
X143271905Y-78058628D01*
X144224286Y-77630057D02*
X144271905Y-77582438D01*
X144271905Y-77582438D02*
X144367143Y-77534819D01*
X144367143Y-77534819D02*
X144605238Y-77534819D01*
X144605238Y-77534819D02*
X144700476Y-77582438D01*
X144700476Y-77582438D02*
X144748095Y-77630057D01*
X144748095Y-77630057D02*
X144795714Y-77725295D01*
X144795714Y-77725295D02*
X144795714Y-77820533D01*
X144795714Y-77820533D02*
X144748095Y-77963390D01*
X144748095Y-77963390D02*
X144176667Y-78534819D01*
X144176667Y-78534819D02*
X144795714Y-78534819D01*
X178413333Y-61094819D02*
X178080000Y-60618628D01*
X177841905Y-61094819D02*
X177841905Y-60094819D01*
X177841905Y-60094819D02*
X178222857Y-60094819D01*
X178222857Y-60094819D02*
X178318095Y-60142438D01*
X178318095Y-60142438D02*
X178365714Y-60190057D01*
X178365714Y-60190057D02*
X178413333Y-60285295D01*
X178413333Y-60285295D02*
X178413333Y-60428152D01*
X178413333Y-60428152D02*
X178365714Y-60523390D01*
X178365714Y-60523390D02*
X178318095Y-60571009D01*
X178318095Y-60571009D02*
X178222857Y-60618628D01*
X178222857Y-60618628D02*
X177841905Y-60618628D01*
X179365714Y-61094819D02*
X178794286Y-61094819D01*
X179080000Y-61094819D02*
X179080000Y-60094819D01*
X179080000Y-60094819D02*
X178984762Y-60237676D01*
X178984762Y-60237676D02*
X178889524Y-60332914D01*
X178889524Y-60332914D02*
X178794286Y-60380533D01*
X164324819Y-66113333D02*
X165039104Y-66113333D01*
X165039104Y-66113333D02*
X165181961Y-66160952D01*
X165181961Y-66160952D02*
X165277200Y-66256190D01*
X165277200Y-66256190D02*
X165324819Y-66399047D01*
X165324819Y-66399047D02*
X165324819Y-66494285D01*
X165324819Y-65113333D02*
X165324819Y-65684761D01*
X165324819Y-65399047D02*
X164324819Y-65399047D01*
X164324819Y-65399047D02*
X164467676Y-65494285D01*
X164467676Y-65494285D02*
X164562914Y-65589523D01*
X164562914Y-65589523D02*
X164610533Y-65684761D01*
X155885714Y-84344819D02*
X155885714Y-83344819D01*
X155885714Y-83344819D02*
X156123809Y-83344819D01*
X156123809Y-83344819D02*
X156266666Y-83392438D01*
X156266666Y-83392438D02*
X156361904Y-83487676D01*
X156361904Y-83487676D02*
X156409523Y-83582914D01*
X156409523Y-83582914D02*
X156457142Y-83773390D01*
X156457142Y-83773390D02*
X156457142Y-83916247D01*
X156457142Y-83916247D02*
X156409523Y-84106723D01*
X156409523Y-84106723D02*
X156361904Y-84201961D01*
X156361904Y-84201961D02*
X156266666Y-84297200D01*
X156266666Y-84297200D02*
X156123809Y-84344819D01*
X156123809Y-84344819D02*
X155885714Y-84344819D01*
X157409523Y-84344819D02*
X156838095Y-84344819D01*
X157123809Y-84344819D02*
X157123809Y-83344819D01*
X157123809Y-83344819D02*
X157028571Y-83487676D01*
X157028571Y-83487676D02*
X156933333Y-83582914D01*
X156933333Y-83582914D02*
X156838095Y-83630533D01*
X158028571Y-83344819D02*
X158123809Y-83344819D01*
X158123809Y-83344819D02*
X158219047Y-83392438D01*
X158219047Y-83392438D02*
X158266666Y-83440057D01*
X158266666Y-83440057D02*
X158314285Y-83535295D01*
X158314285Y-83535295D02*
X158361904Y-83725771D01*
X158361904Y-83725771D02*
X158361904Y-83963866D01*
X158361904Y-83963866D02*
X158314285Y-84154342D01*
X158314285Y-84154342D02*
X158266666Y-84249580D01*
X158266666Y-84249580D02*
X158219047Y-84297200D01*
X158219047Y-84297200D02*
X158123809Y-84344819D01*
X158123809Y-84344819D02*
X158028571Y-84344819D01*
X158028571Y-84344819D02*
X157933333Y-84297200D01*
X157933333Y-84297200D02*
X157885714Y-84249580D01*
X157885714Y-84249580D02*
X157838095Y-84154342D01*
X157838095Y-84154342D02*
X157790476Y-83963866D01*
X157790476Y-83963866D02*
X157790476Y-83725771D01*
X157790476Y-83725771D02*
X157838095Y-83535295D01*
X157838095Y-83535295D02*
X157885714Y-83440057D01*
X157885714Y-83440057D02*
X157933333Y-83392438D01*
X157933333Y-83392438D02*
X158028571Y-83344819D01*
X126551905Y-63544819D02*
X126551905Y-62544819D01*
X126551905Y-62544819D02*
X126790000Y-62544819D01*
X126790000Y-62544819D02*
X126932857Y-62592438D01*
X126932857Y-62592438D02*
X127028095Y-62687676D01*
X127028095Y-62687676D02*
X127075714Y-62782914D01*
X127075714Y-62782914D02*
X127123333Y-62973390D01*
X127123333Y-62973390D02*
X127123333Y-63116247D01*
X127123333Y-63116247D02*
X127075714Y-63306723D01*
X127075714Y-63306723D02*
X127028095Y-63401961D01*
X127028095Y-63401961D02*
X126932857Y-63497200D01*
X126932857Y-63497200D02*
X126790000Y-63544819D01*
X126790000Y-63544819D02*
X126551905Y-63544819D01*
X127599524Y-63544819D02*
X127790000Y-63544819D01*
X127790000Y-63544819D02*
X127885238Y-63497200D01*
X127885238Y-63497200D02*
X127932857Y-63449580D01*
X127932857Y-63449580D02*
X128028095Y-63306723D01*
X128028095Y-63306723D02*
X128075714Y-63116247D01*
X128075714Y-63116247D02*
X128075714Y-62735295D01*
X128075714Y-62735295D02*
X128028095Y-62640057D01*
X128028095Y-62640057D02*
X127980476Y-62592438D01*
X127980476Y-62592438D02*
X127885238Y-62544819D01*
X127885238Y-62544819D02*
X127694762Y-62544819D01*
X127694762Y-62544819D02*
X127599524Y-62592438D01*
X127599524Y-62592438D02*
X127551905Y-62640057D01*
X127551905Y-62640057D02*
X127504286Y-62735295D01*
X127504286Y-62735295D02*
X127504286Y-62973390D01*
X127504286Y-62973390D02*
X127551905Y-63068628D01*
X127551905Y-63068628D02*
X127599524Y-63116247D01*
X127599524Y-63116247D02*
X127694762Y-63163866D01*
X127694762Y-63163866D02*
X127885238Y-63163866D01*
X127885238Y-63163866D02*
X127980476Y-63116247D01*
X127980476Y-63116247D02*
X128028095Y-63068628D01*
X128028095Y-63068628D02*
X128075714Y-62973390D01*
X148031905Y-36814819D02*
X148031905Y-35814819D01*
X148031905Y-35814819D02*
X148270000Y-35814819D01*
X148270000Y-35814819D02*
X148412857Y-35862438D01*
X148412857Y-35862438D02*
X148508095Y-35957676D01*
X148508095Y-35957676D02*
X148555714Y-36052914D01*
X148555714Y-36052914D02*
X148603333Y-36243390D01*
X148603333Y-36243390D02*
X148603333Y-36386247D01*
X148603333Y-36386247D02*
X148555714Y-36576723D01*
X148555714Y-36576723D02*
X148508095Y-36671961D01*
X148508095Y-36671961D02*
X148412857Y-36767200D01*
X148412857Y-36767200D02*
X148270000Y-36814819D01*
X148270000Y-36814819D02*
X148031905Y-36814819D01*
X149174762Y-36243390D02*
X149079524Y-36195771D01*
X149079524Y-36195771D02*
X149031905Y-36148152D01*
X149031905Y-36148152D02*
X148984286Y-36052914D01*
X148984286Y-36052914D02*
X148984286Y-36005295D01*
X148984286Y-36005295D02*
X149031905Y-35910057D01*
X149031905Y-35910057D02*
X149079524Y-35862438D01*
X149079524Y-35862438D02*
X149174762Y-35814819D01*
X149174762Y-35814819D02*
X149365238Y-35814819D01*
X149365238Y-35814819D02*
X149460476Y-35862438D01*
X149460476Y-35862438D02*
X149508095Y-35910057D01*
X149508095Y-35910057D02*
X149555714Y-36005295D01*
X149555714Y-36005295D02*
X149555714Y-36052914D01*
X149555714Y-36052914D02*
X149508095Y-36148152D01*
X149508095Y-36148152D02*
X149460476Y-36195771D01*
X149460476Y-36195771D02*
X149365238Y-36243390D01*
X149365238Y-36243390D02*
X149174762Y-36243390D01*
X149174762Y-36243390D02*
X149079524Y-36291009D01*
X149079524Y-36291009D02*
X149031905Y-36338628D01*
X149031905Y-36338628D02*
X148984286Y-36433866D01*
X148984286Y-36433866D02*
X148984286Y-36624342D01*
X148984286Y-36624342D02*
X149031905Y-36719580D01*
X149031905Y-36719580D02*
X149079524Y-36767200D01*
X149079524Y-36767200D02*
X149174762Y-36814819D01*
X149174762Y-36814819D02*
X149365238Y-36814819D01*
X149365238Y-36814819D02*
X149460476Y-36767200D01*
X149460476Y-36767200D02*
X149508095Y-36719580D01*
X149508095Y-36719580D02*
X149555714Y-36624342D01*
X149555714Y-36624342D02*
X149555714Y-36433866D01*
X149555714Y-36433866D02*
X149508095Y-36338628D01*
X149508095Y-36338628D02*
X149460476Y-36291009D01*
X149460476Y-36291009D02*
X149365238Y-36243390D01*
X126601905Y-33984819D02*
X126601905Y-32984819D01*
X126601905Y-32984819D02*
X126840000Y-32984819D01*
X126840000Y-32984819D02*
X126982857Y-33032438D01*
X126982857Y-33032438D02*
X127078095Y-33127676D01*
X127078095Y-33127676D02*
X127125714Y-33222914D01*
X127125714Y-33222914D02*
X127173333Y-33413390D01*
X127173333Y-33413390D02*
X127173333Y-33556247D01*
X127173333Y-33556247D02*
X127125714Y-33746723D01*
X127125714Y-33746723D02*
X127078095Y-33841961D01*
X127078095Y-33841961D02*
X126982857Y-33937200D01*
X126982857Y-33937200D02*
X126840000Y-33984819D01*
X126840000Y-33984819D02*
X126601905Y-33984819D01*
X127506667Y-32984819D02*
X128173333Y-32984819D01*
X128173333Y-32984819D02*
X127744762Y-33984819D01*
X178411905Y-52464819D02*
X178411905Y-51464819D01*
X178411905Y-51464819D02*
X178650000Y-51464819D01*
X178650000Y-51464819D02*
X178792857Y-51512438D01*
X178792857Y-51512438D02*
X178888095Y-51607676D01*
X178888095Y-51607676D02*
X178935714Y-51702914D01*
X178935714Y-51702914D02*
X178983333Y-51893390D01*
X178983333Y-51893390D02*
X178983333Y-52036247D01*
X178983333Y-52036247D02*
X178935714Y-52226723D01*
X178935714Y-52226723D02*
X178888095Y-52321961D01*
X178888095Y-52321961D02*
X178792857Y-52417200D01*
X178792857Y-52417200D02*
X178650000Y-52464819D01*
X178650000Y-52464819D02*
X178411905Y-52464819D01*
X179840476Y-51464819D02*
X179650000Y-51464819D01*
X179650000Y-51464819D02*
X179554762Y-51512438D01*
X179554762Y-51512438D02*
X179507143Y-51560057D01*
X179507143Y-51560057D02*
X179411905Y-51702914D01*
X179411905Y-51702914D02*
X179364286Y-51893390D01*
X179364286Y-51893390D02*
X179364286Y-52274342D01*
X179364286Y-52274342D02*
X179411905Y-52369580D01*
X179411905Y-52369580D02*
X179459524Y-52417200D01*
X179459524Y-52417200D02*
X179554762Y-52464819D01*
X179554762Y-52464819D02*
X179745238Y-52464819D01*
X179745238Y-52464819D02*
X179840476Y-52417200D01*
X179840476Y-52417200D02*
X179888095Y-52369580D01*
X179888095Y-52369580D02*
X179935714Y-52274342D01*
X179935714Y-52274342D02*
X179935714Y-52036247D01*
X179935714Y-52036247D02*
X179888095Y-51941009D01*
X179888095Y-51941009D02*
X179840476Y-51893390D01*
X179840476Y-51893390D02*
X179745238Y-51845771D01*
X179745238Y-51845771D02*
X179554762Y-51845771D01*
X179554762Y-51845771D02*
X179459524Y-51893390D01*
X179459524Y-51893390D02*
X179411905Y-51941009D01*
X179411905Y-51941009D02*
X179364286Y-52036247D01*
X168304819Y-77828094D02*
X167304819Y-77828094D01*
X167304819Y-77828094D02*
X167304819Y-77589999D01*
X167304819Y-77589999D02*
X167352438Y-77447142D01*
X167352438Y-77447142D02*
X167447676Y-77351904D01*
X167447676Y-77351904D02*
X167542914Y-77304285D01*
X167542914Y-77304285D02*
X167733390Y-77256666D01*
X167733390Y-77256666D02*
X167876247Y-77256666D01*
X167876247Y-77256666D02*
X168066723Y-77304285D01*
X168066723Y-77304285D02*
X168161961Y-77351904D01*
X168161961Y-77351904D02*
X168257200Y-77447142D01*
X168257200Y-77447142D02*
X168304819Y-77589999D01*
X168304819Y-77589999D02*
X168304819Y-77828094D01*
X167304819Y-76351904D02*
X167304819Y-76828094D01*
X167304819Y-76828094D02*
X167781009Y-76875713D01*
X167781009Y-76875713D02*
X167733390Y-76828094D01*
X167733390Y-76828094D02*
X167685771Y-76732856D01*
X167685771Y-76732856D02*
X167685771Y-76494761D01*
X167685771Y-76494761D02*
X167733390Y-76399523D01*
X167733390Y-76399523D02*
X167781009Y-76351904D01*
X167781009Y-76351904D02*
X167876247Y-76304285D01*
X167876247Y-76304285D02*
X168114342Y-76304285D01*
X168114342Y-76304285D02*
X168209580Y-76351904D01*
X168209580Y-76351904D02*
X168257200Y-76399523D01*
X168257200Y-76399523D02*
X168304819Y-76494761D01*
X168304819Y-76494761D02*
X168304819Y-76732856D01*
X168304819Y-76732856D02*
X168257200Y-76828094D01*
X168257200Y-76828094D02*
X168209580Y-76875713D01*
X178181905Y-39994819D02*
X178181905Y-38994819D01*
X178181905Y-38994819D02*
X178420000Y-38994819D01*
X178420000Y-38994819D02*
X178562857Y-39042438D01*
X178562857Y-39042438D02*
X178658095Y-39137676D01*
X178658095Y-39137676D02*
X178705714Y-39232914D01*
X178705714Y-39232914D02*
X178753333Y-39423390D01*
X178753333Y-39423390D02*
X178753333Y-39566247D01*
X178753333Y-39566247D02*
X178705714Y-39756723D01*
X178705714Y-39756723D02*
X178658095Y-39851961D01*
X178658095Y-39851961D02*
X178562857Y-39947200D01*
X178562857Y-39947200D02*
X178420000Y-39994819D01*
X178420000Y-39994819D02*
X178181905Y-39994819D01*
X179610476Y-39328152D02*
X179610476Y-39994819D01*
X179372381Y-38947200D02*
X179134286Y-39661485D01*
X179134286Y-39661485D02*
X179753333Y-39661485D01*
X127881905Y-47534819D02*
X127881905Y-46534819D01*
X127881905Y-46534819D02*
X128120000Y-46534819D01*
X128120000Y-46534819D02*
X128262857Y-46582438D01*
X128262857Y-46582438D02*
X128358095Y-46677676D01*
X128358095Y-46677676D02*
X128405714Y-46772914D01*
X128405714Y-46772914D02*
X128453333Y-46963390D01*
X128453333Y-46963390D02*
X128453333Y-47106247D01*
X128453333Y-47106247D02*
X128405714Y-47296723D01*
X128405714Y-47296723D02*
X128358095Y-47391961D01*
X128358095Y-47391961D02*
X128262857Y-47487200D01*
X128262857Y-47487200D02*
X128120000Y-47534819D01*
X128120000Y-47534819D02*
X127881905Y-47534819D01*
X128786667Y-46534819D02*
X129405714Y-46534819D01*
X129405714Y-46534819D02*
X129072381Y-46915771D01*
X129072381Y-46915771D02*
X129215238Y-46915771D01*
X129215238Y-46915771D02*
X129310476Y-46963390D01*
X129310476Y-46963390D02*
X129358095Y-47011009D01*
X129358095Y-47011009D02*
X129405714Y-47106247D01*
X129405714Y-47106247D02*
X129405714Y-47344342D01*
X129405714Y-47344342D02*
X129358095Y-47439580D01*
X129358095Y-47439580D02*
X129310476Y-47487200D01*
X129310476Y-47487200D02*
X129215238Y-47534819D01*
X129215238Y-47534819D02*
X128929524Y-47534819D01*
X128929524Y-47534819D02*
X128834286Y-47487200D01*
X128834286Y-47487200D02*
X128786667Y-47439580D01*
X133801905Y-72894819D02*
X133801905Y-71894819D01*
X133801905Y-71894819D02*
X134040000Y-71894819D01*
X134040000Y-71894819D02*
X134182857Y-71942438D01*
X134182857Y-71942438D02*
X134278095Y-72037676D01*
X134278095Y-72037676D02*
X134325714Y-72132914D01*
X134325714Y-72132914D02*
X134373333Y-72323390D01*
X134373333Y-72323390D02*
X134373333Y-72466247D01*
X134373333Y-72466247D02*
X134325714Y-72656723D01*
X134325714Y-72656723D02*
X134278095Y-72751961D01*
X134278095Y-72751961D02*
X134182857Y-72847200D01*
X134182857Y-72847200D02*
X134040000Y-72894819D01*
X134040000Y-72894819D02*
X133801905Y-72894819D01*
X134754286Y-71990057D02*
X134801905Y-71942438D01*
X134801905Y-71942438D02*
X134897143Y-71894819D01*
X134897143Y-71894819D02*
X135135238Y-71894819D01*
X135135238Y-71894819D02*
X135230476Y-71942438D01*
X135230476Y-71942438D02*
X135278095Y-71990057D01*
X135278095Y-71990057D02*
X135325714Y-72085295D01*
X135325714Y-72085295D02*
X135325714Y-72180533D01*
X135325714Y-72180533D02*
X135278095Y-72323390D01*
X135278095Y-72323390D02*
X134706667Y-72894819D01*
X134706667Y-72894819D02*
X135325714Y-72894819D01*
X177791905Y-70744819D02*
X177791905Y-69744819D01*
X177791905Y-69744819D02*
X178030000Y-69744819D01*
X178030000Y-69744819D02*
X178172857Y-69792438D01*
X178172857Y-69792438D02*
X178268095Y-69887676D01*
X178268095Y-69887676D02*
X178315714Y-69982914D01*
X178315714Y-69982914D02*
X178363333Y-70173390D01*
X178363333Y-70173390D02*
X178363333Y-70316247D01*
X178363333Y-70316247D02*
X178315714Y-70506723D01*
X178315714Y-70506723D02*
X178268095Y-70601961D01*
X178268095Y-70601961D02*
X178172857Y-70697200D01*
X178172857Y-70697200D02*
X178030000Y-70744819D01*
X178030000Y-70744819D02*
X177791905Y-70744819D01*
X179315714Y-70744819D02*
X178744286Y-70744819D01*
X179030000Y-70744819D02*
X179030000Y-69744819D01*
X179030000Y-69744819D02*
X178934762Y-69887676D01*
X178934762Y-69887676D02*
X178839524Y-69982914D01*
X178839524Y-69982914D02*
X178744286Y-70030533D01*
X125769580Y-58336666D02*
X125817200Y-58384285D01*
X125817200Y-58384285D02*
X125864819Y-58527142D01*
X125864819Y-58527142D02*
X125864819Y-58622380D01*
X125864819Y-58622380D02*
X125817200Y-58765237D01*
X125817200Y-58765237D02*
X125721961Y-58860475D01*
X125721961Y-58860475D02*
X125626723Y-58908094D01*
X125626723Y-58908094D02*
X125436247Y-58955713D01*
X125436247Y-58955713D02*
X125293390Y-58955713D01*
X125293390Y-58955713D02*
X125102914Y-58908094D01*
X125102914Y-58908094D02*
X125007676Y-58860475D01*
X125007676Y-58860475D02*
X124912438Y-58765237D01*
X124912438Y-58765237D02*
X124864819Y-58622380D01*
X124864819Y-58622380D02*
X124864819Y-58527142D01*
X124864819Y-58527142D02*
X124912438Y-58384285D01*
X124912438Y-58384285D02*
X124960057Y-58336666D01*
X124960057Y-57955713D02*
X124912438Y-57908094D01*
X124912438Y-57908094D02*
X124864819Y-57812856D01*
X124864819Y-57812856D02*
X124864819Y-57574761D01*
X124864819Y-57574761D02*
X124912438Y-57479523D01*
X124912438Y-57479523D02*
X124960057Y-57431904D01*
X124960057Y-57431904D02*
X125055295Y-57384285D01*
X125055295Y-57384285D02*
X125150533Y-57384285D01*
X125150533Y-57384285D02*
X125293390Y-57431904D01*
X125293390Y-57431904D02*
X125864819Y-58003332D01*
X125864819Y-58003332D02*
X125864819Y-57384285D01*
X170708221Y-45089580D02*
X170660602Y-45137200D01*
X170660602Y-45137200D02*
X170517745Y-45184819D01*
X170517745Y-45184819D02*
X170422507Y-45184819D01*
X170422507Y-45184819D02*
X170279650Y-45137200D01*
X170279650Y-45137200D02*
X170184412Y-45041961D01*
X170184412Y-45041961D02*
X170136793Y-44946723D01*
X170136793Y-44946723D02*
X170089174Y-44756247D01*
X170089174Y-44756247D02*
X170089174Y-44613390D01*
X170089174Y-44613390D02*
X170136793Y-44422914D01*
X170136793Y-44422914D02*
X170184412Y-44327676D01*
X170184412Y-44327676D02*
X170279650Y-44232438D01*
X170279650Y-44232438D02*
X170422507Y-44184819D01*
X170422507Y-44184819D02*
X170517745Y-44184819D01*
X170517745Y-44184819D02*
X170660602Y-44232438D01*
X170660602Y-44232438D02*
X170708221Y-44280057D01*
X171660602Y-45184819D02*
X171089174Y-45184819D01*
X171374888Y-45184819D02*
X171374888Y-44184819D01*
X171374888Y-44184819D02*
X171279650Y-44327676D01*
X171279650Y-44327676D02*
X171184412Y-44422914D01*
X171184412Y-44422914D02*
X171089174Y-44470533D01*
D12*
X153568572Y-56409757D02*
X153425715Y-56338328D01*
X153425715Y-56338328D02*
X153211429Y-56338328D01*
X153211429Y-56338328D02*
X152997143Y-56409757D01*
X152997143Y-56409757D02*
X152854286Y-56552614D01*
X152854286Y-56552614D02*
X152782857Y-56695471D01*
X152782857Y-56695471D02*
X152711429Y-56981185D01*
X152711429Y-56981185D02*
X152711429Y-57195471D01*
X152711429Y-57195471D02*
X152782857Y-57481185D01*
X152782857Y-57481185D02*
X152854286Y-57624042D01*
X152854286Y-57624042D02*
X152997143Y-57766900D01*
X152997143Y-57766900D02*
X153211429Y-57838328D01*
X153211429Y-57838328D02*
X153354286Y-57838328D01*
X153354286Y-57838328D02*
X153568572Y-57766900D01*
X153568572Y-57766900D02*
X153640000Y-57695471D01*
X153640000Y-57695471D02*
X153640000Y-57195471D01*
X153640000Y-57195471D02*
X153354286Y-57195471D01*
X154497143Y-56338328D02*
X154497143Y-56695471D01*
X154140000Y-56552614D02*
X154497143Y-56695471D01*
X154497143Y-56695471D02*
X154854286Y-56552614D01*
X154282857Y-56981185D02*
X154497143Y-56695471D01*
X154497143Y-56695471D02*
X154711429Y-56981185D01*
X155640000Y-56338328D02*
X155640000Y-56695471D01*
X155282857Y-56552614D02*
X155640000Y-56695471D01*
X155640000Y-56695471D02*
X155997143Y-56552614D01*
X155425714Y-56981185D02*
X155640000Y-56695471D01*
X155640000Y-56695471D02*
X155854286Y-56981185D01*
X156782857Y-56338328D02*
X156782857Y-56695471D01*
X156425714Y-56552614D02*
X156782857Y-56695471D01*
X156782857Y-56695471D02*
X157140000Y-56552614D01*
X156568571Y-56981185D02*
X156782857Y-56695471D01*
X156782857Y-56695471D02*
X156997143Y-56981185D01*
D13*
%TO.C,U2*%
X163272500Y-58404800D02*
G75*
G02*
X163272500Y-57795200I0J304800D01*
G01*
X145378569Y-61402000D02*
X146241431Y-61402000D01*
X147918569Y-61402000D02*
X148781431Y-61402000D01*
X150458569Y-61402000D02*
X151321431Y-61402000D01*
X152998569Y-61402000D02*
X153861431Y-61402000D01*
X155538569Y-61402000D02*
X156401431Y-61402000D01*
X158078569Y-61402000D02*
X158941431Y-61402000D01*
X160618569Y-61402000D02*
X161481431Y-61402000D01*
X163272500Y-61402000D02*
X163272500Y-55071165D01*
X143587500Y-54798000D02*
X143587500Y-61402000D01*
X146241431Y-54798000D02*
X145378569Y-54798000D01*
X148781431Y-54798000D02*
X147918569Y-54798000D01*
X151321431Y-54798000D02*
X150458569Y-54798000D01*
X153861431Y-54798000D02*
X152998569Y-54798000D01*
X156401431Y-54798000D02*
X155538569Y-54798000D01*
X158941431Y-54798000D02*
X158078569Y-54798000D01*
X161339560Y-54798000D02*
X160618569Y-54798000D01*
D14*
%TO.C,G\u002A\u002A\u002A*%
G36*
X128925151Y-63132549D02*
G01*
X129106196Y-63151190D01*
X129368497Y-63186821D01*
X129701073Y-63237833D01*
X130092945Y-63302617D01*
X130533131Y-63379561D01*
X130585047Y-63388881D01*
X131089080Y-63479242D01*
X131661788Y-63581306D01*
X132268199Y-63688881D01*
X132873346Y-63795774D01*
X133442260Y-63895792D01*
X133853144Y-63967626D01*
X134340658Y-64053334D01*
X134735294Y-64125392D01*
X135047956Y-64187231D01*
X135289546Y-64242284D01*
X135470965Y-64293984D01*
X135603117Y-64345762D01*
X135696904Y-64401051D01*
X135763227Y-64463284D01*
X135812989Y-64535893D01*
X135843585Y-64594276D01*
X135880103Y-64776244D01*
X135833145Y-64962669D01*
X135720391Y-65129198D01*
X135559520Y-65251479D01*
X135368208Y-65305160D01*
X135327267Y-65305499D01*
X135237973Y-65294776D01*
X135062452Y-65267746D01*
X134817893Y-65227278D01*
X134521482Y-65176241D01*
X134190405Y-65117502D01*
X134065155Y-65094862D01*
X133748163Y-65037703D01*
X133347797Y-64966184D01*
X132884316Y-64883885D01*
X132377980Y-64794388D01*
X131849049Y-64701275D01*
X131317783Y-64608126D01*
X130830993Y-64523147D01*
X130309089Y-64432125D01*
X129880768Y-64356731D01*
X129535986Y-64294614D01*
X129264698Y-64243423D01*
X129056860Y-64200807D01*
X128902428Y-64164416D01*
X128791356Y-64131896D01*
X128713601Y-64100899D01*
X128659117Y-64069071D01*
X128617861Y-64034063D01*
X128582857Y-63996919D01*
X128461899Y-63796717D01*
X128443259Y-63585910D01*
X128527217Y-63378570D01*
X128569555Y-63322569D01*
X128692110Y-63209597D01*
X128820332Y-63137300D01*
X128836341Y-63132509D01*
X128925151Y-63132549D01*
G37*
G36*
X182040832Y-63409838D02*
G01*
X182210132Y-63537592D01*
X182308862Y-63740221D01*
X182323813Y-63818150D01*
X182331586Y-63973178D01*
X182291206Y-64089089D01*
X182201278Y-64203666D01*
X182049777Y-64373225D01*
X178816576Y-64920479D01*
X178240742Y-65017383D01*
X177690910Y-65108827D01*
X177176657Y-65193288D01*
X176707560Y-65269246D01*
X176293193Y-65335177D01*
X175943133Y-65389560D01*
X175666957Y-65430873D01*
X175474240Y-65457594D01*
X175374560Y-65468200D01*
X175369714Y-65468318D01*
X175194304Y-65446523D01*
X175057905Y-65363129D01*
X175009486Y-65315918D01*
X174898013Y-65134199D01*
X174865897Y-64927558D01*
X174908205Y-64725308D01*
X175020001Y-64556764D01*
X175152305Y-64467538D01*
X175228020Y-64448529D01*
X175396617Y-64414875D01*
X175647100Y-64368396D01*
X175968471Y-64310913D01*
X176349734Y-64244246D01*
X176779891Y-64170215D01*
X177247946Y-64090641D01*
X177742902Y-64007344D01*
X178253763Y-63922144D01*
X178769530Y-63836863D01*
X179279207Y-63753319D01*
X179771798Y-63673334D01*
X180236306Y-63598727D01*
X180661732Y-63531320D01*
X181037082Y-63472932D01*
X181351357Y-63425385D01*
X181593561Y-63390497D01*
X181752698Y-63370090D01*
X181810510Y-63365382D01*
X182040832Y-63409838D01*
G37*
G36*
X135327559Y-67005444D02*
G01*
X135375219Y-67009981D01*
X135409141Y-67016881D01*
X135435397Y-67025739D01*
X135460061Y-67036147D01*
X135467652Y-67039343D01*
X135628992Y-67155700D01*
X135722344Y-67324860D01*
X135748405Y-67519974D01*
X135707873Y-67714194D01*
X135601445Y-67880670D01*
X135443026Y-67987435D01*
X135359106Y-68004889D01*
X135183098Y-68029125D01*
X134927776Y-68058800D01*
X134605913Y-68092573D01*
X134230284Y-68129102D01*
X133813661Y-68167044D01*
X133381511Y-68204008D01*
X132874896Y-68246070D01*
X132342261Y-68290446D01*
X131807307Y-68335150D01*
X131293733Y-68378198D01*
X130825239Y-68417604D01*
X130425526Y-68451383D01*
X130252525Y-68466083D01*
X129799248Y-68504410D01*
X129438491Y-68533465D01*
X129157992Y-68553060D01*
X128945487Y-68563010D01*
X128788716Y-68563129D01*
X128675414Y-68553231D01*
X128593321Y-68533131D01*
X128530172Y-68502642D01*
X128473706Y-68461579D01*
X128446141Y-68438702D01*
X128301489Y-68259676D01*
X128242909Y-68052462D01*
X128278042Y-67845035D01*
X128323733Y-67750667D01*
X128379866Y-67675618D01*
X128459290Y-67616323D01*
X128574856Y-67569218D01*
X128739412Y-67530738D01*
X128965810Y-67497319D01*
X129266899Y-67465395D01*
X129655528Y-67431404D01*
X129816864Y-67418175D01*
X130694533Y-67346863D01*
X131473442Y-67283615D01*
X132159662Y-67228023D01*
X132759267Y-67179682D01*
X133278330Y-67138184D01*
X133722925Y-67103121D01*
X134099123Y-67074086D01*
X134412998Y-67050673D01*
X134670623Y-67032475D01*
X134878072Y-67019083D01*
X135041417Y-67010091D01*
X135166731Y-67005092D01*
X135260087Y-67003679D01*
X135327559Y-67005444D01*
G37*
G36*
X175676666Y-67195427D02*
G01*
X175865216Y-67205959D01*
X176107761Y-67223151D01*
X176412476Y-67247474D01*
X176787536Y-67279401D01*
X177241114Y-67319405D01*
X177781386Y-67367958D01*
X178416526Y-67425533D01*
X178560810Y-67438640D01*
X179134634Y-67490947D01*
X179682298Y-67541196D01*
X180193950Y-67588463D01*
X180659738Y-67631822D01*
X181069811Y-67670348D01*
X181414316Y-67703115D01*
X181683402Y-67729198D01*
X181867217Y-67747671D01*
X181955023Y-67757485D01*
X182189685Y-67832098D01*
X182354634Y-67974211D01*
X182438136Y-68171699D01*
X182446107Y-68265087D01*
X182404531Y-68505019D01*
X182283783Y-68682237D01*
X182119262Y-68778010D01*
X182086917Y-68790851D01*
X182061852Y-68802123D01*
X182036343Y-68811273D01*
X182002666Y-68817752D01*
X181953100Y-68821007D01*
X181879921Y-68820487D01*
X181775406Y-68815640D01*
X181631831Y-68805916D01*
X181441475Y-68790762D01*
X181196613Y-68769628D01*
X180889523Y-68741961D01*
X180512482Y-68707210D01*
X180057767Y-68664825D01*
X179517654Y-68614253D01*
X178884421Y-68554943D01*
X178527149Y-68521528D01*
X177842665Y-68457564D01*
X177255206Y-68402171D01*
X176757104Y-68353872D01*
X176340688Y-68311189D01*
X175998291Y-68272645D01*
X175722241Y-68236761D01*
X175504871Y-68202058D01*
X175338510Y-68167061D01*
X175215490Y-68130289D01*
X175128142Y-68090266D01*
X175068795Y-68045514D01*
X175029781Y-67994554D01*
X175003431Y-67935908D01*
X174982075Y-67868099D01*
X174972758Y-67836560D01*
X174950773Y-67609350D01*
X175028290Y-67414385D01*
X175203266Y-67256523D01*
X175221472Y-67245608D01*
X175257722Y-67226110D01*
X175298919Y-67210436D01*
X175353236Y-67199058D01*
X175428851Y-67192448D01*
X175533935Y-67191081D01*
X175676666Y-67195427D01*
G37*
G36*
X127261671Y-34014719D02*
G01*
X127888390Y-34128341D01*
X128569244Y-34329008D01*
X129301596Y-34615225D01*
X130082808Y-34985499D01*
X130910245Y-35438338D01*
X131781267Y-35972248D01*
X132693240Y-36585735D01*
X133643524Y-37277306D01*
X134629484Y-38045467D01*
X135194146Y-38506812D01*
X135350259Y-38636423D01*
X134863948Y-38880663D01*
X133786287Y-39475212D01*
X132716166Y-40171676D01*
X131657160Y-40966871D01*
X130612845Y-41857609D01*
X129586795Y-42840706D01*
X128582585Y-43912975D01*
X127603789Y-45071232D01*
X126902985Y-45975087D01*
X126688267Y-46264488D01*
X126474737Y-46556483D01*
X126278432Y-46828841D01*
X126115388Y-47059335D01*
X126011477Y-47210904D01*
X125888610Y-47393633D01*
X125785569Y-47543965D01*
X125717715Y-47639618D01*
X125702076Y-47659655D01*
X125676940Y-47627124D01*
X125633703Y-47508287D01*
X125577385Y-47319440D01*
X125513007Y-47076881D01*
X125475250Y-46923423D01*
X125214673Y-45780932D01*
X124983935Y-44656592D01*
X124783808Y-43558091D01*
X124615065Y-42493114D01*
X124478477Y-41469347D01*
X124374819Y-40494476D01*
X124304862Y-39576186D01*
X124269379Y-38722165D01*
X124269143Y-37940098D01*
X124304925Y-37237671D01*
X124377500Y-36622569D01*
X124417458Y-36400444D01*
X124571453Y-35785528D01*
X124768890Y-35265224D01*
X125012679Y-34837091D01*
X125305728Y-34498687D01*
X125650949Y-34247573D01*
X126051251Y-34081308D01*
X126509543Y-33997450D01*
X127028736Y-33993559D01*
X127261671Y-34014719D01*
G37*
G36*
X179808475Y-33804180D02*
G01*
X180137632Y-33848176D01*
X180346760Y-33907736D01*
X180690055Y-34084235D01*
X180983443Y-34329772D01*
X181230806Y-34650618D01*
X181436028Y-35053046D01*
X181602993Y-35543327D01*
X181735583Y-36127733D01*
X181741542Y-36160438D01*
X181781961Y-36464540D01*
X181811185Y-36852514D01*
X181829207Y-37303654D01*
X181836019Y-37797252D01*
X181831613Y-38312603D01*
X181815982Y-38828998D01*
X181789118Y-39325730D01*
X181751013Y-39782094D01*
X181742938Y-39858550D01*
X181648967Y-40628982D01*
X181531060Y-41454568D01*
X181396185Y-42289926D01*
X181251306Y-43089676D01*
X181230294Y-43197887D01*
X181168088Y-43505789D01*
X181093235Y-43860993D01*
X181009479Y-44247153D01*
X180920563Y-44647925D01*
X180830232Y-45046963D01*
X180742231Y-45427924D01*
X180660303Y-45774462D01*
X180588192Y-46070232D01*
X180529643Y-46298889D01*
X180488399Y-46444089D01*
X180482840Y-46460858D01*
X180416588Y-46652223D01*
X180229802Y-46371225D01*
X180134697Y-46233520D01*
X179991479Y-46032914D01*
X179815398Y-45790455D01*
X179621704Y-45527190D01*
X179489271Y-45349113D01*
X178571613Y-44191623D01*
X177604431Y-43107393D01*
X176593462Y-42101393D01*
X175544444Y-41178595D01*
X174463114Y-40343969D01*
X173355210Y-39602487D01*
X172226470Y-38959120D01*
X171953550Y-38820083D01*
X171726976Y-38704410D01*
X171539201Y-38603041D01*
X171407981Y-38525969D01*
X171351071Y-38483188D01*
X171350041Y-38480375D01*
X171389575Y-38429067D01*
X171500724Y-38322382D01*
X171672302Y-38169802D01*
X171893129Y-37980810D01*
X172152020Y-37764889D01*
X172437793Y-37531520D01*
X172739264Y-37290186D01*
X172939417Y-37132700D01*
X173814953Y-36471869D01*
X174665680Y-35875712D01*
X175486015Y-35347386D01*
X176270374Y-34890044D01*
X177013173Y-34506842D01*
X177708828Y-34200936D01*
X178351754Y-33975480D01*
X178686066Y-33885686D01*
X179051427Y-33822520D01*
X179435985Y-33795489D01*
X179808475Y-33804180D01*
G37*
D15*
%TO.C,U1*%
X133570000Y-42840000D02*
G75*
G02*
X133570000Y-44840000I0J-1000000D01*
G01*
X143850000Y-41190000D02*
X133570000Y-41190000D01*
X133570000Y-41190000D02*
X133570000Y-42840000D01*
X133570000Y-44840000D02*
X133570000Y-46490000D01*
X143850000Y-46490000D02*
X143850000Y-41190000D01*
X133570000Y-46490000D02*
X143850000Y-46490000D01*
%TO.C,RV1*%
X158350000Y-37460000D02*
X158350000Y-42680000D01*
X158350000Y-37460000D02*
X160470000Y-37460000D01*
X158350000Y-42680000D02*
X168270000Y-42680000D01*
X161170000Y-37460000D02*
X168270000Y-37460000D01*
X168270000Y-37460000D02*
X168270000Y-42680000D01*
X160770000Y-37460000D02*
X160530000Y-37130000D01*
X161010000Y-37130000D01*
X160770000Y-37460000D01*
G36*
X160770000Y-37460000D02*
G01*
X160530000Y-37130000D01*
X161010000Y-37130000D01*
X160770000Y-37460000D01*
G37*
%TO.C,R2*%
X140740000Y-79080000D02*
X147280000Y-79080000D01*
X140740000Y-79410000D02*
X140740000Y-79080000D01*
X140740000Y-81490000D02*
X140740000Y-81820000D01*
X140740000Y-81820000D02*
X147280000Y-81820000D01*
X147280000Y-79080000D02*
X147280000Y-79410000D01*
X147280000Y-81820000D02*
X147280000Y-81490000D01*
%TO.C,R1*%
X181850000Y-59640000D02*
X175310000Y-59640000D01*
X181850000Y-59310000D02*
X181850000Y-59640000D01*
X181850000Y-57230000D02*
X181850000Y-56900000D01*
X181850000Y-56900000D02*
X175310000Y-56900000D01*
X175310000Y-59640000D02*
X175310000Y-59310000D01*
X175310000Y-56900000D02*
X175310000Y-57230000D01*
%TO.C,J1*%
X163870000Y-64400000D02*
X163870000Y-65780000D01*
X162490000Y-64400000D02*
X163870000Y-64400000D01*
X161220000Y-64400000D02*
X158570000Y-64400000D01*
X161220000Y-64400000D02*
X161220000Y-67160000D01*
X158570000Y-64400000D02*
X158570000Y-67160000D01*
X161220000Y-67160000D02*
X158570000Y-67160000D01*
%TO.C,D10*%
X158660000Y-82166000D02*
X158660000Y-82010000D01*
X158660000Y-79850000D02*
X158660000Y-79694000D01*
X158660000Y-82165516D02*
G75*
G02*
X155428563Y-82010000I-1560000J1235516D01*
G01*
X158140961Y-82010000D02*
G75*
G02*
X156059039Y-82010000I-1040961J1080000D01*
G01*
X156059039Y-79850000D02*
G75*
G02*
X158140961Y-79850000I1040961J-1080000D01*
G01*
X155428563Y-79850000D02*
G75*
G02*
X158660000Y-79694484I1671437J-1080000D01*
G01*
%TO.C,D9*%
X125730000Y-64814000D02*
X125730000Y-64970000D01*
X125730000Y-67130000D02*
X125730000Y-67286000D01*
X125730000Y-64814484D02*
G75*
G02*
X128961437Y-64970000I1560000J-1235516D01*
G01*
X126249039Y-64970000D02*
G75*
G02*
X128330961Y-64970000I1040961J-1080000D01*
G01*
X128330961Y-67130000D02*
G75*
G02*
X126249039Y-67130000I-1040961J1080000D01*
G01*
X128961437Y-67130000D02*
G75*
G02*
X125730000Y-67285516I-1671437J1080000D01*
G01*
%TO.C,D8*%
X147210000Y-38084000D02*
X147210000Y-38240000D01*
X147210000Y-40400000D02*
X147210000Y-40556000D01*
X147210000Y-38084484D02*
G75*
G02*
X150441437Y-38240000I1560000J-1235516D01*
G01*
X147729039Y-38240000D02*
G75*
G02*
X149810961Y-38240000I1040961J-1080000D01*
G01*
X149810961Y-40400000D02*
G75*
G02*
X147729039Y-40400000I-1040961J1080000D01*
G01*
X150441437Y-40400000D02*
G75*
G02*
X147210000Y-40555516I-1671437J1080000D01*
G01*
%TO.C,D7*%
X125780000Y-35254000D02*
X125780000Y-35410000D01*
X125780000Y-37570000D02*
X125780000Y-37726000D01*
X125780000Y-35254484D02*
G75*
G02*
X129011437Y-35410000I1560000J-1235516D01*
G01*
X126299039Y-35410000D02*
G75*
G02*
X128380961Y-35410000I1040961J-1080000D01*
G01*
X128380961Y-37570000D02*
G75*
G02*
X126299039Y-37570000I-1040961J1080000D01*
G01*
X129011437Y-37570000D02*
G75*
G02*
X125780000Y-37725516I-1671437J1080000D01*
G01*
%TO.C,D6*%
X180710000Y-50286000D02*
X180710000Y-50130000D01*
X180710000Y-47970000D02*
X180710000Y-47814000D01*
X180710000Y-50285516D02*
G75*
G02*
X177478563Y-50130000I-1560000J1235516D01*
G01*
X180190961Y-50130000D02*
G75*
G02*
X178109039Y-50130000I-1040961J1080000D01*
G01*
X178109039Y-47970000D02*
G75*
G02*
X180190961Y-47970000I1040961J-1080000D01*
G01*
X177478563Y-47970000D02*
G75*
G02*
X180710000Y-47814484I1671437J-1080000D01*
G01*
%TO.C,D5*%
X169574000Y-78650000D02*
X169730000Y-78650000D01*
X171890000Y-78650000D02*
X172046000Y-78650000D01*
X169574484Y-78650000D02*
G75*
G02*
X169730000Y-75418563I1235516J1560000D01*
G01*
X169730000Y-78130961D02*
G75*
G02*
X169730000Y-76049039I1080000J1040961D01*
G01*
X171890000Y-76049039D02*
G75*
G02*
X171890000Y-78130961I-1080000J-1040961D01*
G01*
X171890000Y-75418563D02*
G75*
G02*
X172045516Y-78650000I-1080000J-1671437D01*
G01*
%TO.C,D4*%
X180480000Y-37816000D02*
X180480000Y-37660000D01*
X180480000Y-35500000D02*
X180480000Y-35344000D01*
X180480000Y-37815516D02*
G75*
G02*
X177248563Y-37660000I-1560000J1235516D01*
G01*
X179960961Y-37660000D02*
G75*
G02*
X177879039Y-37660000I-1040961J1080000D01*
G01*
X177879039Y-35500000D02*
G75*
G02*
X179960961Y-35500000I1040961J-1080000D01*
G01*
X177248563Y-35500000D02*
G75*
G02*
X180480000Y-35344484I1671437J-1080000D01*
G01*
%TO.C,D3*%
X127060000Y-48804000D02*
X127060000Y-48960000D01*
X127060000Y-51120000D02*
X127060000Y-51276000D01*
X127060000Y-48804484D02*
G75*
G02*
X130291437Y-48960000I1560000J-1235516D01*
G01*
X127579039Y-48960000D02*
G75*
G02*
X129660961Y-48960000I1040961J-1080000D01*
G01*
X129660961Y-51120000D02*
G75*
G02*
X127579039Y-51120000I-1040961J1080000D01*
G01*
X130291437Y-51120000D02*
G75*
G02*
X127060000Y-51275516I-1671437J1080000D01*
G01*
%TO.C,D2*%
X132980000Y-74164000D02*
X132980000Y-74320000D01*
X132980000Y-76480000D02*
X132980000Y-76636000D01*
X132980000Y-74164484D02*
G75*
G02*
X136211437Y-74320000I1560000J-1235516D01*
G01*
X133499039Y-74320000D02*
G75*
G02*
X135580961Y-74320000I1040961J-1080000D01*
G01*
X135580961Y-76480000D02*
G75*
G02*
X133499039Y-76480000I-1040961J1080000D01*
G01*
X136211437Y-76480000D02*
G75*
G02*
X132980000Y-76635516I-1671437J1080000D01*
G01*
%TO.C,D1*%
X180090000Y-68566000D02*
X180090000Y-68410000D01*
X180090000Y-66250000D02*
X180090000Y-66094000D01*
X180090000Y-68565516D02*
G75*
G02*
X176858563Y-68410000I-1560000J1235516D01*
G01*
X179570961Y-68410000D02*
G75*
G02*
X177489039Y-68410000I-1040961J1080000D01*
G01*
X177489039Y-66250000D02*
G75*
G02*
X179570961Y-66250000I1040961J-1080000D01*
G01*
X176858563Y-66250000D02*
G75*
G02*
X180090000Y-66094484I1671437J-1080000D01*
G01*
%TO.C,C2*%
X126540000Y-62040000D02*
X126540000Y-54300000D01*
X129280000Y-62040000D02*
X126540000Y-62040000D01*
X126540000Y-54300000D02*
X129280000Y-54300000D01*
X129280000Y-54300000D02*
X129280000Y-62040000D01*
%TO.C,C1*%
X168070113Y-47005000D02*
X168570113Y-47005000D01*
X168320113Y-46755000D02*
X168320113Y-47255000D01*
X170874888Y-45900000D02*
X170874888Y-47440000D01*
X170874888Y-49520000D02*
X170874888Y-51060000D01*
X170914888Y-45900000D02*
X170914888Y-47440000D01*
X170914888Y-49520000D02*
X170914888Y-51060000D01*
X170954888Y-45901000D02*
X170954888Y-47440000D01*
X170954888Y-49520000D02*
X170954888Y-51059000D01*
X170994888Y-45903000D02*
X170994888Y-47440000D01*
X170994888Y-49520000D02*
X170994888Y-51057000D01*
X171034888Y-45905000D02*
X171034888Y-47440000D01*
X171034888Y-49520000D02*
X171034888Y-51055000D01*
X171074888Y-45908000D02*
X171074888Y-47440000D01*
X171074888Y-49520000D02*
X171074888Y-51052000D01*
X171114888Y-45911000D02*
X171114888Y-47440000D01*
X171114888Y-49520000D02*
X171114888Y-51049000D01*
X171154888Y-45915000D02*
X171154888Y-47440000D01*
X171154888Y-49520000D02*
X171154888Y-51045000D01*
X171194888Y-45920000D02*
X171194888Y-47440000D01*
X171194888Y-49520000D02*
X171194888Y-51040000D01*
X171234888Y-45925000D02*
X171234888Y-47440000D01*
X171234888Y-49520000D02*
X171234888Y-51035000D01*
X171274888Y-45931000D02*
X171274888Y-47440000D01*
X171274888Y-49520000D02*
X171274888Y-51029000D01*
X171314888Y-45937000D02*
X171314888Y-47440000D01*
X171314888Y-49520000D02*
X171314888Y-51023000D01*
X171354888Y-45944000D02*
X171354888Y-47440000D01*
X171354888Y-49520000D02*
X171354888Y-51016000D01*
X171394888Y-45952000D02*
X171394888Y-47440000D01*
X171394888Y-49520000D02*
X171394888Y-51008000D01*
X171434888Y-45961000D02*
X171434888Y-47440000D01*
X171434888Y-49520000D02*
X171434888Y-50999000D01*
X171474888Y-45970000D02*
X171474888Y-47440000D01*
X171474888Y-49520000D02*
X171474888Y-50990000D01*
X171514888Y-45979000D02*
X171514888Y-47440000D01*
X171514888Y-49520000D02*
X171514888Y-50981000D01*
X171554888Y-45990000D02*
X171554888Y-47440000D01*
X171554888Y-49520000D02*
X171554888Y-50970000D01*
X171594888Y-46001000D02*
X171594888Y-47440000D01*
X171594888Y-49520000D02*
X171594888Y-50959000D01*
X171634888Y-46013000D02*
X171634888Y-47440000D01*
X171634888Y-49520000D02*
X171634888Y-50947000D01*
X171674888Y-46025000D02*
X171674888Y-47440000D01*
X171674888Y-49520000D02*
X171674888Y-50935000D01*
X171714888Y-46038000D02*
X171714888Y-47440000D01*
X171714888Y-49520000D02*
X171714888Y-50922000D01*
X171754888Y-46052000D02*
X171754888Y-47440000D01*
X171754888Y-49520000D02*
X171754888Y-50908000D01*
X171794888Y-46067000D02*
X171794888Y-47440000D01*
X171794888Y-49520000D02*
X171794888Y-50893000D01*
X171834888Y-46082000D02*
X171834888Y-47440000D01*
X171834888Y-49520000D02*
X171834888Y-50878000D01*
X171874888Y-46098000D02*
X171874888Y-47440000D01*
X171874888Y-49520000D02*
X171874888Y-50862000D01*
X171914888Y-46115000D02*
X171914888Y-47440000D01*
X171914888Y-49520000D02*
X171914888Y-50845000D01*
X171954888Y-46133000D02*
X171954888Y-47440000D01*
X171954888Y-49520000D02*
X171954888Y-50827000D01*
X171994888Y-46151000D02*
X171994888Y-47440000D01*
X171994888Y-49520000D02*
X171994888Y-50809000D01*
X172034888Y-46171000D02*
X172034888Y-47440000D01*
X172034888Y-49520000D02*
X172034888Y-50789000D01*
X172074888Y-46191000D02*
X172074888Y-47440000D01*
X172074888Y-49520000D02*
X172074888Y-50769000D01*
X172114888Y-46212000D02*
X172114888Y-47440000D01*
X172114888Y-49520000D02*
X172114888Y-50748000D01*
X172154888Y-46234000D02*
X172154888Y-47440000D01*
X172154888Y-49520000D02*
X172154888Y-50726000D01*
X172194888Y-46257000D02*
X172194888Y-47440000D01*
X172194888Y-49520000D02*
X172194888Y-50703000D01*
X172234888Y-46281000D02*
X172234888Y-47440000D01*
X172234888Y-49520000D02*
X172234888Y-50679000D01*
X172274888Y-46305000D02*
X172274888Y-47440000D01*
X172274888Y-49520000D02*
X172274888Y-50655000D01*
X172314888Y-46331000D02*
X172314888Y-47440000D01*
X172314888Y-49520000D02*
X172314888Y-50629000D01*
X172354888Y-46358000D02*
X172354888Y-47440000D01*
X172354888Y-49520000D02*
X172354888Y-50602000D01*
X172394888Y-46386000D02*
X172394888Y-47440000D01*
X172394888Y-49520000D02*
X172394888Y-50574000D01*
X172434888Y-46415000D02*
X172434888Y-47440000D01*
X172434888Y-49520000D02*
X172434888Y-50545000D01*
X172474888Y-46445000D02*
X172474888Y-47440000D01*
X172474888Y-49520000D02*
X172474888Y-50515000D01*
X172514888Y-46477000D02*
X172514888Y-47440000D01*
X172514888Y-49520000D02*
X172514888Y-50483000D01*
X172554888Y-46510000D02*
X172554888Y-47440000D01*
X172554888Y-49520000D02*
X172554888Y-50450000D01*
X172594888Y-46544000D02*
X172594888Y-47440000D01*
X172594888Y-49520000D02*
X172594888Y-50416000D01*
X172634888Y-46579000D02*
X172634888Y-47440000D01*
X172634888Y-49520000D02*
X172634888Y-50381000D01*
X172674888Y-46616000D02*
X172674888Y-47440000D01*
X172674888Y-49520000D02*
X172674888Y-50344000D01*
X172714888Y-46655000D02*
X172714888Y-47440000D01*
X172714888Y-49520000D02*
X172714888Y-50305000D01*
X172754888Y-46695000D02*
X172754888Y-47440000D01*
X172754888Y-49520000D02*
X172754888Y-50265000D01*
X172794888Y-46737000D02*
X172794888Y-47440000D01*
X172794888Y-49520000D02*
X172794888Y-50223000D01*
X172834888Y-46781000D02*
X172834888Y-47440000D01*
X172834888Y-49520000D02*
X172834888Y-50179000D01*
X172874888Y-46828000D02*
X172874888Y-47440000D01*
X172874888Y-49520000D02*
X172874888Y-50132000D01*
X172914888Y-46876000D02*
X172914888Y-50084000D01*
X172954888Y-46927000D02*
X172954888Y-50033000D01*
X172994888Y-46981000D02*
X172994888Y-49979000D01*
X173034888Y-47037000D02*
X173034888Y-49923000D01*
X173074888Y-47097000D02*
X173074888Y-49863000D01*
X173114888Y-47161000D02*
X173114888Y-49799000D01*
X173154888Y-47229000D02*
X173154888Y-49731000D01*
X173194888Y-47303000D02*
X173194888Y-49657000D01*
X173234888Y-47382000D02*
X173234888Y-49578000D01*
X173274888Y-47469000D02*
X173274888Y-49491000D01*
X173314888Y-47566000D02*
X173314888Y-49394000D01*
X173354888Y-47675000D02*
X173354888Y-49285000D01*
X173394888Y-47803000D02*
X173394888Y-49157000D01*
X173434888Y-47963000D02*
X173434888Y-48997000D01*
X173474888Y-48197000D02*
X173474888Y-48763000D01*
X173494888Y-48480000D02*
G75*
G02*
X168254888Y-48480000I-2620000J0D01*
G01*
X168254888Y-48480000D02*
G75*
G02*
X173494888Y-48480000I2620000J0D01*
G01*
D14*
%TO.C,G\u002A\u002A\u002A*%
G36*
X155361154Y-53357875D02*
G01*
X155735910Y-53439911D01*
X156138688Y-53573068D01*
X156573577Y-53759717D01*
X157044665Y-54002230D01*
X157556044Y-54302980D01*
X158111801Y-54664337D01*
X158716027Y-55088673D01*
X159372810Y-55578360D01*
X160086241Y-56135770D01*
X160860408Y-56763275D01*
X161699401Y-57463245D01*
X162383788Y-58045904D01*
X162700885Y-58318330D01*
X162945889Y-58530697D01*
X163126739Y-58691191D01*
X163251372Y-58807997D01*
X163327725Y-58889300D01*
X163363736Y-58943284D01*
X163367344Y-58978136D01*
X163346485Y-59002039D01*
X163323958Y-59015374D01*
X163167924Y-59130538D01*
X162987568Y-59312050D01*
X162805975Y-59532372D01*
X162646230Y-59763965D01*
X162549488Y-59939248D01*
X162473722Y-60107506D01*
X162425333Y-60248135D01*
X162398257Y-60394140D01*
X162386430Y-60578524D01*
X162383789Y-60834291D01*
X162383788Y-60841158D01*
X162386256Y-61098591D01*
X162397748Y-61284008D01*
X162424399Y-61430531D01*
X162472343Y-61571279D01*
X162547715Y-61739375D01*
X162551709Y-61747815D01*
X162787929Y-62135453D01*
X163093744Y-62464275D01*
X163453589Y-62725910D01*
X163851900Y-62911986D01*
X164273112Y-63014131D01*
X164701661Y-63023974D01*
X164877870Y-62999001D01*
X165340394Y-62861714D01*
X165753426Y-62642293D01*
X166103416Y-62349635D01*
X166354302Y-62029396D01*
X166451548Y-61880447D01*
X166527412Y-61775092D01*
X166564534Y-61736806D01*
X166611266Y-61769709D01*
X166722297Y-61860075D01*
X166883101Y-61995736D01*
X167079148Y-62164525D01*
X167175940Y-62248870D01*
X167395732Y-62440450D01*
X167673242Y-62681337D01*
X167986340Y-62952379D01*
X168312897Y-63234426D01*
X168630782Y-63508326D01*
X168709155Y-63575734D01*
X169657258Y-64390848D01*
X169278436Y-64419077D01*
X168885266Y-64493123D01*
X168556340Y-64648562D01*
X168296387Y-64880069D01*
X168110137Y-65182321D01*
X168002316Y-65549993D01*
X167975704Y-65885904D01*
X168015539Y-66288795D01*
X168127209Y-66706774D01*
X168300720Y-67127301D01*
X168526081Y-67537839D01*
X168793301Y-67925849D01*
X169092387Y-68278793D01*
X169413349Y-68584132D01*
X169746193Y-68829329D01*
X170080929Y-69001845D01*
X170407565Y-69089141D01*
X170534927Y-69097390D01*
X170877809Y-69046456D01*
X171231918Y-68897201D01*
X171590581Y-68654947D01*
X171947126Y-68325013D01*
X172294880Y-67912722D01*
X172620643Y-67434029D01*
X172883749Y-67006403D01*
X173839152Y-67720665D01*
X174224776Y-68004306D01*
X174663555Y-68319155D01*
X175136801Y-68652398D01*
X175625822Y-68991220D01*
X176111930Y-69322807D01*
X176576433Y-69634345D01*
X177000643Y-69913020D01*
X177365870Y-70146017D01*
X177476542Y-70214548D01*
X178146152Y-70612737D01*
X178843038Y-71004455D01*
X179546956Y-71379359D01*
X180237665Y-71727108D01*
X180894922Y-72037361D01*
X181498486Y-72299775D01*
X181771886Y-72409069D01*
X182552440Y-72710383D01*
X182165362Y-73315801D01*
X181615669Y-74134631D01*
X181044651Y-74900162D01*
X180429383Y-75641052D01*
X179746940Y-76385958D01*
X179530733Y-76609338D01*
X178488529Y-77613578D01*
X177398043Y-78544130D01*
X176248902Y-79408408D01*
X175030734Y-80213825D01*
X173733166Y-80967795D01*
X172638447Y-81535224D01*
X171086193Y-82253017D01*
X169488283Y-82896949D01*
X167839739Y-83468287D01*
X166135582Y-83968299D01*
X164370834Y-84398252D01*
X162540515Y-84759414D01*
X160639647Y-85053052D01*
X158663251Y-85280433D01*
X157545693Y-85377442D01*
X157194267Y-85399705D01*
X156754008Y-85419773D01*
X156241241Y-85437474D01*
X155672288Y-85452637D01*
X155063474Y-85465088D01*
X154431122Y-85474657D01*
X153791556Y-85481169D01*
X153161101Y-85484453D01*
X152556080Y-85484338D01*
X151992816Y-85480649D01*
X151487633Y-85473216D01*
X151056856Y-85461866D01*
X150761842Y-85449036D01*
X148667991Y-85293876D01*
X146633167Y-85063806D01*
X144659299Y-84759438D01*
X142748315Y-84381386D01*
X140902143Y-83930262D01*
X139122713Y-83406679D01*
X137411952Y-82811250D01*
X135771790Y-82144589D01*
X134204154Y-81407307D01*
X132710972Y-80600018D01*
X131294175Y-79723334D01*
X130091301Y-78879470D01*
X129780279Y-78641943D01*
X129451489Y-78380005D01*
X129114118Y-78101997D01*
X128777354Y-77816262D01*
X128450382Y-77531140D01*
X128142390Y-77254975D01*
X127862566Y-76996107D01*
X127620095Y-76762879D01*
X127424166Y-76563632D01*
X127283964Y-76406708D01*
X127208678Y-76300450D01*
X127202422Y-76256355D01*
X127267701Y-76217762D01*
X127410743Y-76147096D01*
X127612485Y-76053360D01*
X127853868Y-75945559D01*
X127938654Y-75908571D01*
X129058507Y-75384588D01*
X130215210Y-74769046D01*
X131402446Y-74066293D01*
X132613900Y-73280679D01*
X133843253Y-72416555D01*
X135084190Y-71478269D01*
X136330393Y-70470171D01*
X137575546Y-69396610D01*
X138155365Y-68873627D01*
X139011414Y-68090478D01*
X139300525Y-68354709D01*
X139623140Y-68609143D01*
X139957841Y-68799953D01*
X140283444Y-68917035D01*
X140550631Y-68951026D01*
X140911429Y-68896222D01*
X141278240Y-68740896D01*
X141645662Y-68489079D01*
X142008292Y-68144805D01*
X142360730Y-67712106D01*
X142520629Y-67480390D01*
X142822418Y-66962021D01*
X142829118Y-66946148D01*
X151474298Y-66946148D01*
X151531040Y-67142127D01*
X151680283Y-67309148D01*
X151788040Y-67375687D01*
X151858479Y-67408311D01*
X151931351Y-67431146D01*
X152022277Y-67444302D01*
X152146879Y-67447892D01*
X152320779Y-67442024D01*
X152559599Y-67426812D01*
X152878960Y-67402364D01*
X153095389Y-67384957D01*
X153534866Y-67325275D01*
X153967338Y-67222512D01*
X154360171Y-67086082D01*
X154673877Y-66929625D01*
X154854276Y-66801782D01*
X155055163Y-66633074D01*
X155247337Y-66450684D01*
X155401596Y-66281796D01*
X155469905Y-66188584D01*
X155560860Y-66040565D01*
X155669116Y-66214878D01*
X155919881Y-66528712D01*
X156254896Y-66809980D01*
X156655009Y-67045347D01*
X157101067Y-67221473D01*
X157124989Y-67228711D01*
X157478919Y-67319576D01*
X157851542Y-67389787D01*
X158223054Y-67437975D01*
X158573652Y-67462770D01*
X158883535Y-67462804D01*
X159132899Y-67436705D01*
X159301941Y-67383106D01*
X159307943Y-67379672D01*
X159474184Y-67227091D01*
X159558401Y-67030436D01*
X159556088Y-66816717D01*
X159462735Y-66612946D01*
X159440575Y-66584878D01*
X159379149Y-66517665D01*
X159314461Y-66471834D01*
X159224287Y-66441494D01*
X159086404Y-66420757D01*
X158878589Y-66403733D01*
X158717490Y-66393254D01*
X158198146Y-66349118D01*
X157769126Y-66285825D01*
X157416677Y-66199376D01*
X157127044Y-66085775D01*
X156886474Y-65941023D01*
X156739031Y-65818202D01*
X156526310Y-65556905D01*
X156348753Y-65214403D01*
X156215709Y-64811453D01*
X156157619Y-64527522D01*
X156115204Y-64259209D01*
X156330863Y-64205819D01*
X156787585Y-64059861D01*
X157211946Y-63860915D01*
X157588178Y-63620055D01*
X157900511Y-63348355D01*
X158133178Y-63056888D01*
X158230082Y-62872123D01*
X158303056Y-62579901D01*
X158274232Y-62302486D01*
X158146323Y-62042868D01*
X157922043Y-61804033D01*
X157604103Y-61588969D01*
X157195216Y-61400664D01*
X156767122Y-61260793D01*
X156304680Y-61164576D01*
X155815939Y-61120263D01*
X155316829Y-61124699D01*
X154823281Y-61174736D01*
X154351227Y-61267220D01*
X153916597Y-61398999D01*
X153535323Y-61566923D01*
X153223335Y-61767840D01*
X152996564Y-61998597D01*
X152989717Y-62008087D01*
X152869360Y-62262249D01*
X152844968Y-62541878D01*
X152914077Y-62835379D01*
X153074220Y-63131159D01*
X153280663Y-63376295D01*
X153703583Y-63729262D01*
X154183248Y-63994095D01*
X154566455Y-64131435D01*
X154783647Y-64203277D01*
X154928352Y-64270921D01*
X154984656Y-64325880D01*
X154981574Y-64443417D01*
X154948175Y-64627829D01*
X154892702Y-64848138D01*
X154823398Y-65073367D01*
X154748507Y-65272539D01*
X154711296Y-65353160D01*
X154507146Y-65653096D01*
X154230208Y-65913768D01*
X153912300Y-66106825D01*
X153824446Y-66143352D01*
X153530984Y-66228264D01*
X153163472Y-66295863D01*
X152752219Y-66341940D01*
X152327530Y-66362286D01*
X152243574Y-66362898D01*
X152033223Y-66365275D01*
X151896421Y-66378762D01*
X151801548Y-66412893D01*
X151716990Y-66477199D01*
X151650579Y-66541697D01*
X151513123Y-66739806D01*
X151474298Y-66946148D01*
X142829118Y-66946148D01*
X143028442Y-66473954D01*
X143138545Y-66018191D01*
X143152565Y-65596735D01*
X143070345Y-65211586D01*
X142891725Y-64864747D01*
X142743013Y-64680981D01*
X142578297Y-64504651D01*
X142938212Y-64132222D01*
X143147956Y-63912919D01*
X143380850Y-63665925D01*
X143593538Y-63437283D01*
X143635459Y-63391676D01*
X143838797Y-63171250D01*
X144067778Y-62925252D01*
X144277958Y-62701398D01*
X144308246Y-62669374D01*
X144643702Y-62315188D01*
X144881293Y-62496602D01*
X145247886Y-62717843D01*
X145657867Y-62864636D01*
X146085130Y-62931701D01*
X146503568Y-62913759D01*
X146714926Y-62867373D01*
X147039481Y-62757204D01*
X147302625Y-62625810D01*
X147548090Y-62449317D01*
X147663872Y-62349325D01*
X147965389Y-62011287D01*
X148182725Y-61625160D01*
X148315359Y-61206599D01*
X148362770Y-60771257D01*
X148324438Y-60334788D01*
X148199840Y-59912847D01*
X147988455Y-59521087D01*
X147767042Y-59250695D01*
X147585640Y-59063911D01*
X148652129Y-57941044D01*
X149394412Y-57170081D01*
X150079708Y-56480990D01*
X150712440Y-55870252D01*
X151297026Y-55334350D01*
X151837887Y-54869766D01*
X152339442Y-54472981D01*
X152806112Y-54140478D01*
X153242317Y-53868739D01*
X153652476Y-53654246D01*
X154041010Y-53493480D01*
X154364120Y-53394776D01*
X154679348Y-53337679D01*
X155010330Y-53324588D01*
X155361154Y-53357875D01*
G37*
%TD*%
M02*
