%TF.GenerationSoftware,KiCad,Pcbnew,9.0.8*%
%TF.CreationDate,2026-04-09T13:17:56-07:00*%
%TF.ProjectId,Untitled,556e7469-746c-4656-942e-6b696361645f,rev?*%
%TF.SameCoordinates,Original*%
%TF.FileFunction,Copper,L1,Top*%
%TF.FilePolarity,Positive*%
%FSLAX46Y46*%
G04 Gerber Fmt 4.6, Leading zero omitted, Abs format (unit mm)*
G04 Created by KiCad (PCBNEW 9.0.8) date 2026-04-09 13:17:56*
%MOMM*%
%LPD*%
G01*
G04 APERTURE LIST*
G04 Aperture macros list*
%AMRoundRect*
0 Rectangle with rounded corners*
0 $1 Rounding radius*
0 $2 $3 $4 $5 $6 $7 $8 $9 X,Y pos of 4 corners*
0 Add a 4 corners polygon primitive as box body*
4,1,4,$2,$3,$4,$5,$6,$7,$8,$9,$2,$3,0*
0 Add four circle primitives for the rounded corners*
1,1,$1+$1,$2,$3*
1,1,$1+$1,$4,$5*
1,1,$1+$1,$6,$7*
1,1,$1+$1,$8,$9*
0 Add four rect primitives between the rounded corners*
20,1,$1+$1,$2,$3,$4,$5,0*
20,1,$1+$1,$4,$5,$6,$7,0*
20,1,$1+$1,$6,$7,$8,$9,0*
20,1,$1+$1,$8,$9,$2,$3,0*%
G04 Aperture macros list end*
%TA.AperFunction,ComponentPad*%
%ADD10C,1.295400*%
%TD*%
%TA.AperFunction,ComponentPad*%
%ADD11R,1.295400X1.295400*%
%TD*%
%TA.AperFunction,ComponentPad*%
%ADD12C,1.600000*%
%TD*%
%TA.AperFunction,ComponentPad*%
%ADD13RoundRect,0.250000X0.550000X-0.550000X0.550000X0.550000X-0.550000X0.550000X-0.550000X-0.550000X0*%
%TD*%
%TA.AperFunction,ComponentPad*%
%ADD14RoundRect,0.412500X-0.412500X-0.412500X0.412500X-0.412500X0.412500X0.412500X-0.412500X0.412500X0*%
%TD*%
%TA.AperFunction,ComponentPad*%
%ADD15C,1.650000*%
%TD*%
%TA.AperFunction,ComponentPad*%
%ADD16R,1.700000X1.700000*%
%TD*%
%TA.AperFunction,ComponentPad*%
%ADD17C,1.700000*%
%TD*%
%TA.AperFunction,ComponentPad*%
%ADD18R,1.800000X1.800000*%
%TD*%
%TA.AperFunction,ComponentPad*%
%ADD19C,1.800000*%
%TD*%
%TA.AperFunction,ComponentPad*%
%ADD20C,2.000000*%
%TD*%
%TA.AperFunction,ComponentPad*%
%ADD21RoundRect,0.250000X-0.550000X-0.550000X0.550000X-0.550000X0.550000X0.550000X-0.550000X0.550000X0*%
%TD*%
%TA.AperFunction,Conductor*%
%ADD22C,0.200000*%
%TD*%
G04 APERTURE END LIST*
D10*
%TO.P,U2,16,VDD*%
%TO.N,+5V*%
X162320000Y-61910000D03*
%TO.P,U2,15,Reset*%
%TO.N,GND*%
X159780000Y-61910000D03*
%TO.P,U2,14,CLK*%
%TO.N,unconnected-(U2-CLK-Pad14)*%
X157240000Y-61910000D03*
%TO.P,U2,13,CKEN*%
%TO.N,GND*%
X154700000Y-61910000D03*
%TO.P,U2,12,Cout*%
%TO.N,unconnected-(U2-Cout-Pad12)*%
X152160000Y-61910000D03*
%TO.P,U2,11,Q9*%
%TO.N,Net-(D10-A)*%
X149620000Y-61910000D03*
%TO.P,U2,10,Q4*%
%TO.N,Net-(D2-A)*%
X147080000Y-61910000D03*
%TO.P,U2,9,Q8*%
%TO.N,Net-(D9-A)*%
X144540000Y-61910000D03*
%TO.P,U2,8,VSS*%
%TO.N,GND*%
X144540000Y-54290000D03*
%TO.P,U2,7,Q3*%
%TO.N,Net-(D3-A)*%
X147080000Y-54290000D03*
%TO.P,U2,6,Q7*%
%TO.N,Net-(D7-A)*%
X149620000Y-54290000D03*
%TO.P,U2,5,Q6*%
%TO.N,Net-(D8-A)*%
X152160000Y-54290000D03*
%TO.P,U2,4,Q2*%
%TO.N,Net-(D4-A)*%
X154700000Y-54290000D03*
%TO.P,U2,3,Q0*%
%TO.N,Net-(D6-A)*%
X157240000Y-54290000D03*
%TO.P,U2,2,Q1*%
%TO.N,Net-(D5-A)*%
X159780000Y-54290000D03*
D11*
%TO.P,U2,1,Q5*%
%TO.N,Net-(D1-A)*%
X162320000Y-54290000D03*
%TD*%
D12*
%TO.P,U1,8,VCC*%
%TO.N,+5V*%
X134900000Y-40030000D03*
%TO.P,U1,7,DISCH*%
%TO.N,Net-(U1-DISCH)*%
X137440000Y-40030000D03*
%TO.P,U1,6,THRES*%
%TO.N,TR*%
X139980000Y-40030000D03*
%TO.P,U1,5,CONT*%
%TO.N,Net-(U1-CONT)*%
X142520000Y-40030000D03*
%TO.P,U1,4,~{RST}*%
%TO.N,+5V*%
X142520000Y-47650000D03*
%TO.P,U1,3,OUT*%
%TO.N,OUT*%
X139980000Y-47650000D03*
%TO.P,U1,2,TRIG*%
%TO.N,TR*%
X137440000Y-47650000D03*
D13*
%TO.P,U1,1,GND*%
%TO.N,GND*%
X134900000Y-47650000D03*
%TD*%
D14*
%TO.P,RV1,1,1*%
%TO.N,Net-(U1-DISCH)*%
X160770000Y-40070000D03*
D15*
%TO.P,RV1,2,2*%
X163310000Y-40070000D03*
%TO.P,RV1,3,3*%
%TO.N,TR*%
X165850000Y-40070000D03*
%TD*%
D12*
%TO.P,R2,1*%
%TO.N,Net-(D1-K)*%
X140200000Y-80450000D03*
%TO.P,R2,2*%
%TO.N,GND*%
X147820000Y-80450000D03*
%TD*%
%TO.P,R1,1*%
%TO.N,+5V*%
X182390000Y-58270000D03*
%TO.P,R1,2*%
%TO.N,Net-(U1-DISCH)*%
X174770000Y-58270000D03*
%TD*%
D16*
%TO.P,J1,1,Pin_1*%
%TO.N,+5V*%
X162490000Y-65780000D03*
D17*
%TO.P,J1,2,Pin_2*%
%TO.N,GND*%
X159950000Y-65780000D03*
%TD*%
D18*
%TO.P,D10,1,K*%
%TO.N,Net-(D1-K)*%
X158370000Y-80930000D03*
D19*
%TO.P,D10,2,A*%
%TO.N,Net-(D10-A)*%
X155830000Y-80930000D03*
%TD*%
D18*
%TO.P,D9,1,K*%
%TO.N,Net-(D1-K)*%
X126020000Y-66050000D03*
D19*
%TO.P,D9,2,A*%
%TO.N,Net-(D9-A)*%
X128560000Y-66050000D03*
%TD*%
D18*
%TO.P,D8,1,K*%
%TO.N,Net-(D1-K)*%
X147500000Y-39320000D03*
D19*
%TO.P,D8,2,A*%
%TO.N,Net-(D8-A)*%
X150040000Y-39320000D03*
%TD*%
D18*
%TO.P,D7,1,K*%
%TO.N,Net-(D1-K)*%
X126070000Y-36490000D03*
D19*
%TO.P,D7,2,A*%
%TO.N,Net-(D7-A)*%
X128610000Y-36490000D03*
%TD*%
D18*
%TO.P,D6,1,K*%
%TO.N,Net-(D1-K)*%
X180420000Y-49050000D03*
D19*
%TO.P,D6,2,A*%
%TO.N,Net-(D6-A)*%
X177880000Y-49050000D03*
%TD*%
D18*
%TO.P,D5,1,K*%
%TO.N,Net-(D1-K)*%
X170810000Y-78360000D03*
D19*
%TO.P,D5,2,A*%
%TO.N,Net-(D5-A)*%
X170810000Y-75820000D03*
%TD*%
D18*
%TO.P,D4,1,K*%
%TO.N,Net-(D1-K)*%
X180190000Y-36580000D03*
D19*
%TO.P,D4,2,A*%
%TO.N,Net-(D4-A)*%
X177650000Y-36580000D03*
%TD*%
D18*
%TO.P,D3,1,K*%
%TO.N,Net-(D1-K)*%
X127350000Y-50040000D03*
D19*
%TO.P,D3,2,A*%
%TO.N,Net-(D3-A)*%
X129890000Y-50040000D03*
%TD*%
D18*
%TO.P,D2,1,K*%
%TO.N,Net-(D1-K)*%
X133270000Y-75400000D03*
D19*
%TO.P,D2,2,A*%
%TO.N,Net-(D2-A)*%
X135810000Y-75400000D03*
%TD*%
D18*
%TO.P,D1,1,K*%
%TO.N,Net-(D1-K)*%
X179800000Y-67330000D03*
D19*
%TO.P,D1,2,A*%
%TO.N,Net-(D1-A)*%
X177260000Y-67330000D03*
%TD*%
D20*
%TO.P,C2,1*%
%TO.N,Net-(U1-CONT)*%
X127910000Y-60670000D03*
%TO.P,C2,2*%
%TO.N,GND*%
X127910000Y-55670000D03*
%TD*%
D21*
%TO.P,C1,1*%
%TO.N,TR*%
X169874888Y-48480000D03*
D12*
%TO.P,C1,2*%
%TO.N,GND*%
X171874888Y-48480000D03*
%TD*%
D22*
%TO.N,Net-(U1-DISCH)*%
X161190000Y-37950000D02*
X159520000Y-36280000D01*
X159520000Y-36280000D02*
X141771005Y-36280000D01*
X141771005Y-36280000D02*
X141591432Y-36342996D01*
X141591432Y-36342996D02*
X140832522Y-36637478D01*
X140832522Y-36637478D02*
X137440000Y-40030000D01*
%TO.N,TR*%
X139980000Y-40030000D02*
X142420000Y-42470000D01*
X142420000Y-42470000D02*
X163450000Y-42470000D01*
X163450000Y-42470000D02*
X165850000Y-40070000D01*
%TO.N,GND*%
X171874888Y-48480000D02*
X167464888Y-52890000D01*
X167464888Y-52890000D02*
X156665686Y-52890000D01*
X156665686Y-52890000D02*
X156070000Y-53485686D01*
X156070000Y-53485686D02*
X156070000Y-60540000D01*
X156070000Y-60540000D02*
X155647700Y-60962300D01*
X155647700Y-60962300D02*
X154700000Y-61910000D01*
X159780000Y-61910000D02*
X158832300Y-60962300D01*
X158832300Y-60962300D02*
X155647700Y-60962300D01*
X148460000Y-55670000D02*
X144480000Y-55670000D01*
X144540000Y-54290000D02*
X144540000Y-55610000D01*
X144540000Y-55610000D02*
X144480000Y-55670000D01*
X154700000Y-61910000D02*
X148460000Y-55670000D01*
X144480000Y-55670000D02*
X127910000Y-55670000D01*
%TO.N,Net-(D1-K)*%
X127350000Y-50040000D02*
X126020000Y-51370000D01*
X126020000Y-51370000D02*
X126020000Y-66050000D01*
X133270000Y-75400000D02*
X133270000Y-73300000D01*
X133270000Y-73300000D02*
X126020000Y-66050000D01*
X180420000Y-49050000D02*
X180420000Y-66710000D01*
X180420000Y-66710000D02*
X179800000Y-67330000D01*
%TO.N,Net-(U1-DISCH)*%
X163310000Y-40070000D02*
X161190000Y-37950000D01*
X160770000Y-40070000D02*
X160770000Y-38370000D01*
X160770000Y-38370000D02*
X161190000Y-37950000D01*
%TO.N,+5V*%
X142520000Y-47650000D02*
X134900000Y-40030000D01*
%TO.N,Net-(D7-A)*%
X128610000Y-43244744D02*
X134655256Y-49290000D01*
X128610000Y-36490000D02*
X128610000Y-43244744D01*
X134655256Y-49290000D02*
X147250000Y-49290000D01*
%TO.N,Net-(D5-A)*%
X170810000Y-75820000D02*
X170810000Y-65320000D01*
X170810000Y-65320000D02*
X159780000Y-54290000D01*
%TO.N,Net-(D1-A)*%
X177260000Y-67330000D02*
X175360000Y-67330000D01*
X175360000Y-67330000D02*
X162320000Y-54290000D01*
%TO.N,Net-(D6-A)*%
X157240000Y-54290000D02*
X158240000Y-53290000D01*
X158240000Y-53290000D02*
X173640000Y-53290000D01*
X173640000Y-53290000D02*
X177880000Y-49050000D01*
%TO.N,Net-(D4-A)*%
X154700000Y-54290000D02*
X172410000Y-36580000D01*
X172410000Y-36580000D02*
X177650000Y-36580000D01*
%TO.N,Net-(D7-A)*%
X147250000Y-49290000D02*
X149620000Y-51660000D01*
X149620000Y-51660000D02*
X149620000Y-54290000D01*
%TO.N,Net-(D3-A)*%
X129890000Y-50040000D02*
X142830000Y-50040000D01*
X142830000Y-50040000D02*
X147080000Y-54290000D01*
%TO.N,Net-(D9-A)*%
X144540000Y-61910000D02*
X132700000Y-61910000D01*
X132700000Y-61910000D02*
X128560000Y-66050000D01*
%TO.N,Net-(D2-A)*%
X147080000Y-61910000D02*
X135810000Y-73180000D01*
X135810000Y-73180000D02*
X135810000Y-75400000D01*
%TO.N,Net-(D10-A)*%
X155830000Y-67390000D02*
X150400000Y-61960000D01*
X155830000Y-80930000D02*
X155830000Y-67390000D01*
X149670000Y-61960000D02*
X149620000Y-61910000D01*
X150400000Y-61960000D02*
X149670000Y-61960000D01*
%TO.N,GND*%
X159950000Y-65780000D02*
X159950000Y-62080000D01*
X159950000Y-62080000D02*
X159780000Y-61910000D01*
%TO.N,+5V*%
X162490000Y-65780000D02*
X162490000Y-62080000D01*
X162490000Y-62080000D02*
X162320000Y-61910000D01*
%TD*%
M02*
