M48
; DRILL file {KiCad 9.0.8} date 2026-04-09T13:17:58-0700
; FORMAT={-:-/ absolute / metric / decimal}
; #@! TF.CreationDate,2026-04-09T13:17:58-07:00
; #@! TF.GenerationSoftware,Kicad,Pcbnew,9.0.8
; #@! TF.FileFunction,Plated,1,2,PTH
FMAT,2
METRIC
; #@! TA.AperFunction,Plated,PTH,ComponentDrill
T1C0.787
; #@! TA.AperFunction,Plated,PTH,ComponentDrill
T2C0.800
; #@! TA.AperFunction,Plated,PTH,ComponentDrill
T3C0.850
; #@! TA.AperFunction,Plated,PTH,ComponentDrill
T4C0.900
; #@! TA.AperFunction,Plated,PTH,ComponentDrill
T5C1.000
%
G90
G05
T1
X144.54Y-54.29
X144.54Y-61.91
X147.08Y-54.29
X147.08Y-61.91
X149.62Y-54.29
X149.62Y-61.91
X152.16Y-54.29
X152.16Y-61.91
X154.7Y-54.29
X154.7Y-61.91
X157.24Y-54.29
X157.24Y-61.91
X159.78Y-54.29
X159.78Y-61.91
X162.32Y-54.29
X162.32Y-61.91
T2
X134.9Y-40.03
X134.9Y-47.65
X137.44Y-40.03
X137.44Y-47.65
X139.98Y-40.03
X139.98Y-47.65
X140.2Y-80.45
X142.52Y-40.03
X142.52Y-47.65
X147.82Y-80.45
X169.875Y-48.48
X171.875Y-48.48
X174.77Y-58.27
X182.39Y-58.27
T3
X160.77Y-40.07
X163.31Y-40.07
X165.85Y-40.07
T4
X126.02Y-66.05
X126.07Y-36.49
X127.35Y-50.04
X128.56Y-66.05
X128.61Y-36.49
X129.89Y-50.04
X133.27Y-75.4
X135.81Y-75.4
X147.5Y-39.32
X150.04Y-39.32
X155.83Y-80.93
X158.37Y-80.93
X170.81Y-75.82
X170.81Y-78.36
X177.26Y-67.33
X177.65Y-36.58
X177.88Y-49.05
X179.8Y-67.33
X180.19Y-36.58
X180.42Y-49.05
T5
X127.91Y-55.67
X127.91Y-60.67
X159.95Y-65.78
X162.49Y-65.78
M30
