%TF.GenerationSoftware,KiCad,Pcbnew,9.0.8*%
%TF.CreationDate,2026-04-09T13:17:57-07:00*%
%TF.ProjectId,Untitled,556e7469-746c-4656-942e-6b696361645f,rev?*%
%TF.SameCoordinates,Original*%
%TF.FileFunction,Soldermask,Top*%
%TF.FilePolarity,Negative*%
%FSLAX46Y46*%
G04 Gerber Fmt 4.6, Leading zero omitted, Abs format (unit mm)*
G04 Created by KiCad (PCBNEW 9.0.8) date 2026-04-09 13:17:57*
%MOMM*%
%LPD*%
G01*
G04 APERTURE LIST*
G04 Aperture macros list*
%AMRoundRect*
0 Rectangle with rounded corners*
0 $1 Rounding radius*
0 $2 $3 $4 $5 $6 $7 $8 $9 X,Y pos of 4 corners*
0 Add a 4 corners polygon primitive as box body*
4,1,4,$2,$3,$4,$5,$6,$7,$8,$9,$2,$3,0*
0 Add four circle primitives for the rounded corners*
1,1,$1+$1,$2,$3*
1,1,$1+$1,$4,$5*
1,1,$1+$1,$6,$7*
1,1,$1+$1,$8,$9*
0 Add four rect primitives between the rounded corners*
20,1,$1+$1,$2,$3,$4,$5,0*
20,1,$1+$1,$4,$5,$6,$7,0*
20,1,$1+$1,$6,$7,$8,$9,0*
20,1,$1+$1,$8,$9,$2,$3,0*%
G04 Aperture macros list end*
%ADD10C,1.295400*%
%ADD11R,1.295400X1.295400*%
%ADD12C,1.600000*%
%ADD13RoundRect,0.250000X0.550000X-0.550000X0.550000X0.550000X-0.550000X0.550000X-0.550000X-0.550000X0*%
%ADD14RoundRect,0.412500X-0.412500X-0.412500X0.412500X-0.412500X0.412500X0.412500X-0.412500X0.412500X0*%
%ADD15C,1.650000*%
%ADD16R,1.700000X1.700000*%
%ADD17C,1.700000*%
%ADD18R,1.800000X1.800000*%
%ADD19C,1.800000*%
%ADD20C,2.000000*%
%ADD21RoundRect,0.250000X-0.550000X-0.550000X0.550000X-0.550000X0.550000X0.550000X-0.550000X0.550000X0*%
G04 APERTURE END LIST*
D10*
%TO.C,U2*%
X162320000Y-61910000D03*
X159780000Y-61910000D03*
X157240000Y-61910000D03*
X154700000Y-61910000D03*
X152160000Y-61910000D03*
X149620000Y-61910000D03*
X147080000Y-61910000D03*
X144540000Y-61910000D03*
X144540000Y-54290000D03*
X147080000Y-54290000D03*
X149620000Y-54290000D03*
X152160000Y-54290000D03*
X154700000Y-54290000D03*
X157240000Y-54290000D03*
X159780000Y-54290000D03*
D11*
X162320000Y-54290000D03*
%TD*%
D12*
%TO.C,U1*%
X134900000Y-40030000D03*
X137440000Y-40030000D03*
X139980000Y-40030000D03*
X142520000Y-40030000D03*
X142520000Y-47650000D03*
X139980000Y-47650000D03*
X137440000Y-47650000D03*
D13*
X134900000Y-47650000D03*
%TD*%
D14*
%TO.C,RV1*%
X160770000Y-40070000D03*
D15*
X163310000Y-40070000D03*
X165850000Y-40070000D03*
%TD*%
D12*
%TO.C,R2*%
X140200000Y-80450000D03*
X147820000Y-80450000D03*
%TD*%
%TO.C,R1*%
X182390000Y-58270000D03*
X174770000Y-58270000D03*
%TD*%
D16*
%TO.C,J1*%
X162490000Y-65780000D03*
D17*
X159950000Y-65780000D03*
%TD*%
D18*
%TO.C,D10*%
X158370000Y-80930000D03*
D19*
X155830000Y-80930000D03*
%TD*%
D18*
%TO.C,D9*%
X126020000Y-66050000D03*
D19*
X128560000Y-66050000D03*
%TD*%
D18*
%TO.C,D8*%
X147500000Y-39320000D03*
D19*
X150040000Y-39320000D03*
%TD*%
D18*
%TO.C,D7*%
X126070000Y-36490000D03*
D19*
X128610000Y-36490000D03*
%TD*%
D18*
%TO.C,D6*%
X180420000Y-49050000D03*
D19*
X177880000Y-49050000D03*
%TD*%
D18*
%TO.C,D5*%
X170810000Y-78360000D03*
D19*
X170810000Y-75820000D03*
%TD*%
D18*
%TO.C,D4*%
X180190000Y-36580000D03*
D19*
X177650000Y-36580000D03*
%TD*%
D18*
%TO.C,D3*%
X127350000Y-50040000D03*
D19*
X129890000Y-50040000D03*
%TD*%
D18*
%TO.C,D2*%
X133270000Y-75400000D03*
D19*
X135810000Y-75400000D03*
%TD*%
D18*
%TO.C,D1*%
X179800000Y-67330000D03*
D19*
X177260000Y-67330000D03*
%TD*%
D20*
%TO.C,C2*%
X127910000Y-60670000D03*
X127910000Y-55670000D03*
%TD*%
D21*
%TO.C,C1*%
X169874888Y-48480000D03*
D12*
X171874888Y-48480000D03*
%TD*%
M02*
