%TF.GenerationSoftware,KiCad,Pcbnew,9.0.8*%
%TF.CreationDate,2026-04-09T13:17:57-07:00*%
%TF.ProjectId,Untitled,556e7469-746c-4656-942e-6b696361645f,rev?*%
%TF.SameCoordinates,Original*%
%TF.FileFunction,Profile,NP*%
%FSLAX46Y46*%
G04 Gerber Fmt 4.6, Leading zero omitted, Abs format (unit mm)*
G04 Created by KiCad (PCBNEW 9.0.8) date 2026-04-09 13:17:57*
%MOMM*%
%LPD*%
G01*
G04 APERTURE LIST*
%TA.AperFunction,Profile*%
%ADD10C,0.050000*%
%TD*%
%ADD11C,0.050000*%
G04 APERTURE END LIST*
D10*
X156620000Y-39360000D02*
G75*
G02*
X152318326Y-39360000I-2150837J0D01*
G01*
X152318326Y-39360000D02*
G75*
G02*
X156620000Y-39360000I2150837J0D01*
G01*
D11*
X137980000Y-37230000D02*
X137942480Y-37200346D01*
X137904994Y-37170744D01*
X137867679Y-37141303D01*
X137830397Y-37111913D01*
X137793285Y-37082683D01*
X137756205Y-37053504D01*
X137719294Y-37024483D01*
X137682416Y-36995513D01*
X137645703Y-36966699D01*
X137609024Y-36937937D01*
X137572509Y-36909329D01*
X137536027Y-36880772D01*
X137499707Y-36852368D01*
X137463420Y-36824014D01*
X137427295Y-36795813D01*
X137391202Y-36767662D01*
X137355268Y-36739661D01*
X137319367Y-36711710D01*
X137283624Y-36683908D01*
X137247913Y-36656157D01*
X137212359Y-36628552D01*
X137176837Y-36600998D01*
X137141470Y-36573590D01*
X137106135Y-36546231D01*
X137070953Y-36519017D01*
X137035804Y-36491853D01*
X137000806Y-36464832D01*
X136965841Y-36437861D01*
X136931026Y-36411031D01*
X136896242Y-36384251D01*
X136861609Y-36357611D01*
X136827006Y-36331021D01*
X136792552Y-36304569D01*
X136758128Y-36278167D01*
X136723852Y-36251903D01*
X136689607Y-36225688D01*
X136655507Y-36199610D01*
X136621438Y-36173580D01*
X136587514Y-36147686D01*
X136553620Y-36121841D01*
X136519869Y-36096130D01*
X136486149Y-36070467D01*
X136452571Y-36044937D01*
X136419023Y-36019456D01*
X136385615Y-35994107D01*
X136352238Y-35968805D01*
X136319001Y-35943635D01*
X136285793Y-35918513D01*
X136252724Y-35893520D01*
X136219685Y-35868575D01*
X136186783Y-35843759D01*
X136153911Y-35818990D01*
X136121174Y-35794349D01*
X136088468Y-35769755D01*
X136055896Y-35745288D01*
X136023354Y-35720868D01*
X135990945Y-35696574D01*
X135958566Y-35672326D01*
X135926320Y-35648203D01*
X135894103Y-35624127D01*
X135862018Y-35600175D01*
X135829961Y-35576269D01*
X135798036Y-35552485D01*
X135766139Y-35528748D01*
X135734372Y-35505132D01*
X135702633Y-35481563D01*
X135671024Y-35458114D01*
X135639442Y-35434711D01*
X135607989Y-35411428D01*
X135576564Y-35388191D01*
X135545265Y-35365073D01*
X135513995Y-35342000D01*
X135482851Y-35319045D01*
X135451735Y-35296135D01*
X135420743Y-35273342D01*
X135389780Y-35250595D01*
X135358940Y-35227963D01*
X135328128Y-35205377D01*
X135297439Y-35182906D01*
X135266778Y-35160480D01*
X135236238Y-35138168D01*
X135205727Y-35115901D01*
X135175336Y-35093747D01*
X135144973Y-35071637D01*
X135114730Y-35049640D01*
X135084514Y-35027688D01*
X135054418Y-35005847D01*
X135024349Y-34984051D01*
X134994398Y-34962365D01*
X134964474Y-34940724D01*
X134934668Y-34919192D01*
X134904889Y-34897705D01*
X134875226Y-34876326D01*
X134845591Y-34854991D01*
X134816071Y-34833765D01*
X134786578Y-34812582D01*
X134757200Y-34791507D01*
X134727848Y-34770475D01*
X134698611Y-34749550D01*
X134669400Y-34728669D01*
X134640303Y-34707893D01*
X134611232Y-34687160D01*
X134582273Y-34666533D01*
X134553341Y-34645948D01*
X134524521Y-34625468D01*
X134495726Y-34605031D01*
X134467043Y-34584698D01*
X134438386Y-34564407D01*
X134409839Y-34544219D01*
X134381318Y-34524074D01*
X134352906Y-34504030D01*
X134324520Y-34484030D01*
X134296243Y-34464130D01*
X134267991Y-34444273D01*
X134239848Y-34424516D01*
X134211730Y-34404802D01*
X134183719Y-34385188D01*
X134155734Y-34365616D01*
X134127855Y-34346142D01*
X134100002Y-34326711D01*
X134072254Y-34307378D01*
X134044532Y-34288087D01*
X134016915Y-34268894D01*
X133989323Y-34249742D01*
X133961835Y-34230687D01*
X133934372Y-34211675D01*
X133907013Y-34192758D01*
X133879679Y-34173882D01*
X133852448Y-34155103D01*
X133825242Y-34136364D01*
X133798138Y-34117721D01*
X133771059Y-34099118D01*
X133744081Y-34080610D01*
X133717128Y-34062143D01*
X133690276Y-34043770D01*
X133663449Y-34025438D01*
X133636722Y-34007198D01*
X133610019Y-33988999D01*
X133583416Y-33970893D01*
X133556838Y-33952827D01*
X133530358Y-33934853D01*
X133503902Y-33916919D01*
X133477545Y-33899076D01*
X133451212Y-33881274D01*
X133424977Y-33863562D01*
X133398766Y-33845891D01*
X133372652Y-33828309D01*
X133346562Y-33810768D01*
X133320568Y-33793315D01*
X133294599Y-33775903D01*
X133268725Y-33758578D01*
X133242875Y-33741295D01*
X133217120Y-33724098D01*
X133191389Y-33706942D01*
X133165753Y-33689873D01*
X133140140Y-33672844D01*
X133114621Y-33655901D01*
X133089126Y-33638998D01*
X133063724Y-33622180D01*
X133038346Y-33605403D01*
X133013061Y-33588711D01*
X132987799Y-33572058D01*
X132962629Y-33555490D01*
X132937482Y-33538962D01*
X132912428Y-33522517D01*
X132887396Y-33506112D01*
X132862456Y-33489791D01*
X132837538Y-33473508D01*
X132812712Y-33457309D01*
X132787908Y-33441149D01*
X132763194Y-33425071D01*
X132738504Y-33409032D01*
X132713902Y-33393075D01*
X132689324Y-33377156D01*
X132664835Y-33361320D01*
X132640368Y-33345521D01*
X132615990Y-33329804D01*
X132591634Y-33314125D01*
X132567366Y-33298527D01*
X132543121Y-33282966D01*
X132518963Y-33267486D01*
X132494828Y-33252044D01*
X132470780Y-33236681D01*
X132446754Y-33221357D01*
X132422814Y-33206111D01*
X132398897Y-33190903D01*
X132375065Y-33175773D01*
X132351256Y-33160681D01*
X132327532Y-33145667D01*
X132303830Y-33130691D01*
X132280213Y-33115792D01*
X132256618Y-33100931D01*
X132233108Y-33086146D01*
X132209619Y-33071399D01*
X132186214Y-33056728D01*
X132162831Y-33042095D01*
X132139532Y-33027537D01*
X132116254Y-33013016D01*
X132093059Y-32998571D01*
X132069886Y-32984163D01*
X132046795Y-32969830D01*
X132023726Y-32955534D01*
X132000739Y-32941312D01*
X131977773Y-32927127D01*
X131954889Y-32913015D01*
X131932026Y-32898941D01*
X131909244Y-32884940D01*
X131886484Y-32870976D01*
X131863804Y-32857084D01*
X131841146Y-32843229D01*
X131818567Y-32829446D01*
X131796010Y-32815700D01*
X131773532Y-32802026D01*
X131751076Y-32788388D01*
X131728699Y-32774822D01*
X131706343Y-32761292D01*
X131684065Y-32747833D01*
X131661809Y-32734410D01*
X131639630Y-32721057D01*
X131617473Y-32707741D01*
X131595394Y-32694494D01*
X131573335Y-32681284D01*
X131551354Y-32668143D01*
X131529393Y-32655038D01*
X131507510Y-32642002D01*
X131485647Y-32629002D01*
X131463861Y-32616071D01*
X131442095Y-32603175D01*
X131420406Y-32590348D01*
X131398737Y-32577556D01*
X131377143Y-32564832D01*
X131355571Y-32552143D01*
X131334073Y-32539522D01*
X131312596Y-32526935D01*
X131291194Y-32514416D01*
X131269812Y-32501933D01*
X131248504Y-32489515D01*
X131227217Y-32477133D01*
X131206004Y-32464817D01*
X131184811Y-32452536D01*
X131163691Y-32440320D01*
X131142592Y-32428140D01*
X131121566Y-32416024D01*
X131100560Y-32403944D01*
X131079626Y-32391928D01*
X131058713Y-32379947D01*
X131037872Y-32368030D01*
X131017051Y-32356148D01*
X130996302Y-32344330D01*
X130975573Y-32332547D01*
X130954915Y-32320827D01*
X130934278Y-32309141D01*
X130913711Y-32297519D01*
X130893164Y-32285931D01*
X130872688Y-32274406D01*
X130852232Y-32262915D01*
X130831846Y-32251486D01*
X130811480Y-32240091D01*
X130791184Y-32228759D01*
X130770907Y-32217460D01*
X130750700Y-32206223D01*
X130730512Y-32195020D01*
X130710394Y-32183878D01*
X130690295Y-32172770D01*
X130670265Y-32161722D01*
X130650254Y-32150709D01*
X130630312Y-32139756D01*
X130610390Y-32128836D01*
X130590535Y-32117976D01*
X130570699Y-32107150D01*
X130550932Y-32096384D01*
X130531183Y-32085651D01*
X130511502Y-32074977D01*
X130491840Y-32064336D01*
X130472245Y-32053755D01*
X130452670Y-32043206D01*
X130433160Y-32032716D01*
X130413670Y-32022259D01*
X130394246Y-32011861D01*
X130374842Y-32001495D01*
X130355503Y-31991187D01*
X130336183Y-31980912D01*
X130316928Y-31970695D01*
X130297693Y-31960510D01*
X130278522Y-31950383D01*
X130259371Y-31940288D01*
X130240284Y-31930249D01*
X130221216Y-31920244D01*
X130202213Y-31910294D01*
X130183228Y-31900377D01*
X130164307Y-31890517D01*
X130145405Y-31880688D01*
X130126567Y-31870916D01*
X130107748Y-31861175D01*
X130088992Y-31851490D01*
X130070254Y-31841837D01*
X130051580Y-31832239D01*
X130032924Y-31822673D01*
X130014331Y-31813162D01*
X129995756Y-31803682D01*
X129977244Y-31794257D01*
X129958750Y-31784864D01*
X129940318Y-31775525D01*
X129921905Y-31766217D01*
X129903553Y-31756964D01*
X129885219Y-31747742D01*
X129866948Y-31738573D01*
X129848694Y-31729435D01*
X129830501Y-31720351D01*
X129812327Y-31711298D01*
X129794213Y-31702298D01*
X129776118Y-31693329D01*
X129758083Y-31684413D01*
X129740066Y-31675527D01*
X129722109Y-31666694D01*
X129704170Y-31657892D01*
X129686291Y-31649142D01*
X129668430Y-31640422D01*
X129650629Y-31631754D01*
X129632845Y-31623117D01*
X129615121Y-31614531D01*
X129597414Y-31605976D01*
X129579766Y-31597472D01*
X129562136Y-31588998D01*
X129544565Y-31580575D01*
X129527011Y-31572182D01*
X129509516Y-31563839D01*
X129492039Y-31555527D01*
X129474619Y-31547265D01*
X129457217Y-31539034D01*
X129439873Y-31530851D01*
X129422546Y-31522699D01*
X129405276Y-31514597D01*
X129388024Y-31506524D01*
X129370830Y-31498501D01*
X129353652Y-31490507D01*
X129336532Y-31482563D01*
X129319428Y-31474648D01*
X129302382Y-31466781D01*
X129285352Y-31458945D01*
X129268379Y-31451156D01*
X129251423Y-31443398D01*
X129234523Y-31435687D01*
X129217640Y-31428006D01*
X129200813Y-31420372D01*
X129184003Y-31412768D01*
X129167248Y-31405211D01*
X129150511Y-31397683D01*
X129133828Y-31390203D01*
X129117163Y-31382751D01*
X129100552Y-31375347D01*
X129083958Y-31367972D01*
X129067419Y-31360643D01*
X129050897Y-31353343D01*
X129034429Y-31346089D01*
X129017977Y-31338865D01*
X129001580Y-31331686D01*
X128985200Y-31324536D01*
X128968873Y-31317431D01*
X128952563Y-31310356D01*
X128936306Y-31303326D01*
X128920066Y-31296324D01*
X128903880Y-31289368D01*
X128887709Y-31282440D01*
X128871592Y-31275557D01*
X128855491Y-31268702D01*
X128839443Y-31261892D01*
X128823411Y-31255111D01*
X128807432Y-31248373D01*
X128791469Y-31241664D01*
X128775559Y-31234999D01*
X128759664Y-31228362D01*
X128743822Y-31221768D01*
X128727995Y-31215203D01*
X128712221Y-31208681D01*
X128696462Y-31202188D01*
X128680755Y-31195737D01*
X128665064Y-31189315D01*
X128649424Y-31182935D01*
X128633801Y-31176583D01*
X128618228Y-31170274D01*
X128602671Y-31163992D01*
X128587165Y-31157753D01*
X128571674Y-31151541D01*
X128556234Y-31145372D01*
X128540810Y-31139230D01*
X128525436Y-31133130D01*
X128510078Y-31127058D01*
X128494770Y-31121027D01*
X128479477Y-31115023D01*
X128464235Y-31109061D01*
X128449007Y-31103126D01*
X128433830Y-31097232D01*
X128418668Y-31091366D01*
X128403555Y-31085540D01*
X128388457Y-31079741D01*
X128373409Y-31073983D01*
X128358376Y-31068252D01*
X128343391Y-31062561D01*
X128328422Y-31056897D01*
X128313502Y-31051273D01*
X128298597Y-31045676D01*
X128283740Y-31040119D01*
X128268899Y-31034589D01*
X128254105Y-31029098D01*
X128239327Y-31023634D01*
X128224596Y-31018209D01*
X128209881Y-31012811D01*
X128195213Y-31007452D01*
X128180560Y-31002120D01*
X128165955Y-30996826D01*
X128151364Y-30991558D01*
X128136821Y-30986330D01*
X128122292Y-30981127D01*
X128107811Y-30975963D01*
X128093344Y-30970826D01*
X128078924Y-30965726D01*
X128064519Y-30960652D01*
X128050160Y-30955617D01*
X128035816Y-30950607D01*
X128021518Y-30945635D01*
X128007235Y-30940689D01*
X127992998Y-30935781D01*
X127978776Y-30930898D01*
X127964599Y-30926053D01*
X127950437Y-30921233D01*
X127936320Y-30916451D01*
X127922218Y-30911694D01*
X127908161Y-30906974D01*
X127894119Y-30902279D01*
X127880121Y-30897621D01*
X127866139Y-30892989D01*
X127852201Y-30888392D01*
X127838277Y-30883822D01*
X127824398Y-30879287D01*
X127810533Y-30874778D01*
X127796713Y-30870304D01*
X127782907Y-30865857D01*
X127769145Y-30861444D01*
X127755397Y-30857057D01*
X127741693Y-30852705D01*
X127728003Y-30848378D01*
X127714358Y-30844086D01*
X127700726Y-30839820D01*
X127687137Y-30835588D01*
X127673563Y-30831382D01*
X127660032Y-30827210D01*
X127646515Y-30823063D01*
X127633041Y-30818951D01*
X127619581Y-30814863D01*
X127606164Y-30810810D01*
X127592761Y-30806781D01*
X127579400Y-30802787D01*
X127566054Y-30798817D01*
X127552749Y-30794881D01*
X127539459Y-30790970D01*
X127526210Y-30787092D01*
X127512976Y-30783239D01*
X127499783Y-30779419D01*
X127486604Y-30775624D01*
X127473467Y-30771861D01*
X127460344Y-30768124D01*
X127447262Y-30764419D01*
X127434193Y-30760739D01*
X127421166Y-30757091D01*
X127408153Y-30753468D01*
X127395180Y-30749876D01*
X127382222Y-30746310D01*
X127369304Y-30742775D01*
X127356399Y-30739265D01*
X127343535Y-30735787D01*
X127330685Y-30732333D01*
X127317875Y-30728911D01*
X127305079Y-30725513D01*
X127292323Y-30722147D01*
X127279580Y-30718804D01*
X127266877Y-30715493D01*
X127254187Y-30712206D01*
X127241537Y-30708950D01*
X127228901Y-30705718D01*
X127216304Y-30702517D01*
X127203721Y-30699340D01*
X127191176Y-30696193D01*
X127178645Y-30693071D01*
X127166153Y-30689979D01*
X127153675Y-30686910D01*
X127141235Y-30683872D01*
X127128808Y-30680858D01*
X127116420Y-30677873D01*
X127104046Y-30674913D01*
X127091709Y-30671982D01*
X127079386Y-30669075D01*
X127067101Y-30666198D01*
X127054829Y-30663344D01*
X127042596Y-30660519D01*
X127030375Y-30657718D01*
X127018192Y-30654947D01*
X127006022Y-30652198D01*
X126993890Y-30649479D01*
X126981770Y-30646783D01*
X126969688Y-30644116D01*
X126957619Y-30641473D01*
X126945588Y-30638858D01*
X126933569Y-30636266D01*
X126921587Y-30633703D01*
X126909618Y-30631163D01*
X126897686Y-30628651D01*
X126885766Y-30626162D01*
X126873884Y-30623702D01*
X126862014Y-30621264D01*
X126850180Y-30618855D01*
X126838359Y-30616468D01*
X126826574Y-30614110D01*
X126814802Y-30611774D01*
X126803066Y-30609466D01*
X126791343Y-30607180D01*
X126779656Y-30604922D01*
X126767981Y-30602687D01*
X126756341Y-30600479D01*
X126744715Y-30598294D01*
X126733123Y-30596136D01*
X126721544Y-30594000D01*
X126710001Y-30591892D01*
X126698470Y-30589805D01*
X126686974Y-30587746D01*
X126675490Y-30585709D01*
X126664041Y-30583699D01*
X126652605Y-30581711D01*
X126641203Y-30579750D01*
X126629814Y-30577811D01*
X126618459Y-30575898D01*
X126607117Y-30574008D01*
X126595808Y-30572143D01*
X126584512Y-30570301D01*
X126573250Y-30568485D01*
X126562001Y-30566691D01*
X126550785Y-30564922D01*
X126539581Y-30563176D01*
X126528411Y-30561455D01*
X126517254Y-30559757D01*
X126506129Y-30558083D01*
X126495017Y-30556432D01*
X126483939Y-30554806D01*
X126472872Y-30553202D01*
X126461838Y-30551623D01*
X126450817Y-30550066D01*
X126439828Y-30548534D01*
X126428852Y-30547024D01*
X126417908Y-30545538D01*
X126406976Y-30544075D01*
X126396077Y-30542636D01*
X126385189Y-30541218D01*
X126374334Y-30539825D01*
X126363491Y-30538454D01*
X126352680Y-30537107D01*
X126341881Y-30535781D01*
X126331114Y-30534480D01*
X126320359Y-30533200D01*
X126309636Y-30531945D01*
X126298924Y-30530710D01*
X126288244Y-30529500D01*
X126277576Y-30528311D01*
X126266939Y-30527146D01*
X126256314Y-30526002D01*
X126245721Y-30524881D01*
X126235139Y-30523782D01*
X126224588Y-30522706D01*
X126214049Y-30521652D01*
X126203540Y-30520621D01*
X126193043Y-30519611D01*
X126182577Y-30518624D01*
X126172123Y-30517658D01*
X126161699Y-30516716D01*
X126151287Y-30515794D01*
X126140904Y-30514895D01*
X126130534Y-30514017D01*
X126120194Y-30513162D01*
X126109865Y-30512328D01*
X126099566Y-30511516D01*
X126089279Y-30510726D01*
X126079021Y-30509958D01*
X126068775Y-30509210D01*
X126058558Y-30508485D01*
X126048353Y-30507781D01*
X126038177Y-30507099D01*
X126028013Y-30506438D01*
X126017878Y-30505798D01*
X126007754Y-30505180D01*
X125997660Y-30504583D01*
X125987576Y-30504007D01*
X125977522Y-30503453D01*
X125967479Y-30502919D01*
X125957464Y-30502407D01*
X125947461Y-30501915D01*
X125937486Y-30501445D01*
X125927523Y-30500996D01*
X125917588Y-30500568D01*
X125907664Y-30500160D01*
X125897768Y-30499774D01*
X125887884Y-30499408D01*
X125878027Y-30499063D01*
X125868182Y-30498738D01*
X125858364Y-30498434D01*
X125848558Y-30498151D01*
X125838779Y-30497889D01*
X125829011Y-30497647D01*
X125819271Y-30497425D01*
X125809542Y-30497224D01*
X125799840Y-30497044D01*
X125790149Y-30496884D01*
X125780485Y-30496744D01*
X125770833Y-30496624D01*
X125761207Y-30496525D01*
X125751592Y-30496446D01*
X125742004Y-30496387D01*
X125732427Y-30496348D01*
X125722876Y-30496329D01*
X125713337Y-30496330D01*
X125703824Y-30496352D01*
X125694321Y-30496393D01*
X125684845Y-30496454D01*
X125675380Y-30496535D01*
X125665941Y-30496636D01*
X125656513Y-30496757D01*
X125647111Y-30496897D01*
X125637719Y-30497058D01*
X125628354Y-30497238D01*
X125618999Y-30497437D01*
X125609669Y-30497657D01*
X125600351Y-30497896D01*
X125591057Y-30498154D01*
X125581775Y-30498432D01*
X125572518Y-30498729D01*
X125563271Y-30499046D01*
X125554050Y-30499383D01*
X125544839Y-30499738D01*
X125535653Y-30500113D01*
X125526478Y-30500508D01*
X125517327Y-30500921D01*
X125508188Y-30501354D01*
X125499072Y-30501806D01*
X125489968Y-30502277D01*
X125480887Y-30502768D01*
X125471818Y-30503277D01*
X125462772Y-30503805D01*
X125453737Y-30504353D01*
X125444726Y-30504919D01*
X125435726Y-30505505D01*
X125426750Y-30506109D01*
X125417784Y-30506733D01*
X125408842Y-30507375D01*
X125399910Y-30508036D01*
X125391002Y-30508716D01*
X125382104Y-30509415D01*
X125373230Y-30510132D01*
X125364366Y-30510868D01*
X125355526Y-30511623D01*
X125346696Y-30512396D01*
X125337889Y-30513188D01*
X125329092Y-30513999D01*
X125320318Y-30514828D01*
X125311555Y-30515676D01*
X125302815Y-30516542D01*
X125294084Y-30517427D01*
X125285377Y-30518330D01*
X125276680Y-30519251D01*
X125268005Y-30520191D01*
X125259340Y-30521150D01*
X125250698Y-30522126D01*
X125242066Y-30523121D01*
X125233456Y-30524134D01*
X125224857Y-30525166D01*
X125216279Y-30526215D01*
X125207712Y-30527283D01*
X125199166Y-30528369D01*
X125190631Y-30529474D01*
X125182117Y-30530596D01*
X125173614Y-30531736D01*
X125165132Y-30532894D01*
X125156660Y-30534071D01*
X125148209Y-30535265D01*
X125139769Y-30536478D01*
X125131350Y-30537708D01*
X125122941Y-30538957D01*
X125114553Y-30540223D01*
X125106175Y-30541508D01*
X125097818Y-30542809D01*
X125089471Y-30544130D01*
X125081145Y-30545467D01*
X125072829Y-30546823D01*
X125064533Y-30548196D01*
X125056248Y-30549588D01*
X125047983Y-30550996D01*
X125039728Y-30552423D01*
X125031493Y-30553867D01*
X125023268Y-30555329D01*
X125015064Y-30556808D01*
X125006869Y-30558306D01*
X124998695Y-30559820D01*
X124990530Y-30561353D01*
X124982385Y-30562902D01*
X124974250Y-30564470D01*
X124966135Y-30566055D01*
X124958030Y-30567658D01*
X124949944Y-30569277D01*
X124941868Y-30570915D01*
X124933811Y-30572570D01*
X124925765Y-30574242D01*
X124917737Y-30575932D01*
X124909720Y-30577639D01*
X124901721Y-30579363D01*
X124893733Y-30581106D01*
X124885763Y-30582864D01*
X124877803Y-30584641D01*
X124869862Y-30586435D01*
X124861931Y-30588246D01*
X124854019Y-30590074D01*
X124846116Y-30591920D01*
X124838232Y-30593783D01*
X124830357Y-30595663D01*
X124822501Y-30597560D01*
X124814655Y-30599475D01*
X124806827Y-30601407D01*
X124799008Y-30603356D01*
X124791208Y-30605322D01*
X124783417Y-30607305D01*
X124775645Y-30609305D01*
X124767882Y-30611323D01*
X124760137Y-30613357D01*
X124752401Y-30615409D01*
X124744684Y-30617477D01*
X124736976Y-30619564D01*
X124729285Y-30621666D01*
X124721604Y-30623786D01*
X124713941Y-30625923D01*
X124706287Y-30628077D01*
X124698650Y-30630247D01*
X124691023Y-30632436D01*
X124683413Y-30634640D01*
X124675813Y-30636862D01*
X124668230Y-30639101D01*
X124660656Y-30641357D01*
X124653099Y-30643629D01*
X124645552Y-30645919D01*
X124638021Y-30648225D01*
X124630500Y-30650549D01*
X124622996Y-30652889D01*
X124615501Y-30655247D01*
X124608022Y-30657621D01*
X124600554Y-30660012D01*
X124593101Y-30662419D01*
X124585658Y-30664845D01*
X124578231Y-30667286D01*
X124570813Y-30669745D01*
X124563412Y-30672220D01*
X124556020Y-30674712D01*
X124548644Y-30677221D01*
X124541278Y-30679747D01*
X124533927Y-30682289D01*
X124526586Y-30684849D01*
X124519260Y-30687425D01*
X124511944Y-30690019D01*
X124504643Y-30692628D01*
X124497352Y-30695255D01*
X124490076Y-30697898D01*
X124482810Y-30700559D01*
X124475559Y-30703235D01*
X124468317Y-30705930D01*
X124461091Y-30708640D01*
X124453874Y-30711368D01*
X124446671Y-30714111D01*
X124439479Y-30716873D01*
X124432301Y-30719650D01*
X124425132Y-30722445D01*
X124417979Y-30725256D01*
X124410834Y-30728084D01*
X124403705Y-30730929D01*
X124396584Y-30733791D01*
X124389479Y-30736669D01*
X124382382Y-30739564D01*
X124375300Y-30742475D01*
X124368227Y-30745405D01*
X124361169Y-30748349D01*
X124354120Y-30751312D01*
X124347085Y-30754290D01*
X124340059Y-30757287D01*
X124333048Y-30760299D01*
X124326045Y-30763328D01*
X124319057Y-30766374D01*
X124312078Y-30769437D01*
X124305113Y-30772516D01*
X124298157Y-30775613D01*
X124291214Y-30778726D01*
X124284282Y-30781856D01*
X124277362Y-30785002D01*
X124270452Y-30788166D01*
X124263555Y-30791346D01*
X124256668Y-30794544D01*
X124249794Y-30797757D01*
X124242929Y-30800988D01*
X124236077Y-30804235D01*
X124229235Y-30807500D01*
X124222406Y-30810781D01*
X124215586Y-30814079D01*
X124208779Y-30817394D01*
X124201981Y-30820726D01*
X124195196Y-30824074D01*
X124188420Y-30827440D01*
X124181657Y-30830822D01*
X124174904Y-30834222D01*
X124168163Y-30837637D01*
X124161431Y-30841071D01*
X124154712Y-30844520D01*
X124148002Y-30847988D01*
X124141304Y-30851471D01*
X124134616Y-30854972D01*
X124127940Y-30858489D01*
X124121273Y-30862024D01*
X124114619Y-30865575D01*
X124107973Y-30869144D01*
X124101340Y-30872729D01*
X124094716Y-30876332D01*
X124088104Y-30879951D01*
X124081501Y-30883588D01*
X124074910Y-30887241D01*
X124068329Y-30890912D01*
X124061759Y-30894600D01*
X124055198Y-30898305D01*
X124048649Y-30902026D01*
X124042110Y-30905765D01*
X124035581Y-30909521D01*
X124029062Y-30913294D01*
X124022555Y-30917084D01*
X124016057Y-30920892D01*
X124009570Y-30924716D01*
X124003092Y-30928558D01*
X123996625Y-30932416D01*
X123990168Y-30936293D01*
X123983722Y-30940186D01*
X123977286Y-30944096D01*
X123970860Y-30948024D01*
X123964443Y-30951969D01*
X123958038Y-30955931D01*
X123951641Y-30959911D01*
X123945256Y-30963907D01*
X123938880Y-30967922D01*
X123932514Y-30971953D01*
X123926158Y-30976002D01*
X123919812Y-30980068D01*
X123913476Y-30984152D01*
X123907150Y-30988253D01*
X123900834Y-30992371D01*
X123894528Y-30996507D01*
X123888231Y-31000661D01*
X123881945Y-31004831D01*
X123875668Y-31009020D01*
X123869401Y-31013226D01*
X123863144Y-31017449D01*
X123856896Y-31021690D01*
X123850658Y-31025949D01*
X123844430Y-31030225D01*
X123838212Y-31034519D01*
X123832003Y-31038830D01*
X123825804Y-31043159D01*
X123819614Y-31047506D01*
X123813434Y-31051871D01*
X123807264Y-31056253D01*
X123801103Y-31060653D01*
X123794951Y-31065071D01*
X123788809Y-31069506D01*
X123782677Y-31073960D01*
X123776554Y-31078431D01*
X123770441Y-31082920D01*
X123764337Y-31087427D01*
X123758242Y-31091952D01*
X123752157Y-31096495D01*
X123746081Y-31101056D01*
X123740014Y-31105635D01*
X123733957Y-31110232D01*
X123727909Y-31114847D01*
X123721871Y-31119480D01*
X123715842Y-31124131D01*
X123709822Y-31128800D01*
X123703811Y-31133487D01*
X123697809Y-31138193D01*
X123691817Y-31142916D01*
X123679860Y-31152418D01*
X123667940Y-31161994D01*
X123656056Y-31171642D01*
X123644208Y-31181364D01*
X123632397Y-31191160D01*
X123620622Y-31201030D01*
X123608883Y-31210974D01*
X123597179Y-31220993D01*
X123585512Y-31231086D01*
X123573880Y-31241254D01*
X123562284Y-31251498D01*
X123550723Y-31261817D01*
X123539198Y-31272212D01*
X123527707Y-31282682D01*
X123516252Y-31293229D01*
X123504832Y-31303853D01*
X123493447Y-31314553D01*
X123482097Y-31325331D01*
X123470782Y-31336186D01*
X123459501Y-31347118D01*
X123448255Y-31358128D01*
X123437043Y-31369217D01*
X123425866Y-31380384D01*
X123414723Y-31391630D01*
X123403615Y-31402955D01*
X123392540Y-31414360D01*
X123381500Y-31425844D01*
X123370494Y-31437408D01*
X123359522Y-31449052D01*
X123348584Y-31460778D01*
X123337680Y-31472584D01*
X123326810Y-31484471D01*
X123315974Y-31496440D01*
X123305171Y-31508492D01*
X123294402Y-31520625D01*
X123283667Y-31532841D01*
X123272966Y-31545140D01*
X123262298Y-31557522D01*
X123251663Y-31569988D01*
X123241063Y-31582538D01*
X123230496Y-31595173D01*
X123219962Y-31607892D01*
X123209462Y-31620696D01*
X123198995Y-31633585D01*
X123188561Y-31646561D01*
X123178162Y-31659623D01*
X123167795Y-31672771D01*
X123157462Y-31686006D01*
X123147162Y-31699328D01*
X123136896Y-31712738D01*
X123126663Y-31726237D01*
X123116464Y-31739823D01*
X123106297Y-31753499D01*
X123096165Y-31767264D01*
X123086065Y-31781118D01*
X123076000Y-31795062D01*
X123065967Y-31809097D01*
X123055968Y-31823223D01*
X123046003Y-31837440D01*
X123036071Y-31851749D01*
X123026173Y-31866150D01*
X123016308Y-31880643D01*
X123006477Y-31895229D01*
X122996679Y-31909909D01*
X122986915Y-31924682D01*
X122977185Y-31939550D01*
X122967488Y-31954512D01*
X122957826Y-31969569D01*
X122948197Y-31984722D01*
X122938602Y-31999971D01*
X122929041Y-32015316D01*
X122919514Y-32030758D01*
X122910021Y-32046297D01*
X122900562Y-32061934D01*
X122891137Y-32077669D01*
X122881747Y-32093503D01*
X122872391Y-32109436D01*
X122863069Y-32125469D01*
X122853782Y-32141602D01*
X122844529Y-32157835D01*
X122835311Y-32174169D01*
X122826127Y-32190604D01*
X122816979Y-32207142D01*
X122807865Y-32223782D01*
X122798786Y-32240524D01*
X122789742Y-32257371D01*
X122780733Y-32274321D01*
X122771760Y-32291375D01*
X122762822Y-32308534D01*
X122753919Y-32325799D01*
X122745051Y-32343169D01*
X122736220Y-32360646D01*
X122727424Y-32378229D01*
X122718664Y-32395920D01*
X122709940Y-32413719D01*
X122701251Y-32431626D01*
X122692600Y-32449642D01*
X122683984Y-32467767D01*
X122675405Y-32486003D01*
X122666862Y-32504348D01*
X122658356Y-32522805D01*
X122649887Y-32541373D01*
X122641455Y-32560053D01*
X122633059Y-32578845D01*
X122624702Y-32597751D01*
X122616381Y-32616770D01*
X122608098Y-32635903D01*
X122599852Y-32655151D01*
X122591644Y-32674515D01*
X122583474Y-32693993D01*
X122575343Y-32713589D01*
X122567249Y-32733301D01*
X122559194Y-32753130D01*
X122551177Y-32773078D01*
X122543199Y-32793144D01*
X122535260Y-32813328D01*
X122527360Y-32833633D01*
X122519499Y-32854058D01*
X122511677Y-32874603D01*
X122503895Y-32895270D01*
X122496152Y-32916059D01*
X122488449Y-32936970D01*
X122480787Y-32958004D01*
X122473164Y-32979162D01*
X122465582Y-33000444D01*
X122458040Y-33021851D01*
X122450540Y-33043383D01*
X122443080Y-33065041D01*
X122435661Y-33086826D01*
X122428283Y-33108738D01*
X122420947Y-33130777D01*
X122413653Y-33152945D01*
X122406401Y-33175242D01*
X122399190Y-33197668D01*
X122392022Y-33220224D01*
X122384897Y-33242911D01*
X122377814Y-33265730D01*
X122370774Y-33288680D01*
X122363777Y-33311763D01*
X122356824Y-33334979D01*
X122349914Y-33358329D01*
X122343047Y-33381813D01*
X122336225Y-33405432D01*
X122329447Y-33429187D01*
X122322713Y-33453078D01*
X122316024Y-33477106D01*
X122309380Y-33501272D01*
X122302781Y-33525576D01*
X122296227Y-33550018D01*
X122289718Y-33574600D01*
X122283256Y-33599322D01*
X122276839Y-33624185D01*
X122270469Y-33649189D01*
X122264145Y-33674335D01*
X122257867Y-33699623D01*
X122251637Y-33725055D01*
X122245454Y-33750631D01*
X122239318Y-33776352D01*
X122233230Y-33802218D01*
X122227190Y-33828229D01*
X122221198Y-33854387D01*
X122215255Y-33880693D01*
X122209360Y-33907146D01*
X122203514Y-33933748D01*
X122197718Y-33960499D01*
X122191971Y-33987400D01*
X122186273Y-34014452D01*
X122180626Y-34041655D01*
X122175029Y-34069010D01*
X122169482Y-34096517D01*
X122163986Y-34124178D01*
X122158541Y-34151993D01*
X122153148Y-34179963D01*
X122147806Y-34208087D01*
X122142516Y-34236368D01*
X122137278Y-34264806D01*
X122132092Y-34293401D01*
X122126959Y-34322154D01*
X122121880Y-34351066D01*
X122116853Y-34380138D01*
X122111880Y-34409370D01*
X122106961Y-34438763D01*
X122102096Y-34468318D01*
X122097286Y-34498035D01*
X122092530Y-34527915D01*
X122087829Y-34557959D01*
X122083184Y-34588167D01*
X122078594Y-34618541D01*
X122074060Y-34649080D01*
X122069582Y-34679787D01*
X122065161Y-34710661D01*
X122060797Y-34741703D01*
X122056490Y-34772914D01*
X122052240Y-34804294D01*
X122048048Y-34835845D01*
X122043914Y-34867567D01*
X122039838Y-34899461D01*
X122035821Y-34931528D01*
X122031863Y-34963768D01*
X122027965Y-34996182D01*
X122024126Y-35028770D01*
X122020347Y-35061535D01*
X122016628Y-35094476D01*
X122012970Y-35127593D01*
X122009372Y-35160889D01*
X122005836Y-35194364D01*
X122002362Y-35228017D01*
X121998950Y-35261851D01*
X121995599Y-35295866D01*
X121992312Y-35330063D01*
X121989087Y-35364442D01*
X121985925Y-35399004D01*
X121982827Y-35433751D01*
X121979793Y-35468682D01*
X121976824Y-35503799D01*
X121973918Y-35539102D01*
X121971078Y-35574592D01*
X121968303Y-35610271D01*
X121965594Y-35646138D01*
X121962951Y-35682194D01*
X121960374Y-35718441D01*
X121957864Y-35754880D01*
X121955421Y-35791510D01*
X121953045Y-35828333D01*
X121950737Y-35865349D01*
X121948497Y-35902560D01*
X121946326Y-35939966D01*
X121944223Y-35977568D01*
X121942190Y-36015366D01*
X121940226Y-36053363D01*
X121938332Y-36091558D01*
X121936509Y-36129952D01*
X121934756Y-36168546D01*
X121933074Y-36207341D01*
X121931464Y-36246338D01*
X121929925Y-36285538D01*
X121928459Y-36324940D01*
X121927065Y-36364548D01*
X121925744Y-36404360D01*
X121924497Y-36444378D01*
X121923323Y-36484603D01*
X121922223Y-36525036D01*
X121921197Y-36565677D01*
X121920247Y-36606527D01*
X121919371Y-36647588D01*
X121918571Y-36688860D01*
X121917847Y-36730344D01*
X121917200Y-36772040D01*
X121916629Y-36813950D01*
X121916136Y-36856075D01*
X121915720Y-36898415D01*
X121915382Y-36940971D01*
X121915122Y-36983744D01*
X121914942Y-37026735D01*
X121914840Y-37069946D01*
X121914818Y-37113376D01*
X121914876Y-37157026D01*
X121915014Y-37200898D01*
X121915233Y-37244993D01*
X121915533Y-37289311D01*
X121915915Y-37333853D01*
X121916379Y-37378620D01*
X121916925Y-37423614D01*
X121917554Y-37468834D01*
X121918267Y-37514282D01*
X121919063Y-37559958D01*
X121919943Y-37605865D01*
X121920908Y-37652002D01*
X121921957Y-37698370D01*
X121923093Y-37744971D01*
X121924313Y-37791805D01*
X121925620Y-37838873D01*
X121927014Y-37886176D01*
X121928495Y-37933716D01*
X121930063Y-37981492D01*
X121931719Y-38029507D01*
X121933464Y-38077760D01*
X121935297Y-38126253D01*
X121937220Y-38174987D01*
X121939232Y-38223963D01*
X121941335Y-38273181D01*
X121943528Y-38322643D01*
X121945812Y-38372350D01*
X121948187Y-38422302D01*
X121950654Y-38472500D01*
X121953214Y-38522946D01*
X121955867Y-38573640D01*
X121958612Y-38624584D01*
X121961452Y-38675778D01*
X121964385Y-38727223D01*
X121967413Y-38778921D01*
X121970537Y-38830872D01*
X121973755Y-38883077D01*
X121977070Y-38935537D01*
X121980481Y-38988254D01*
X121983989Y-39041228D01*
X121987595Y-39094459D01*
X121991298Y-39147950D01*
X121995099Y-39201702D01*
X121999000Y-39255714D01*
X122002999Y-39309989D01*
X122007098Y-39364527D01*
X122011298Y-39419329D01*
X122015598Y-39474396D01*
X122019999Y-39529729D01*
X122024501Y-39585330D01*
X122029106Y-39641199D01*
X122033814Y-39697337D01*
X122038624Y-39753745D01*
X122043538Y-39810425D01*
X122048556Y-39867377D01*
X122053678Y-39924603D01*
X122058905Y-39982103D01*
X122064238Y-40039878D01*
X122069677Y-40097930D01*
X122075222Y-40156260D01*
X122080874Y-40214868D01*
X122086633Y-40273756D01*
X122092501Y-40332924D01*
X122098477Y-40392374D01*
X122104561Y-40452107D01*
X122110756Y-40512124D01*
X122117060Y-40572426D01*
X122123474Y-40633014D01*
X122130000Y-40693889D01*
X122136637Y-40755053D01*
X122143385Y-40816505D01*
X122150247Y-40878248D01*
X122157221Y-40940282D01*
X122164309Y-41002609D01*
X122171510Y-41065229D01*
X122178826Y-41128145D01*
X122186258Y-41191355D01*
X122193804Y-41254863D01*
X122201467Y-41318669D01*
X122209247Y-41382774D01*
X122217143Y-41447179D01*
X122225157Y-41511885D01*
X122233289Y-41576894D01*
X122241540Y-41642206D01*
X122249910Y-41707824D01*
X122258400Y-41773746D01*
X122267010Y-41839976D01*
X122275741Y-41906514D01*
X122284594Y-41973361D01*
X122293568Y-42040519D01*
X122302665Y-42107988D01*
X122311884Y-42175769D01*
X122321227Y-42243864D01*
X122330694Y-42312275D01*
X122340286Y-42381001D01*
X122350003Y-42450044D01*
X122359845Y-42519406D01*
X122369814Y-42589088D01*
X122379909Y-42659090D01*
X122390132Y-42729414D01*
X122400483Y-42800061D01*
X122410962Y-42871032D01*
X122421570Y-42942329D01*
X122432308Y-43013953D01*
X122443176Y-43085904D01*
X122454174Y-43158184D01*
X122465304Y-43230794D01*
X122476566Y-43303736D01*
X122487960Y-43377011D01*
X122499486Y-43450619D01*
X122511147Y-43524562D01*
X122522941Y-43598841D01*
X122534870Y-43673458D01*
X122546935Y-43748413D01*
X122559135Y-43823708D01*
X122571472Y-43899345D01*
X122583945Y-43975323D01*
X122596556Y-44051645D01*
X122609306Y-44128312D01*
X122622194Y-44205325D01*
X122635221Y-44282685D01*
X122648388Y-44360394D01*
X122661696Y-44438452D01*
X122675144Y-44516861D01*
X122688735Y-44595623D01*
X122702467Y-44674738D01*
X122716343Y-44754208D01*
X122730362Y-44834034D01*
X122744525Y-44914217D01*
X122758833Y-44994759D01*
X122773285Y-45075661D01*
X122787884Y-45156924D01*
X122802630Y-45238549D01*
X122817522Y-45320538D01*
X122832562Y-45402892D01*
X122847750Y-45485613D01*
X122863088Y-45568700D01*
X122878574Y-45652157D01*
X122894211Y-45735984D01*
X122909999Y-45820183D01*
X122925938Y-45904754D01*
X122942029Y-45989700D01*
X122958273Y-46075021D01*
X122974670Y-46160719D01*
X122991221Y-46246795D01*
X123007926Y-46333251D01*
X123024787Y-46420087D01*
X123041803Y-46507305D01*
X123058976Y-46594907D01*
X123076305Y-46682894D01*
X123093793Y-46771267D01*
X123111438Y-46860028D01*
X123129243Y-46949177D01*
X123147207Y-47038717D01*
X123165332Y-47128648D01*
X123183617Y-47218973D01*
X123202064Y-47309691D01*
X123220674Y-47400806D01*
X123239446Y-47492318D01*
X123258381Y-47584228D01*
X123277481Y-47676538D01*
X123296745Y-47769249D01*
X123316175Y-47862364D01*
X123335771Y-47955882D01*
X123355534Y-48049806D01*
X123375465Y-48144137D01*
X123395563Y-48238876D01*
X123415830Y-48334025D01*
X123436267Y-48429585D01*
X123456874Y-48525558D01*
X123477652Y-48621945D01*
X123498601Y-48718747D01*
X123519722Y-48815967D01*
X123541016Y-48913604D01*
X123562484Y-49011662D01*
X123584126Y-49110141D01*
X123605943Y-49209043D01*
X123627935Y-49308368D01*
X123650103Y-49408120D01*
X123672449Y-49508298D01*
X123694972Y-49608906D01*
X123717674Y-49709943D01*
X123740555Y-49811412D01*
X123763615Y-49913314D01*
X123786856Y-50015650D01*
X123810278Y-50118423D01*
X123833881Y-50221633D01*
X123857668Y-50325282D01*
X123881637Y-50429372D01*
X123905791Y-50533904D01*
X123930129Y-50638879D01*
X123954653Y-50744300D01*
X123979363Y-50850167D01*
X124004259Y-50956482D01*
X124029343Y-51063247D01*
X124054616Y-51170463D01*
X124080077Y-51278132D01*
X124090000Y-51320000D01*
X154050000Y-85390000D02*
X154017484Y-85390708D01*
X153984976Y-85391396D01*
X153952477Y-85392064D01*
X153919987Y-85392711D01*
X153887505Y-85393338D01*
X153855032Y-85393945D01*
X153822569Y-85394532D01*
X153790113Y-85395099D01*
X153757667Y-85395646D01*
X153725230Y-85396172D01*
X153692801Y-85396679D01*
X153660381Y-85397165D01*
X153627971Y-85397631D01*
X153595569Y-85398077D01*
X153563177Y-85398503D01*
X153530793Y-85398908D01*
X153498418Y-85399294D01*
X153466052Y-85399659D01*
X153433696Y-85400005D01*
X153401348Y-85400330D01*
X153369010Y-85400635D01*
X153336680Y-85400920D01*
X153304360Y-85401185D01*
X153272049Y-85401430D01*
X153239747Y-85401655D01*
X153207454Y-85401860D01*
X153175171Y-85402045D01*
X153142897Y-85402210D01*
X153110632Y-85402354D01*
X153078376Y-85402479D01*
X153046130Y-85402584D01*
X153013893Y-85402668D01*
X152981666Y-85402733D01*
X152949447Y-85402777D01*
X152917239Y-85402802D01*
X152885039Y-85402806D01*
X152852850Y-85402791D01*
X152820669Y-85402755D01*
X152788498Y-85402700D01*
X152756336Y-85402624D01*
X152724185Y-85402529D01*
X152692042Y-85402414D01*
X152659909Y-85402278D01*
X152627786Y-85402123D01*
X152595673Y-85401948D01*
X152563568Y-85401752D01*
X152531474Y-85401537D01*
X152499389Y-85401302D01*
X152467315Y-85401047D01*
X152435249Y-85400772D01*
X152403194Y-85400477D01*
X152371148Y-85400163D01*
X152339112Y-85399828D01*
X152307086Y-85399473D01*
X152275070Y-85399099D01*
X152243063Y-85398705D01*
X152211066Y-85398290D01*
X152179079Y-85397856D01*
X152147103Y-85397402D01*
X152115136Y-85396929D01*
X152083179Y-85396435D01*
X152051232Y-85395922D01*
X152019295Y-85395388D01*
X151987368Y-85394835D01*
X151955451Y-85394262D01*
X151923544Y-85393669D01*
X151891648Y-85393057D01*
X151859760Y-85392424D01*
X151827884Y-85391772D01*
X151796017Y-85391100D01*
X151764162Y-85390408D01*
X151732315Y-85389696D01*
X151700480Y-85388965D01*
X151668653Y-85388214D01*
X151636838Y-85387443D01*
X151605033Y-85386652D01*
X151573238Y-85385842D01*
X151541453Y-85385012D01*
X151509680Y-85384162D01*
X151477915Y-85383292D01*
X151446162Y-85382403D01*
X151414419Y-85381494D01*
X151382687Y-85380565D01*
X151350964Y-85379617D01*
X151319252Y-85378648D01*
X151287551Y-85377661D01*
X151255860Y-85376653D01*
X151224179Y-85375626D01*
X151192510Y-85374579D01*
X151160850Y-85373512D01*
X151129202Y-85372426D01*
X151097564Y-85371320D01*
X151065937Y-85370195D01*
X151034320Y-85369050D01*
X151002714Y-85367885D01*
X150971118Y-85366701D01*
X150939534Y-85365497D01*
X150907959Y-85364273D01*
X150876397Y-85363030D01*
X150844844Y-85361767D01*
X150813302Y-85360485D01*
X150781771Y-85359183D01*
X150750252Y-85357862D01*
X150718742Y-85356521D01*
X150687244Y-85355160D01*
X150655756Y-85353780D01*
X150624280Y-85352380D01*
X150592814Y-85350961D01*
X150561360Y-85349522D01*
X150529915Y-85348064D01*
X150498483Y-85346586D01*
X150467061Y-85345089D01*
X150435651Y-85343572D01*
X150404251Y-85342036D01*
X150372863Y-85340480D01*
X150341485Y-85338905D01*
X150310119Y-85337310D01*
X150278764Y-85335696D01*
X150247420Y-85334063D01*
X150216087Y-85332410D01*
X150184766Y-85330737D01*
X150153455Y-85329045D01*
X150122156Y-85327334D01*
X150090868Y-85325603D01*
X150059592Y-85323853D01*
X150028326Y-85322084D01*
X149997073Y-85320295D01*
X149965829Y-85318486D01*
X149934599Y-85316659D01*
X149903378Y-85314812D01*
X149872170Y-85312945D01*
X149840973Y-85311060D01*
X149809788Y-85309155D01*
X149778613Y-85307230D01*
X149747451Y-85305286D01*
X149716299Y-85303323D01*
X149685160Y-85301341D01*
X149654031Y-85299339D01*
X149622916Y-85297318D01*
X149591810Y-85295278D01*
X149560717Y-85293219D01*
X149529635Y-85291140D01*
X149498566Y-85289042D01*
X149467507Y-85286924D01*
X149436461Y-85284788D01*
X149405425Y-85282632D01*
X149374402Y-85280457D01*
X149343390Y-85278263D01*
X149312391Y-85276049D01*
X149281403Y-85273816D01*
X149250427Y-85271565D01*
X149219462Y-85269293D01*
X149188510Y-85267003D01*
X149157569Y-85264694D01*
X149126641Y-85262365D01*
X149095723Y-85260017D01*
X149064819Y-85257650D01*
X149033926Y-85255264D01*
X149003046Y-85252859D01*
X148972176Y-85250435D01*
X148941320Y-85247991D01*
X148910474Y-85245529D01*
X148879642Y-85243047D01*
X148848820Y-85240546D01*
X148818012Y-85238027D01*
X148787215Y-85235488D01*
X148756431Y-85232930D01*
X148725658Y-85230353D01*
X148694899Y-85227757D01*
X148664150Y-85225141D01*
X148633415Y-85222507D01*
X148602691Y-85219854D01*
X148571980Y-85217182D01*
X148541280Y-85214491D01*
X148510594Y-85211781D01*
X148479919Y-85209051D01*
X148449258Y-85206303D01*
X148418607Y-85203536D01*
X148387970Y-85200750D01*
X148357345Y-85197945D01*
X148326733Y-85195121D01*
X148296132Y-85192278D01*
X148265545Y-85189416D01*
X148234969Y-85186535D01*
X148204407Y-85183635D01*
X148173855Y-85180717D01*
X148143319Y-85177779D01*
X148112792Y-85174823D01*
X148082281Y-85171848D01*
X148051780Y-85168853D01*
X148021293Y-85165841D01*
X147990817Y-85162809D01*
X147960356Y-85159758D01*
X147929905Y-85156688D01*
X147899469Y-85153600D01*
X147869044Y-85150493D01*
X147838633Y-85147367D01*
X147808234Y-85144222D01*
X147777849Y-85141059D01*
X147747474Y-85137876D01*
X147717115Y-85134675D01*
X147686766Y-85131455D01*
X147656432Y-85128217D01*
X147626109Y-85124960D01*
X147595801Y-85121684D01*
X147565504Y-85118389D01*
X147535222Y-85115075D01*
X147504950Y-85111743D01*
X147474694Y-85108392D01*
X147444448Y-85105022D01*
X147414218Y-85101634D01*
X147383998Y-85098227D01*
X147353794Y-85094802D01*
X147323600Y-85091357D01*
X147293422Y-85087895D01*
X147263255Y-85084413D01*
X147233102Y-85080913D01*
X147202961Y-85077394D01*
X147172835Y-85073857D01*
X147142720Y-85070301D01*
X147112621Y-85066727D01*
X147082532Y-85063133D01*
X147052459Y-85059522D01*
X147022397Y-85055892D01*
X146992350Y-85052243D01*
X146962315Y-85048575D01*
X146932295Y-85044890D01*
X146902286Y-85041185D01*
X146872292Y-85037463D01*
X146842310Y-85033721D01*
X146812343Y-85029961D01*
X146782387Y-85026183D01*
X146752447Y-85022386D01*
X146722518Y-85018571D01*
X146692605Y-85014738D01*
X146662703Y-85010885D01*
X146632817Y-85007015D01*
X146602942Y-85003126D01*
X146573083Y-84999219D01*
X146543235Y-84995293D01*
X146513403Y-84991349D01*
X146483582Y-84987386D01*
X146453777Y-84983405D01*
X146423983Y-84979406D01*
X146394206Y-84975388D01*
X146364439Y-84971352D01*
X146334689Y-84967298D01*
X146304950Y-84963225D01*
X146275226Y-84959135D01*
X146245515Y-84955025D01*
X146215819Y-84950898D01*
X146186135Y-84946752D01*
X146156467Y-84942588D01*
X146126810Y-84938406D01*
X146097169Y-84934205D01*
X146067540Y-84929986D01*
X146037927Y-84925749D01*
X146008326Y-84921494D01*
X145978741Y-84917220D01*
X145949167Y-84912929D01*
X145919610Y-84908619D01*
X145890064Y-84904291D01*
X145860535Y-84899945D01*
X145831017Y-84895580D01*
X145801515Y-84891198D01*
X145772025Y-84886797D01*
X145742552Y-84882378D01*
X145713090Y-84877941D01*
X145683645Y-84873486D01*
X145654211Y-84869013D01*
X145624793Y-84864522D01*
X145595388Y-84860013D01*
X145565999Y-84855485D01*
X145536622Y-84850940D01*
X145507261Y-84846377D01*
X145477912Y-84841795D01*
X145448580Y-84837195D01*
X145419259Y-84832578D01*
X145389955Y-84827942D01*
X145360663Y-84823289D01*
X145331388Y-84818617D01*
X145302124Y-84813928D01*
X145272877Y-84809220D01*
X145243642Y-84804495D01*
X145214424Y-84799752D01*
X145185218Y-84794990D01*
X145156029Y-84790211D01*
X145126851Y-84785414D01*
X145097691Y-84780599D01*
X145068542Y-84775766D01*
X145039410Y-84770915D01*
X145010290Y-84766046D01*
X144981187Y-84761160D01*
X144952097Y-84756256D01*
X144923023Y-84751334D01*
X144893961Y-84746393D01*
X144864916Y-84741436D01*
X144835884Y-84736460D01*
X144806868Y-84731467D01*
X144777864Y-84726455D01*
X144748878Y-84721426D01*
X144719904Y-84716380D01*
X144690947Y-84711315D01*
X144662002Y-84706233D01*
X144633074Y-84701133D01*
X144604158Y-84696015D01*
X144575260Y-84690880D01*
X144546374Y-84685727D01*
X144517505Y-84680556D01*
X144488648Y-84675367D01*
X144459809Y-84670162D01*
X144430982Y-84664938D01*
X144402172Y-84659696D01*
X144373375Y-84654437D01*
X144344595Y-84649161D01*
X144315827Y-84643866D01*
X144287077Y-84638555D01*
X144258339Y-84633225D01*
X144229618Y-84627878D01*
X144200910Y-84622513D01*
X144172219Y-84617132D01*
X144143541Y-84611732D01*
X144114881Y-84606315D01*
X144086232Y-84600880D01*
X144057602Y-84595428D01*
X144028983Y-84589958D01*
X144000383Y-84584471D01*
X143971795Y-84578966D01*
X143943224Y-84573444D01*
X143914666Y-84567904D01*
X143886126Y-84562347D01*
X143857599Y-84556773D01*
X143829089Y-84551181D01*
X143800591Y-84545571D01*
X143772112Y-84539945D01*
X143743645Y-84534301D01*
X143715196Y-84528639D01*
X143686759Y-84522960D01*
X143658340Y-84517264D01*
X143629934Y-84511551D01*
X143601546Y-84505820D01*
X143573170Y-84500072D01*
X143544813Y-84494306D01*
X143516468Y-84488523D01*
X143488141Y-84482724D01*
X143459827Y-84476906D01*
X143431531Y-84471072D01*
X143403247Y-84465220D01*
X143374982Y-84459351D01*
X143346729Y-84453464D01*
X143318494Y-84447561D01*
X143290273Y-84441640D01*
X143262069Y-84435703D01*
X143233878Y-84429747D01*
X143205706Y-84423775D01*
X143177546Y-84417786D01*
X143149404Y-84411779D01*
X143121275Y-84405755D01*
X143093165Y-84399715D01*
X143065067Y-84393657D01*
X143036988Y-84387582D01*
X143008921Y-84381490D01*
X142980873Y-84375381D01*
X142952838Y-84369254D01*
X142924821Y-84363111D01*
X142896817Y-84356951D01*
X142868832Y-84350773D01*
X142840859Y-84344579D01*
X142812905Y-84338368D01*
X142784964Y-84332139D01*
X142757041Y-84325894D01*
X142729132Y-84319631D01*
X142701241Y-84313352D01*
X142673363Y-84307056D01*
X142645503Y-84300743D01*
X142617657Y-84294413D01*
X142589829Y-84288066D01*
X142562014Y-84281702D01*
X142534218Y-84275321D01*
X142506435Y-84268923D01*
X142478671Y-84262509D01*
X142450919Y-84256077D01*
X142423187Y-84249630D01*
X142395468Y-84243164D01*
X142367767Y-84236683D01*
X142340079Y-84230184D01*
X142312411Y-84223668D01*
X142284755Y-84217136D01*
X142257119Y-84210587D01*
X142229495Y-84204021D01*
X142201891Y-84197439D01*
X142174299Y-84190839D01*
X142146727Y-84184224D01*
X142119168Y-84177591D01*
X142091628Y-84170942D01*
X142064100Y-84164275D01*
X142036593Y-84157593D01*
X142009098Y-84150893D01*
X141981622Y-84144178D01*
X141954160Y-84137444D01*
X141926716Y-84130696D01*
X141899286Y-84123929D01*
X141871875Y-84117147D01*
X141844478Y-84110348D01*
X141817099Y-84103532D01*
X141789734Y-84096700D01*
X141762388Y-84089851D01*
X141735056Y-84082986D01*
X141707742Y-84076104D01*
X141680442Y-84069205D01*
X141653162Y-84062291D01*
X141625894Y-84055359D01*
X141598647Y-84048412D01*
X141571412Y-84041447D01*
X141544197Y-84034467D01*
X141516995Y-84027469D01*
X141489813Y-84020456D01*
X141462643Y-84013425D01*
X141435494Y-84006379D01*
X141408358Y-83999316D01*
X141381241Y-83992237D01*
X141354138Y-83985141D01*
X141327055Y-83978029D01*
X141299984Y-83970901D01*
X141272934Y-83963757D01*
X141245897Y-83956595D01*
X141218879Y-83949418D01*
X141191875Y-83942224D01*
X141164891Y-83935015D01*
X141137920Y-83927788D01*
X141110969Y-83920546D01*
X141084031Y-83913287D01*
X141057113Y-83906013D01*
X141030209Y-83898721D01*
X141003324Y-83891415D01*
X140976453Y-83884091D01*
X140949602Y-83876751D01*
X140922764Y-83869395D01*
X140895947Y-83862024D01*
X140869142Y-83854635D01*
X140842358Y-83847231D01*
X140815587Y-83839810D01*
X140788836Y-83832374D01*
X140762099Y-83824921D01*
X140735382Y-83817453D01*
X140708678Y-83809968D01*
X140681994Y-83802467D01*
X140655324Y-83794950D01*
X140628674Y-83787418D01*
X140602038Y-83779868D01*
X140575422Y-83772304D01*
X140548819Y-83764722D01*
X140522237Y-83757126D01*
X140495668Y-83749513D01*
X140469119Y-83741884D01*
X140442584Y-83734239D01*
X140416069Y-83726579D01*
X140389568Y-83718902D01*
X140363087Y-83711210D01*
X140336620Y-83703501D01*
X140310173Y-83695777D01*
X140283740Y-83688036D01*
X140257327Y-83680281D01*
X140230928Y-83672508D01*
X140204549Y-83664721D01*
X140178184Y-83656917D01*
X140151840Y-83649098D01*
X140125509Y-83641262D01*
X140099198Y-83633412D01*
X140072901Y-83625545D01*
X140046625Y-83617663D01*
X140020363Y-83609764D01*
X139994121Y-83601851D01*
X139967892Y-83593921D01*
X139941685Y-83585976D01*
X139915491Y-83578014D01*
X139889318Y-83570038D01*
X139863158Y-83562045D01*
X139837019Y-83554038D01*
X139810894Y-83546013D01*
X139784790Y-83537975D01*
X139758699Y-83529919D01*
X139732629Y-83521849D01*
X139706573Y-83513762D01*
X139680538Y-83505661D01*
X139654517Y-83497543D01*
X139628516Y-83489411D01*
X139602529Y-83481262D01*
X139576563Y-83473099D01*
X139550611Y-83464919D01*
X139524679Y-83456725D01*
X139498762Y-83448514D01*
X139472865Y-83440288D01*
X139446982Y-83432046D01*
X139421121Y-83423790D01*
X139395273Y-83415517D01*
X139369446Y-83407230D01*
X139343633Y-83398927D01*
X139317841Y-83390609D01*
X139292062Y-83382274D01*
X139266305Y-83373926D01*
X139240562Y-83365561D01*
X139214840Y-83357181D01*
X139189132Y-83348785D01*
X139163444Y-83340375D01*
X139137771Y-83331949D01*
X139112119Y-83323508D01*
X139086481Y-83315051D01*
X139060864Y-83306580D01*
X139035261Y-83298092D01*
X139009679Y-83289591D01*
X138984111Y-83281073D01*
X138958564Y-83272541D01*
X138933032Y-83263992D01*
X138907520Y-83255430D01*
X138882023Y-83246851D01*
X138856547Y-83238258D01*
X138831085Y-83229649D01*
X138805644Y-83221026D01*
X138780217Y-83212386D01*
X138754812Y-83203733D01*
X138729420Y-83195063D01*
X138704050Y-83186380D01*
X138678694Y-83177680D01*
X138653360Y-83168966D01*
X138628039Y-83160236D01*
X138602740Y-83151492D01*
X138577455Y-83142732D01*
X138552191Y-83133958D01*
X138526942Y-83125168D01*
X138501714Y-83116365D01*
X138476500Y-83107544D01*
X138451308Y-83098711D01*
X138426129Y-83089861D01*
X138400973Y-83080997D01*
X138375830Y-83072117D01*
X138350709Y-83063224D01*
X138325602Y-83054314D01*
X138300517Y-83045391D01*
X138275446Y-83036452D01*
X138250396Y-83027499D01*
X138225361Y-83018530D01*
X138200347Y-83009547D01*
X138175348Y-83000549D01*
X138150370Y-82991537D01*
X138125407Y-82982508D01*
X138100465Y-82973467D01*
X138075537Y-82964409D01*
X138050631Y-82955337D01*
X138025739Y-82946250D01*
X138000869Y-82937149D01*
X137976013Y-82928033D01*
X137951179Y-82918903D01*
X137926360Y-82909756D01*
X137901562Y-82900597D01*
X137876778Y-82891421D01*
X137852016Y-82882233D01*
X137827269Y-82873028D01*
X137802543Y-82863810D01*
X137777831Y-82854576D01*
X137753142Y-82845329D01*
X137728467Y-82836065D01*
X137703813Y-82826789D01*
X137679174Y-82817497D01*
X137654557Y-82808191D01*
X137629954Y-82798870D01*
X137605373Y-82789535D01*
X137580807Y-82780185D01*
X137556262Y-82770821D01*
X137531732Y-82761442D01*
X137507224Y-82752050D01*
X137482730Y-82742641D01*
X137458258Y-82733220D01*
X137433801Y-82723783D01*
X137409365Y-82714333D01*
X137384944Y-82704867D01*
X137360546Y-82695388D01*
X137336161Y-82685893D01*
X137311799Y-82676385D01*
X137287451Y-82666862D01*
X137263125Y-82657326D01*
X137238813Y-82647773D01*
X137214524Y-82638209D01*
X137190249Y-82628628D01*
X137165996Y-82619034D01*
X137141758Y-82609425D01*
X137117542Y-82599803D01*
X137093340Y-82590165D01*
X137069161Y-82580515D01*
X137044996Y-82570848D01*
X137020853Y-82561170D01*
X136996725Y-82551475D01*
X136972619Y-82541768D01*
X136948527Y-82532045D01*
X136924458Y-82522309D01*
X136900403Y-82512558D01*
X136876370Y-82502794D01*
X136852353Y-82493015D01*
X136828357Y-82483223D01*
X136804376Y-82473415D01*
X136780417Y-82463595D01*
X136756473Y-82453759D01*
X136732551Y-82443911D01*
X136708644Y-82434047D01*
X136684759Y-82424170D01*
X136660888Y-82414278D01*
X136637040Y-82404374D01*
X136613207Y-82394454D01*
X136589396Y-82384522D01*
X136565599Y-82374574D01*
X136541825Y-82364614D01*
X136518066Y-82354638D01*
X136494329Y-82344650D01*
X136470607Y-82334647D01*
X136446907Y-82324631D01*
X136423221Y-82314600D01*
X136399559Y-82304556D01*
X136375911Y-82294497D01*
X136352285Y-82284426D01*
X136328674Y-82274339D01*
X136305085Y-82264241D01*
X136281512Y-82254126D01*
X136257960Y-82244000D01*
X136234424Y-82233858D01*
X136210910Y-82223704D01*
X136187410Y-82213535D01*
X136163934Y-82203353D01*
X136140472Y-82193157D01*
X136117032Y-82182948D01*
X136093607Y-82172724D01*
X136070205Y-82162487D01*
X136046818Y-82152236D01*
X136023453Y-82141972D01*
X136000103Y-82131694D01*
X135976775Y-82121403D01*
X135953463Y-82111097D01*
X135930173Y-82100779D01*
X135906897Y-82090445D01*
X135883645Y-82080100D01*
X135860407Y-82069740D01*
X135837192Y-82059368D01*
X135813991Y-82048980D01*
X135790814Y-82038581D01*
X135767651Y-82028166D01*
X135744511Y-82017740D01*
X135721385Y-82007298D01*
X135698283Y-81996845D01*
X135675195Y-81986377D01*
X135652130Y-81975897D01*
X135629079Y-81965401D01*
X135606052Y-81954894D01*
X135583039Y-81944372D01*
X135560049Y-81933838D01*
X135537074Y-81923289D01*
X135514122Y-81912729D01*
X135491185Y-81902153D01*
X135468270Y-81891566D01*
X135445371Y-81880964D01*
X135422494Y-81870350D01*
X135399632Y-81859721D01*
X135376792Y-81849080D01*
X135353968Y-81838425D01*
X135331167Y-81827758D01*
X135308380Y-81817076D01*
X135285617Y-81806382D01*
X135262868Y-81795674D01*
X135240142Y-81784954D01*
X135217431Y-81774219D01*
X135194743Y-81763472D01*
X135172070Y-81752711D01*
X135149420Y-81741938D01*
X135126784Y-81731151D01*
X135104172Y-81720352D01*
X135081574Y-81709538D01*
X135059000Y-81698713D01*
X135036440Y-81687873D01*
X135013904Y-81677021D01*
X134991382Y-81666155D01*
X134968884Y-81655278D01*
X134946400Y-81644385D01*
X134923939Y-81633482D01*
X134901493Y-81622563D01*
X134879071Y-81611634D01*
X134856663Y-81600689D01*
X134834278Y-81589734D01*
X134811909Y-81578764D01*
X134789562Y-81567782D01*
X134767230Y-81556786D01*
X134744921Y-81545779D01*
X134722628Y-81534756D01*
X134700357Y-81523723D01*
X134678101Y-81512675D01*
X134655869Y-81501617D01*
X134633651Y-81490543D01*
X134611457Y-81479458D01*
X134589278Y-81468359D01*
X134567121Y-81457249D01*
X134544980Y-81446124D01*
X134522862Y-81434988D01*
X134500759Y-81423837D01*
X134478679Y-81412676D01*
X134456614Y-81401499D01*
X134434572Y-81390313D01*
X134412545Y-81379111D01*
X134390541Y-81367898D01*
X134368553Y-81356671D01*
X134346587Y-81345434D01*
X134324637Y-81334181D01*
X134302710Y-81322918D01*
X134280798Y-81311640D01*
X134258909Y-81300352D01*
X134237035Y-81289048D01*
X134215184Y-81277735D01*
X134193349Y-81266406D01*
X134171536Y-81255067D01*
X134149739Y-81243714D01*
X134127965Y-81232350D01*
X134106206Y-81220971D01*
X134084470Y-81209582D01*
X134062750Y-81198178D01*
X134041052Y-81186764D01*
X134019370Y-81175335D01*
X133997711Y-81163895D01*
X133976067Y-81152442D01*
X133954447Y-81140977D01*
X133932841Y-81129499D01*
X133911259Y-81118010D01*
X133889692Y-81106506D01*
X133868148Y-81094992D01*
X133846620Y-81083463D01*
X133825114Y-81071925D01*
X133803624Y-81060371D01*
X133782157Y-81048808D01*
X133760705Y-81037230D01*
X133739277Y-81025641D01*
X133717864Y-81014039D01*
X133696474Y-81002426D01*
X133675099Y-80990798D01*
X133653747Y-80979161D01*
X133632411Y-80967509D01*
X133611098Y-80955847D01*
X133589800Y-80944170D01*
X133568526Y-80932484D01*
X133547267Y-80920783D01*
X133526031Y-80909072D01*
X133504810Y-80897346D01*
X133483613Y-80885611D01*
X133462431Y-80873861D01*
X133441272Y-80862101D01*
X133420128Y-80850327D01*
X133399008Y-80838543D01*
X133377903Y-80826745D01*
X133356821Y-80814936D01*
X133335755Y-80803113D01*
X133314712Y-80791281D01*
X133293685Y-80779434D01*
X133272680Y-80767577D01*
X133251691Y-80755706D01*
X133230725Y-80743825D01*
X133209775Y-80731930D01*
X133188848Y-80720025D01*
X133167936Y-80708106D01*
X133147048Y-80696177D01*
X133126175Y-80684234D01*
X133105325Y-80672281D01*
X133084490Y-80660314D01*
X133063679Y-80648337D01*
X133042884Y-80636346D01*
X133022111Y-80624345D01*
X133001354Y-80612330D01*
X132980621Y-80600306D01*
X132959902Y-80588267D01*
X132939207Y-80576219D01*
X132918528Y-80564156D01*
X132897872Y-80552084D01*
X132877231Y-80539998D01*
X132856614Y-80527903D01*
X132836012Y-80515793D01*
X132815433Y-80503673D01*
X132794870Y-80491540D01*
X132774330Y-80479397D01*
X132753805Y-80467240D01*
X132733304Y-80455074D01*
X132712819Y-80442893D01*
X132692356Y-80430703D01*
X132671909Y-80418499D01*
X132651486Y-80406286D01*
X132631078Y-80394059D01*
X132610693Y-80381822D01*
X132590324Y-80369571D01*
X132569978Y-80357311D01*
X132549648Y-80345037D01*
X132529340Y-80332754D01*
X132509049Y-80320456D01*
X132488781Y-80308150D01*
X132468528Y-80295829D01*
X132448299Y-80283499D01*
X132428085Y-80271155D01*
X132407894Y-80258802D01*
X132387719Y-80246436D01*
X132367568Y-80234059D01*
X132347432Y-80221669D01*
X132327319Y-80209270D01*
X132307222Y-80196857D01*
X132287148Y-80184435D01*
X132267089Y-80171999D01*
X132247054Y-80159554D01*
X132227035Y-80147095D01*
X132207039Y-80134627D01*
X132187059Y-80122145D01*
X132167101Y-80109654D01*
X132147160Y-80097150D01*
X132127241Y-80084636D01*
X132107339Y-80072108D01*
X132087460Y-80059572D01*
X132067596Y-80047022D01*
X132047755Y-80034462D01*
X132027931Y-80021890D01*
X132008129Y-80009308D01*
X131988343Y-79996712D01*
X131968581Y-79984107D01*
X131948834Y-79971489D01*
X131929111Y-79958862D01*
X131909403Y-79946221D01*
X131889718Y-79933572D01*
X131870049Y-79920908D01*
X131850404Y-79908236D01*
X131830774Y-79895550D01*
X131811167Y-79882856D01*
X131791576Y-79870147D01*
X131772008Y-79857430D01*
X131752456Y-79844700D01*
X131732928Y-79831960D01*
X131713415Y-79819207D01*
X131693925Y-79806446D01*
X131674451Y-79793670D01*
X131655000Y-79780886D01*
X131635566Y-79768089D01*
X131616154Y-79755283D01*
X131596758Y-79742463D01*
X131577385Y-79729634D01*
X131558028Y-79716793D01*
X131538695Y-79703942D01*
X131519377Y-79691078D01*
X131500082Y-79678205D01*
X131480803Y-79665319D01*
X131461547Y-79652425D01*
X131442308Y-79639517D01*
X131423091Y-79626600D01*
X131403890Y-79613670D01*
X131384713Y-79600731D01*
X131365551Y-79587779D01*
X131346412Y-79574819D01*
X131327290Y-79561845D01*
X131308190Y-79548862D01*
X131289106Y-79535867D01*
X131270046Y-79522862D01*
X131251001Y-79509845D01*
X131231980Y-79496819D01*
X131212974Y-79483779D01*
X131193992Y-79470732D01*
X131175025Y-79457671D01*
X131156082Y-79444601D01*
X131137155Y-79431519D01*
X131118250Y-79418427D01*
X131099362Y-79405323D01*
X131080497Y-79392210D01*
X131061647Y-79379085D01*
X131042821Y-79365950D01*
X131024011Y-79352803D01*
X131005224Y-79339647D01*
X130986453Y-79326478D01*
X130967705Y-79313301D01*
X130948973Y-79300111D01*
X130930264Y-79286912D01*
X130911571Y-79273700D01*
X130892901Y-79260480D01*
X130874247Y-79247247D01*
X130855616Y-79234006D01*
X130837001Y-79220751D01*
X130818409Y-79207488D01*
X130799834Y-79194213D01*
X130781281Y-79180929D01*
X130762744Y-79167632D01*
X130744231Y-79154327D01*
X130725733Y-79141008D01*
X130707258Y-79127682D01*
X130688800Y-79114343D01*
X130670364Y-79100995D01*
X130651945Y-79087635D01*
X130633549Y-79074266D01*
X130615168Y-79060885D01*
X130596811Y-79047495D01*
X130578470Y-79034093D01*
X130560151Y-79020682D01*
X130541849Y-79007259D01*
X130523570Y-78993827D01*
X130505307Y-78980383D01*
X130487067Y-78966930D01*
X130468843Y-78953465D01*
X130450642Y-78939992D01*
X130432457Y-78926505D01*
X130414295Y-78913011D01*
X130396149Y-78899504D01*
X130378026Y-78885989D01*
X130359919Y-78872461D01*
X130341836Y-78858926D01*
X130323768Y-78845377D01*
X130305723Y-78831821D01*
X130287695Y-78818252D01*
X130269689Y-78804675D01*
X130251700Y-78791085D01*
X130233733Y-78777487D01*
X130215783Y-78763877D01*
X130197855Y-78750258D01*
X130179944Y-78736627D01*
X130162055Y-78722988D01*
X130144183Y-78709337D01*
X130126334Y-78695678D01*
X130108501Y-78682005D01*
X130090691Y-78668326D01*
X130072896Y-78654633D01*
X130055125Y-78640933D01*
X130037370Y-78627220D01*
X130019638Y-78613499D01*
X130001922Y-78599766D01*
X129984229Y-78586025D01*
X129966552Y-78572272D01*
X129948898Y-78558510D01*
X129931260Y-78544737D01*
X129913646Y-78530955D01*
X129896047Y-78517161D01*
X129878471Y-78503359D01*
X129860911Y-78489545D01*
X129843374Y-78475723D01*
X129825854Y-78461888D01*
X129808356Y-78448046D01*
X129790875Y-78434192D01*
X129773416Y-78420330D01*
X129755973Y-78406455D01*
X129738554Y-78392573D01*
X129721150Y-78378678D01*
X129703770Y-78364776D01*
X129686405Y-78350861D01*
X129669064Y-78336939D01*
X129651738Y-78323004D01*
X129634436Y-78309062D01*
X129617150Y-78295107D01*
X129599886Y-78281145D01*
X129582639Y-78267170D01*
X129565414Y-78253188D01*
X129548206Y-78239194D01*
X129531021Y-78225192D01*
X129513852Y-78211178D01*
X129496705Y-78197156D01*
X129479575Y-78183122D01*
X129462468Y-78169081D01*
X129445377Y-78155027D01*
X129428308Y-78140966D01*
X129411256Y-78126893D01*
X129394227Y-78112812D01*
X129377214Y-78098719D01*
X129360223Y-78084618D01*
X129343249Y-78070506D01*
X129326298Y-78056386D01*
X129309363Y-78042253D01*
X129292451Y-78028114D01*
X129275554Y-78013962D01*
X129258681Y-77999803D01*
X129241824Y-77985631D01*
X129224990Y-77971453D01*
X129208172Y-77957262D01*
X129191376Y-77943064D01*
X129174597Y-77928854D01*
X129157841Y-77914636D01*
X129141101Y-77900406D01*
X129124383Y-77886170D01*
X129107682Y-77871920D01*
X129091004Y-77857664D01*
X129074342Y-77843396D01*
X129057702Y-77829120D01*
X129041079Y-77814832D01*
X129024479Y-77800538D01*
X129007894Y-77786231D01*
X128991333Y-77771917D01*
X128974788Y-77757590D01*
X128958265Y-77743257D01*
X128941759Y-77728912D01*
X128925275Y-77714560D01*
X128908808Y-77700195D01*
X128892363Y-77685823D01*
X128875935Y-77671440D01*
X128859529Y-77657049D01*
X128843139Y-77642646D01*
X128826772Y-77628237D01*
X128810422Y-77613815D01*
X128794094Y-77599386D01*
X128777782Y-77584945D01*
X128761493Y-77570498D01*
X128745221Y-77556038D01*
X128728970Y-77541571D01*
X128712737Y-77527093D01*
X128696525Y-77512607D01*
X128680330Y-77498109D01*
X128664158Y-77483605D01*
X128648002Y-77469089D01*
X128631869Y-77454565D01*
X128615752Y-77440030D01*
X128599657Y-77425488D01*
X128583579Y-77410934D01*
X128567523Y-77396373D01*
X128551484Y-77381800D01*
X128535467Y-77367220D01*
X128519466Y-77352629D01*
X128503488Y-77338030D01*
X128487527Y-77323420D01*
X128471588Y-77308803D01*
X128455665Y-77294174D01*
X128439765Y-77279538D01*
X128423881Y-77264891D01*
X128408019Y-77250236D01*
X128392174Y-77235570D01*
X128376352Y-77220897D01*
X128360545Y-77206212D01*
X128344762Y-77191521D01*
X128328994Y-77176818D01*
X128313249Y-77162108D01*
X128297521Y-77147386D01*
X128281814Y-77132658D01*
X128266125Y-77117917D01*
X128250457Y-77103170D01*
X128234806Y-77088412D01*
X128219178Y-77073646D01*
X128203566Y-77058869D01*
X128187976Y-77044086D01*
X128172402Y-77029290D01*
X128156851Y-77014488D01*
X128141317Y-76999674D01*
X128125804Y-76984854D01*
X128110309Y-76970022D01*
X128094835Y-76955183D01*
X128079378Y-76940333D01*
X128063943Y-76925476D01*
X128048525Y-76910607D01*
X128033129Y-76895732D01*
X128017749Y-76880845D01*
X128002392Y-76865952D01*
X127987051Y-76851047D01*
X127971733Y-76836136D01*
X127956431Y-76821212D01*
X127941151Y-76806283D01*
X127925887Y-76791341D01*
X127910646Y-76776394D01*
X127895421Y-76761434D01*
X127880219Y-76746469D01*
X127865033Y-76731491D01*
X127849869Y-76716507D01*
X127834722Y-76701512D01*
X127819597Y-76686510D01*
X127804488Y-76671497D01*
X127789402Y-76656477D01*
X127774332Y-76641445D01*
X127759284Y-76626408D01*
X127744253Y-76611358D01*
X127729244Y-76596303D01*
X127714252Y-76581235D01*
X127699281Y-76566162D01*
X127684327Y-76551077D01*
X127669395Y-76535985D01*
X127654480Y-76520882D01*
X127639587Y-76505773D01*
X127624710Y-76490653D01*
X127609856Y-76475526D01*
X127595018Y-76460387D01*
X127580202Y-76445242D01*
X127565402Y-76430086D01*
X127550625Y-76414923D01*
X127535864Y-76399749D01*
X127521125Y-76384569D01*
X127506403Y-76369377D01*
X127491703Y-76354179D01*
X127477019Y-76338970D01*
X127462358Y-76323754D01*
X127447713Y-76308527D01*
X127433090Y-76293294D01*
X127418483Y-76278050D01*
X127403899Y-76262799D01*
X127389331Y-76247537D01*
X127374785Y-76232268D01*
X127360256Y-76216988D01*
X127345748Y-76201703D01*
X127331257Y-76186405D01*
X127316788Y-76171102D01*
X127302336Y-76155787D01*
X127287906Y-76140466D01*
X127273492Y-76125134D01*
X127259100Y-76109795D01*
X127244725Y-76094446D01*
X127230371Y-76079090D01*
X127216035Y-76063723D01*
X127201720Y-76048350D01*
X127187421Y-76032965D01*
X127173145Y-76017574D01*
X127158885Y-76002173D01*
X127144647Y-75986765D01*
X127130426Y-75971345D01*
X127116226Y-75955920D01*
X127102043Y-75940484D01*
X127087882Y-75925041D01*
X127073738Y-75909587D01*
X127059615Y-75894128D01*
X127045509Y-75878656D01*
X127031425Y-75863179D01*
X127017358Y-75847691D01*
X127003312Y-75832197D01*
X126989283Y-75816691D01*
X126975275Y-75801180D01*
X126961284Y-75785657D01*
X126947315Y-75770129D01*
X126933363Y-75754589D01*
X126919432Y-75739043D01*
X126905519Y-75723486D01*
X126891626Y-75707923D01*
X126877751Y-75692349D01*
X126863897Y-75676769D01*
X126850060Y-75661178D01*
X126836244Y-75645581D01*
X126822445Y-75629973D01*
X126808668Y-75614359D01*
X126794908Y-75598734D01*
X126781169Y-75583102D01*
X126767446Y-75567460D01*
X126753746Y-75551812D01*
X126740062Y-75536153D01*
X126726400Y-75520488D01*
X126712754Y-75504812D01*
X126699130Y-75489130D01*
X126685523Y-75473437D01*
X126671937Y-75457738D01*
X126658369Y-75442028D01*
X126644821Y-75426312D01*
X126631291Y-75410585D01*
X126617781Y-75394853D01*
X126604289Y-75379109D01*
X126590818Y-75363360D01*
X126577364Y-75347599D01*
X126563931Y-75331833D01*
X126550516Y-75316055D01*
X126537121Y-75300272D01*
X126523744Y-75284478D01*
X126510388Y-75268678D01*
X126497048Y-75252867D01*
X126483730Y-75237051D01*
X126470429Y-75221223D01*
X126457149Y-75205390D01*
X126443886Y-75189545D01*
X126430645Y-75173695D01*
X126417420Y-75157834D01*
X126404217Y-75141968D01*
X126391030Y-75126090D01*
X126377865Y-75110206D01*
X126364717Y-75094312D01*
X126351590Y-75078412D01*
X126338479Y-75062501D01*
X126325390Y-75046584D01*
X126312318Y-75030657D01*
X126299268Y-75014724D01*
X126286234Y-74998779D01*
X126273221Y-74982830D01*
X126260225Y-74966869D01*
X126247251Y-74950902D01*
X126234293Y-74934925D01*
X126221357Y-74918942D01*
X126208437Y-74902948D01*
X126195539Y-74886949D01*
X126182658Y-74870939D01*
X126169797Y-74854923D01*
X126156954Y-74838896D01*
X126144132Y-74822864D01*
X126131327Y-74806820D01*
X126118543Y-74790772D01*
X126105775Y-74774712D01*
X126093029Y-74758647D01*
X126080300Y-74742571D01*
X126067592Y-74726489D01*
X126054901Y-74710397D01*
X126042231Y-74694299D01*
X126029578Y-74678190D01*
X126016946Y-74662075D01*
X126004331Y-74645950D01*
X125991737Y-74629819D01*
X125979161Y-74613678D01*
X125966605Y-74597531D01*
X125954066Y-74581373D01*
X125941548Y-74565210D01*
X125929047Y-74549036D01*
X125916567Y-74532856D01*
X125904104Y-74516666D01*
X125891662Y-74500470D01*
X125879237Y-74484263D01*
X125866833Y-74468051D01*
X125854446Y-74451828D01*
X125842080Y-74435600D01*
X125829731Y-74419360D01*
X125817402Y-74403116D01*
X125805091Y-74386861D01*
X125792801Y-74370600D01*
X125780528Y-74354328D01*
X125768276Y-74338051D01*
X125756040Y-74321764D01*
X125743826Y-74305471D01*
X125731629Y-74289167D01*
X125719452Y-74272858D01*
X125707293Y-74256538D01*
X125695154Y-74240212D01*
X125683032Y-74223876D01*
X125670932Y-74207535D01*
X125658848Y-74191183D01*
X125646785Y-74174825D01*
X125634739Y-74158457D01*
X125622714Y-74142084D01*
X125610706Y-74125699D01*
X125598719Y-74109310D01*
X125586749Y-74092909D01*
X125574800Y-74076504D01*
X125562867Y-74060088D01*
X125550956Y-74043666D01*
X125539062Y-74027234D01*
X125527188Y-74010796D01*
X125515331Y-73994348D01*
X125503495Y-73977894D01*
X125491676Y-73961430D01*
X125479878Y-73944960D01*
X125468097Y-73928480D01*
X125456337Y-73911994D01*
X125444594Y-73895498D01*
X125432871Y-73878997D01*
X125421166Y-73862485D01*
X125409481Y-73845967D01*
X125397813Y-73829440D01*
X125386166Y-73812906D01*
X125374536Y-73796362D01*
X125362927Y-73779813D01*
X125351335Y-73763254D01*
X125339763Y-73746689D01*
X125328209Y-73730113D01*
X125316675Y-73713532D01*
X125305158Y-73696941D01*
X125293662Y-73680344D01*
X125282183Y-73663737D01*
X125270725Y-73647124D01*
X125259284Y-73630501D01*
X125247863Y-73613873D01*
X125236459Y-73597234D01*
X125225076Y-73580590D01*
X125213710Y-73563936D01*
X125202365Y-73547276D01*
X125191037Y-73530605D01*
X125179729Y-73513930D01*
X125168438Y-73497244D01*
X125157168Y-73480552D01*
X125145915Y-73463850D01*
X125134683Y-73447143D01*
X125123468Y-73430426D01*
X125112273Y-73413703D01*
X125101095Y-73396970D01*
X125089938Y-73380231D01*
X125078798Y-73363482D01*
X125067679Y-73346728D01*
X125056576Y-73329963D01*
X125045494Y-73313193D01*
X125034430Y-73296413D01*
X125023385Y-73279628D01*
X125012358Y-73262832D01*
X125001351Y-73246030D01*
X124990362Y-73229219D01*
X124979393Y-73212402D01*
X124968441Y-73195575D01*
X124957509Y-73178742D01*
X124946595Y-73161900D01*
X124935701Y-73145051D01*
X124924824Y-73128193D01*
X124913967Y-73111329D01*
X124903128Y-73094455D01*
X124892309Y-73077576D01*
X124881507Y-73060687D01*
X124870726Y-73043792D01*
X124859962Y-73026887D01*
X124849218Y-73009976D01*
X124838491Y-72993056D01*
X124827785Y-72976130D01*
X124817096Y-72959193D01*
X124806427Y-72942252D01*
X124795775Y-72925300D01*
X124785144Y-72908343D01*
X124774530Y-72891376D01*
X124763936Y-72874404D01*
X124753359Y-72857421D01*
X124742803Y-72840433D01*
X124732264Y-72823435D01*
X124721745Y-72806431D01*
X124711243Y-72789417D01*
X124700762Y-72772398D01*
X124690298Y-72755369D01*
X124679854Y-72738335D01*
X124669427Y-72721290D01*
X124659020Y-72704240D01*
X124648631Y-72687180D01*
X124638262Y-72670115D01*
X124627910Y-72653039D01*
X124617578Y-72635959D01*
X124607264Y-72618868D01*
X124596970Y-72601772D01*
X124586693Y-72584665D01*
X124576436Y-72567554D01*
X124566196Y-72550432D01*
X124555977Y-72533305D01*
X124545775Y-72516168D01*
X124535593Y-72499025D01*
X124525428Y-72481873D01*
X124515283Y-72464715D01*
X124505156Y-72447547D01*
X124495049Y-72430374D01*
X124484959Y-72413191D01*
X124474889Y-72396002D01*
X124464836Y-72378804D01*
X124454804Y-72361600D01*
X124444788Y-72344386D01*
X124434793Y-72327167D01*
X124424815Y-72309937D01*
X124414858Y-72292703D01*
X124404917Y-72275458D01*
X124394997Y-72258208D01*
X124385093Y-72240948D01*
X124375210Y-72223683D01*
X124365345Y-72206408D01*
X124355499Y-72189128D01*
X124345670Y-72171837D01*
X124335862Y-72154541D01*
X124326071Y-72137235D01*
X124316299Y-72119924D01*
X124306546Y-72102603D01*
X124296812Y-72085277D01*
X124287095Y-72067941D01*
X124277399Y-72050599D01*
X124267720Y-72033247D01*
X124258060Y-72015890D01*
X124248418Y-71998523D01*
X124238796Y-71981151D01*
X124229192Y-71963769D01*
X124219607Y-71946382D01*
X124210040Y-71928984D01*
X124200492Y-71911582D01*
X124190962Y-71894169D01*
X124181452Y-71876751D01*
X124171959Y-71859323D01*
X124162487Y-71841890D01*
X124153031Y-71824447D01*
X124143595Y-71806999D01*
X124134177Y-71789541D01*
X124124779Y-71772077D01*
X124115398Y-71754603D01*
X124106037Y-71737125D01*
X124096693Y-71719636D01*
X124087369Y-71702142D01*
X124078063Y-71684638D01*
X124068776Y-71667129D01*
X124059507Y-71649610D01*
X124050257Y-71632086D01*
X124041025Y-71614551D01*
X124031813Y-71597012D01*
X124022618Y-71579462D01*
X124013443Y-71561908D01*
X124004286Y-71544343D01*
X123995148Y-71526773D01*
X123986028Y-71509193D01*
X123976927Y-71491608D01*
X123967844Y-71474014D01*
X123958781Y-71456413D01*
X123949735Y-71438803D01*
X123940709Y-71421188D01*
X123931700Y-71403563D01*
X123922711Y-71385932D01*
X123913739Y-71368292D01*
X123904787Y-71350646D01*
X123895853Y-71332991D01*
X123886938Y-71315330D01*
X123878041Y-71297659D01*
X123869164Y-71279984D01*
X123860304Y-71262298D01*
X123851464Y-71244607D01*
X123842641Y-71226906D01*
X123833838Y-71209200D01*
X123825052Y-71191484D01*
X123816286Y-71173763D01*
X123807538Y-71156032D01*
X123798809Y-71138295D01*
X123790097Y-71120549D01*
X123781406Y-71102798D01*
X123772732Y-71085036D01*
X123764077Y-71067270D01*
X123755440Y-71049493D01*
X123746823Y-71031712D01*
X123738223Y-71013920D01*
X123729643Y-70996123D01*
X123721080Y-70978317D01*
X123712537Y-70960505D01*
X123704011Y-70942684D01*
X123695505Y-70924856D01*
X123687017Y-70907020D01*
X123678548Y-70889178D01*
X123670097Y-70871326D01*
X123661665Y-70853469D01*
X123653251Y-70835602D01*
X123644856Y-70817730D01*
X123636479Y-70799848D01*
X123628122Y-70781961D01*
X123619782Y-70764064D01*
X123611462Y-70746161D01*
X123603159Y-70728249D01*
X123594875Y-70710332D01*
X123586610Y-70692405D01*
X123578364Y-70674472D01*
X123570135Y-70656530D01*
X123561926Y-70638583D01*
X123553735Y-70620625D01*
X123545563Y-70602663D01*
X123537408Y-70584691D01*
X123529274Y-70566713D01*
X123521156Y-70548726D01*
X123513059Y-70530733D01*
X123504978Y-70512731D01*
X123496918Y-70494723D01*
X123488875Y-70476705D01*
X123480851Y-70458683D01*
X123472845Y-70440650D01*
X123464859Y-70422612D01*
X123456890Y-70404565D01*
X123448941Y-70386512D01*
X123441009Y-70368449D01*
X123433097Y-70350381D01*
X123425202Y-70332304D01*
X123417327Y-70314221D01*
X123409469Y-70296128D01*
X123401631Y-70278030D01*
X123393811Y-70259923D01*
X123386010Y-70241810D01*
X123378226Y-70223687D01*
X123370462Y-70205559D01*
X123362716Y-70187421D01*
X123354989Y-70169278D01*
X123347280Y-70151125D01*
X123339590Y-70132967D01*
X123331918Y-70114799D01*
X123324266Y-70096626D01*
X123316631Y-70078443D01*
X123309015Y-70060255D01*
X123301417Y-70042057D01*
X123293838Y-70023854D01*
X123286278Y-70005641D01*
X123278736Y-69987423D01*
X123271212Y-69969195D01*
X123263708Y-69950961D01*
X123256221Y-69932719D01*
X123248754Y-69914470D01*
X123241304Y-69896212D01*
X123233874Y-69877949D01*
X123226461Y-69859676D01*
X123219068Y-69841397D01*
X123211693Y-69823110D01*
X123204337Y-69804816D01*
X123196998Y-69786513D01*
X123189679Y-69768204D01*
X123182378Y-69749886D01*
X123175096Y-69731563D01*
X123167832Y-69713230D01*
X123160587Y-69694891D01*
X123153360Y-69676543D01*
X123146152Y-69658189D01*
X123138962Y-69639826D01*
X123131791Y-69621458D01*
X123124638Y-69603080D01*
X123117505Y-69584696D01*
X123110389Y-69566303D01*
X123103292Y-69547904D01*
X123096213Y-69529496D01*
X123089154Y-69511082D01*
X123082112Y-69492659D01*
X123075090Y-69474230D01*
X123068085Y-69455792D01*
X123061100Y-69437348D01*
X123054132Y-69418895D01*
X123047184Y-69400435D01*
X123040254Y-69381967D01*
X123033342Y-69363493D01*
X123026449Y-69345010D01*
X123019575Y-69326521D01*
X123012719Y-69308023D01*
X123005882Y-69289518D01*
X122999063Y-69271005D01*
X122992263Y-69252486D01*
X122985481Y-69233957D01*
X122978718Y-69215423D01*
X122971973Y-69196880D01*
X122965247Y-69178331D01*
X122958539Y-69159772D01*
X122951851Y-69141208D01*
X122945180Y-69122634D01*
X122938528Y-69104055D01*
X122931895Y-69085466D01*
X122925280Y-69066872D01*
X122918684Y-69048268D01*
X122912106Y-69029659D01*
X122905547Y-69011040D01*
X122899007Y-68992415D01*
X122892484Y-68973782D01*
X122885981Y-68955142D01*
X122879496Y-68936493D01*
X122873030Y-68917838D01*
X122866582Y-68899174D01*
X122860153Y-68880505D01*
X122853742Y-68861826D01*
X122847350Y-68843141D01*
X122840977Y-68824447D01*
X122834622Y-68805747D01*
X122828285Y-68787038D01*
X122821968Y-68768323D01*
X122815668Y-68749599D01*
X122809388Y-68730869D01*
X122803126Y-68712129D01*
X122796882Y-68693384D01*
X122790657Y-68674630D01*
X122784451Y-68655869D01*
X122778263Y-68637100D01*
X122772094Y-68618325D01*
X122765943Y-68599540D01*
X122759811Y-68580750D01*
X122753697Y-68561950D01*
X122747603Y-68543145D01*
X122741526Y-68524330D01*
X122735469Y-68505509D01*
X122729429Y-68486679D01*
X122723409Y-68467844D01*
X122717407Y-68448999D01*
X122711424Y-68430148D01*
X122705458Y-68411288D01*
X122699512Y-68392422D01*
X122693585Y-68373547D01*
X122687676Y-68354666D01*
X122681785Y-68335775D01*
X122675913Y-68316879D01*
X122670060Y-68297974D01*
X122664225Y-68279062D01*
X122658409Y-68260142D01*
X122652612Y-68241215D01*
X122646833Y-68222280D01*
X122641073Y-68203338D01*
X122635331Y-68184387D01*
X122629608Y-68165430D01*
X122623904Y-68146465D01*
X122618218Y-68127493D01*
X122612551Y-68108512D01*
X122606902Y-68089524D01*
X122601272Y-68070528D01*
X122595661Y-68051526D01*
X122590068Y-68032515D01*
X122584494Y-68013497D01*
X122578938Y-67994471D01*
X122573402Y-67975438D01*
X122567883Y-67956396D01*
X122562384Y-67937349D01*
X122556903Y-67918292D01*
X122551440Y-67899229D01*
X122545996Y-67880157D01*
X122540572Y-67861079D01*
X122535165Y-67841991D01*
X122529777Y-67822898D01*
X122524408Y-67803796D01*
X122519058Y-67784687D01*
X122513726Y-67765570D01*
X122508412Y-67746446D01*
X122503118Y-67727313D01*
X122497842Y-67708174D01*
X122492585Y-67689026D01*
X122487346Y-67669872D01*
X122482126Y-67650709D01*
X122476925Y-67631539D01*
X122471742Y-67612361D01*
X122466578Y-67593176D01*
X122461433Y-67573983D01*
X122456306Y-67554783D01*
X122451198Y-67535574D01*
X122446109Y-67516359D01*
X122441038Y-67497135D01*
X122435986Y-67477905D01*
X122430953Y-67458665D01*
X122425939Y-67439420D01*
X122420943Y-67420165D01*
X122415965Y-67400904D01*
X122411007Y-67381635D01*
X122406067Y-67362358D01*
X122401146Y-67343073D01*
X122396244Y-67323782D01*
X122391360Y-67304482D01*
X122386495Y-67285175D01*
X122381648Y-67265859D01*
X122376821Y-67246537D01*
X122372012Y-67227207D01*
X122367222Y-67207869D01*
X122362450Y-67188523D01*
X122357697Y-67169171D01*
X122352963Y-67149809D01*
X122348248Y-67130441D01*
X122343551Y-67111065D01*
X122338874Y-67091681D01*
X122334214Y-67072289D01*
X122329574Y-67052891D01*
X122324952Y-67033483D01*
X122320349Y-67014070D01*
X122315765Y-66994647D01*
X122311200Y-66975218D01*
X122306653Y-66955780D01*
X122302125Y-66936335D01*
X122297616Y-66916882D01*
X122293125Y-66897422D01*
X122288654Y-66877953D01*
X122284201Y-66858478D01*
X122279767Y-66838994D01*
X122275351Y-66819503D01*
X122270954Y-66800004D01*
X122266577Y-66780498D01*
X122262218Y-66760983D01*
X122257877Y-66741462D01*
X122253556Y-66721932D01*
X122249253Y-66702395D01*
X122244969Y-66682850D01*
X122240704Y-66663298D01*
X122236458Y-66643737D01*
X122232230Y-66624169D01*
X122228021Y-66604593D01*
X122223831Y-66585010D01*
X122219660Y-66565418D01*
X122215508Y-66545820D01*
X122211374Y-66526213D01*
X122207260Y-66506599D01*
X122203164Y-66486976D01*
X122199087Y-66467347D01*
X122195028Y-66447709D01*
X122190989Y-66428065D01*
X122186968Y-66408411D01*
X122182967Y-66388751D01*
X122178984Y-66369082D01*
X122175020Y-66349407D01*
X122171075Y-66329722D01*
X122167148Y-66310031D01*
X122163241Y-66290331D01*
X122159352Y-66270625D01*
X122155482Y-66250910D01*
X122151631Y-66231188D01*
X122147799Y-66211457D01*
X122143986Y-66191719D01*
X122140192Y-66171973D01*
X122136417Y-66152220D01*
X122132660Y-66132458D01*
X122128922Y-66112690D01*
X122125204Y-66092913D01*
X122121504Y-66073129D01*
X122117823Y-66053336D01*
X122114161Y-66033536D01*
X122110518Y-66013728D01*
X122106893Y-65993913D01*
X122103288Y-65974089D01*
X122099702Y-65954258D01*
X122096134Y-65934419D01*
X122092586Y-65914573D01*
X122089056Y-65894718D01*
X122085545Y-65874856D01*
X122082054Y-65854986D01*
X122078581Y-65835108D01*
X122075127Y-65815222D01*
X122071692Y-65795329D01*
X122068276Y-65775428D01*
X122064879Y-65755519D01*
X122061501Y-65735602D01*
X122058142Y-65715678D01*
X122054802Y-65695745D01*
X122051481Y-65675805D01*
X122048179Y-65655857D01*
X122044895Y-65635901D01*
X122041631Y-65615937D01*
X122038386Y-65595966D01*
X122035160Y-65575986D01*
X122031953Y-65556000D01*
X122028764Y-65536004D01*
X122025595Y-65516002D01*
X122022445Y-65495991D01*
X122019314Y-65475973D01*
X122016202Y-65455947D01*
X122013109Y-65435913D01*
X122010035Y-65415871D01*
X122006980Y-65395821D01*
X122003944Y-65375763D01*
X122000927Y-65355698D01*
X121997929Y-65335625D01*
X121994950Y-65315544D01*
X121991990Y-65295454D01*
X121989049Y-65275358D01*
X121986128Y-65255253D01*
X121983225Y-65235141D01*
X121980342Y-65215020D01*
X121977477Y-65194892D01*
X121974632Y-65174755D01*
X121971806Y-65154612D01*
X121968998Y-65134460D01*
X121966210Y-65114300D01*
X121963441Y-65094132D01*
X121960692Y-65073957D01*
X121957961Y-65053773D01*
X121955249Y-65033582D01*
X121952557Y-65013383D01*
X121949883Y-64993176D01*
X121947229Y-64972961D01*
X121944594Y-64952738D01*
X121941978Y-64932507D01*
X121939381Y-64912269D01*
X121936804Y-64892022D01*
X121934245Y-64871768D01*
X121931706Y-64851505D01*
X121929186Y-64831235D01*
X121926685Y-64810956D01*
X121924203Y-64790671D01*
X121921740Y-64770376D01*
X121919297Y-64750075D01*
X121916873Y-64729764D01*
X121914468Y-64709447D01*
X121912082Y-64689121D01*
X121909715Y-64668787D01*
X121907368Y-64648446D01*
X121905040Y-64628096D01*
X121902731Y-64607738D01*
X121900441Y-64587373D01*
X121898170Y-64567000D01*
X121895919Y-64546618D01*
X121893687Y-64526229D01*
X121891474Y-64505832D01*
X121889281Y-64485426D01*
X121887107Y-64465013D01*
X121884952Y-64444592D01*
X121882816Y-64424163D01*
X121880699Y-64403726D01*
X121878602Y-64383281D01*
X121876524Y-64362828D01*
X121874466Y-64342367D01*
X121872427Y-64321898D01*
X121870407Y-64301421D01*
X121868406Y-64280936D01*
X121866425Y-64260443D01*
X121864463Y-64239942D01*
X121862520Y-64219433D01*
X121860597Y-64198916D01*
X121858693Y-64178392D01*
X121856808Y-64157859D01*
X121854943Y-64137318D01*
X121853097Y-64116769D01*
X121851271Y-64096212D01*
X121849463Y-64075647D01*
X121847676Y-64055074D01*
X121845907Y-64034493D01*
X121844158Y-64013904D01*
X121842428Y-63993307D01*
X121840718Y-63972702D01*
X121839027Y-63952089D01*
X121837356Y-63931468D01*
X121835704Y-63910838D01*
X121834071Y-63890201D01*
X121832458Y-63869556D01*
X121830865Y-63848903D01*
X121829290Y-63828241D01*
X121827735Y-63807572D01*
X121826200Y-63786895D01*
X121824684Y-63766209D01*
X121823188Y-63745515D01*
X121821711Y-63724814D01*
X121820253Y-63704104D01*
X121818815Y-63683386D01*
X121817397Y-63662661D01*
X121815998Y-63641927D01*
X121814618Y-63621185D01*
X121813258Y-63600435D01*
X121811918Y-63579677D01*
X121810597Y-63558910D01*
X121809295Y-63538136D01*
X121808013Y-63517354D01*
X121806751Y-63496563D01*
X121805508Y-63475765D01*
X121804285Y-63454958D01*
X121803081Y-63434143D01*
X121801897Y-63413320D01*
X121800733Y-63392489D01*
X121799588Y-63371650D01*
X121798462Y-63350803D01*
X121797356Y-63329947D01*
X121796270Y-63309084D01*
X121795204Y-63288212D01*
X121794157Y-63267333D01*
X121793129Y-63246445D01*
X121792122Y-63225549D01*
X121791134Y-63204645D01*
X121790165Y-63183732D01*
X121789216Y-63162812D01*
X121788287Y-63141883D01*
X121787378Y-63120947D01*
X121786488Y-63100002D01*
X121785618Y-63079049D01*
X121784767Y-63058088D01*
X121783937Y-63037118D01*
X121783126Y-63016141D01*
X121782334Y-62995155D01*
X121781563Y-62974161D01*
X121780811Y-62953159D01*
X121780078Y-62932149D01*
X121779366Y-62911131D01*
X121778673Y-62890104D01*
X121778000Y-62869070D01*
X121777347Y-62848027D01*
X121776713Y-62826976D01*
X121776100Y-62805916D01*
X121775506Y-62784849D01*
X121774932Y-62763773D01*
X121774377Y-62742689D01*
X121773843Y-62721597D01*
X121773328Y-62700497D01*
X121772833Y-62679388D01*
X121772358Y-62658272D01*
X121771902Y-62637147D01*
X121771467Y-62616014D01*
X121771051Y-62594872D01*
X121770655Y-62573723D01*
X121770279Y-62552565D01*
X121769923Y-62531399D01*
X121769587Y-62510224D01*
X121769271Y-62489042D01*
X121768974Y-62467851D01*
X121768698Y-62446652D01*
X121768441Y-62425445D01*
X121768204Y-62404229D01*
X121767987Y-62383005D01*
X121767790Y-62361773D01*
X121767613Y-62340533D01*
X121767456Y-62319285D01*
X121767319Y-62298028D01*
X121767202Y-62276763D01*
X121767105Y-62255489D01*
X121767027Y-62234208D01*
X121766970Y-62212918D01*
X121766933Y-62191619D01*
X121766915Y-62170313D01*
X121766918Y-62148998D01*
X121766941Y-62127675D01*
X121766983Y-62106344D01*
X121767046Y-62085004D01*
X121767129Y-62063656D01*
X121767232Y-62042300D01*
X121767354Y-62020935D01*
X121767497Y-61999562D01*
X121767660Y-61978181D01*
X121767843Y-61956792D01*
X121768046Y-61935394D01*
X121768269Y-61913988D01*
X121768513Y-61892573D01*
X121768776Y-61871150D01*
X121769059Y-61849719D01*
X121769363Y-61828280D01*
X121769687Y-61806832D01*
X121770030Y-61785376D01*
X121770394Y-61763911D01*
X121770778Y-61742438D01*
X121771183Y-61720957D01*
X121771607Y-61699468D01*
X121772052Y-61677970D01*
X121772516Y-61656463D01*
X121773001Y-61634949D01*
X121773507Y-61613426D01*
X121774032Y-61591895D01*
X121774578Y-61570355D01*
X121775143Y-61548807D01*
X121775729Y-61527250D01*
X121776336Y-61505685D01*
X121776962Y-61484112D01*
X121777609Y-61462530D01*
X121778276Y-61440940D01*
X121778963Y-61419342D01*
X121779671Y-61397735D01*
X121780399Y-61376120D01*
X121781147Y-61354496D01*
X121781915Y-61332864D01*
X121782704Y-61311224D01*
X121783513Y-61289575D01*
X121784343Y-61267918D01*
X121785193Y-61246252D01*
X121786063Y-61224578D01*
X121786953Y-61202895D01*
X121787864Y-61181204D01*
X121788795Y-61159505D01*
X121789747Y-61137797D01*
X121790719Y-61116081D01*
X121791711Y-61094356D01*
X121792724Y-61072623D01*
X121793757Y-61050881D01*
X121794811Y-61029131D01*
X121795885Y-61007373D01*
X121796980Y-60985606D01*
X121798095Y-60963830D01*
X121799230Y-60942047D01*
X121800386Y-60920254D01*
X121801563Y-60898454D01*
X121802759Y-60876644D01*
X121803977Y-60854827D01*
X121805215Y-60833000D01*
X121806473Y-60811166D01*
X121807752Y-60789322D01*
X121809052Y-60767471D01*
X121810372Y-60745610D01*
X121811712Y-60723742D01*
X121813073Y-60701864D01*
X121814455Y-60679979D01*
X121815857Y-60658084D01*
X121817280Y-60636182D01*
X121818724Y-60614271D01*
X121820188Y-60592351D01*
X121821673Y-60570423D01*
X121823178Y-60548486D01*
X121824704Y-60526541D01*
X121826251Y-60504587D01*
X121827818Y-60482625D01*
X121829406Y-60460654D01*
X121831014Y-60438674D01*
X121832644Y-60416687D01*
X121834294Y-60394690D01*
X121835964Y-60372685D01*
X121837656Y-60350671D01*
X121839368Y-60328650D01*
X121841101Y-60306619D01*
X121842854Y-60284580D01*
X121844629Y-60262532D01*
X121846424Y-60240476D01*
X121848240Y-60218410D01*
X121850076Y-60196337D01*
X121851934Y-60174255D01*
X121853812Y-60152165D01*
X121855711Y-60130065D01*
X121857631Y-60107958D01*
X121859571Y-60085841D01*
X121861533Y-60063716D01*
X121863515Y-60041582D01*
X121865518Y-60019441D01*
X121867542Y-59997290D01*
X121869587Y-59975131D01*
X121871653Y-59952962D01*
X121873740Y-59930786D01*
X121875847Y-59908601D01*
X121877976Y-59886407D01*
X121880125Y-59864205D01*
X121882296Y-59841994D01*
X121884487Y-59819774D01*
X121886699Y-59797546D01*
X121888932Y-59775309D01*
X121891186Y-59753064D01*
X121893462Y-59730809D01*
X121895758Y-59708547D01*
X121898075Y-59686275D01*
X121900413Y-59663995D01*
X121902772Y-59641706D01*
X121905153Y-59619409D01*
X121907554Y-59597103D01*
X121909976Y-59574789D01*
X121912419Y-59552465D01*
X121914884Y-59530134D01*
X121917369Y-59507792D01*
X121919876Y-59485444D01*
X121922404Y-59463085D01*
X121924952Y-59440719D01*
X121927522Y-59418343D01*
X121930113Y-59395960D01*
X121932726Y-59373567D01*
X121935359Y-59351166D01*
X121938014Y-59328755D01*
X121940689Y-59306337D01*
X121943386Y-59283909D01*
X121946104Y-59261473D01*
X121948844Y-59239028D01*
X121951604Y-59216575D01*
X121954386Y-59194112D01*
X121957189Y-59171642D01*
X121960013Y-59149162D01*
X121962858Y-59126674D01*
X121965725Y-59104176D01*
X121968613Y-59081671D01*
X121971522Y-59059156D01*
X121974453Y-59036633D01*
X121977405Y-59014100D01*
X121980378Y-58991560D01*
X121983373Y-58969010D01*
X121986388Y-58946452D01*
X121989426Y-58923885D01*
X121992484Y-58901310D01*
X121995564Y-58878725D01*
X121998666Y-58856132D01*
X122001788Y-58833530D01*
X122004932Y-58810919D01*
X122008098Y-58788299D01*
X122011285Y-58765672D01*
X122014493Y-58743034D01*
X122017723Y-58720389D01*
X122020975Y-58697734D01*
X122024247Y-58675071D01*
X122027542Y-58652398D01*
X122030857Y-58629718D01*
X122034195Y-58607028D01*
X122037553Y-58584330D01*
X122040934Y-58561622D01*
X122044335Y-58538906D01*
X122047759Y-58516181D01*
X122051204Y-58493448D01*
X122054670Y-58470705D01*
X122058158Y-58447954D01*
X122061668Y-58425193D01*
X122065199Y-58402425D01*
X122068752Y-58379647D01*
X122072326Y-58356861D01*
X122075923Y-58334065D01*
X122079540Y-58311261D01*
X122083180Y-58288448D01*
X122086841Y-58265627D01*
X122090524Y-58242795D01*
X122094228Y-58219956D01*
X122097954Y-58197108D01*
X122101702Y-58174251D01*
X122105471Y-58151384D01*
X122109263Y-58128510D01*
X122113076Y-58105626D01*
X122116910Y-58082734D01*
X122120767Y-58059832D01*
X122124645Y-58036922D01*
X122128546Y-58014002D01*
X122132467Y-57991075D01*
X122136411Y-57968137D01*
X122140377Y-57945192D01*
X122144364Y-57922237D01*
X122148373Y-57899274D01*
X122152404Y-57876301D01*
X122156457Y-57853321D01*
X122160532Y-57830330D01*
X122164629Y-57807331D01*
X122168747Y-57784323D01*
X122172888Y-57761307D01*
X122177050Y-57738280D01*
X122181235Y-57715246D01*
X122185441Y-57692202D01*
X122189669Y-57669151D01*
X122193920Y-57646089D01*
X122198192Y-57623019D01*
X122202486Y-57599939D01*
X122206802Y-57576852D01*
X122211141Y-57553754D01*
X122215501Y-57530649D01*
X122219883Y-57507534D01*
X122224288Y-57484410D01*
X122228714Y-57461277D01*
X122233163Y-57438136D01*
X122237633Y-57414985D01*
X122242126Y-57391826D01*
X122246641Y-57368657D01*
X122251178Y-57345480D01*
X122255737Y-57322293D01*
X122260318Y-57299099D01*
X122264922Y-57275894D01*
X122269547Y-57252681D01*
X122274195Y-57229459D01*
X122278865Y-57206228D01*
X122283557Y-57182987D01*
X122288271Y-57159739D01*
X122293008Y-57136480D01*
X122297767Y-57113214D01*
X122302548Y-57089937D01*
X122307351Y-57066653D01*
X122312177Y-57043359D01*
X122317024Y-57020056D01*
X122321895Y-56996744D01*
X122326787Y-56973424D01*
X122331702Y-56950093D01*
X122336639Y-56926755D01*
X122341599Y-56903407D01*
X122346581Y-56880050D01*
X122351585Y-56856684D01*
X122356612Y-56833310D01*
X122361661Y-56809925D01*
X122366732Y-56786533D01*
X122371826Y-56763130D01*
X122376942Y-56739720D01*
X122382081Y-56716300D01*
X122387242Y-56692871D01*
X122392426Y-56669433D01*
X122397632Y-56645986D01*
X122402861Y-56622530D01*
X122408112Y-56599065D01*
X122413386Y-56575591D01*
X122418682Y-56552108D01*
X122424001Y-56528615D01*
X122429342Y-56505115D01*
X122440092Y-56458085D01*
X122450933Y-56411020D01*
X122461864Y-56363918D01*
X122472886Y-56316780D01*
X122483998Y-56269605D01*
X122495202Y-56222394D01*
X122506496Y-56175147D01*
X122517881Y-56127864D01*
X122529357Y-56080544D01*
X122540924Y-56033188D01*
X122552583Y-55985796D01*
X122564333Y-55938367D01*
X122576175Y-55890901D01*
X122588108Y-55843400D01*
X122600132Y-55795861D01*
X122612249Y-55748287D01*
X122624457Y-55700675D01*
X122636758Y-55653028D01*
X122649150Y-55605343D01*
X122661635Y-55557622D01*
X122674212Y-55509865D01*
X122686881Y-55462071D01*
X122699643Y-55414240D01*
X122712498Y-55366373D01*
X122725445Y-55318469D01*
X122738485Y-55270528D01*
X122751618Y-55222550D01*
X122764844Y-55174536D01*
X122778164Y-55126485D01*
X122791576Y-55078398D01*
X122805082Y-55030273D01*
X122818681Y-54982112D01*
X122832374Y-54933914D01*
X122846160Y-54885679D01*
X122860041Y-54837407D01*
X122874015Y-54789098D01*
X122888083Y-54740753D01*
X122902245Y-54692370D01*
X122916502Y-54643951D01*
X122930852Y-54595494D01*
X122945298Y-54547001D01*
X122959837Y-54498471D01*
X122974472Y-54449903D01*
X122989201Y-54401299D01*
X123004025Y-54352658D01*
X123018944Y-54303979D01*
X123033958Y-54255264D01*
X123049067Y-54206511D01*
X123064271Y-54157721D01*
X123079571Y-54108894D01*
X123094967Y-54060030D01*
X123110458Y-54011129D01*
X123126044Y-53962191D01*
X123141727Y-53913215D01*
X123157506Y-53864202D01*
X123173380Y-53815152D01*
X123189351Y-53766065D01*
X123205418Y-53716941D01*
X123221582Y-53667779D01*
X123237842Y-53618580D01*
X123254198Y-53569343D01*
X123270652Y-53520069D01*
X123287202Y-53470758D01*
X123303849Y-53421410D01*
X123320594Y-53372024D01*
X123337435Y-53322601D01*
X123354374Y-53273140D01*
X123371410Y-53223642D01*
X123388544Y-53174106D01*
X123405775Y-53124533D01*
X123423104Y-53074923D01*
X123440531Y-53025275D01*
X123458056Y-52975589D01*
X123475680Y-52925866D01*
X123493401Y-52876106D01*
X123511221Y-52826308D01*
X123529139Y-52776472D01*
X123547155Y-52726599D01*
X123565271Y-52676688D01*
X123583485Y-52626740D01*
X123601798Y-52576754D01*
X123620210Y-52526730D01*
X123638722Y-52476669D01*
X123657332Y-52426570D01*
X123676042Y-52376433D01*
X123694852Y-52326258D01*
X123713761Y-52276046D01*
X123732769Y-52225796D01*
X123751878Y-52175509D01*
X123771087Y-52125184D01*
X123790395Y-52074820D01*
X123809804Y-52024420D01*
X123829313Y-51973981D01*
X123848923Y-51923504D01*
X123868633Y-51872990D01*
X123888444Y-51822438D01*
X123908356Y-51771848D01*
X123928368Y-51721220D01*
X123948482Y-51670555D01*
X123968697Y-51619851D01*
X123989013Y-51569109D01*
X124009430Y-51518330D01*
X124029949Y-51467513D01*
X124050570Y-51416658D01*
X124071292Y-51365764D01*
X124090000Y-51320000D01*
X182740000Y-50110000D02*
X182751341Y-50134278D01*
X182762659Y-50158554D01*
X182773952Y-50182823D01*
X182785222Y-50207091D01*
X182796467Y-50231352D01*
X182807689Y-50255611D01*
X182818886Y-50279863D01*
X182830059Y-50304114D01*
X182841209Y-50328358D01*
X182852334Y-50352599D01*
X182863435Y-50376835D01*
X182874513Y-50401068D01*
X182885567Y-50425295D01*
X182896597Y-50449520D01*
X182907602Y-50473738D01*
X182918584Y-50497954D01*
X182929542Y-50522164D01*
X182940476Y-50546372D01*
X182951386Y-50570573D01*
X182962272Y-50594772D01*
X182973134Y-50618964D01*
X182983973Y-50643154D01*
X182994787Y-50667338D01*
X183005578Y-50691519D01*
X183016345Y-50715695D01*
X183027088Y-50739867D01*
X183037807Y-50764034D01*
X183048503Y-50788197D01*
X183059174Y-50812355D01*
X183069822Y-50836510D01*
X183080446Y-50860659D01*
X183091046Y-50884805D01*
X183101623Y-50908945D01*
X183112176Y-50933083D01*
X183122704Y-50957214D01*
X183133210Y-50981342D01*
X183143691Y-51005465D01*
X183154149Y-51029584D01*
X183164582Y-51053698D01*
X183174993Y-51077808D01*
X183185379Y-51101913D01*
X183195742Y-51126015D01*
X183206081Y-51150110D01*
X183216397Y-51174203D01*
X183226688Y-51198290D01*
X183236957Y-51222374D01*
X183247201Y-51246451D01*
X183257422Y-51270526D01*
X183267619Y-51294595D01*
X183277792Y-51318660D01*
X183287942Y-51342720D01*
X183298069Y-51366777D01*
X183308171Y-51390827D01*
X183318250Y-51414875D01*
X183328305Y-51438916D01*
X183338338Y-51462955D01*
X183348346Y-51486987D01*
X183358331Y-51511016D01*
X183368292Y-51535039D01*
X183378230Y-51559060D01*
X183388143Y-51583074D01*
X183398034Y-51607085D01*
X183407901Y-51631089D01*
X183417745Y-51655091D01*
X183427564Y-51679087D01*
X183437361Y-51703079D01*
X183447134Y-51727066D01*
X183456884Y-51751049D01*
X183466610Y-51775026D01*
X183476313Y-51799000D01*
X183485991Y-51822968D01*
X183495647Y-51846933D01*
X183505279Y-51870891D01*
X183514889Y-51894847D01*
X183524474Y-51918796D01*
X183534036Y-51942742D01*
X183543574Y-51966682D01*
X183553090Y-51990618D01*
X183562581Y-52014549D01*
X183572050Y-52038476D01*
X183581495Y-52062397D01*
X183590917Y-52086315D01*
X183600315Y-52110226D01*
X183609690Y-52134135D01*
X183619042Y-52158037D01*
X183628370Y-52181936D01*
X183637675Y-52205828D01*
X183646957Y-52229718D01*
X183656215Y-52253601D01*
X183665451Y-52277481D01*
X183674662Y-52301354D01*
X183683851Y-52325225D01*
X183693016Y-52349089D01*
X183702159Y-52372949D01*
X183711277Y-52396804D01*
X183720373Y-52420655D01*
X183729445Y-52444500D01*
X183738494Y-52468341D01*
X183747520Y-52492177D01*
X183756523Y-52516009D01*
X183765502Y-52539834D01*
X183774459Y-52563656D01*
X183783391Y-52587472D01*
X183792302Y-52611285D01*
X183801188Y-52635091D01*
X183810052Y-52658894D01*
X183818892Y-52682690D01*
X183827710Y-52706484D01*
X183836504Y-52730270D01*
X183845275Y-52754054D01*
X183854022Y-52777831D01*
X183862748Y-52801604D01*
X183871449Y-52825372D01*
X183880128Y-52849136D01*
X183888783Y-52872893D01*
X183897416Y-52896647D01*
X183906025Y-52920394D01*
X183914612Y-52944139D01*
X183923175Y-52967876D01*
X183931715Y-52991611D01*
X183940232Y-53015338D01*
X183948727Y-53039063D01*
X183957198Y-53062781D01*
X183965646Y-53086495D01*
X183974071Y-53110203D01*
X183982473Y-53133908D01*
X183990852Y-53157606D01*
X183999209Y-53181301D01*
X184007542Y-53204989D01*
X184015852Y-53228673D01*
X184024140Y-53252351D01*
X184032404Y-53276026D01*
X184040646Y-53299694D01*
X184048864Y-53323359D01*
X184057060Y-53347017D01*
X184065233Y-53370671D01*
X184073382Y-53394319D01*
X184081510Y-53417964D01*
X184089614Y-53441602D01*
X184097695Y-53465236D01*
X184105753Y-53488864D01*
X184113789Y-53512488D01*
X184121801Y-53536106D01*
X184129791Y-53559720D01*
X184137758Y-53583328D01*
X184145703Y-53606932D01*
X184153624Y-53630529D01*
X184161523Y-53654123D01*
X184169398Y-53677710D01*
X184177251Y-53701294D01*
X184185081Y-53724870D01*
X184192889Y-53748444D01*
X184200673Y-53772011D01*
X184208436Y-53795574D01*
X184216174Y-53819130D01*
X184223891Y-53842683D01*
X184231585Y-53866229D01*
X184239256Y-53889772D01*
X184246904Y-53913308D01*
X184254530Y-53936840D01*
X184262132Y-53960366D01*
X184269713Y-53983888D01*
X184277270Y-54007403D01*
X184284805Y-54030915D01*
X184292317Y-54054419D01*
X184299807Y-54077921D01*
X184307273Y-54101415D01*
X184314718Y-54124906D01*
X184322139Y-54148390D01*
X184329539Y-54171870D01*
X184336915Y-54195344D01*
X184344269Y-54218814D01*
X184351600Y-54242277D01*
X184358909Y-54265737D01*
X184366194Y-54289190D01*
X184373458Y-54312639D01*
X184380699Y-54336081D01*
X184387917Y-54359519D01*
X184395113Y-54382951D01*
X184402286Y-54406379D01*
X184409437Y-54429800D01*
X184416565Y-54453218D01*
X184423671Y-54476628D01*
X184430754Y-54500035D01*
X184437815Y-54523435D01*
X184444853Y-54546832D01*
X184451869Y-54570221D01*
X184458862Y-54593607D01*
X184465833Y-54616986D01*
X184472781Y-54640361D01*
X184479707Y-54663729D01*
X184486611Y-54687094D01*
X184493492Y-54710451D01*
X184500351Y-54733805D01*
X184507187Y-54757152D01*
X184514001Y-54780495D01*
X184520792Y-54803831D01*
X184527561Y-54827164D01*
X184534308Y-54850489D01*
X184541032Y-54873811D01*
X184547734Y-54897126D01*
X184554414Y-54920437D01*
X184561071Y-54943741D01*
X184567706Y-54967041D01*
X184574318Y-54990334D01*
X184580909Y-55013623D01*
X184587476Y-55036906D01*
X184594022Y-55060184D01*
X184600545Y-55083456D01*
X184607046Y-55106724D01*
X184613525Y-55129984D01*
X184619982Y-55153241D01*
X184626416Y-55176491D01*
X184632828Y-55199737D01*
X184639217Y-55222976D01*
X184645585Y-55246211D01*
X184651930Y-55269439D01*
X184658254Y-55292664D01*
X184664554Y-55315881D01*
X184670833Y-55339094D01*
X184677089Y-55362300D01*
X184683324Y-55385503D01*
X184689536Y-55408698D01*
X184695726Y-55431889D01*
X184701893Y-55455074D01*
X184708039Y-55478254D01*
X184714162Y-55501427D01*
X184720264Y-55524597D01*
X184726343Y-55547759D01*
X184732400Y-55570918D01*
X184738435Y-55594069D01*
X184744448Y-55617216D01*
X184750438Y-55640356D01*
X184756407Y-55663493D01*
X184762353Y-55686622D01*
X184768278Y-55709747D01*
X184774180Y-55732865D01*
X184780061Y-55755979D01*
X184785919Y-55779086D01*
X184791755Y-55802189D01*
X184797569Y-55825285D01*
X184803362Y-55848377D01*
X184809132Y-55871461D01*
X184814880Y-55894542D01*
X184820606Y-55917615D01*
X184826310Y-55940685D01*
X184831992Y-55963747D01*
X184837653Y-55986805D01*
X184843291Y-56009857D01*
X184848907Y-56032904D01*
X184854501Y-56055943D01*
X184860074Y-56078979D01*
X184865624Y-56102008D01*
X184871153Y-56125032D01*
X184876659Y-56148050D01*
X184882144Y-56171063D01*
X184887607Y-56194069D01*
X184893048Y-56217071D01*
X184898467Y-56240066D01*
X184903864Y-56263057D01*
X184909239Y-56286040D01*
X184914593Y-56309019D01*
X184919924Y-56331992D01*
X184925234Y-56354960D01*
X184930522Y-56377920D01*
X184935788Y-56400877D01*
X184941032Y-56423826D01*
X184946255Y-56446772D01*
X184951455Y-56469710D01*
X184956634Y-56492643D01*
X184961791Y-56515570D01*
X184966926Y-56538493D01*
X184972039Y-56561408D01*
X184977131Y-56584319D01*
X184982201Y-56607222D01*
X184987249Y-56630122D01*
X184992276Y-56653014D01*
X184997280Y-56675902D01*
X185002263Y-56698783D01*
X185007225Y-56721660D01*
X185012164Y-56744529D01*
X185017082Y-56767394D01*
X185021978Y-56790252D01*
X185026853Y-56813105D01*
X185031705Y-56835951D01*
X185036536Y-56858793D01*
X185041346Y-56881628D01*
X185046134Y-56904458D01*
X185050900Y-56927281D01*
X185055644Y-56950100D01*
X185060367Y-56972912D01*
X185065068Y-56995719D01*
X185069748Y-57018519D01*
X185074406Y-57041315D01*
X185079042Y-57064103D01*
X185083657Y-57086887D01*
X185088250Y-57109663D01*
X185092822Y-57132436D01*
X185097372Y-57155201D01*
X185101901Y-57177961D01*
X185106407Y-57200715D01*
X185110893Y-57223464D01*
X185115357Y-57246205D01*
X185119799Y-57268942D01*
X185124220Y-57291672D01*
X185128619Y-57314398D01*
X185132997Y-57337116D01*
X185137354Y-57359830D01*
X185141688Y-57382536D01*
X185146002Y-57405238D01*
X185150294Y-57427933D01*
X185154564Y-57450623D01*
X185158813Y-57473306D01*
X185163041Y-57495984D01*
X185167247Y-57518656D01*
X185171431Y-57541322D01*
X185175594Y-57563981D01*
X185179736Y-57586636D01*
X185183856Y-57609284D01*
X185187956Y-57631927D01*
X185192033Y-57654562D01*
X185196089Y-57677193D01*
X185200124Y-57699817D01*
X185204138Y-57722436D01*
X185208129Y-57745048D01*
X185212100Y-57767656D01*
X185216050Y-57790255D01*
X185219978Y-57812851D01*
X185223884Y-57835439D01*
X185227770Y-57858022D01*
X185231634Y-57880599D01*
X185235476Y-57903170D01*
X185239298Y-57925734D01*
X185243098Y-57948294D01*
X185246877Y-57970846D01*
X185250634Y-57993394D01*
X185254371Y-58015934D01*
X185258086Y-58038470D01*
X185261779Y-58060998D01*
X185265452Y-58083521D01*
X185269103Y-58106038D01*
X185272733Y-58128549D01*
X185276342Y-58151053D01*
X185279930Y-58173553D01*
X185283496Y-58196045D01*
X185287041Y-58218533D01*
X185290565Y-58241013D01*
X185294068Y-58263488D01*
X185297549Y-58285956D01*
X185301010Y-58308419D01*
X185304449Y-58330875D01*
X185307867Y-58353327D01*
X185311264Y-58375770D01*
X185314640Y-58398210D01*
X185317995Y-58420641D01*
X185321328Y-58443068D01*
X185324641Y-58465488D01*
X185327932Y-58487903D01*
X185331202Y-58510310D01*
X185334451Y-58532713D01*
X185337679Y-58555108D01*
X185340886Y-58577498D01*
X185344072Y-58599881D01*
X185347237Y-58622260D01*
X185350380Y-58644630D01*
X185353503Y-58666996D01*
X185356605Y-58689355D01*
X185359685Y-58711709D01*
X185362745Y-58734055D01*
X185365783Y-58756397D01*
X185368801Y-58778731D01*
X185371797Y-58801060D01*
X185374773Y-58823382D01*
X185377727Y-58845699D01*
X185380661Y-58868009D01*
X185383574Y-58890313D01*
X185386465Y-58912611D01*
X185389336Y-58934903D01*
X185392185Y-58957188D01*
X185395014Y-58979468D01*
X185397822Y-59001741D01*
X185400609Y-59024009D01*
X185403374Y-59046269D01*
X185406120Y-59068524D01*
X185408844Y-59090772D01*
X185411547Y-59113015D01*
X185414229Y-59135251D01*
X185416890Y-59157481D01*
X185419531Y-59179705D01*
X185422151Y-59201923D01*
X185424749Y-59224134D01*
X185427327Y-59246339D01*
X185429884Y-59268538D01*
X185432420Y-59290731D01*
X185434936Y-59312917D01*
X185437430Y-59335098D01*
X185439904Y-59357272D01*
X185442357Y-59379440D01*
X185444789Y-59401601D01*
X185447200Y-59423757D01*
X185449590Y-59445906D01*
X185451960Y-59468049D01*
X185454309Y-59490185D01*
X185456637Y-59512316D01*
X185458944Y-59534440D01*
X185461231Y-59556558D01*
X185463497Y-59578669D01*
X185465742Y-59600775D01*
X185467966Y-59622874D01*
X185470170Y-59644967D01*
X185472353Y-59667053D01*
X185474515Y-59689134D01*
X185476657Y-59711207D01*
X185478777Y-59733276D01*
X185480877Y-59755336D01*
X185482957Y-59777392D01*
X185485015Y-59799440D01*
X185487054Y-59821483D01*
X185489071Y-59843519D01*
X185491068Y-59865550D01*
X185493044Y-59887572D01*
X185494999Y-59909590D01*
X185496934Y-59931601D01*
X185498848Y-59953606D01*
X185500741Y-59975603D01*
X185502614Y-59997596D01*
X185504467Y-60019581D01*
X185506298Y-60041561D01*
X185508109Y-60063533D01*
X185509900Y-60085500D01*
X185511670Y-60107460D01*
X185513419Y-60129415D01*
X185515148Y-60151361D01*
X185516856Y-60173303D01*
X185518544Y-60195237D01*
X185520211Y-60217166D01*
X185521857Y-60239088D01*
X185523483Y-60261004D01*
X185525089Y-60282913D01*
X185526674Y-60304816D01*
X185528238Y-60326712D01*
X185529782Y-60348603D01*
X185531306Y-60370486D01*
X185532809Y-60392364D01*
X185534291Y-60414235D01*
X185535753Y-60436100D01*
X185537195Y-60457957D01*
X185538616Y-60479810D01*
X185540016Y-60501654D01*
X185541397Y-60523494D01*
X185542756Y-60545326D01*
X185544096Y-60567152D01*
X185545414Y-60588972D01*
X185546713Y-60610785D01*
X185547991Y-60632592D01*
X185549248Y-60654393D01*
X185550486Y-60676186D01*
X185551702Y-60697974D01*
X185552899Y-60719754D01*
X185554075Y-60741530D01*
X185555231Y-60763297D01*
X185556366Y-60785059D01*
X185557481Y-60806814D01*
X185558575Y-60828563D01*
X185559649Y-60850305D01*
X185560703Y-60872041D01*
X185561737Y-60893770D01*
X185562750Y-60915494D01*
X185563743Y-60937209D01*
X185564716Y-60958920D01*
X185565668Y-60980623D01*
X185566600Y-61002320D01*
X185567511Y-61024010D01*
X185568403Y-61045695D01*
X185569274Y-61067372D01*
X185570125Y-61089043D01*
X185570955Y-61110707D01*
X185571765Y-61132366D01*
X185572555Y-61154016D01*
X185573325Y-61175662D01*
X185574075Y-61197300D01*
X185574804Y-61218932D01*
X185575513Y-61240557D01*
X185576202Y-61262176D01*
X185576871Y-61283788D01*
X185577519Y-61305394D01*
X185578147Y-61326993D01*
X185578755Y-61348586D01*
X185579343Y-61370172D01*
X185579911Y-61391752D01*
X185580458Y-61413324D01*
X185580985Y-61434891D01*
X185581492Y-61456451D01*
X185581979Y-61478005D01*
X185582446Y-61499551D01*
X185582893Y-61521092D01*
X185583319Y-61542625D01*
X185583726Y-61564152D01*
X185584112Y-61585672D01*
X185584478Y-61607187D01*
X185584824Y-61628694D01*
X185585150Y-61650195D01*
X185585456Y-61671688D01*
X185585742Y-61693177D01*
X185586007Y-61714657D01*
X185586253Y-61736132D01*
X185586478Y-61757599D01*
X185586684Y-61779061D01*
X185586869Y-61800515D01*
X185587034Y-61821963D01*
X185587180Y-61843404D01*
X185587305Y-61864839D01*
X185587410Y-61886267D01*
X185587495Y-61907689D01*
X185587560Y-61929103D01*
X185587605Y-61950512D01*
X185587630Y-61971913D01*
X185587635Y-61993309D01*
X185587621Y-62014696D01*
X185587586Y-62036079D01*
X185587531Y-62057453D01*
X185587456Y-62078822D01*
X185587361Y-62100183D01*
X185587246Y-62121539D01*
X185587111Y-62142887D01*
X185586957Y-62164229D01*
X185586782Y-62185564D01*
X185586587Y-62206893D01*
X185586373Y-62228214D01*
X185586138Y-62249529D01*
X185585884Y-62270837D01*
X185585609Y-62292139D01*
X185585315Y-62313434D01*
X185585001Y-62334723D01*
X185584667Y-62356004D01*
X185584313Y-62377280D01*
X185583939Y-62398547D01*
X185583545Y-62419809D01*
X185583131Y-62441064D01*
X185582698Y-62462313D01*
X185582244Y-62483554D01*
X185581771Y-62504789D01*
X185581278Y-62526016D01*
X185580765Y-62547238D01*
X185580232Y-62568452D01*
X185579680Y-62589661D01*
X185579107Y-62610861D01*
X185578515Y-62632056D01*
X185577903Y-62653244D01*
X185577271Y-62674425D01*
X185576619Y-62695599D01*
X185575948Y-62716767D01*
X185575256Y-62737927D01*
X185574545Y-62759082D01*
X185573814Y-62780228D01*
X185573064Y-62801369D01*
X185572293Y-62822503D01*
X185571503Y-62843630D01*
X185570693Y-62864750D01*
X185569863Y-62885864D01*
X185569014Y-62906970D01*
X185568144Y-62928071D01*
X185567256Y-62949163D01*
X185566347Y-62970250D01*
X185565418Y-62991330D01*
X185564470Y-63012403D01*
X185563502Y-63033468D01*
X185562515Y-63054528D01*
X185561508Y-63075580D01*
X185560481Y-63096626D01*
X185559434Y-63117665D01*
X185558368Y-63138697D01*
X185557282Y-63159722D01*
X185556176Y-63180741D01*
X185555051Y-63201753D01*
X185553906Y-63222758D01*
X185552741Y-63243756D01*
X185551557Y-63264747D01*
X185550353Y-63285731D01*
X185549129Y-63306709D01*
X185547886Y-63327680D01*
X185546623Y-63348644D01*
X185545341Y-63369601D01*
X185544038Y-63390552D01*
X185542717Y-63411495D01*
X185541375Y-63432432D01*
X185540014Y-63453361D01*
X185538634Y-63474285D01*
X185537234Y-63495200D01*
X185535814Y-63516110D01*
X185534375Y-63537012D01*
X185532916Y-63557908D01*
X185531437Y-63578796D01*
X185529939Y-63599678D01*
X185528422Y-63620553D01*
X185526885Y-63641422D01*
X185525328Y-63662282D01*
X185523752Y-63683137D01*
X185522156Y-63703984D01*
X185520541Y-63724825D01*
X185518906Y-63745659D01*
X185517252Y-63766486D01*
X185515578Y-63787305D01*
X185513885Y-63808119D01*
X185512172Y-63828925D01*
X185510440Y-63849724D01*
X185508688Y-63870516D01*
X185506916Y-63891302D01*
X185505126Y-63912081D01*
X185503315Y-63932853D01*
X185501486Y-63953617D01*
X185499636Y-63974375D01*
X185497768Y-63995126D01*
X185495880Y-64015870D01*
X185493972Y-64036607D01*
X185492045Y-64057337D01*
X185490098Y-64078060D01*
X185488133Y-64098777D01*
X185486147Y-64119486D01*
X185484142Y-64140189D01*
X185482118Y-64160884D01*
X185480075Y-64181573D01*
X185478012Y-64202254D01*
X185475929Y-64222929D01*
X185473827Y-64243597D01*
X185471706Y-64264258D01*
X185469566Y-64284912D01*
X185467406Y-64305559D01*
X185465226Y-64326198D01*
X185463027Y-64346832D01*
X185460809Y-64367457D01*
X185458572Y-64388077D01*
X185456315Y-64408688D01*
X185454039Y-64429294D01*
X185451743Y-64449892D01*
X185449428Y-64470483D01*
X185447094Y-64491067D01*
X185444741Y-64511645D01*
X185442368Y-64532214D01*
X185439975Y-64552778D01*
X185437564Y-64573334D01*
X185435133Y-64593883D01*
X185432683Y-64614425D01*
X185430213Y-64634961D01*
X185427725Y-64655489D01*
X185425216Y-64676010D01*
X185422689Y-64696524D01*
X185420142Y-64717032D01*
X185417577Y-64737531D01*
X185414991Y-64758025D01*
X185412387Y-64778511D01*
X185409763Y-64798990D01*
X185407120Y-64819462D01*
X185404458Y-64839927D01*
X185401776Y-64860385D01*
X185399075Y-64880836D01*
X185396356Y-64901280D01*
X185393616Y-64921717D01*
X185390858Y-64942147D01*
X185388080Y-64962570D01*
X185385283Y-64982986D01*
X185382467Y-65003395D01*
X185379632Y-65023796D01*
X185376777Y-65044191D01*
X185373903Y-65064578D01*
X185371010Y-65084959D01*
X185368098Y-65105332D01*
X185365167Y-65125699D01*
X185362216Y-65146058D01*
X185359246Y-65166410D01*
X185356257Y-65186755D01*
X185353249Y-65207094D01*
X185350222Y-65227424D01*
X185347175Y-65247749D01*
X185344110Y-65268065D01*
X185341025Y-65288375D01*
X185337921Y-65308678D01*
X185334798Y-65328973D01*
X185331656Y-65349262D01*
X185328495Y-65369543D01*
X185325314Y-65389817D01*
X185322115Y-65410085D01*
X185318896Y-65430344D01*
X185315658Y-65450598D01*
X185312401Y-65470843D01*
X185309125Y-65491082D01*
X185305830Y-65511314D01*
X185302515Y-65531538D01*
X185299182Y-65551755D01*
X185295830Y-65571966D01*
X185292458Y-65592169D01*
X185289067Y-65612365D01*
X185285658Y-65632554D01*
X185282229Y-65652736D01*
X185278781Y-65672910D01*
X185275314Y-65693078D01*
X185271828Y-65713238D01*
X185268323Y-65733391D01*
X185264799Y-65753537D01*
X185261256Y-65773676D01*
X185257693Y-65793807D01*
X185254112Y-65813932D01*
X185250512Y-65834049D01*
X185246892Y-65854160D01*
X185243254Y-65874262D01*
X185239597Y-65894358D01*
X185235920Y-65914447D01*
X185232225Y-65934529D01*
X185228510Y-65954603D01*
X185224777Y-65974670D01*
X185221024Y-65994730D01*
X185217253Y-66014783D01*
X185213462Y-66034828D01*
X185209653Y-66054867D01*
X185205825Y-66074898D01*
X185201977Y-66094922D01*
X185198111Y-66114939D01*
X185194225Y-66134948D01*
X185190321Y-66154951D01*
X185186398Y-66174946D01*
X185182455Y-66194934D01*
X185178494Y-66214915D01*
X185174514Y-66234888D01*
X185170515Y-66254855D01*
X185166496Y-66274813D01*
X185162459Y-66294766D01*
X185158403Y-66314710D01*
X185154328Y-66334648D01*
X185150234Y-66354578D01*
X185146122Y-66374501D01*
X185141990Y-66394416D01*
X185137839Y-66414325D01*
X185133670Y-66434226D01*
X185129481Y-66454120D01*
X185125274Y-66474007D01*
X185121047Y-66493886D01*
X185116802Y-66513758D01*
X185112538Y-66533624D01*
X185108255Y-66553481D01*
X185103953Y-66573332D01*
X185099632Y-66593175D01*
X185095292Y-66613011D01*
X185090934Y-66632839D01*
X185086556Y-66652661D01*
X185082160Y-66672475D01*
X185077745Y-66692282D01*
X185073311Y-66712081D01*
X185068858Y-66731874D01*
X185064386Y-66751659D01*
X185059895Y-66771436D01*
X185055386Y-66791207D01*
X185050858Y-66810970D01*
X185046310Y-66830726D01*
X185041744Y-66850474D01*
X185037160Y-66870215D01*
X185032556Y-66889949D01*
X185027933Y-66909676D01*
X185023292Y-66929395D01*
X185018632Y-66949107D01*
X185013953Y-66968812D01*
X185009255Y-66988509D01*
X185004538Y-67008199D01*
X184999803Y-67027881D01*
X184995048Y-67047557D01*
X184990275Y-67067225D01*
X184985484Y-67086886D01*
X184980673Y-67106539D01*
X184975843Y-67126185D01*
X184970995Y-67145823D01*
X184966128Y-67165455D01*
X184961242Y-67185079D01*
X184956338Y-67204695D01*
X184951414Y-67224305D01*
X184946472Y-67243907D01*
X184941511Y-67263501D01*
X184936532Y-67283088D01*
X184931533Y-67302668D01*
X184926516Y-67322241D01*
X184921480Y-67341805D01*
X184916425Y-67361363D01*
X184911352Y-67380913D01*
X184906260Y-67400457D01*
X184901149Y-67419992D01*
X184896019Y-67439520D01*
X184890871Y-67459041D01*
X184885703Y-67478554D01*
X184880518Y-67498060D01*
X184875313Y-67517559D01*
X184870090Y-67537050D01*
X184864848Y-67556534D01*
X184859587Y-67576010D01*
X184854307Y-67595479D01*
X184849009Y-67614941D01*
X184843692Y-67634395D01*
X184838357Y-67653842D01*
X184833002Y-67673281D01*
X184827629Y-67692713D01*
X184822237Y-67712138D01*
X184816827Y-67731555D01*
X184811398Y-67750964D01*
X184805950Y-67770367D01*
X184800484Y-67789761D01*
X184794998Y-67809149D01*
X184789495Y-67828529D01*
X184783972Y-67847901D01*
X184778431Y-67867266D01*
X184772871Y-67886623D01*
X184767293Y-67905974D01*
X184761695Y-67925316D01*
X184756079Y-67944651D01*
X184750445Y-67963979D01*
X184744792Y-67983299D01*
X184739120Y-68002612D01*
X184733429Y-68021918D01*
X184727720Y-68041215D01*
X184721993Y-68060506D01*
X184716246Y-68079789D01*
X184710481Y-68099064D01*
X184704697Y-68118332D01*
X184698895Y-68137592D01*
X184693074Y-68156845D01*
X184687235Y-68176091D01*
X184681376Y-68195329D01*
X184675500Y-68214559D01*
X184669604Y-68233782D01*
X184663690Y-68252997D01*
X184657757Y-68272205D01*
X184651806Y-68291406D01*
X184645836Y-68310599D01*
X184639848Y-68329784D01*
X184633841Y-68348962D01*
X184627815Y-68368132D01*
X184621771Y-68387295D01*
X184615708Y-68406450D01*
X184609626Y-68425598D01*
X184603526Y-68444738D01*
X184597407Y-68463871D01*
X184591270Y-68482996D01*
X184585114Y-68502114D01*
X184578940Y-68521224D01*
X184572747Y-68540326D01*
X184566535Y-68559421D01*
X184560305Y-68578509D01*
X184554057Y-68597589D01*
X184547789Y-68616661D01*
X184541503Y-68635726D01*
X184535199Y-68654783D01*
X184528876Y-68673832D01*
X184522534Y-68692874D01*
X184516174Y-68711909D01*
X184509796Y-68730936D01*
X184503399Y-68749955D01*
X184496983Y-68768966D01*
X184490548Y-68787971D01*
X184484096Y-68806967D01*
X184477624Y-68825956D01*
X184471134Y-68844937D01*
X184464626Y-68863911D01*
X184458099Y-68882877D01*
X184451553Y-68901836D01*
X184444989Y-68920786D01*
X184438407Y-68939730D01*
X184431806Y-68958665D01*
X184425186Y-68977593D01*
X184418548Y-68996514D01*
X184411891Y-69015427D01*
X184405216Y-69034332D01*
X184398522Y-69053229D01*
X184391810Y-69072119D01*
X184385079Y-69091001D01*
X184378330Y-69109876D01*
X184371562Y-69128743D01*
X184364776Y-69147602D01*
X184357971Y-69166454D01*
X184351148Y-69185298D01*
X184344306Y-69204134D01*
X184337446Y-69222963D01*
X184330567Y-69241784D01*
X184323670Y-69260597D01*
X184316755Y-69279403D01*
X184309820Y-69298201D01*
X184302868Y-69316991D01*
X184295896Y-69335774D01*
X184288907Y-69354549D01*
X184281899Y-69373316D01*
X184274872Y-69392076D01*
X184267827Y-69410828D01*
X184260763Y-69429572D01*
X184253681Y-69448308D01*
X184246581Y-69467037D01*
X184239462Y-69485758D01*
X184232325Y-69504472D01*
X184225169Y-69523178D01*
X184217994Y-69541875D01*
X184210802Y-69560566D01*
X184203590Y-69579248D01*
X184196361Y-69597923D01*
X184189112Y-69616590D01*
X184181846Y-69635250D01*
X184174561Y-69653901D01*
X184167257Y-69672545D01*
X184159935Y-69691181D01*
X184152595Y-69709810D01*
X184145236Y-69728430D01*
X184130463Y-69765648D01*
X184115616Y-69802835D01*
X184100695Y-69839991D01*
X184085701Y-69877116D01*
X184070633Y-69914210D01*
X184055491Y-69951273D01*
X184040276Y-69988304D01*
X184024987Y-70025305D01*
X184009624Y-70062274D01*
X183994188Y-70099212D01*
X183978678Y-70136118D01*
X183963094Y-70172994D01*
X183947437Y-70209837D01*
X183931706Y-70246650D01*
X183915902Y-70283431D01*
X183900024Y-70320181D01*
X183884072Y-70356900D01*
X183868047Y-70393587D01*
X183851948Y-70430242D01*
X183835776Y-70466866D01*
X183819530Y-70503459D01*
X183803211Y-70540019D01*
X183786818Y-70576549D01*
X183770352Y-70613046D01*
X183753812Y-70649512D01*
X183737199Y-70685947D01*
X183720513Y-70722349D01*
X183703752Y-70758720D01*
X183686919Y-70795059D01*
X183670012Y-70831366D01*
X183653032Y-70867642D01*
X183635978Y-70903885D01*
X183618850Y-70940097D01*
X183601650Y-70976277D01*
X183584376Y-71012425D01*
X183567028Y-71048541D01*
X183549608Y-71084624D01*
X183532113Y-71120676D01*
X183514546Y-71156696D01*
X183496905Y-71192684D01*
X183479191Y-71228639D01*
X183461403Y-71264563D01*
X183443542Y-71300454D01*
X183425608Y-71336313D01*
X183407601Y-71372139D01*
X183389520Y-71407934D01*
X183371366Y-71443696D01*
X183353138Y-71479426D01*
X183334837Y-71515123D01*
X183316463Y-71550788D01*
X183298016Y-71586421D01*
X183279495Y-71622021D01*
X183260901Y-71657589D01*
X183242234Y-71693124D01*
X183223494Y-71728626D01*
X183204680Y-71764096D01*
X183185793Y-71799534D01*
X183166833Y-71834938D01*
X183147799Y-71870310D01*
X183128693Y-71905649D01*
X183109513Y-71940956D01*
X183090260Y-71976230D01*
X183070933Y-72011471D01*
X183051534Y-72046679D01*
X183032061Y-72081854D01*
X183012515Y-72116996D01*
X182992896Y-72152105D01*
X182973203Y-72187182D01*
X182953437Y-72222225D01*
X182933598Y-72257235D01*
X182913686Y-72292212D01*
X182893701Y-72327156D01*
X182873643Y-72362067D01*
X182853511Y-72396945D01*
X182833306Y-72431789D01*
X182813028Y-72466601D01*
X182792676Y-72501379D01*
X182772252Y-72536123D01*
X182751754Y-72570834D01*
X182731183Y-72605512D01*
X182710539Y-72640157D01*
X182689822Y-72674768D01*
X182669032Y-72709345D01*
X182648168Y-72743889D01*
X182627231Y-72778399D01*
X182606221Y-72812876D01*
X182585138Y-72847319D01*
X182563982Y-72881728D01*
X182542752Y-72916104D01*
X182521449Y-72950446D01*
X182500073Y-72984754D01*
X182478624Y-73019028D01*
X182457102Y-73053269D01*
X182435507Y-73087475D01*
X182413838Y-73121648D01*
X182392096Y-73155787D01*
X182370281Y-73189891D01*
X182348393Y-73223962D01*
X182326431Y-73257998D01*
X182304397Y-73292000D01*
X182282289Y-73325969D01*
X182260108Y-73359903D01*
X182237854Y-73393802D01*
X182215526Y-73427668D01*
X182193126Y-73461499D01*
X182170652Y-73495296D01*
X182148105Y-73529058D01*
X182125484Y-73562786D01*
X182102791Y-73596479D01*
X182080024Y-73630138D01*
X182057184Y-73663763D01*
X182034271Y-73697353D01*
X182011285Y-73730908D01*
X181988225Y-73764428D01*
X181965093Y-73797914D01*
X181941887Y-73831365D01*
X181918607Y-73864781D01*
X181895255Y-73898163D01*
X181871829Y-73931509D01*
X181848330Y-73964821D01*
X181824758Y-73998097D01*
X181801112Y-74031339D01*
X181777394Y-74064546D01*
X181753602Y-74097717D01*
X181729736Y-74130854D01*
X181705798Y-74163955D01*
X181681786Y-74197021D01*
X181657701Y-74230052D01*
X181633542Y-74263047D01*
X181609311Y-74296007D01*
X181585006Y-74328932D01*
X181560627Y-74361822D01*
X181536176Y-74394676D01*
X181511651Y-74427494D01*
X181487053Y-74460277D01*
X181462381Y-74493024D01*
X181437636Y-74525736D01*
X181412818Y-74558412D01*
X181387927Y-74591052D01*
X181362962Y-74623657D01*
X181337923Y-74656225D01*
X181312812Y-74688758D01*
X181287627Y-74721255D01*
X181262369Y-74753716D01*
X181237037Y-74786141D01*
X181211632Y-74818530D01*
X181186153Y-74850883D01*
X181160601Y-74883200D01*
X181134976Y-74915480D01*
X181109278Y-74947725D01*
X181083505Y-74979933D01*
X181057660Y-75012105D01*
X181031741Y-75044240D01*
X181005749Y-75076339D01*
X180979683Y-75108402D01*
X180953544Y-75140428D01*
X180927331Y-75172417D01*
X180901045Y-75204370D01*
X180874685Y-75236287D01*
X180848252Y-75268167D01*
X180821746Y-75300010D01*
X180795165Y-75331816D01*
X180768512Y-75363585D01*
X180741785Y-75395318D01*
X180714984Y-75427013D01*
X180688110Y-75458672D01*
X180661162Y-75490294D01*
X180634141Y-75521878D01*
X180607046Y-75553426D01*
X180579878Y-75584936D01*
X180552636Y-75616409D01*
X180525321Y-75647845D01*
X180497932Y-75679243D01*
X180470469Y-75710604D01*
X180442933Y-75741928D01*
X180415323Y-75773215D01*
X180387640Y-75804463D01*
X180359883Y-75835675D01*
X180332052Y-75866848D01*
X180304148Y-75897984D01*
X180276170Y-75929082D01*
X180248118Y-75960143D01*
X180219993Y-75991166D01*
X180191794Y-76022151D01*
X180163521Y-76053097D01*
X180135175Y-76084006D01*
X180106755Y-76114877D01*
X180078261Y-76145710D01*
X180049694Y-76176505D01*
X180021053Y-76207262D01*
X179992338Y-76237980D01*
X179963549Y-76268660D01*
X179934687Y-76299302D01*
X179905751Y-76329905D01*
X179876741Y-76360470D01*
X179847657Y-76390997D01*
X179818499Y-76421485D01*
X179789268Y-76451934D01*
X179759963Y-76482345D01*
X179730584Y-76512717D01*
X179701131Y-76543050D01*
X179671604Y-76573344D01*
X179642004Y-76603600D01*
X179612329Y-76633817D01*
X179582581Y-76663994D01*
X179552759Y-76694133D01*
X179522863Y-76724232D01*
X179492893Y-76754293D01*
X179462849Y-76784314D01*
X179432732Y-76814296D01*
X179402540Y-76844239D01*
X179372274Y-76874142D01*
X179341935Y-76904006D01*
X179311521Y-76933830D01*
X179281034Y-76963615D01*
X179250472Y-76993361D01*
X179219837Y-77023066D01*
X179189127Y-77052732D01*
X179158344Y-77082358D01*
X179127486Y-77111945D01*
X179096555Y-77141491D01*
X179065549Y-77170998D01*
X179034470Y-77200465D01*
X179003316Y-77229891D01*
X178972088Y-77259278D01*
X178940786Y-77288624D01*
X178909411Y-77317930D01*
X178877961Y-77347196D01*
X178846436Y-77376422D01*
X178814838Y-77405607D01*
X178783166Y-77434751D01*
X178751419Y-77463855D01*
X178719598Y-77492919D01*
X178687704Y-77521942D01*
X178655735Y-77550924D01*
X178623691Y-77579866D01*
X178591574Y-77608767D01*
X178559382Y-77637626D01*
X178527116Y-77666445D01*
X178494776Y-77695223D01*
X178462362Y-77723960D01*
X178429874Y-77752656D01*
X178397311Y-77781310D01*
X178364674Y-77809924D01*
X178331962Y-77838496D01*
X178299177Y-77867027D01*
X178266317Y-77895516D01*
X178233383Y-77923964D01*
X178200374Y-77952370D01*
X178167291Y-77980735D01*
X178134134Y-78009058D01*
X178100902Y-78037339D01*
X178067596Y-78065579D01*
X178034216Y-78093776D01*
X178000761Y-78121932D01*
X177967232Y-78150046D01*
X177933629Y-78178118D01*
X177899951Y-78206147D01*
X177866199Y-78234135D01*
X177832372Y-78262080D01*
X177798471Y-78289983D01*
X177764495Y-78317843D01*
X177730445Y-78345662D01*
X177696320Y-78373437D01*
X177662121Y-78401170D01*
X177627848Y-78428861D01*
X177593500Y-78456509D01*
X177559077Y-78484114D01*
X177524580Y-78511676D01*
X177490009Y-78539196D01*
X177455362Y-78566672D01*
X177420642Y-78594106D01*
X177385847Y-78621496D01*
X177350977Y-78648843D01*
X177316032Y-78676147D01*
X177281013Y-78703408D01*
X177245920Y-78730626D01*
X177210751Y-78757800D01*
X177175509Y-78784931D01*
X177140191Y-78812018D01*
X177104799Y-78839061D01*
X177069332Y-78866061D01*
X177033791Y-78893017D01*
X176998175Y-78919929D01*
X176962484Y-78946798D01*
X176926719Y-78973622D01*
X176890879Y-79000403D01*
X176854964Y-79027139D01*
X176818974Y-79053832D01*
X176782910Y-79080480D01*
X176746771Y-79107083D01*
X176710557Y-79133643D01*
X176674269Y-79160158D01*
X176637906Y-79186629D01*
X176601468Y-79213055D01*
X176564955Y-79239436D01*
X176528367Y-79265773D01*
X176491705Y-79292065D01*
X176454968Y-79318312D01*
X176418156Y-79344514D01*
X176381269Y-79370672D01*
X176344307Y-79396784D01*
X176307271Y-79422851D01*
X176270159Y-79448873D01*
X176232973Y-79474850D01*
X176195712Y-79500781D01*
X176158376Y-79526667D01*
X176120965Y-79552508D01*
X176083480Y-79578303D01*
X176045919Y-79604052D01*
X176008284Y-79629756D01*
X175970573Y-79655414D01*
X175932788Y-79681027D01*
X175894928Y-79706593D01*
X175856993Y-79732113D01*
X175818982Y-79757588D01*
X175780897Y-79783016D01*
X175742737Y-79808398D01*
X175704502Y-79833734D01*
X175666192Y-79859024D01*
X175627807Y-79884267D01*
X175589347Y-79909464D01*
X175550812Y-79934614D01*
X175512202Y-79959718D01*
X175473517Y-79984775D01*
X175434757Y-80009785D01*
X175395922Y-80034748D01*
X175357012Y-80059665D01*
X175318027Y-80084534D01*
X175278967Y-80109357D01*
X175239832Y-80134132D01*
X175200621Y-80158860D01*
X175161336Y-80183541D01*
X175121976Y-80208175D01*
X175082540Y-80232761D01*
X175043029Y-80257300D01*
X175003444Y-80281791D01*
X174963783Y-80306234D01*
X174924047Y-80330630D01*
X174884236Y-80354978D01*
X174844350Y-80379278D01*
X174804389Y-80403531D01*
X174764352Y-80427735D01*
X174724241Y-80451891D01*
X174684054Y-80475999D01*
X174643792Y-80500059D01*
X174603455Y-80524070D01*
X174563043Y-80548033D01*
X174522556Y-80571948D01*
X174481993Y-80595814D01*
X174441356Y-80619631D01*
X174400643Y-80643400D01*
X174359855Y-80667120D01*
X174318991Y-80690791D01*
X174278053Y-80714413D01*
X174237039Y-80737986D01*
X174195951Y-80761510D01*
X174154787Y-80784985D01*
X174113547Y-80808411D01*
X174072233Y-80831788D01*
X174030843Y-80855115D01*
X173989378Y-80878392D01*
X173947838Y-80901620D01*
X173906223Y-80924799D01*
X173864532Y-80947928D01*
X173822766Y-80971007D01*
X173780925Y-80994036D01*
X173739009Y-81017015D01*
X173697017Y-81039944D01*
X173654950Y-81062824D01*
X173612808Y-81085653D01*
X173570590Y-81108431D01*
X173528298Y-81131160D01*
X173485930Y-81153838D01*
X173443486Y-81176465D01*
X173400968Y-81199043D01*
X173358374Y-81221569D01*
X173315705Y-81244045D01*
X173272960Y-81266470D01*
X173230141Y-81288844D01*
X173187246Y-81311167D01*
X173144276Y-81333439D01*
X173101230Y-81355660D01*
X173058109Y-81377829D01*
X173014913Y-81399948D01*
X172971641Y-81422015D01*
X172928295Y-81444031D01*
X172884872Y-81465995D01*
X172841375Y-81487908D01*
X172797802Y-81509769D01*
X172754154Y-81531578D01*
X172710431Y-81553335D01*
X172666632Y-81575041D01*
X172622758Y-81596694D01*
X172578809Y-81618296D01*
X172534784Y-81639845D01*
X172490684Y-81661342D01*
X172446509Y-81682787D01*
X172402259Y-81704179D01*
X172357933Y-81725519D01*
X172313531Y-81746807D01*
X172269055Y-81768041D01*
X172224503Y-81789223D01*
X172179876Y-81810353D01*
X172135173Y-81831429D01*
X172090395Y-81852452D01*
X172045542Y-81873423D01*
X172000614Y-81894340D01*
X171955610Y-81915204D01*
X171910531Y-81936015D01*
X171865376Y-81956772D01*
X171820147Y-81977476D01*
X171774842Y-81998126D01*
X171729461Y-82018723D01*
X171684006Y-82039266D01*
X171638475Y-82059755D01*
X171592868Y-82080191D01*
X171547187Y-82100572D01*
X171501430Y-82120899D01*
X171455597Y-82141173D01*
X171409690Y-82161392D01*
X171363707Y-82181557D01*
X171317649Y-82201667D01*
X171271515Y-82221723D01*
X171225307Y-82241725D01*
X171179022Y-82261672D01*
X171132663Y-82281564D01*
X171086228Y-82301401D01*
X171039719Y-82321184D01*
X170993133Y-82340911D01*
X170946473Y-82360584D01*
X170899737Y-82380201D01*
X170852926Y-82399764D01*
X170806040Y-82419271D01*
X170759078Y-82438722D01*
X170712041Y-82458119D01*
X170664929Y-82477459D01*
X170617742Y-82496744D01*
X170570479Y-82515974D01*
X170523141Y-82535147D01*
X170475728Y-82554265D01*
X170428240Y-82573327D01*
X170380676Y-82592332D01*
X170333038Y-82611282D01*
X170285324Y-82630176D01*
X170237534Y-82649013D01*
X170189670Y-82667793D01*
X170141730Y-82686518D01*
X170093715Y-82705185D01*
X170045625Y-82723797D01*
X169997460Y-82742351D01*
X169949220Y-82760849D01*
X169900904Y-82779289D01*
X169852513Y-82797673D01*
X169804047Y-82816000D01*
X169755506Y-82834270D01*
X169706890Y-82852482D01*
X169658198Y-82870637D01*
X169609432Y-82888735D01*
X169560590Y-82906775D01*
X169511673Y-82924757D01*
X169462681Y-82942682D01*
X169413614Y-82960550D01*
X169364472Y-82978359D01*
X169315255Y-82996111D01*
X169265962Y-83013804D01*
X169216595Y-83031440D01*
X169167152Y-83049017D01*
X169117635Y-83066536D01*
X169068042Y-83083997D01*
X169018374Y-83101399D01*
X168968631Y-83118743D01*
X168918813Y-83136028D01*
X168868921Y-83153255D01*
X168818953Y-83170423D01*
X168768910Y-83187532D01*
X168718792Y-83204582D01*
X168668599Y-83221573D01*
X168618331Y-83238505D01*
X168567988Y-83255377D01*
X168517570Y-83272191D01*
X168467078Y-83288945D01*
X168416510Y-83305639D01*
X168365867Y-83322274D01*
X168315150Y-83338850D01*
X168264357Y-83355366D01*
X168213490Y-83371822D01*
X168162547Y-83388218D01*
X168111530Y-83404554D01*
X168060438Y-83420830D01*
X168009271Y-83437046D01*
X167958029Y-83453201D01*
X167906713Y-83469297D01*
X167855321Y-83485332D01*
X167803855Y-83501306D01*
X167752314Y-83517220D01*
X167700698Y-83533073D01*
X167649007Y-83548866D01*
X167597241Y-83564597D01*
X167545401Y-83580268D01*
X167493486Y-83595878D01*
X167441496Y-83611427D01*
X167389432Y-83626914D01*
X167337293Y-83642340D01*
X167285079Y-83657705D01*
X167232790Y-83673008D01*
X167180427Y-83688250D01*
X167127989Y-83703430D01*
X167075477Y-83718549D01*
X167022889Y-83733606D01*
X166970228Y-83748601D01*
X166917491Y-83763533D01*
X166864680Y-83778404D01*
X166811795Y-83793213D01*
X166758834Y-83807959D01*
X166705800Y-83822644D01*
X166652690Y-83837265D01*
X166599506Y-83851825D01*
X166546248Y-83866321D01*
X166492915Y-83880755D01*
X166439508Y-83895127D01*
X166386026Y-83909435D01*
X166332470Y-83923681D01*
X166278839Y-83937863D01*
X166225134Y-83951982D01*
X166171355Y-83966039D01*
X166117501Y-83980032D01*
X166063573Y-83993961D01*
X166009570Y-84007827D01*
X165955493Y-84021630D01*
X165901342Y-84035369D01*
X165847116Y-84049044D01*
X165792816Y-84062656D01*
X165738442Y-84076203D01*
X165683994Y-84089687D01*
X165629471Y-84103106D01*
X165574874Y-84116462D01*
X165520203Y-84129753D01*
X165465457Y-84142980D01*
X165410638Y-84156142D01*
X165355744Y-84169240D01*
X165300776Y-84182273D01*
X165245734Y-84195242D01*
X165190618Y-84208146D01*
X165135428Y-84220985D01*
X165080164Y-84233759D01*
X165024826Y-84246468D01*
X164969413Y-84259112D01*
X164913927Y-84271691D01*
X164858367Y-84284205D01*
X164802732Y-84296653D01*
X164747024Y-84309035D01*
X164691242Y-84321353D01*
X164635386Y-84333604D01*
X164579456Y-84345790D01*
X164523452Y-84357910D01*
X164467374Y-84369964D01*
X164411222Y-84381952D01*
X164354997Y-84393874D01*
X164298697Y-84405730D01*
X164242324Y-84417519D01*
X164185877Y-84429243D01*
X164129357Y-84440900D01*
X164072762Y-84452490D01*
X164016094Y-84464014D01*
X163959353Y-84475471D01*
X163902537Y-84486861D01*
X163845648Y-84498184D01*
X163788686Y-84509441D01*
X163731649Y-84520630D01*
X163674539Y-84531753D01*
X163617356Y-84542808D01*
X163560099Y-84553796D01*
X163502769Y-84564716D01*
X163445365Y-84575569D01*
X163387887Y-84586354D01*
X163330336Y-84597072D01*
X163272712Y-84607722D01*
X163215014Y-84618304D01*
X163157243Y-84628819D01*
X163099399Y-84639265D01*
X163041481Y-84649643D01*
X162983490Y-84659953D01*
X162925425Y-84670195D01*
X162867288Y-84680369D01*
X162809077Y-84690474D01*
X162750793Y-84700510D01*
X162692435Y-84710478D01*
X162634005Y-84720377D01*
X162575501Y-84730208D01*
X162516924Y-84739969D01*
X162458274Y-84749662D01*
X162399551Y-84759286D01*
X162340755Y-84768840D01*
X162281886Y-84778325D01*
X162222944Y-84787741D01*
X162163929Y-84797088D01*
X162104841Y-84806365D01*
X162045680Y-84815572D01*
X161986446Y-84824710D01*
X161927139Y-84833778D01*
X161867759Y-84842777D01*
X161808307Y-84851705D01*
X161748781Y-84860564D01*
X161689183Y-84869352D01*
X161629512Y-84878070D01*
X161599649Y-84882403D01*
X161569769Y-84886718D01*
X161539869Y-84891016D01*
X161509952Y-84895296D01*
X161480016Y-84899558D01*
X161450063Y-84903803D01*
X161420091Y-84908030D01*
X161390102Y-84912239D01*
X161360093Y-84916431D01*
X161330068Y-84920605D01*
X161300022Y-84924762D01*
X161269961Y-84928901D01*
X161239879Y-84933022D01*
X161209781Y-84937125D01*
X161179663Y-84941211D01*
X161149529Y-84945279D01*
X161119375Y-84949329D01*
X161089205Y-84953362D01*
X161059014Y-84957377D01*
X161028808Y-84961373D01*
X160998581Y-84965353D01*
X160968338Y-84969314D01*
X160938075Y-84973258D01*
X160907796Y-84977184D01*
X160877497Y-84981092D01*
X160847182Y-84984982D01*
X160816847Y-84988854D01*
X160786495Y-84992708D01*
X160756124Y-84996545D01*
X160725736Y-85000364D01*
X160695329Y-85004165D01*
X160664905Y-85007947D01*
X160634461Y-85011712D01*
X160604001Y-85015459D01*
X160573521Y-85019189D01*
X160543025Y-85022900D01*
X160512509Y-85026593D01*
X160481977Y-85030268D01*
X160451425Y-85033926D01*
X160420856Y-85037565D01*
X160390268Y-85041186D01*
X160359663Y-85044790D01*
X160329039Y-85048375D01*
X160298399Y-85051942D01*
X160267738Y-85055492D01*
X160237062Y-85059023D01*
X160206365Y-85062536D01*
X160175652Y-85066031D01*
X160144920Y-85069508D01*
X160114171Y-85072967D01*
X160083403Y-85076408D01*
X160052618Y-85079830D01*
X160021814Y-85083235D01*
X159990993Y-85086621D01*
X159960152Y-85089990D01*
X159929296Y-85093340D01*
X159898419Y-85096672D01*
X159867526Y-85099985D01*
X159836614Y-85103281D01*
X159805685Y-85106558D01*
X159774737Y-85109817D01*
X159743772Y-85113058D01*
X159712788Y-85116281D01*
X159681787Y-85119486D01*
X159650767Y-85122672D01*
X159619730Y-85125840D01*
X159588674Y-85128989D01*
X159557602Y-85132121D01*
X159526510Y-85135234D01*
X159495401Y-85138329D01*
X159464273Y-85141405D01*
X159433129Y-85144463D01*
X159401965Y-85147503D01*
X159370785Y-85150525D01*
X159339586Y-85153528D01*
X159308370Y-85156512D01*
X159277134Y-85159479D01*
X159245882Y-85162427D01*
X159214611Y-85165356D01*
X159183324Y-85168267D01*
X159152017Y-85171160D01*
X159120693Y-85174034D01*
X159089350Y-85176890D01*
X159057991Y-85179728D01*
X159026612Y-85182547D01*
X158995217Y-85185347D01*
X158963803Y-85188129D01*
X158932372Y-85190892D01*
X158900922Y-85193637D01*
X158869456Y-85196364D01*
X158837970Y-85199072D01*
X158806468Y-85201761D01*
X158774946Y-85204432D01*
X158743408Y-85207084D01*
X158711851Y-85209718D01*
X158680277Y-85212333D01*
X158648684Y-85214929D01*
X158617075Y-85217507D01*
X158585446Y-85220067D01*
X158553801Y-85222607D01*
X158522137Y-85225129D01*
X158490456Y-85227633D01*
X158458756Y-85230117D01*
X158427040Y-85232583D01*
X158395305Y-85235031D01*
X158363553Y-85237459D01*
X158331782Y-85239869D01*
X158299994Y-85242261D01*
X158268188Y-85244633D01*
X158236365Y-85246987D01*
X158204522Y-85249322D01*
X158172664Y-85251638D01*
X158140786Y-85253936D01*
X158108892Y-85256215D01*
X158076978Y-85258475D01*
X158045049Y-85260716D01*
X158013100Y-85262938D01*
X157981134Y-85265142D01*
X157949150Y-85267327D01*
X157917149Y-85269492D01*
X157885129Y-85271640D01*
X157853093Y-85273768D01*
X157821038Y-85275877D01*
X157788966Y-85277967D01*
X157756875Y-85280039D01*
X157724768Y-85282092D01*
X157692642Y-85284125D01*
X157660499Y-85286140D01*
X157628338Y-85288136D01*
X157596160Y-85290113D01*
X157563962Y-85292071D01*
X157531749Y-85294010D01*
X157499517Y-85295930D01*
X157467268Y-85297831D01*
X157435000Y-85299713D01*
X157402716Y-85301576D01*
X157370413Y-85303421D01*
X157338093Y-85305246D01*
X157305754Y-85307052D01*
X157273400Y-85308838D01*
X157241026Y-85310606D01*
X157208636Y-85312355D01*
X157176226Y-85314085D01*
X157143801Y-85315796D01*
X157111356Y-85317487D01*
X157078896Y-85319160D01*
X157046416Y-85320813D01*
X157013920Y-85322447D01*
X156981405Y-85324062D01*
X156948873Y-85325658D01*
X156916323Y-85327235D01*
X156883757Y-85328792D01*
X156851171Y-85330331D01*
X156818569Y-85331850D01*
X156785949Y-85333350D01*
X156753312Y-85334831D01*
X156720656Y-85336292D01*
X156687984Y-85337734D01*
X156655293Y-85339157D01*
X156622585Y-85340561D01*
X156589859Y-85341946D01*
X156557117Y-85343311D01*
X156524355Y-85344657D01*
X156491578Y-85345984D01*
X156458781Y-85347291D01*
X156425969Y-85348579D01*
X156393137Y-85349848D01*
X156360289Y-85351097D01*
X156327422Y-85352327D01*
X156294540Y-85353538D01*
X156261638Y-85354729D01*
X156228720Y-85355901D01*
X156195783Y-85357053D01*
X156162830Y-85358187D01*
X156129858Y-85359300D01*
X156096870Y-85360394D01*
X156063864Y-85361469D01*
X156030841Y-85362525D01*
X155997799Y-85363561D01*
X155964741Y-85364577D01*
X155931664Y-85365574D01*
X155898571Y-85366552D01*
X155865459Y-85367510D01*
X155832331Y-85368448D01*
X155799184Y-85369367D01*
X155766022Y-85370267D01*
X155732840Y-85371147D01*
X155699642Y-85372007D01*
X155666426Y-85372848D01*
X155633193Y-85373669D01*
X155599941Y-85374471D01*
X155566674Y-85375253D01*
X155533388Y-85376015D01*
X155500085Y-85376758D01*
X155466764Y-85377481D01*
X155433427Y-85378185D01*
X155400071Y-85378869D01*
X155366699Y-85379533D01*
X155333308Y-85380178D01*
X155299901Y-85380803D01*
X155266475Y-85381408D01*
X155233033Y-85381994D01*
X155199573Y-85382560D01*
X155166097Y-85383106D01*
X155132601Y-85383633D01*
X155099090Y-85384139D01*
X155065560Y-85384626D01*
X155032014Y-85385094D01*
X154998450Y-85385541D01*
X154964869Y-85385969D01*
X154931269Y-85386377D01*
X154897654Y-85386765D01*
X154864020Y-85387133D01*
X154830370Y-85387482D01*
X154796701Y-85387811D01*
X154763016Y-85388119D01*
X154729313Y-85388408D01*
X154695594Y-85388678D01*
X154661856Y-85388927D01*
X154628102Y-85389156D01*
X154594329Y-85389366D01*
X154560540Y-85389556D01*
X154526733Y-85389725D01*
X154492910Y-85389875D01*
X154459068Y-85390005D01*
X154425210Y-85390115D01*
X154391334Y-85390205D01*
X154357442Y-85390275D01*
X154323531Y-85390325D01*
X154289604Y-85390355D01*
X154255659Y-85390365D01*
X154221697Y-85390355D01*
X154187717Y-85390326D01*
X154153721Y-85390276D01*
X154119707Y-85390206D01*
X154085677Y-85390116D01*
X154050000Y-85390000D01*
X169060000Y-37030000D02*
X169100208Y-36999669D01*
X169140370Y-36969398D01*
X169180301Y-36939326D01*
X169220187Y-36909314D01*
X169259846Y-36879497D01*
X169299460Y-36849740D01*
X169338849Y-36820176D01*
X169378193Y-36790670D01*
X169417317Y-36761356D01*
X169456396Y-36732100D01*
X169495256Y-36703032D01*
X169534073Y-36674022D01*
X169572675Y-36645199D01*
X169611232Y-36616432D01*
X169649578Y-36587850D01*
X169687880Y-36559324D01*
X169725972Y-36530980D01*
X169764022Y-36502693D01*
X169801864Y-36474585D01*
X169839664Y-36446533D01*
X169877259Y-36418658D01*
X169914812Y-36390839D01*
X169952164Y-36363195D01*
X169989473Y-36335606D01*
X170026584Y-36308190D01*
X170063652Y-36280829D01*
X170100524Y-36253639D01*
X170137355Y-36226504D01*
X170173991Y-36199537D01*
X170210586Y-36172625D01*
X170246989Y-36145880D01*
X170283352Y-36119189D01*
X170319525Y-36092662D01*
X170355657Y-36066190D01*
X170391602Y-36039879D01*
X170427507Y-36013623D01*
X170463227Y-35987528D01*
X170498906Y-35961486D01*
X170534403Y-35935602D01*
X170569861Y-35909773D01*
X170605137Y-35884099D01*
X170640374Y-35858480D01*
X170675433Y-35833014D01*
X170710452Y-35807603D01*
X170745294Y-35782344D01*
X170780098Y-35757138D01*
X170814727Y-35732083D01*
X170849318Y-35707081D01*
X170883736Y-35682228D01*
X170918115Y-35657428D01*
X170952324Y-35632776D01*
X170986495Y-35608176D01*
X171020496Y-35583722D01*
X171054460Y-35559320D01*
X171088257Y-35535063D01*
X171122017Y-35510857D01*
X171155611Y-35486795D01*
X171189167Y-35462784D01*
X171222561Y-35438914D01*
X171255917Y-35415096D01*
X171289111Y-35391418D01*
X171322269Y-35367790D01*
X171355267Y-35344302D01*
X171388228Y-35320863D01*
X171421030Y-35297563D01*
X171453797Y-35274312D01*
X171486406Y-35251198D01*
X171518980Y-35228133D01*
X171551398Y-35205203D01*
X171583781Y-35182323D01*
X171616010Y-35159576D01*
X171648203Y-35136878D01*
X171680244Y-35114312D01*
X171712250Y-35091796D01*
X171744106Y-35069410D01*
X171775926Y-35047073D01*
X171807597Y-35024865D01*
X171839234Y-35002707D01*
X171870723Y-34980676D01*
X171902177Y-34958694D01*
X171933485Y-34936838D01*
X171964758Y-34915031D01*
X171995887Y-34893349D01*
X172026982Y-34871715D01*
X172057933Y-34850206D01*
X172088850Y-34828745D01*
X172119625Y-34807406D01*
X172150367Y-34786115D01*
X172180968Y-34764947D01*
X172211535Y-34743825D01*
X172241963Y-34722825D01*
X172272358Y-34701871D01*
X172302614Y-34681037D01*
X172332838Y-34660251D01*
X172362925Y-34639583D01*
X172392978Y-34618961D01*
X172422897Y-34598457D01*
X172452782Y-34578000D01*
X172482534Y-34557659D01*
X172512252Y-34537364D01*
X172541838Y-34517184D01*
X172571391Y-34497051D01*
X172600813Y-34477032D01*
X172630202Y-34457059D01*
X172659461Y-34437199D01*
X172688688Y-34417385D01*
X172717785Y-34397682D01*
X172746851Y-34378026D01*
X172775788Y-34358481D01*
X172804693Y-34338981D01*
X172833472Y-34319591D01*
X172862219Y-34300246D01*
X172890840Y-34281010D01*
X172919429Y-34261820D01*
X172947894Y-34242737D01*
X172976328Y-34223700D01*
X173004637Y-34204769D01*
X173032916Y-34185884D01*
X173061072Y-34167104D01*
X173089197Y-34148369D01*
X173117201Y-34129739D01*
X173145174Y-34111154D01*
X173173026Y-34092672D01*
X173200848Y-34074236D01*
X173228550Y-34055902D01*
X173256221Y-34037612D01*
X173283775Y-34019425D01*
X173311298Y-34001282D01*
X173338703Y-33983240D01*
X173366078Y-33965242D01*
X173393337Y-33947345D01*
X173420566Y-33929491D01*
X173447679Y-33911737D01*
X173474763Y-33894027D01*
X173501732Y-33876415D01*
X173528671Y-33858847D01*
X173555496Y-33841377D01*
X173582293Y-33823949D01*
X173608976Y-33806619D01*
X173635630Y-33789332D01*
X173662172Y-33772142D01*
X173688685Y-33754994D01*
X173715087Y-33737942D01*
X173741460Y-33720932D01*
X173767723Y-33704017D01*
X173793957Y-33687145D01*
X173820082Y-33670366D01*
X173846178Y-33653630D01*
X173872166Y-33636987D01*
X173898126Y-33620386D01*
X173923977Y-33603878D01*
X173949801Y-33587412D01*
X173975518Y-33571037D01*
X174001206Y-33554704D01*
X174026789Y-33538462D01*
X174052344Y-33522262D01*
X174077793Y-33506152D01*
X174103215Y-33490083D01*
X174128532Y-33474104D01*
X174153822Y-33458166D01*
X174179008Y-33442318D01*
X174204167Y-33426510D01*
X174229223Y-33410790D01*
X174254251Y-33395111D01*
X174279178Y-33379520D01*
X174304077Y-33363969D01*
X174328875Y-33348505D01*
X174353646Y-33333082D01*
X174378317Y-33317744D01*
X174402960Y-33302447D01*
X174427504Y-33287236D01*
X174452021Y-33272065D01*
X174476439Y-33256978D01*
X174500830Y-33241932D01*
X174525123Y-33226970D01*
X174549390Y-33212047D01*
X174573559Y-33197208D01*
X174597702Y-33182409D01*
X174621747Y-33167693D01*
X174645767Y-33153016D01*
X174669690Y-33138421D01*
X174693587Y-33123866D01*
X174717389Y-33109393D01*
X174741165Y-33094958D01*
X174764846Y-33080605D01*
X174788501Y-33066291D01*
X174812062Y-33052057D01*
X174835597Y-33037862D01*
X174859039Y-33023747D01*
X174882456Y-33009670D01*
X174905779Y-32995673D01*
X174929077Y-32981714D01*
X174952283Y-32967834D01*
X174975464Y-32953992D01*
X174998553Y-32940229D01*
X175021617Y-32926503D01*
X175044590Y-32912855D01*
X175067539Y-32899245D01*
X175090396Y-32885712D01*
X175113229Y-32872217D01*
X175135973Y-32858798D01*
X175158691Y-32845418D01*
X175181321Y-32832112D01*
X175203926Y-32818845D01*
X175226442Y-32805652D01*
X175248934Y-32792497D01*
X175271338Y-32779417D01*
X175293718Y-32766374D01*
X175316011Y-32753405D01*
X175338279Y-32740474D01*
X175360461Y-32727616D01*
X175382618Y-32714795D01*
X175404690Y-32702047D01*
X175426737Y-32689336D01*
X175448699Y-32676697D01*
X175470637Y-32664095D01*
X175492490Y-32651565D01*
X175514320Y-32639072D01*
X175536065Y-32626650D01*
X175557786Y-32614265D01*
X175579424Y-32601951D01*
X175601038Y-32589673D01*
X175622569Y-32577465D01*
X175644076Y-32565293D01*
X175665501Y-32553192D01*
X175686903Y-32541126D01*
X175708222Y-32529130D01*
X175729518Y-32517170D01*
X175750733Y-32505279D01*
X175771924Y-32493423D01*
X175793035Y-32481636D01*
X175814122Y-32469885D01*
X175835129Y-32458201D01*
X175856113Y-32446553D01*
X175877017Y-32434973D01*
X175897898Y-32423428D01*
X175918700Y-32411949D01*
X175939479Y-32400506D01*
X175960179Y-32389130D01*
X175980857Y-32377788D01*
X176001456Y-32366513D01*
X176022033Y-32355273D01*
X176042531Y-32344098D01*
X176063008Y-32332958D01*
X176083407Y-32321883D01*
X176103783Y-32310842D01*
X176124083Y-32299867D01*
X176144361Y-32288926D01*
X176164562Y-32278049D01*
X176184741Y-32267206D01*
X176204844Y-32256428D01*
X176224925Y-32245683D01*
X176244931Y-32235002D01*
X176264915Y-32224355D01*
X176284824Y-32213771D01*
X176304711Y-32203221D01*
X176324524Y-32192733D01*
X176344314Y-32182280D01*
X176364031Y-32171888D01*
X176383727Y-32161530D01*
X176403348Y-32151233D01*
X176422949Y-32140971D01*
X176442476Y-32130769D01*
X176461982Y-32120601D01*
X176481415Y-32110493D01*
X176500826Y-32100419D01*
X176520166Y-32090405D01*
X176539485Y-32080425D01*
X176558731Y-32070504D01*
X176577957Y-32060617D01*
X176597111Y-32050789D01*
X176616244Y-32040994D01*
X176635307Y-32031258D01*
X176654348Y-32021555D01*
X176673319Y-32011910D01*
X176692270Y-32002298D01*
X176711150Y-31992745D01*
X176730010Y-31983224D01*
X176748800Y-31973761D01*
X176767569Y-31964331D01*
X176786269Y-31954957D01*
X176804949Y-31945617D01*
X176823560Y-31936333D01*
X176842150Y-31927082D01*
X176860672Y-31917887D01*
X176879174Y-31908725D01*
X176897608Y-31899618D01*
X176916022Y-31890544D01*
X176934368Y-31881526D01*
X176952694Y-31872540D01*
X176970953Y-31863608D01*
X176989192Y-31854709D01*
X177007364Y-31845865D01*
X177025517Y-31837053D01*
X177043603Y-31828295D01*
X177061669Y-31819570D01*
X177079669Y-31810898D01*
X177097649Y-31802258D01*
X177115564Y-31793671D01*
X177133459Y-31785117D01*
X177151289Y-31776615D01*
X177169100Y-31768145D01*
X177186846Y-31759729D01*
X177204572Y-31751343D01*
X177222234Y-31743010D01*
X177239876Y-31734709D01*
X177257455Y-31726459D01*
X177275014Y-31718241D01*
X177292509Y-31710075D01*
X177309986Y-31701940D01*
X177327399Y-31693856D01*
X177344793Y-31685803D01*
X177362124Y-31677802D01*
X177379436Y-31669831D01*
X177396685Y-31661911D01*
X177413916Y-31654022D01*
X177431084Y-31646183D01*
X177448234Y-31638375D01*
X177465321Y-31630617D01*
X177482390Y-31622890D01*
X177499398Y-31615212D01*
X177516386Y-31607565D01*
X177533314Y-31599967D01*
X177550223Y-31592400D01*
X177567072Y-31584881D01*
X177583901Y-31577393D01*
X177600671Y-31569954D01*
X177617422Y-31562545D01*
X177634113Y-31555184D01*
X177650786Y-31547853D01*
X177667399Y-31540570D01*
X177683993Y-31533317D01*
X177700529Y-31526112D01*
X177717046Y-31518937D01*
X177733504Y-31511809D01*
X177749944Y-31504711D01*
X177766325Y-31497660D01*
X177782689Y-31490638D01*
X177798994Y-31483663D01*
X177815281Y-31476718D01*
X177831510Y-31469819D01*
X177847721Y-31462950D01*
X177863875Y-31456127D01*
X177880010Y-31449333D01*
X177896089Y-31442584D01*
X177912150Y-31435866D01*
X177928153Y-31429192D01*
X177944139Y-31422548D01*
X177960069Y-31415948D01*
X177975981Y-31409378D01*
X177991836Y-31402853D01*
X178007674Y-31396357D01*
X178023456Y-31389905D01*
X178039221Y-31383482D01*
X178054930Y-31377103D01*
X178070621Y-31370753D01*
X178086258Y-31364447D01*
X178101876Y-31358169D01*
X178117440Y-31351935D01*
X178132987Y-31345730D01*
X178148479Y-31339568D01*
X178163954Y-31333434D01*
X178179374Y-31327344D01*
X178194777Y-31321281D01*
X178210127Y-31315262D01*
X178225459Y-31309271D01*
X178240737Y-31303322D01*
X178255999Y-31297401D01*
X178271207Y-31291523D01*
X178286398Y-31285672D01*
X178301536Y-31279864D01*
X178316657Y-31274083D01*
X178331725Y-31268344D01*
X178346777Y-31262633D01*
X178361776Y-31256963D01*
X178376758Y-31251321D01*
X178391689Y-31245719D01*
X178406602Y-31240146D01*
X178421464Y-31234613D01*
X178436309Y-31229108D01*
X178451102Y-31223643D01*
X178465879Y-31218206D01*
X178480605Y-31212809D01*
X178495314Y-31207439D01*
X178509972Y-31202109D01*
X178524614Y-31196807D01*
X178539205Y-31191544D01*
X178553779Y-31186308D01*
X178568304Y-31181112D01*
X178582812Y-31175943D01*
X178597270Y-31170813D01*
X178611711Y-31165709D01*
X178626103Y-31160645D01*
X178640479Y-31155608D01*
X178654805Y-31150609D01*
X178669115Y-31145637D01*
X178683376Y-31140703D01*
X178697621Y-31135796D01*
X178711817Y-31130927D01*
X178725997Y-31126085D01*
X178740128Y-31121281D01*
X178754243Y-31116503D01*
X178768310Y-31111762D01*
X178782361Y-31107048D01*
X178796364Y-31102371D01*
X178810351Y-31097721D01*
X178824290Y-31093108D01*
X178838214Y-31088521D01*
X178852090Y-31083970D01*
X178865950Y-31079446D01*
X178879763Y-31074959D01*
X178893561Y-31070497D01*
X178907311Y-31066072D01*
X178921046Y-31061673D01*
X178934734Y-31057310D01*
X178948407Y-31052972D01*
X178962033Y-31048671D01*
X178975644Y-31044395D01*
X178989209Y-31040155D01*
X179002758Y-31035941D01*
X179016261Y-31031761D01*
X179029749Y-31027608D01*
X179043191Y-31023490D01*
X179056618Y-31019397D01*
X179070000Y-31015339D01*
X179083366Y-31011306D01*
X179096687Y-31007308D01*
X179109994Y-31003336D01*
X179123255Y-30999397D01*
X179136501Y-30995484D01*
X179149703Y-30991606D01*
X179162889Y-30987752D01*
X179176031Y-30983932D01*
X179189158Y-30980138D01*
X179202241Y-30976377D01*
X179215310Y-30972641D01*
X179228334Y-30968938D01*
X179241343Y-30965261D01*
X179254309Y-30961617D01*
X179267260Y-30957997D01*
X179280168Y-30954411D01*
X179293061Y-30950849D01*
X179305911Y-30947320D01*
X179318746Y-30943816D01*
X179331538Y-30940344D01*
X179344316Y-30936897D01*
X179357051Y-30933482D01*
X179369772Y-30930092D01*
X179382450Y-30926734D01*
X179395114Y-30923401D01*
X179407735Y-30920099D01*
X179420342Y-30916821D01*
X179432907Y-30913576D01*
X179445458Y-30910354D01*
X179457968Y-30907164D01*
X179470462Y-30903999D01*
X179482916Y-30900864D01*
X179495355Y-30897754D01*
X179507753Y-30894674D01*
X179520137Y-30891619D01*
X179532480Y-30888594D01*
X179544809Y-30885594D01*
X179557097Y-30882624D01*
X179569371Y-30879678D01*
X179581604Y-30876762D01*
X179593824Y-30873871D01*
X179606003Y-30871009D01*
X179618168Y-30868171D01*
X179630294Y-30865363D01*
X179642405Y-30862579D01*
X179654477Y-30859825D01*
X179666534Y-30857094D01*
X179678553Y-30854393D01*
X179690557Y-30851715D01*
X179702522Y-30849067D01*
X179714473Y-30846442D01*
X179726386Y-30843846D01*
X179738284Y-30841274D01*
X179750144Y-30838730D01*
X179761990Y-30836210D01*
X179773797Y-30833719D01*
X179785591Y-30831251D01*
X179797347Y-30828811D01*
X179809089Y-30826395D01*
X179820792Y-30824007D01*
X179832483Y-30821642D01*
X179844135Y-30819305D01*
X179855774Y-30816992D01*
X179867375Y-30814706D01*
X179878963Y-30812443D01*
X179890513Y-30810208D01*
X179902050Y-30807996D01*
X179913550Y-30805812D01*
X179925036Y-30803650D01*
X179936485Y-30801516D01*
X179947921Y-30799405D01*
X179959321Y-30797320D01*
X179970707Y-30795259D01*
X179982056Y-30793224D01*
X179993392Y-30791213D01*
X180004692Y-30789228D01*
X180015979Y-30787265D01*
X180027230Y-30785329D01*
X180038467Y-30783416D01*
X180049669Y-30781529D01*
X180060858Y-30779665D01*
X180072011Y-30777827D01*
X180083150Y-30776011D01*
X180094255Y-30774222D01*
X180105346Y-30772454D01*
X180116403Y-30770713D01*
X180127446Y-30768994D01*
X180138454Y-30767301D01*
X180149450Y-30765629D01*
X180160410Y-30763984D01*
X180171358Y-30762360D01*
X180182272Y-30760762D01*
X180193172Y-30759186D01*
X180204038Y-30757636D01*
X180214891Y-30756107D01*
X180225710Y-30754603D01*
X180236517Y-30753122D01*
X180247289Y-30751665D01*
X180258049Y-30750230D01*
X180268775Y-30748819D01*
X180279489Y-30747431D01*
X180290169Y-30746067D01*
X180300836Y-30744725D01*
X180311470Y-30743407D01*
X180322092Y-30742111D01*
X180332680Y-30740839D01*
X180343256Y-30739589D01*
X180353799Y-30738363D01*
X180364329Y-30737159D01*
X180374827Y-30735978D01*
X180385313Y-30734819D01*
X180395766Y-30733683D01*
X180406206Y-30732570D01*
X180416615Y-30731479D01*
X180427010Y-30730410D01*
X180437374Y-30729365D01*
X180447726Y-30728341D01*
X180458046Y-30727340D01*
X180468353Y-30726360D01*
X180478629Y-30725404D01*
X180488893Y-30724469D01*
X180499125Y-30723556D01*
X180509345Y-30722665D01*
X180519534Y-30721797D01*
X180529710Y-30720950D01*
X180539856Y-30720125D01*
X180549989Y-30719322D01*
X180560092Y-30718541D01*
X180570182Y-30717781D01*
X180580242Y-30717044D01*
X180590290Y-30716327D01*
X180600308Y-30715633D01*
X180610313Y-30714959D01*
X180620288Y-30714308D01*
X180630251Y-30713678D01*
X180640185Y-30713069D01*
X180650106Y-30712481D01*
X180659997Y-30711915D01*
X180669877Y-30711370D01*
X180679727Y-30710847D01*
X180689565Y-30710344D01*
X180699373Y-30709862D01*
X180709170Y-30709402D01*
X180718938Y-30708962D01*
X180728693Y-30708544D01*
X180738420Y-30708146D01*
X180748135Y-30707769D01*
X180757821Y-30707413D01*
X180767496Y-30707078D01*
X180777141Y-30706764D01*
X180786775Y-30706470D01*
X180796381Y-30706197D01*
X180805975Y-30705944D01*
X180815541Y-30705712D01*
X180825095Y-30705501D01*
X180834621Y-30705310D01*
X180844135Y-30705139D01*
X180853622Y-30704989D01*
X180863097Y-30704859D01*
X180872544Y-30704749D01*
X180881980Y-30704660D01*
X180891388Y-30704591D01*
X180900785Y-30704542D01*
X180910154Y-30704513D01*
X180919512Y-30704504D01*
X180928843Y-30704515D01*
X180938163Y-30704546D01*
X180947455Y-30704597D01*
X180956736Y-30704668D01*
X180965991Y-30704759D01*
X180975234Y-30704870D01*
X180984450Y-30705000D01*
X180993655Y-30705151D01*
X181002834Y-30705321D01*
X181012002Y-30705510D01*
X181021143Y-30705719D01*
X181030273Y-30705948D01*
X181039377Y-30706197D01*
X181048470Y-30706465D01*
X181057537Y-30706752D01*
X181066593Y-30707059D01*
X181075623Y-30707385D01*
X181084642Y-30707731D01*
X181093635Y-30708095D01*
X181102618Y-30708480D01*
X181111575Y-30708883D01*
X181120521Y-30709306D01*
X181129442Y-30709748D01*
X181138352Y-30710209D01*
X181147237Y-30710689D01*
X181156111Y-30711188D01*
X181164960Y-30711706D01*
X181173798Y-30712243D01*
X181182612Y-30712799D01*
X181191414Y-30713375D01*
X181200193Y-30713969D01*
X181208960Y-30714582D01*
X181217703Y-30715213D01*
X181226435Y-30715864D01*
X181235143Y-30716533D01*
X181243841Y-30717221D01*
X181252514Y-30717928D01*
X181261177Y-30718653D01*
X181269816Y-30719397D01*
X181278444Y-30720160D01*
X181287048Y-30720941D01*
X181295642Y-30721741D01*
X181304212Y-30722559D01*
X181312772Y-30723396D01*
X181321308Y-30724251D01*
X181329834Y-30725125D01*
X181338337Y-30726016D01*
X181346829Y-30726927D01*
X181355298Y-30727855D01*
X181363757Y-30728803D01*
X181372193Y-30729767D01*
X181380618Y-30730751D01*
X181389020Y-30731753D01*
X181397413Y-30732773D01*
X181405782Y-30733810D01*
X181414142Y-30734867D01*
X181422479Y-30735941D01*
X181430805Y-30737034D01*
X181439110Y-30738144D01*
X181447404Y-30739272D01*
X181455676Y-30740418D01*
X181463938Y-30741583D01*
X181472178Y-30742765D01*
X181480407Y-30743966D01*
X181488615Y-30745183D01*
X181496813Y-30746420D01*
X181504989Y-30747673D01*
X181513155Y-30748945D01*
X181521299Y-30750234D01*
X181529434Y-30751542D01*
X181537547Y-30752866D01*
X181545650Y-30754210D01*
X181553732Y-30755570D01*
X181561804Y-30756948D01*
X181569855Y-30758343D01*
X181577895Y-30759757D01*
X181585916Y-30761188D01*
X181593926Y-30762637D01*
X181601915Y-30764102D01*
X181609894Y-30765586D01*
X181617854Y-30767087D01*
X181625802Y-30768606D01*
X181633731Y-30770142D01*
X181641650Y-30771696D01*
X181649549Y-30773266D01*
X181657437Y-30774855D01*
X181665306Y-30776461D01*
X181673164Y-30778084D01*
X181681004Y-30779724D01*
X181688832Y-30781383D01*
X181696642Y-30783058D01*
X181704441Y-30784751D01*
X181712221Y-30786460D01*
X181719991Y-30788188D01*
X181727742Y-30789932D01*
X181735483Y-30791694D01*
X181743205Y-30793472D01*
X181750917Y-30795269D01*
X181758610Y-30797081D01*
X181766293Y-30798912D01*
X181773957Y-30800759D01*
X181781612Y-30802624D01*
X181789248Y-30804506D01*
X181796874Y-30806405D01*
X181804481Y-30808321D01*
X181812079Y-30810254D01*
X181819658Y-30812204D01*
X181827228Y-30814172D01*
X181834779Y-30816155D01*
X181842320Y-30818157D01*
X181849844Y-30820175D01*
X181857358Y-30822211D01*
X181864854Y-30824262D01*
X181872340Y-30826332D01*
X181879808Y-30828418D01*
X181887267Y-30830522D01*
X181894708Y-30832641D01*
X181902139Y-30834779D01*
X181909553Y-30836932D01*
X181916958Y-30839103D01*
X181924345Y-30841291D01*
X181931722Y-30843496D01*
X181939082Y-30845717D01*
X181946432Y-30847956D01*
X181953766Y-30850210D01*
X181961090Y-30852483D01*
X181968397Y-30854771D01*
X181975694Y-30857078D01*
X181982975Y-30859400D01*
X181990246Y-30861740D01*
X181997501Y-30864095D01*
X182004745Y-30866469D01*
X182011974Y-30868858D01*
X182019193Y-30871265D01*
X182026395Y-30873688D01*
X182033588Y-30876129D01*
X182040765Y-30878585D01*
X182047933Y-30881059D01*
X182055084Y-30883549D01*
X182062226Y-30886057D01*
X182069352Y-30888580D01*
X182076468Y-30891122D01*
X182083569Y-30893678D01*
X182090660Y-30896253D01*
X182097736Y-30898843D01*
X182104802Y-30901452D01*
X182111853Y-30904075D01*
X182118894Y-30906717D01*
X182125920Y-30909374D01*
X182132936Y-30912049D01*
X182139938Y-30914740D01*
X182146929Y-30917448D01*
X182153906Y-30920172D01*
X182160873Y-30922914D01*
X182167826Y-30925672D01*
X182174769Y-30928447D01*
X182181697Y-30931238D01*
X182188616Y-30934047D01*
X182195520Y-30936871D01*
X182202415Y-30939713D01*
X182209295Y-30942571D01*
X182216166Y-30945447D01*
X182223022Y-30948338D01*
X182229869Y-30951247D01*
X182236702Y-30954172D01*
X182243526Y-30957114D01*
X182250335Y-30960072D01*
X182257135Y-30963048D01*
X182263921Y-30966039D01*
X182270697Y-30969049D01*
X182277460Y-30972074D01*
X182284213Y-30975116D01*
X182290953Y-30978175D01*
X182297683Y-30981251D01*
X182304400Y-30984343D01*
X182311107Y-30987453D01*
X182317801Y-30990579D01*
X182324486Y-30993722D01*
X182331157Y-30996881D01*
X182337819Y-31000058D01*
X182344467Y-31003250D01*
X182351107Y-31006461D01*
X182357733Y-31009687D01*
X182364350Y-31012931D01*
X182370954Y-31016191D01*
X182377548Y-31019468D01*
X182384130Y-31022762D01*
X182390702Y-31026073D01*
X182397262Y-31029401D01*
X182403812Y-31032745D01*
X182410350Y-31036107D01*
X182416878Y-31039485D01*
X182423394Y-31042880D01*
X182429901Y-31046292D01*
X182436395Y-31049721D01*
X182442880Y-31053167D01*
X182449352Y-31056630D01*
X182455816Y-31060110D01*
X182462267Y-31063606D01*
X182468709Y-31067120D01*
X182475139Y-31070650D01*
X182481559Y-31074198D01*
X182487968Y-31077762D01*
X182494367Y-31081344D01*
X182500755Y-31084943D01*
X182507133Y-31088559D01*
X182513500Y-31092191D01*
X182519857Y-31095841D01*
X182526203Y-31099508D01*
X182532539Y-31103192D01*
X182538864Y-31106893D01*
X182545180Y-31110611D01*
X182551484Y-31114346D01*
X182557779Y-31118099D01*
X182564063Y-31121868D01*
X182570337Y-31125655D01*
X182576601Y-31129459D01*
X182582855Y-31133280D01*
X182589098Y-31137118D01*
X182595331Y-31140974D01*
X182601554Y-31144847D01*
X182607768Y-31148737D01*
X182613970Y-31152645D01*
X182620164Y-31156570D01*
X182626346Y-31160512D01*
X182632520Y-31164472D01*
X182638683Y-31168448D01*
X182644836Y-31172443D01*
X182650979Y-31176454D01*
X182657112Y-31180484D01*
X182663236Y-31184530D01*
X182669349Y-31188594D01*
X182675453Y-31192676D01*
X182681547Y-31196775D01*
X182687631Y-31200892D01*
X182693706Y-31205026D01*
X182699771Y-31209178D01*
X182705826Y-31213347D01*
X182711871Y-31217534D01*
X182717907Y-31221739D01*
X182723933Y-31225961D01*
X182729950Y-31230201D01*
X182735957Y-31234459D01*
X182741954Y-31238735D01*
X182747942Y-31243028D01*
X182753920Y-31247339D01*
X182759889Y-31251668D01*
X182765848Y-31256015D01*
X182771798Y-31260379D01*
X182777739Y-31264762D01*
X182783670Y-31269162D01*
X182789591Y-31273580D01*
X182795504Y-31278017D01*
X182801407Y-31282471D01*
X182807300Y-31286943D01*
X182813185Y-31291434D01*
X182824925Y-31300468D01*
X182836629Y-31309576D01*
X182848296Y-31318756D01*
X182859926Y-31328009D01*
X182871520Y-31337335D01*
X182883077Y-31346735D01*
X182894598Y-31356208D01*
X182906083Y-31365756D01*
X182917531Y-31375377D01*
X182928944Y-31385073D01*
X182940322Y-31394844D01*
X182951663Y-31404689D01*
X182962969Y-31414610D01*
X182974240Y-31424606D01*
X182985476Y-31434677D01*
X182996676Y-31444825D01*
X183007841Y-31455049D01*
X183018972Y-31465350D01*
X183030067Y-31475727D01*
X183041128Y-31486182D01*
X183052155Y-31496714D01*
X183063147Y-31507324D01*
X183074104Y-31518011D01*
X183085027Y-31528777D01*
X183095916Y-31539622D01*
X183106771Y-31550546D01*
X183117591Y-31561549D01*
X183128378Y-31572632D01*
X183139131Y-31583794D01*
X183149850Y-31595037D01*
X183160535Y-31606361D01*
X183171187Y-31617765D01*
X183181805Y-31629251D01*
X183192389Y-31640818D01*
X183202940Y-31652467D01*
X183213457Y-31664199D01*
X183223942Y-31676013D01*
X183234392Y-31687910D01*
X183244810Y-31699891D01*
X183255194Y-31711956D01*
X183265545Y-31724104D01*
X183275863Y-31736337D01*
X183286147Y-31748655D01*
X183296399Y-31761058D01*
X183306617Y-31773547D01*
X183316803Y-31786122D01*
X183326955Y-31798784D01*
X183337075Y-31811532D01*
X183347161Y-31824367D01*
X183357215Y-31837290D01*
X183367235Y-31850301D01*
X183377223Y-31863401D01*
X183387178Y-31876589D01*
X183397100Y-31889867D01*
X183406988Y-31903234D01*
X183416844Y-31916691D01*
X183426667Y-31930239D01*
X183436457Y-31943878D01*
X183446215Y-31957608D01*
X183455939Y-31971430D01*
X183465630Y-31985345D01*
X183475288Y-31999352D01*
X183484913Y-32013452D01*
X183494505Y-32027646D01*
X183504064Y-32041934D01*
X183513590Y-32056316D01*
X183523083Y-32070794D01*
X183532543Y-32085366D01*
X183541969Y-32100035D01*
X183551363Y-32114800D01*
X183560723Y-32129662D01*
X183570049Y-32144621D01*
X183579342Y-32159678D01*
X183588602Y-32174833D01*
X183597828Y-32190087D01*
X183607021Y-32205440D01*
X183616180Y-32220893D01*
X183625306Y-32236446D01*
X183634397Y-32252100D01*
X183643455Y-32267855D01*
X183652479Y-32283712D01*
X183661469Y-32299671D01*
X183670425Y-32315733D01*
X183679347Y-32331898D01*
X183688235Y-32348166D01*
X183697088Y-32364539D01*
X183705907Y-32381017D01*
X183714692Y-32397600D01*
X183723442Y-32414289D01*
X183732158Y-32431085D01*
X183740838Y-32447987D01*
X183749484Y-32464997D01*
X183758095Y-32482114D01*
X183766671Y-32499340D01*
X183775212Y-32516676D01*
X183783718Y-32534121D01*
X183792188Y-32551676D01*
X183800622Y-32569341D01*
X183809021Y-32587118D01*
X183817385Y-32605007D01*
X183825712Y-32623008D01*
X183834004Y-32641123D01*
X183842259Y-32659350D01*
X183850478Y-32677692D01*
X183858661Y-32696149D01*
X183866808Y-32714721D01*
X183874917Y-32733408D01*
X183882990Y-32752212D01*
X183891026Y-32771133D01*
X183899025Y-32790172D01*
X183906987Y-32809329D01*
X183914911Y-32828604D01*
X183922798Y-32847999D01*
X183930648Y-32867514D01*
X183938459Y-32887149D01*
X183946233Y-32906906D01*
X183953968Y-32926784D01*
X183961665Y-32946785D01*
X183969323Y-32966909D01*
X183976943Y-32987156D01*
X183984524Y-33007528D01*
X183992067Y-33028024D01*
X183999570Y-33048646D01*
X184007033Y-33069395D01*
X184014457Y-33090269D01*
X184021842Y-33111272D01*
X184029186Y-33132402D01*
X184036491Y-33153661D01*
X184043755Y-33175049D01*
X184050979Y-33196567D01*
X184058162Y-33218216D01*
X184065305Y-33239996D01*
X184072406Y-33261908D01*
X184079466Y-33283952D01*
X184086485Y-33306130D01*
X184093462Y-33328441D01*
X184100397Y-33350887D01*
X184107291Y-33373469D01*
X184114141Y-33396186D01*
X184120950Y-33419040D01*
X184127716Y-33442030D01*
X184134439Y-33465159D01*
X184141119Y-33488427D01*
X184147755Y-33511833D01*
X184154348Y-33535380D01*
X184160897Y-33559067D01*
X184167402Y-33582896D01*
X184173863Y-33606866D01*
X184180280Y-33630979D01*
X184186651Y-33655236D01*
X184192978Y-33679637D01*
X184199260Y-33704183D01*
X184205496Y-33728874D01*
X184211686Y-33753712D01*
X184217831Y-33778696D01*
X184223929Y-33803828D01*
X184229982Y-33829109D01*
X184235987Y-33854539D01*
X184241946Y-33880118D01*
X184247857Y-33905848D01*
X184253721Y-33931730D01*
X184259537Y-33957764D01*
X184265306Y-33983950D01*
X184271026Y-34010290D01*
X184276698Y-34036784D01*
X184282321Y-34063433D01*
X184287895Y-34090238D01*
X184293420Y-34117200D01*
X184298895Y-34144319D01*
X184304321Y-34171596D01*
X184309696Y-34199032D01*
X184315021Y-34226627D01*
X184320296Y-34254383D01*
X184325520Y-34282299D01*
X184330692Y-34310378D01*
X184335813Y-34338619D01*
X184340882Y-34367024D01*
X184345900Y-34395593D01*
X184350864Y-34424327D01*
X184355777Y-34453227D01*
X184360636Y-34482293D01*
X184365442Y-34511527D01*
X184370195Y-34540929D01*
X184374894Y-34570500D01*
X184379538Y-34600240D01*
X184384129Y-34630152D01*
X184388664Y-34660234D01*
X184393145Y-34690489D01*
X184397570Y-34720917D01*
X184401939Y-34751519D01*
X184406253Y-34782295D01*
X184410510Y-34813247D01*
X184414711Y-34844376D01*
X184418855Y-34875681D01*
X184422941Y-34907164D01*
X184426971Y-34938826D01*
X184430942Y-34970668D01*
X184434855Y-35002691D01*
X184438709Y-35034894D01*
X184442505Y-35067280D01*
X184446241Y-35099849D01*
X184449918Y-35132602D01*
X184453535Y-35165539D01*
X184457092Y-35198663D01*
X184460589Y-35231972D01*
X184464024Y-35265469D01*
X184467398Y-35299154D01*
X184470711Y-35333029D01*
X184473962Y-35367093D01*
X184477151Y-35401348D01*
X184480277Y-35435795D01*
X184483340Y-35470435D01*
X184486340Y-35505268D01*
X184489276Y-35540296D01*
X184492148Y-35575518D01*
X184494956Y-35610937D01*
X184497699Y-35646554D01*
X184500378Y-35682368D01*
X184502990Y-35718381D01*
X184505537Y-35754594D01*
X184508018Y-35791008D01*
X184510432Y-35827623D01*
X184512779Y-35864441D01*
X184515059Y-35901463D01*
X184517272Y-35938689D01*
X184519416Y-35976121D01*
X184521492Y-36013759D01*
X184523499Y-36051604D01*
X184525437Y-36089657D01*
X184527306Y-36127920D01*
X184529104Y-36166392D01*
X184530833Y-36205076D01*
X184532490Y-36243972D01*
X184534077Y-36283081D01*
X184535592Y-36322404D01*
X184537035Y-36361942D01*
X184538406Y-36401696D01*
X184539704Y-36441666D01*
X184540930Y-36481855D01*
X184542081Y-36522262D01*
X184543159Y-36562889D01*
X184544163Y-36603738D01*
X184545092Y-36644808D01*
X184545946Y-36686100D01*
X184546724Y-36727617D01*
X184547427Y-36769358D01*
X184548053Y-36811326D01*
X184548603Y-36853520D01*
X184549075Y-36895942D01*
X184549470Y-36938593D01*
X184549787Y-36981474D01*
X184550026Y-37024586D01*
X184550186Y-37067930D01*
X184550266Y-37111507D01*
X184550267Y-37155318D01*
X184550188Y-37199364D01*
X184550028Y-37243647D01*
X184549788Y-37288166D01*
X184549466Y-37332924D01*
X184549062Y-37377921D01*
X184548576Y-37423159D01*
X184548007Y-37468638D01*
X184547356Y-37514359D01*
X184546620Y-37560325D01*
X184545801Y-37606535D01*
X184544897Y-37652990D01*
X184543908Y-37699693D01*
X184542834Y-37746643D01*
X184541674Y-37793843D01*
X184540428Y-37841293D01*
X184539095Y-37888994D01*
X184537675Y-37936947D01*
X184536168Y-37985154D01*
X184534572Y-38033615D01*
X184532887Y-38082332D01*
X184531114Y-38131307D01*
X184529251Y-38180539D01*
X184527299Y-38230030D01*
X184525256Y-38279781D01*
X184523122Y-38329794D01*
X184520896Y-38380069D01*
X184518579Y-38430608D01*
X184516169Y-38481412D01*
X184513667Y-38532482D01*
X184511072Y-38583819D01*
X184508382Y-38635424D01*
X184505599Y-38687299D01*
X184502720Y-38739445D01*
X184499747Y-38791862D01*
X184496678Y-38844553D01*
X184493512Y-38897517D01*
X184490250Y-38950758D01*
X184486891Y-39004274D01*
X184483434Y-39058069D01*
X184479879Y-39112143D01*
X184476225Y-39166497D01*
X184472472Y-39221133D01*
X184468620Y-39276051D01*
X184464667Y-39331253D01*
X184460613Y-39386740D01*
X184456458Y-39442514D01*
X184452202Y-39498576D01*
X184447843Y-39554926D01*
X184443382Y-39611567D01*
X184438817Y-39668499D01*
X184434148Y-39725723D01*
X184429375Y-39783242D01*
X184424497Y-39841056D01*
X184419514Y-39899166D01*
X184414425Y-39957574D01*
X184409230Y-40016281D01*
X184403927Y-40075289D01*
X184398517Y-40134598D01*
X184392999Y-40194210D01*
X184387372Y-40254127D01*
X184381637Y-40314349D01*
X184375791Y-40374877D01*
X184369835Y-40435714D01*
X184363769Y-40496861D01*
X184357591Y-40558319D01*
X184351302Y-40620088D01*
X184344900Y-40682172D01*
X184338385Y-40744570D01*
X184331756Y-40807284D01*
X184325013Y-40870316D01*
X184318156Y-40933667D01*
X184311184Y-40997339D01*
X184304095Y-41061332D01*
X184296891Y-41125648D01*
X184289569Y-41190288D01*
X184282130Y-41255255D01*
X184274573Y-41320549D01*
X184266897Y-41386171D01*
X184259102Y-41452124D01*
X184251187Y-41518408D01*
X184243152Y-41585025D01*
X184234995Y-41651977D01*
X184226718Y-41719264D01*
X184218317Y-41786888D01*
X184209795Y-41854852D01*
X184201149Y-41923155D01*
X184192378Y-41991800D01*
X184183484Y-42060787D01*
X184174464Y-42130120D01*
X184165318Y-42199798D01*
X184156046Y-42269824D01*
X184146648Y-42340198D01*
X184137121Y-42410923D01*
X184127466Y-42482000D01*
X184117683Y-42553431D01*
X184107770Y-42625216D01*
X184097727Y-42697358D01*
X184087553Y-42769858D01*
X184077248Y-42842717D01*
X184066811Y-42915937D01*
X184056242Y-42989520D01*
X184045539Y-43063467D01*
X184034702Y-43137779D01*
X184023731Y-43212459D01*
X184012625Y-43287508D01*
X184001383Y-43362927D01*
X183990005Y-43438717D01*
X183978490Y-43514882D01*
X183966837Y-43591421D01*
X183955045Y-43668337D01*
X183943115Y-43745632D01*
X183931045Y-43823306D01*
X183918835Y-43901362D01*
X183906483Y-43979801D01*
X183893990Y-44058625D01*
X183881355Y-44137835D01*
X183868576Y-44217434D01*
X183855654Y-44297422D01*
X183842588Y-44377801D01*
X183829377Y-44458574D01*
X183816020Y-44539741D01*
X183802516Y-44621305D01*
X183788866Y-44703267D01*
X183775067Y-44785628D01*
X183761121Y-44868391D01*
X183747025Y-44951558D01*
X183732779Y-45035129D01*
X183718383Y-45119107D01*
X183703835Y-45203493D01*
X183689136Y-45288289D01*
X183674284Y-45373497D01*
X183659278Y-45459119D01*
X183644119Y-45545156D01*
X183628804Y-45631610D01*
X183613334Y-45718483D01*
X183597708Y-45805777D01*
X183581925Y-45893493D01*
X183565984Y-45981633D01*
X183549885Y-46070200D01*
X183533626Y-46159194D01*
X183517208Y-46248618D01*
X183500629Y-46338474D01*
X183483889Y-46428763D01*
X183466986Y-46519487D01*
X183449921Y-46610648D01*
X183432692Y-46702249D01*
X183415298Y-46794290D01*
X183397740Y-46886774D01*
X183380015Y-46979702D01*
X183362124Y-47073077D01*
X183344066Y-47166900D01*
X183325839Y-47261173D01*
X183307443Y-47355899D01*
X183288878Y-47451078D01*
X183270142Y-47546714D01*
X183251234Y-47642808D01*
X183232155Y-47739362D01*
X183212902Y-47836377D01*
X183193476Y-47933857D01*
X183173876Y-48031802D01*
X183154100Y-48130215D01*
X183134148Y-48229099D01*
X183114019Y-48328453D01*
X183093713Y-48428282D01*
X183073228Y-48528587D01*
X183052563Y-48629370D01*
X183031719Y-48730632D01*
X183010693Y-48832377D01*
X182989486Y-48934606D01*
X182968096Y-49037320D01*
X182946523Y-49140523D01*
X182924765Y-49244217D01*
X182902822Y-49348403D01*
X182880694Y-49453083D01*
X182858378Y-49558260D01*
X182835875Y-49663936D01*
X182813183Y-49770112D01*
X182790302Y-49876792D01*
X182767230Y-49983977D01*
X182743968Y-50091669D01*
X182740000Y-50110000D01*
X137980000Y-37230000D02*
X138005299Y-37217770D01*
X138030598Y-37205563D01*
X138055902Y-37193376D01*
X138081204Y-37181211D01*
X138106511Y-37169066D01*
X138131818Y-37156944D01*
X138157128Y-37144842D01*
X138182438Y-37132762D01*
X138233067Y-37108665D01*
X138283702Y-37084654D01*
X138334346Y-37060727D01*
X138384996Y-37036885D01*
X138435654Y-37013128D01*
X138486320Y-36989456D01*
X138536993Y-36965869D01*
X138587673Y-36942366D01*
X138638361Y-36918948D01*
X138689057Y-36895615D01*
X138739760Y-36872366D01*
X138790470Y-36849202D01*
X138841188Y-36826122D01*
X138891914Y-36803127D01*
X138942646Y-36780216D01*
X138993387Y-36757389D01*
X139044135Y-36734647D01*
X139094890Y-36711989D01*
X139145653Y-36689416D01*
X139196423Y-36666926D01*
X139247201Y-36644521D01*
X139297987Y-36622199D01*
X139348780Y-36599962D01*
X139399580Y-36577809D01*
X139450388Y-36555740D01*
X139501203Y-36533754D01*
X139552026Y-36511853D01*
X139602857Y-36490035D01*
X139653695Y-36468301D01*
X139704540Y-36446651D01*
X139755394Y-36425085D01*
X139806254Y-36403602D01*
X139857122Y-36382203D01*
X139907998Y-36360887D01*
X139958881Y-36339655D01*
X140009772Y-36318507D01*
X140060671Y-36297441D01*
X140111576Y-36276460D01*
X140162490Y-36255562D01*
X140213411Y-36234747D01*
X140264340Y-36214015D01*
X140315276Y-36193367D01*
X140366219Y-36172801D01*
X140417171Y-36152319D01*
X140468130Y-36131921D01*
X140519096Y-36111605D01*
X140570070Y-36091372D01*
X140621052Y-36071222D01*
X140672041Y-36051156D01*
X140723038Y-36031172D01*
X140774042Y-36011271D01*
X140825054Y-35991453D01*
X140876074Y-35971718D01*
X140927101Y-35952066D01*
X140978135Y-35932496D01*
X141029178Y-35913009D01*
X141080228Y-35893605D01*
X141131285Y-35874284D01*
X141182350Y-35855045D01*
X141233423Y-35835889D01*
X141284504Y-35816815D01*
X141335592Y-35797824D01*
X141386687Y-35778915D01*
X141437791Y-35760089D01*
X141488902Y-35741345D01*
X141540020Y-35722683D01*
X141591146Y-35704104D01*
X141642280Y-35685607D01*
X141693422Y-35667193D01*
X141744571Y-35648860D01*
X141795727Y-35630610D01*
X141846892Y-35612442D01*
X141898064Y-35594357D01*
X141949244Y-35576353D01*
X142000431Y-35558431D01*
X142051626Y-35540592D01*
X142102828Y-35522834D01*
X142154039Y-35505158D01*
X142205257Y-35487565D01*
X142256482Y-35470053D01*
X142307716Y-35452623D01*
X142358957Y-35435275D01*
X142410205Y-35418009D01*
X142461462Y-35400825D01*
X142512726Y-35383722D01*
X142563997Y-35366701D01*
X142615277Y-35349762D01*
X142666564Y-35332905D01*
X142717858Y-35316129D01*
X142769161Y-35299435D01*
X142820471Y-35282822D01*
X142871789Y-35266291D01*
X142923114Y-35249842D01*
X142974447Y-35233474D01*
X143025788Y-35217187D01*
X143077137Y-35200982D01*
X143128493Y-35184858D01*
X143179857Y-35168816D01*
X143231229Y-35152855D01*
X143282608Y-35136976D01*
X143333995Y-35121177D01*
X143385390Y-35105461D01*
X143436793Y-35089825D01*
X143488203Y-35074270D01*
X143539621Y-35058797D01*
X143591046Y-35043405D01*
X143642480Y-35028094D01*
X143693921Y-35012865D01*
X143745370Y-34997716D01*
X143796826Y-34982648D01*
X143848290Y-34967662D01*
X143899762Y-34952757D01*
X143951242Y-34937932D01*
X144002729Y-34923189D01*
X144054224Y-34908526D01*
X144105727Y-34893945D01*
X144157238Y-34879444D01*
X144208756Y-34865025D01*
X144260282Y-34850686D01*
X144311816Y-34836428D01*
X144363357Y-34822251D01*
X144414906Y-34808154D01*
X144466463Y-34794139D01*
X144518028Y-34780204D01*
X144569600Y-34766350D01*
X144621180Y-34752577D01*
X144672768Y-34738884D01*
X144724364Y-34725272D01*
X144775967Y-34711741D01*
X144827578Y-34698291D01*
X144879197Y-34684921D01*
X144930823Y-34671631D01*
X144982457Y-34658423D01*
X145034099Y-34645294D01*
X145085749Y-34632247D01*
X145137406Y-34619280D01*
X145189071Y-34606393D01*
X145240744Y-34593587D01*
X145292425Y-34580861D01*
X145344113Y-34568216D01*
X145395809Y-34555651D01*
X145447513Y-34543167D01*
X145499224Y-34530763D01*
X145550943Y-34518439D01*
X145602670Y-34506196D01*
X145654405Y-34494033D01*
X145706147Y-34481951D01*
X145757897Y-34469949D01*
X145809655Y-34458027D01*
X145861420Y-34446185D01*
X145913193Y-34434424D01*
X145964974Y-34422743D01*
X146016763Y-34411142D01*
X146068559Y-34399621D01*
X146120363Y-34388181D01*
X146172174Y-34376821D01*
X146223994Y-34365541D01*
X146275821Y-34354341D01*
X146327655Y-34343221D01*
X146379498Y-34332181D01*
X146431348Y-34321222D01*
X146483206Y-34310343D01*
X146535071Y-34299543D01*
X146586944Y-34288824D01*
X146638825Y-34278185D01*
X146690713Y-34267626D01*
X146742609Y-34257147D01*
X146794513Y-34246748D01*
X146846425Y-34236429D01*
X146898344Y-34226190D01*
X146950270Y-34216031D01*
X147002205Y-34205952D01*
X147054147Y-34195953D01*
X147106096Y-34186034D01*
X147158054Y-34176195D01*
X147210019Y-34166436D01*
X147261991Y-34156757D01*
X147313971Y-34147158D01*
X147365959Y-34137639D01*
X147417954Y-34128199D01*
X147469957Y-34118840D01*
X147521968Y-34109560D01*
X147573986Y-34100360D01*
X147626012Y-34091240D01*
X147678045Y-34082200D01*
X147730086Y-34073240D01*
X147782134Y-34064360D01*
X147834190Y-34055559D01*
X147886254Y-34046839D01*
X147938325Y-34038198D01*
X147990404Y-34029637D01*
X148042490Y-34021155D01*
X148094584Y-34012754D01*
X148146685Y-34004432D01*
X148198794Y-33996190D01*
X148250910Y-33988028D01*
X148303034Y-33979946D01*
X148355165Y-33971943D01*
X148407304Y-33964020D01*
X148459451Y-33956177D01*
X148511604Y-33948414D01*
X148563766Y-33940730D01*
X148615934Y-33933126D01*
X148668110Y-33925602D01*
X148720294Y-33918158D01*
X148772485Y-33910793D01*
X148824683Y-33903508D01*
X148876889Y-33896303D01*
X148929102Y-33889177D01*
X148981323Y-33882131D01*
X149033551Y-33875165D01*
X149085787Y-33868278D01*
X149138029Y-33861472D01*
X149190280Y-33854744D01*
X149242537Y-33848097D01*
X149294802Y-33841529D01*
X149347074Y-33835041D01*
X149399353Y-33828633D01*
X149451640Y-33822304D01*
X149503934Y-33816055D01*
X149556236Y-33809885D01*
X149608544Y-33803796D01*
X149660860Y-33797786D01*
X149713183Y-33791855D01*
X149765514Y-33786004D01*
X149817851Y-33780233D01*
X149870196Y-33774542D01*
X149922548Y-33768930D01*
X149974907Y-33763398D01*
X150027274Y-33757945D01*
X150079647Y-33752573D01*
X150132028Y-33747279D01*
X150184416Y-33742066D01*
X150236811Y-33736932D01*
X150289213Y-33731878D01*
X150341622Y-33726903D01*
X150394038Y-33722008D01*
X150446462Y-33717193D01*
X150498892Y-33712457D01*
X150551329Y-33707801D01*
X150603774Y-33703225D01*
X150656225Y-33698729D01*
X150708684Y-33694312D01*
X150761149Y-33689974D01*
X150813621Y-33685717D01*
X150866101Y-33681539D01*
X150918587Y-33677440D01*
X150971080Y-33673422D01*
X151023580Y-33669483D01*
X151076087Y-33665623D01*
X151128601Y-33661844D01*
X151181122Y-33658144D01*
X151233649Y-33654524D01*
X151286184Y-33650983D01*
X151338725Y-33647522D01*
X151391273Y-33644141D01*
X151443827Y-33640840D01*
X151496389Y-33637618D01*
X151548957Y-33634476D01*
X151601532Y-33631414D01*
X151654113Y-33628431D01*
X151706701Y-33625528D01*
X151759296Y-33622705D01*
X151811898Y-33619961D01*
X151864506Y-33617298D01*
X151917120Y-33614714D01*
X151969742Y-33612210D01*
X152022369Y-33609785D01*
X152075004Y-33607440D01*
X152127645Y-33605175D01*
X152180292Y-33602990D01*
X152232946Y-33600885D01*
X152285606Y-33598859D01*
X152338272Y-33596913D01*
X152390945Y-33595047D01*
X152443625Y-33593261D01*
X152496310Y-33591554D01*
X152549002Y-33589927D01*
X152601701Y-33588381D01*
X152654405Y-33586913D01*
X152707116Y-33585526D01*
X152759833Y-33584219D01*
X152812557Y-33582991D01*
X152865286Y-33581843D01*
X152918022Y-33580776D01*
X152970764Y-33579788D01*
X153023512Y-33578879D01*
X153076265Y-33578051D01*
X153129025Y-33577303D01*
X153181792Y-33576634D01*
X153234564Y-33576046D01*
X153287342Y-33575537D01*
X153340126Y-33575108D01*
X153392915Y-33574759D01*
X153445711Y-33574490D01*
X153498513Y-33574301D01*
X153551320Y-33574192D01*
X153604134Y-33574163D01*
X153656953Y-33574214D01*
X153709778Y-33574345D01*
X153762608Y-33574556D01*
X153815444Y-33574847D01*
X153868286Y-33575218D01*
X153921134Y-33575668D01*
X153973987Y-33576199D01*
X154026846Y-33576810D01*
X154079710Y-33577501D01*
X154132580Y-33578272D01*
X154185455Y-33579123D01*
X154238336Y-33580054D01*
X154291222Y-33581065D01*
X154344113Y-33582157D01*
X154397010Y-33583328D01*
X154449912Y-33584579D01*
X154502819Y-33585911D01*
X154555732Y-33587323D01*
X154608650Y-33588815D01*
X154661573Y-33590387D01*
X154714501Y-33592039D01*
X154767434Y-33593771D01*
X154820373Y-33595584D01*
X154873316Y-33597476D01*
X154926265Y-33599449D01*
X154979218Y-33601502D01*
X155032176Y-33603635D01*
X155085139Y-33605849D01*
X155138107Y-33608143D01*
X155191080Y-33610517D01*
X155244058Y-33612971D01*
X155297040Y-33615506D01*
X155350027Y-33618121D01*
X155403019Y-33620816D01*
X155456015Y-33623591D01*
X155509016Y-33626447D01*
X155562022Y-33629383D01*
X155615032Y-33632399D01*
X155668046Y-33635496D01*
X155721065Y-33638673D01*
X155774088Y-33641931D01*
X155827116Y-33645269D01*
X155880147Y-33648687D01*
X155933184Y-33652186D01*
X155986224Y-33655765D01*
X156039268Y-33659425D01*
X156092317Y-33663165D01*
X156145370Y-33666985D01*
X156198426Y-33670886D01*
X156251487Y-33674868D01*
X156304552Y-33678929D01*
X156357620Y-33683072D01*
X156410693Y-33687295D01*
X156463769Y-33691598D01*
X156516849Y-33695982D01*
X156569932Y-33700447D01*
X156623020Y-33704992D01*
X156676111Y-33709618D01*
X156729205Y-33714324D01*
X156782303Y-33719111D01*
X156835405Y-33723978D01*
X156888510Y-33728926D01*
X156941618Y-33733955D01*
X156994730Y-33739064D01*
X157047845Y-33744254D01*
X157100963Y-33749525D01*
X157154084Y-33754876D01*
X157207209Y-33760308D01*
X157260336Y-33765821D01*
X157313467Y-33771414D01*
X157366600Y-33777089D01*
X157419737Y-33782844D01*
X157472876Y-33788679D01*
X157526018Y-33794596D01*
X157579163Y-33800593D01*
X157632310Y-33806671D01*
X157685460Y-33812829D01*
X157738613Y-33819069D01*
X157791768Y-33825389D01*
X157844926Y-33831790D01*
X157898086Y-33838273D01*
X157951249Y-33844835D01*
X158004414Y-33851479D01*
X158057581Y-33858204D01*
X158110750Y-33865009D01*
X158163921Y-33871896D01*
X158217095Y-33878863D01*
X158270270Y-33885911D01*
X158323447Y-33893040D01*
X158376627Y-33900250D01*
X158429808Y-33907541D01*
X158482991Y-33914913D01*
X158536175Y-33922366D01*
X158589361Y-33929900D01*
X158642549Y-33937515D01*
X158695739Y-33945211D01*
X158748929Y-33952988D01*
X158802121Y-33960846D01*
X158855315Y-33968785D01*
X158908509Y-33976805D01*
X158961705Y-33984906D01*
X159014902Y-33993088D01*
X159068100Y-34001351D01*
X159121299Y-34009695D01*
X159174499Y-34018121D01*
X159227700Y-34026627D01*
X159280902Y-34035215D01*
X159334104Y-34043884D01*
X159387307Y-34052633D01*
X159440511Y-34061464D01*
X159493715Y-34070377D01*
X159546919Y-34079370D01*
X159600124Y-34088444D01*
X159653329Y-34097600D01*
X159706535Y-34106837D01*
X159759740Y-34116155D01*
X159812946Y-34125554D01*
X159866152Y-34135034D01*
X159919357Y-34144596D01*
X159972562Y-34154239D01*
X160025768Y-34163963D01*
X160078973Y-34173768D01*
X160132177Y-34183655D01*
X160185381Y-34193623D01*
X160238585Y-34203672D01*
X160291788Y-34213802D01*
X160344990Y-34224014D01*
X160398191Y-34234307D01*
X160451392Y-34244681D01*
X160504592Y-34255136D01*
X160557791Y-34265673D01*
X160610988Y-34276291D01*
X160664185Y-34286991D01*
X160717380Y-34297771D01*
X160770574Y-34308633D01*
X160823767Y-34319577D01*
X160876958Y-34330602D01*
X160930147Y-34341708D01*
X160983335Y-34352895D01*
X161036521Y-34364164D01*
X161089706Y-34375514D01*
X161142888Y-34386946D01*
X161196068Y-34398458D01*
X161249247Y-34410053D01*
X161302423Y-34421728D01*
X161355597Y-34433485D01*
X161408768Y-34445324D01*
X161461937Y-34457243D01*
X161515104Y-34469245D01*
X161568268Y-34481327D01*
X161621429Y-34493491D01*
X161674587Y-34505736D01*
X161727743Y-34518063D01*
X161780896Y-34530471D01*
X161834045Y-34542961D01*
X161887191Y-34555532D01*
X161940335Y-34568184D01*
X161993474Y-34580918D01*
X162046611Y-34593733D01*
X162099743Y-34606630D01*
X162152872Y-34619607D01*
X162205998Y-34632667D01*
X162259119Y-34645808D01*
X162312237Y-34659030D01*
X162365350Y-34672333D01*
X162418460Y-34685718D01*
X162471565Y-34699185D01*
X162524666Y-34712733D01*
X162577762Y-34726362D01*
X162630854Y-34740072D01*
X162683942Y-34753864D01*
X162737024Y-34767738D01*
X162790102Y-34781693D01*
X162843175Y-34795729D01*
X162896242Y-34809846D01*
X162949305Y-34824045D01*
X163002362Y-34838326D01*
X163055414Y-34852687D01*
X163108461Y-34867130D01*
X163161502Y-34881655D01*
X163214537Y-34896261D01*
X163267566Y-34910948D01*
X163320590Y-34925716D01*
X163373608Y-34940566D01*
X163426619Y-34955497D01*
X163479624Y-34970510D01*
X163532623Y-34985603D01*
X163585616Y-35000779D01*
X163638601Y-35016035D01*
X163691581Y-35031373D01*
X163744553Y-35046792D01*
X163797518Y-35062292D01*
X163850477Y-35077873D01*
X163903428Y-35093536D01*
X163956372Y-35109280D01*
X164009309Y-35125106D01*
X164062238Y-35141012D01*
X164115160Y-35157000D01*
X164168074Y-35173069D01*
X164220980Y-35189219D01*
X164273878Y-35205450D01*
X164326768Y-35221763D01*
X164379650Y-35238156D01*
X164432523Y-35254631D01*
X164485388Y-35271187D01*
X164538245Y-35287824D01*
X164591093Y-35304542D01*
X164643932Y-35321341D01*
X164696762Y-35338222D01*
X164749583Y-35355183D01*
X164802395Y-35372225D01*
X164855197Y-35389349D01*
X164907990Y-35406553D01*
X164960773Y-35423839D01*
X165013547Y-35441205D01*
X165066311Y-35458652D01*
X165119065Y-35476180D01*
X165171809Y-35493790D01*
X165224543Y-35511480D01*
X165277266Y-35529251D01*
X165329979Y-35547102D01*
X165382681Y-35565035D01*
X165435372Y-35583048D01*
X165488053Y-35601143D01*
X165540722Y-35619318D01*
X165593380Y-35637573D01*
X165646028Y-35655910D01*
X165698663Y-35674327D01*
X165751287Y-35692825D01*
X165803899Y-35711403D01*
X165856500Y-35730062D01*
X165909088Y-35748802D01*
X165961665Y-35767622D01*
X166014229Y-35786523D01*
X166066780Y-35805504D01*
X166119319Y-35824566D01*
X166171846Y-35843709D01*
X166224359Y-35862931D01*
X166276860Y-35882234D01*
X166329347Y-35901618D01*
X166381821Y-35921082D01*
X166434282Y-35940626D01*
X166486729Y-35960250D01*
X166539163Y-35979955D01*
X166591582Y-35999740D01*
X166643988Y-36019605D01*
X166696379Y-36039550D01*
X166748756Y-36059575D01*
X166801119Y-36079681D01*
X166853467Y-36099866D01*
X166905800Y-36120132D01*
X166958118Y-36140477D01*
X167010421Y-36160903D01*
X167062709Y-36181408D01*
X167114982Y-36201993D01*
X167167239Y-36222658D01*
X167219480Y-36243403D01*
X167271705Y-36264227D01*
X167323915Y-36285131D01*
X167376108Y-36306115D01*
X167428285Y-36327179D01*
X167480445Y-36348322D01*
X167532589Y-36369544D01*
X167584716Y-36390847D01*
X167636826Y-36412228D01*
X167688918Y-36433689D01*
X167740994Y-36455229D01*
X167793052Y-36476849D01*
X167845092Y-36498548D01*
X167897114Y-36520326D01*
X167949119Y-36542183D01*
X168001105Y-36564119D01*
X168053073Y-36586135D01*
X168105023Y-36608229D01*
X168156954Y-36630403D01*
X168208866Y-36652655D01*
X168260759Y-36674986D01*
X168312633Y-36697396D01*
X168364488Y-36719885D01*
X168416323Y-36742453D01*
X168468138Y-36765099D01*
X168519934Y-36787823D01*
X168571710Y-36810627D01*
X168623465Y-36833508D01*
X168675200Y-36856469D01*
X168726914Y-36879507D01*
X168778608Y-36902624D01*
X168830281Y-36925819D01*
X168881932Y-36949092D01*
X168933563Y-36972444D01*
X168985172Y-36995873D01*
X169036759Y-37019381D01*
X169060000Y-37030000D01*
M02*
